<?xml version="1.0" standalone="no"?>
<!DOCTYPE svg PUBLIC "-//W3C//DTD SVG 20010904//EN"
 "http://www.w3.org/TR/2001/REC-SVG-20010904/DTD/svg10.dtd">
<svg version="1.0" xmlns="http://www.w3.org/2000/svg"
 width="894.000000pt" height="894.000000pt" viewBox="0 0 894.000000 894.000000"
 preserveAspectRatio="xMidYMid meet">
<metadata>
Created by potrace 1.14, written by Peter Selinger 2001-2017
</metadata>
<g transform="translate(0.000000,894.000000) scale(0.100000,-0.100000)"
fill="#000000" stroke="none">
<path d="M5192 7897 c-7 -18 -11 -32 -10 -32 2 0 -7 -14 -20 -32 -12 -17 -22
-35 -22 -41 0 -5 -9 -21 -20 -35 -12 -15 -20 -29 -20 -32 1 -6 -92 -197 -100
-205 -3 -3 -18 -33 -34 -68 -22 -46 -34 -61 -45 -57 -13 5 -13 4 -4 -6 10 -10
8 -21 -10 -53 -12 -23 -25 -43 -29 -46 -3 -3 -10 -18 -13 -33 -4 -16 -13 -31
-21 -34 -7 -2 -10 -11 -7 -19 3 -8 0 -14 -6 -14 -6 0 -11 -5 -11 -10 0 -18
-63 -140 -72 -140 -4 0 -7 -3 -6 -7 6 -18 -26 -74 -38 -69 -8 3 -14 1 -14 -3
0 -5 6 -11 12 -13 10 -4 8 -9 -3 -21 -9 -9 -20 -13 -24 -9 -5 4 -5 1 -1 -5 7
-13 -20 -82 -33 -84 -23 -3 -44 -8 -49 -14 -4 -3 6 -4 21 -1 33 6 35 -6 5 -28
-13 -9 -17 -14 -10 -11 16 8 15 5 -3 -32 -10 -19 -22 -30 -33 -28 -9 1 -11 0
-4 -2 14 -5 16 -19 3 -28 -5 -3 -12 -19 -16 -35 -7 -32 -14 -36 -33 -20 -9 7
-9 7 -2 -2 14 -17 13 -41 -2 -32 -6 4 -8 3 -4 -4 6 -11 -30 -92 -47 -103 -5
-3 -8 -10 -8 -15 1 -17 -93 -193 -100 -188 -4 2 -7 -4 -7 -13 1 -10 -17 -52
-38 -94 -27 -53 -44 -74 -54 -71 -12 4 -12 2 -3 -8 9 -10 8 -20 -4 -44 -9 -17
-21 -34 -27 -38 -6 -4 -7 -8 -3 -8 5 0 -1 -13 -12 -29 -11 -15 -18 -31 -15
-34 3 -3 -3 -10 -14 -16 -11 -6 -22 -7 -26 -4 -3 3 -6 1 -6 -6 0 -8 7 -11 15
-7 8 3 15 2 15 -2 -1 -14 -28 -42 -41 -42 -12 0 -12 -2 0 -9 8 -5 9 -11 3 -15
-6 -3 -13 -2 -17 4 -3 5 -11 10 -17 10 -5 0 -1 -8 11 -17 20 -17 20 -20 6 -40
-14 -21 -52 -22 -39 -2 3 5 0 9 -5 9 -18 0 -12 -17 12 -34 12 -9 16 -14 8 -10
-10 5 -13 3 -8 -9 3 -8 0 -20 -7 -26 -6 -5 -18 -26 -26 -45 -7 -19 -18 -32
-23 -29 -5 3 -7 0 -5 -8 3 -8 -4 -32 -15 -53 -18 -33 -22 -36 -27 -20 -5 12
-1 24 9 31 15 12 14 14 -1 26 -10 8 -14 18 -10 22 4 5 1 5 -7 0 -11 -7 -11
-11 5 -22 18 -13 18 -15 2 -24 -13 -7 -15 -15 -8 -33 10 -26 3 -66 -11 -66 -5
0 -9 -5 -9 -11 0 -13 -31 -82 -40 -89 -6 -4 -16 -27 -22 -48 -1 -4 -8 -13 -15
-20 -7 -8 -10 -18 -7 -24 5 -7 2 -8 -6 -3 -10 6 -12 4 -7 -9 4 -10 1 -19 -8
-22 -8 -4 -12 -10 -9 -15 3 -5 0 -9 -6 -9 -7 0 -9 -7 -6 -16 5 -12 1 -14 -15
-9 -13 4 -28 0 -41 -12 -20 -18 -21 -18 -14 7 6 20 5 22 -4 8 -5 -9 -7 -23 -4
-32 5 -13 9 -12 23 6 13 16 23 19 37 13 18 -8 18 -8 1 -12 -10 -3 -28 -15 -41
-28 -23 -23 -23 -25 -5 -30 25 -8 24 -22 -1 -30 -12 -4 -17 -11 -14 -18 5 -9
4 -9 -6 0 -15 13 -4 36 13 27 7 -4 7 -1 -1 7 -11 12 -15 11 -24 -5 -8 -15 -12
-16 -19 -5 -6 10 -9 10 -9 2 0 -7 8 -16 17 -22 10 -5 15 -13 10 -17 -4 -4 -15
0 -25 9 -10 10 -26 17 -36 17 -9 0 -15 4 -12 8 2 4 1 13 -3 20 -4 8 -11 5 -20
-9 -7 -12 -8 -18 -2 -15 5 4 12 2 16 -4 3 -5 14 -10 24 -10 29 0 45 -25 26
-40 -8 -7 -15 -10 -15 -6 0 3 -12 -4 -26 -17 -14 -12 -30 -22 -35 -22 -5 0
-13 -5 -17 -11 -12 -17 -100 -73 -106 -66 -4 3 6 14 21 24 16 10 24 18 18 18
-19 -1 -50 -31 -50 -48 0 -9 -6 -16 -12 -14 -7 1 -13 -2 -13 -6 0 -9 -95 -74
-105 -72 -3 0 -17 -12 -30 -26 -14 -15 -25 -23 -25 -19 0 4 -9 0 -20 -10 -11
-10 -20 -15 -20 -12 0 6 -9 -1 -61 -48 -9 -8 -20 -15 -26 -15 -6 0 -16 -7 -23
-15 -17 -20 -31 -19 -23 3 3 9 3 14 -1 10 -4 -3 -9 -13 -10 -22 -2 -16 -54
-58 -93 -75 -13 -6 -23 -16 -23 -22 0 -6 -7 -9 -15 -5 -8 3 -15 1 -15 -5 0 -6
-7 -9 -15 -5 -8 3 -14 2 -14 -2 3 -21 -3 -30 -26 -36 -14 -4 -25 -11 -25 -16
0 -6 -5 -10 -10 -10 -6 0 -23 -11 -38 -25 -15 -14 -33 -23 -40 -20 -8 3 -10 0
-6 -7 5 -7 2 -9 -7 -6 -12 5 -15 -2 -12 -28 1 -19 5 -39 9 -45 6 -11 17 -63
18 -91 0 -10 4 -18 9 -18 5 0 3 -8 -4 -17 -10 -11 -10 -14 -1 -9 8 4 13 1 14
-11 1 -18 4 -31 8 -45 1 -5 4 -12 5 -18 1 -5 3 -11 5 -12 2 -4 9 -36 14 -68 2
-14 9 -38 15 -53 7 -17 7 -26 1 -22 -6 3 -10 1 -10 -4 0 -6 4 -11 9 -11 5 0
15 -26 21 -57 6 -32 15 -69 20 -83 5 -14 11 -36 12 -50 2 -14 7 -31 11 -37 5
-7 6 -13 3 -13 -3 0 -1 -11 4 -24 6 -16 5 -28 -3 -36 -9 -10 -9 -11 0 -6 14 7
26 -30 26 -76 0 -15 5 -24 10 -21 6 4 8 -3 5 -15 -4 -12 -2 -22 4 -22 5 0 8
-6 5 -12 -2 -7 0 -21 5 -31 5 -11 5 -17 -2 -17 -5 0 -10 -5 -10 -11 0 -5 5 -7
10 -4 10 6 14 -15 11 -44 -2 -7 2 -11 6 -8 5 3 10 -4 11 -16 5 -39 9 -62 12
-62 1 0 4 -9 6 -20 4 -26 12 -60 14 -60 1 0 3 -9 4 -20 2 -11 6 -31 10 -44 6
-16 5 -21 -3 -17 -14 9 -25 -18 -17 -40 5 -12 10 -13 19 -6 9 8 15 2 23 -24 6
-19 7 -34 3 -34 -5 0 -9 5 -9 12 0 6 -3 8 -7 4 -5 -4 0 -14 10 -21 10 -7 19
-27 19 -44 1 -17 4 -29 7 -26 4 2 8 -10 9 -27 1 -17 6 -36 9 -42 14 -21 11
-36 -8 -46 -10 -6 -19 -15 -19 -21 0 -6 7 -3 16 5 19 20 31 20 31 2 0 -8 -7
-12 -16 -9 -13 4 -12 2 2 -10 22 -18 48 -112 34 -126 -12 -12 -39 -2 -30 12 4
6 1 7 -7 2 -10 -6 -9 -11 5 -21 12 -9 22 -10 30 -4 7 5 15 7 18 3 4 -3 -1 -12
-11 -20 -9 -8 -12 -12 -7 -9 6 2 17 -4 23 -15 11 -17 10 -20 -5 -17 -23 4 -25
-43 -3 -49 9 -3 11 -1 5 4 -17 14 -18 43 0 37 8 -3 15 -14 15 -24 0 -11 5 -22
10 -25 6 -4 8 -10 5 -15 -3 -5 -1 -19 5 -30 10 -19 9 -20 -14 -14 -16 4 -26 2
-26 -5 0 -6 8 -8 18 -4 14 5 15 3 5 -8 -7 -7 -13 -18 -13 -24 0 -5 5 -2 11 8
13 22 30 22 22 0 -4 -10 -2 -14 4 -10 10 6 13 -11 14 -66 0 -9 4 -15 8 -13 4
3 8 -9 9 -27 2 -17 8 -37 14 -44 7 -9 7 -13 -1 -13 -6 0 -11 -5 -11 -11 0 -5
4 -8 8 -5 5 3 9 0 10 -7 0 -7 3 -23 7 -37 3 -14 7 -30 9 -37 1 -7 5 -15 9 -19
4 -4 -1 -13 -11 -21 -9 -7 -12 -13 -7 -12 22 3 29 -2 15 -11 -13 -8 -12 -10 3
-10 10 0 16 -4 12 -9 -3 -5 0 -13 5 -16 7 -5 5 -12 -7 -21 -17 -13 -17 -14 0
-8 13 5 16 2 11 -10 -3 -9 -2 -16 3 -16 5 0 10 -14 11 -32 2 -17 8 -38 14 -45
8 -9 7 -18 -3 -30 -10 -11 -10 -14 -1 -9 6 4 12 4 13 -1 0 -4 2 -15 4 -23 2
-8 6 -28 10 -45 9 -44 13 -60 15 -60 1 0 4 -16 7 -35 2 -19 9 -38 15 -41 6 -4
0 -13 -13 -23 -13 -9 -18 -16 -12 -16 7 0 15 5 19 12 8 13 42 -106 39 -139 -1
-13 1 -23 5 -23 7 0 15 -29 24 -85 2 -11 7 -28 11 -37 4 -9 4 -22 0 -28 -3 -5
-2 -10 2 -10 7 0 36 -109 50 -184 2 -11 5 -22 7 -24 4 -3 32 17 61 46 8 6 16
12 20 12 3 0 23 16 43 35 20 19 43 33 50 30 7 -3 11 -1 8 4 -3 4 8 17 23 29
22 16 31 18 42 9 11 -10 11 -9 0 5 -10 14 -9 18 7 27 11 6 23 7 27 3 5 -4 5
-2 1 5 -4 7 12 24 41 44 27 18 54 39 61 46 8 7 18 10 24 7 6 -4 8 -2 5 3 -4 6
0 16 8 23 8 7 15 9 15 5 0 -4 13 7 30 25 18 19 34 29 42 24 7 -4 10 -4 6 1 -9
9 7 26 57 59 31 22 41 24 54 14 14 -12 14 -11 2 4 -12 16 -10 20 10 38 22 17
41 24 61 21 4 0 4 7 1 16 -4 11 -3 14 5 9 7 -4 12 -1 12 9 0 9 5 13 10 10 6
-3 10 -2 10 3 0 13 89 74 99 67 5 -3 13 0 17 6 5 8 3 9 -6 4 -8 -5 -11 -3 -8
6 3 8 13 13 23 11 9 -2 15 0 12 5 -3 4 1 14 9 21 13 12 18 8 15 -11 -1 -5 3
-6 9 -2 6 3 8 11 4 16 -7 12 12 36 40 51 20 11 20 10 6 -8 -14 -18 -14 -18 3
-5 9 7 17 20 17 29 0 8 3 12 6 9 4 -3 15 5 26 18 11 14 24 23 29 20 5 -4 9 -1
9 4 0 6 8 11 17 11 9 0 14 3 10 6 -3 4 0 13 8 20 17 17 28 18 20 2 -4 -7 0 -4
9 7 28 37 37 45 46 45 5 0 8 -6 6 -12 -1 -7 -1 -10 1 -5 3 4 9 5 13 2 5 -3 12
0 16 6 4 7 3 9 -4 5 -5 -3 -12 0 -15 6 -3 12 58 67 75 68 4 0 8 -10 10 -22 2
-15 10 -22 30 -22 14 -1 24 2 21 7 -3 5 -13 7 -23 4 -13 -3 -19 2 -23 22 -3
14 -5 26 -4 27 1 0 20 14 43 32 38 29 42 30 62 16 13 -9 22 -11 22 -5 0 6 -5
11 -12 11 -6 0 -3 10 8 23 l19 22 -22 -19 c-13 -11 -23 -15 -23 -10 0 13 39
36 50 29 6 -4 10 -14 11 -23 0 -10 3 -12 5 -5 3 7 0 22 -6 34 -8 15 -9 19 -1
15 6 -4 11 -2 11 3 0 6 9 11 19 11 11 0 23 4 26 10 4 6 -1 7 -12 3 -16 -5 47
47 86 72 8 6 21 17 28 25 12 13 13 13 11 0 -2 -8 -7 -19 -13 -23 -6 -5 -4 -7
4 -5 8 2 16 15 18 28 5 32 10 35 28 20 13 -11 15 -10 10 2 -7 18 30 53 45 43
7 -4 9 -18 6 -34 -6 -23 -5 -24 5 -7 9 15 9 24 0 38 -9 15 -8 20 4 24 8 3 12
10 9 15 -3 5 -1 9 5 9 19 0 21 -19 4 -29 -16 -9 -16 -10 4 -8 12 0 20 4 17 8
-2 4 2 10 8 12 10 4 10 6 1 6 -7 1 -13 9 -12 19 0 11 2 13 6 4 4 -10 9 -7 17
10 7 12 18 22 24 21 7 -2 12 3 12 11 0 17 27 29 35 15 4 -5 11 -7 16 -4 5 4 9
2 9 -2 0 -5 6 -17 13 -28 11 -14 16 -15 22 -5 6 9 4 11 -5 5 -10 -6 -12 -4 -7
9 4 9 3 15 -2 12 -12 -8 -21 18 -11 34 4 7 13 9 19 6 6 -4 11 -2 11 4 0 7 7 9
16 6 9 -3 21 -3 27 1 20 12 41 13 54 1 10 -8 12 -7 7 5 -4 11 0 15 13 13 10
-2 24 2 32 8 12 9 13 8 7 -4 -4 -8 -1 -7 7 3 12 14 17 15 23 5 5 -7 9 -16 9
-20 0 -3 4 -10 9 -15 6 -5 6 -2 1 6 -6 11 -4 13 11 8 14 -6 13 -2 -6 14 -24
20 -25 21 -2 16 12 -3 22 -1 22 5 0 6 9 8 20 5 10 -3 20 -1 22 5 2 5 21 11 42
14 21 2 43 7 48 10 9 6 51 15 81 17 9 1 17 4 17 8 0 4 8 6 18 5 9 -2 20 2 24
8 5 7 8 6 8 -4 0 -10 3 -11 8 -4 10 16 86 29 76 13 -4 -8 -3 -10 5 -5 6 4 9
12 6 17 -5 8 29 14 38 7 2 -2 10 2 18 8 8 6 22 10 32 9 9 -2 15 0 12 5 -6 10
-18 78 -19 112 -1 14 -4 24 -8 21 -5 -2 -8 1 -8 6 0 6 6 11 13 11 9 0 9 2 0 8
-6 4 -14 23 -16 42 -3 19 -6 35 -7 35 -1 0 -3 15 -6 34 -7 55 -12 80 -19 91
-3 5 0 10 7 10 9 0 10 2 2 8 -11 6 -17 32 -29 107 -4 27 -13 74 -20 107 -6 23
-4 27 14 23 12 -2 21 1 21 7 0 5 -6 8 -14 5 -20 -8 -39 18 -31 43 3 11 2 20
-3 20 -15 0 -8 33 8 38 8 3 10 0 5 -8 -5 -9 -4 -11 3 -6 16 10 15 14 -9 27
-15 8 -19 8 -15 0 4 -6 3 -11 -3 -11 -5 0 -9 9 -8 19 0 11 6 17 12 14 5 -4 2
2 -7 13 -9 10 -16 22 -16 27 0 4 -3 33 -8 65 -4 31 -7 61 -5 66 1 4 -4 14 -10
22 -9 11 -9 14 1 14 8 0 9 4 3 13 -14 18 -33 124 -26 144 5 12 3 14 -8 8 -8
-4 -11 -5 -7 0 4 4 3 16 -3 26 -5 11 -6 19 -2 18 20 -3 27 2 14 10 -19 12 -23
38 -6 44 16 7 13 53 -3 49 -14 -2 -28 28 -35 76 -3 17 -8 35 -11 41 -3 5 0 12
6 14 10 4 10 7 0 14 -13 10 -25 75 -24 133 1 25 -2 30 -8 20 -8 -12 -10 -11
-10 5 0 12 6 27 13 34 10 11 9 13 -5 8 -12 -4 -15 -2 -11 9 3 8 -1 21 -8 30
-11 13 -10 15 6 12 10 -1 20 4 22 12 3 11 2 11 -4 3 -6 -8 -14 -9 -23 -3 -13
9 -13 10 0 10 10 0 11 3 4 8 -6 4 -14 24 -18 45 -4 21 -10 45 -13 53 -4 10 0
12 11 8 9 -3 13 -10 10 -15 -3 -5 3 -6 13 -2 16 6 16 4 -2 -18 l-20 -24 23 19
c12 11 22 21 22 22 0 2 -17 13 -37 24 -21 12 -30 19 -21 16 15 -4 15 -1 -3 31
-19 33 -19 35 -2 29 16 -5 16 -4 3 6 -15 13 -23 41 -24 86 -1 12 -4 22 -8 22
-5 0 -8 5 -8 11 0 5 5 7 10 4 6 -3 10 -1 10 4 0 6 -5 11 -11 11 -6 0 -9 7 -5
15 3 8 2 15 -2 15 -4 0 -8 9 -9 20 -1 11 3 20 8 20 6 0 7 -4 4 -10 -3 -6 -2
-10 3 -10 11 0 11 65 0 71 -3 2 -10 0 -15 -5 -4 -5 -3 -6 4 -2 8 4 11 -1 10
-14 -1 -11 -6 -20 -12 -20 -14 0 -18 47 -4 55 5 4 7 15 4 26 -5 15 -3 18 12
13 14 -5 15 -4 3 4 -20 15 -32 4 -24 -20 4 -15 3 -18 -6 -13 -6 4 -10 18 -7
31 2 13 1 25 -4 26 -4 2 -9 23 -12 48 -3 25 -8 52 -11 60 -11 30 -15 70 -5 65
5 -4 9 -2 9 4 0 5 -5 11 -12 13 -11 4 -19 43 -20 101 0 15 -5 27 -10 27 -5 0
-7 4 -3 10 3 5 13 7 23 4 14 -5 14 -4 2 4 -8 6 -17 9 -21 6 -12 -7 -6 80 5 88
6 4 7 11 2 15 -5 4 -11 2 -13 -4 -3 -7 -9 -13 -15 -13 -6 0 -8 6 -5 13 3 8 1
20 -3 27 -6 9 -2 19 8 28 9 7 11 11 5 7 -12 -5 -18 6 -14 28 0 4 -5 7 -11 8
-7 0 -3 4 10 9 19 8 21 12 10 29 -7 11 -14 18 -17 16 -2 -3 2 -11 9 -20 10
-12 10 -15 -3 -15 -17 0 -29 57 -13 64 6 3 5 5 -2 5 -7 1 -10 6 -7 11 3 6 2
10 -3 10 -5 0 -8 14 -7 30 1 17 -1 30 -6 30 -5 0 -9 5 -9 11 0 5 6 7 13 3 9
-6 9 -5 0 7 -13 16 -27 79 -26 117 1 12 -2 22 -6 22 -8 0 -10 9 -12 58 -1 15
-5 35 -10 45 -7 12 -6 17 5 17 8 0 17 4 20 9 4 5 -3 7 -14 4 -12 -3 -20 0 -20
6 0 7 4 10 9 6 6 -3 15 5 21 17 10 20 9 21 -3 6 -22 -27 -43 -1 -24 30 5 8 4
11 -3 10 -16 -4 -22 52 -8 69 8 10 7 12 -5 7 -12 -4 -15 -1 -12 15 2 12 0 21
-5 21 -4 0 -7 11 -6 24 2 14 0 30 -5 37 -4 8 -3 20 4 28 8 10 8 13 1 8 -7 -4
-14 2 -17 13 -3 11 -1 18 4 14 5 -3 9 0 9 5 0 6 -6 11 -12 11 -9 0 -8 4 2 10
12 8 12 10 -5 10 -15 0 -17 2 -6 9 10 6 10 10 1 16 -9 6 -9 10 1 16 12 7 12 9
0 9 -7 0 -11 6 -7 15 3 8 1 15 -4 15 -6 0 -10 13 -10 29 0 16 -5 42 -10 57 -8
19 -7 31 2 42 8 9 8 13 2 9 -16 -9 -24 38 -10 54 8 9 8 10 0 6 -15 -9 -24 15
-24 64 0 22 -5 39 -11 39 -8 0 -8 4 0 14 8 10 8 20 -3 40 -7 15 -12 40 -11 56
1 17 -1 30 -5 30 -4 0 -11 24 -14 53 -4 28 -8 54 -8 57 -10 43 -20 91 -23 115
-3 17 -9 50 -15 75 -5 25 -12 59 -14 75 -3 17 -8 41 -12 54 -6 19 -4 22 7 16
12 -7 12 -6 1 7 -7 9 -15 31 -17 49 -3 19 -9 48 -14 66 -5 17 -7 34 -4 36 2 3
0 14 -5 24 -6 10 -13 38 -16 63 -3 25 -8 56 -11 70 -3 14 -8 39 -10 55 -7 49
-22 128 -25 133 -2 1 -3 6 -4 11 -3 23 -13 18 -24 -12z m-1392 -2722 c-7 -8
-17 -15 -23 -15 -5 0 -2 9 8 20 21 23 35 19 15 -5z m2137 -1077 c-1 -10 -7
-18 -14 -18 -7 0 -13 8 -13 18 0 10 6 19 14 19 8 0 14 -9 13 -19z m-2847 -913
c0 -1 -7 -8 -15 -15 -13 -10 -15 -9 -15 8 0 15 5 20 15 16 8 -4 15 -7 15 -9z
m2310 -529 c0 -3 -4 -8 -10 -11 -5 -3 -10 -1 -10 4 0 6 5 11 10 11 6 0 10 -2
10 -4z"/>
<path d="M5430 7300 c0 -5 5 -10 11 -10 5 0 7 5 4 10 -3 6 -8 10 -11 10 -2 0
-4 -4 -4 -10z"/>
<path d="M5396 7253 c-6 -14 -5 -15 5 -6 7 7 10 15 7 18 -3 3 -9 -2 -12 -12z"/>
<path d="M5570 7179 c0 -5 5 -7 10 -4 6 3 10 8 10 11 0 2 -4 4 -10 4 -5 0 -10
-5 -10 -11z"/>
<path d="M5515 7060 c3 -5 8 -10 11 -10 2 0 4 5 4 10 0 6 -5 10 -11 10 -5 0
-7 -4 -4 -10z"/>
<path d="M4655 7039 c-3 -4 2 -6 10 -5 21 3 28 13 10 13 -9 0 -18 -4 -20 -8z"/>
<path d="M4610 7000 c0 -5 5 -10 11 -10 5 0 7 5 4 10 -3 6 -8 10 -11 10 -2 0
-4 -4 -4 -10z"/>
<path d="M5454 6976 c1 -8 5 -18 8 -22 4 -3 5 1 4 10 -1 8 -5 18 -8 22 -4 3
-5 -1 -4 -10z"/>
<path d="M5430 6919 c0 -5 5 -7 10 -4 6 3 10 8 10 11 0 2 -4 4 -10 4 -5 0 -10
-5 -10 -11z"/>
<path d="M5535 6881 c-3 -5 -2 -12 3 -15 5 -3 9 1 9 9 0 17 -3 19 -12 6z"/>
<path d="M4619 6853 c-13 -17 -13 -17 6 -3 11 8 22 16 24 17 2 2 0 3 -6 3 -6
0 -17 -8 -24 -17z"/>
<path d="M5606 6862 c-3 -5 1 -9 9 -9 8 0 12 4 9 9 -3 4 -7 8 -9 8 -2 0 -6 -4
-9 -8z"/>
<path d="M4455 6840 c-3 -5 -1 -10 4 -10 6 0 11 5 11 10 0 6 -2 10 -4 10 -3 0
-8 -4 -11 -10z"/>
<path d="M5535 6839 c-3 -4 2 -6 10 -5 21 3 28 13 10 13 -9 0 -18 -4 -20 -8z"/>
<path d="M4419 6828 c-5 -18 -6 -38 -1 -34 7 8 12 36 6 36 -2 0 -4 -1 -5 -2z"/>
<path d="M5467 6799 c7 -7 15 -10 18 -7 3 3 -2 9 -12 12 -14 6 -15 5 -6 -5z"/>
<path d="M4365 6780 c-3 -6 1 -7 9 -4 18 7 21 14 7 14 -6 0 -13 -4 -16 -10z"/>
<path d="M4538 6748 c15 -19 49 -20 49 -1 0 9 -4 10 -14 2 -10 -9 -18 -8 -30
2 -16 13 -17 12 -5 -3z"/>
<path d="M5479 6758 c-5 -9 -5 -48 -1 -43 6 6 11 45 5 45 -2 0 -4 -1 -4 -2z"/>
<path d="M5614 6736 c1 -8 5 -18 8 -22 4 -3 5 1 4 10 -1 8 -5 18 -8 22 -4 3
-5 -1 -4 -10z"/>
<path d="M4510 6736 c0 -2 8 -10 18 -17 15 -13 16 -12 3 4 -13 16 -21 21 -21
13z"/>
<path d="M4335 6719 c-3 -4 2 -6 10 -5 21 3 28 13 10 13 -9 0 -18 -4 -20 -8z"/>
<path d="M5506 6722 c-3 -5 1 -9 9 -9 8 0 12 4 9 9 -3 4 -7 8 -9 8 -2 0 -6 -4
-9 -8z"/>
<path d="M4020 6706 c0 -2 8 -10 18 -17 15 -13 16 -12 3 4 -13 16 -21 21 -21
13z"/>
<path d="M4386 6702 c-3 -5 1 -9 9 -9 8 0 12 4 9 9 -3 4 -7 8 -9 8 -2 0 -6 -4
-9 -8z"/>
<path d="M5636 6702 c-3 -5 1 -9 9 -9 8 0 12 4 9 9 -3 4 -7 8 -9 8 -2 0 -6 -4
-9 -8z"/>
<path d="M4294 6682 c4 -3 14 -7 22 -8 9 -1 13 0 10 4 -4 3 -14 7 -22 8 -9 1
-13 0 -10 -4z"/>
<path d="M4430 6686 c0 -2 7 -7 16 -10 8 -3 12 -2 9 4 -6 10 -25 14 -25 6z"/>
<path d="M5460 6686 c0 -2 8 -10 18 -17 15 -13 16 -12 3 4 -13 16 -21 21 -21
13z"/>
<path d="M4490 6676 c0 -2 8 -10 18 -17 15 -13 16 -12 3 4 -13 16 -21 21 -21
13z"/>
<path d="M4426 6662 c-3 -5 1 -9 9 -9 8 0 12 4 9 9 -3 4 -7 8 -9 8 -2 0 -6 -4
-9 -8z"/>
<path d="M5526 6658 c3 -5 10 -6 15 -3 13 9 11 12 -6 12 -8 0 -12 -4 -9 -9z"/>
<path d="M4375 6631 c-3 -5 -2 -12 3 -15 5 -3 9 1 9 9 0 17 -3 19 -12 6z"/>
<path d="M4416 6627 c3 -10 9 -15 12 -12 3 3 0 11 -7 18 -10 9 -11 8 -5 -6z"/>
<path d="M5576 6627 c3 -10 9 -15 12 -12 3 3 0 11 -7 18 -10 9 -11 8 -5 -6z"/>
<path d="M4481 6616 c-9 -10 -9 -16 -1 -21 6 -4 14 -4 17 -1 4 3 1 6 -6 6 -7
0 -9 5 -6 10 4 6 11 7 17 4 7 -4 8 -2 4 4 -9 15 -11 15 -25 -2z"/>
<path d="M5470 6618 c0 -6 3 -8 7 -5 3 4 13 1 22 -6 14 -11 14 -10 2 6 -15 20
-31 22 -31 5z"/>
<path d="M4259 6608 c-5 -18 -6 -38 -1 -34 7 8 12 36 6 36 -2 0 -4 -1 -5 -2z"/>
<path d="M4374 6580 c0 -13 4 -16 10 -10 7 7 7 13 0 20 -6 6 -10 3 -10 -10z"/>
<path d="M5573 6576 c-3 -6 -3 -8 2 -4 4 4 13 3 20 -2 8 -7 12 -5 12 3 0 16
-25 18 -34 3z"/>
<path d="M4435 6571 c-3 -5 -2 -12 3 -15 5 -3 9 1 9 9 0 17 -3 19 -12 6z"/>
<path d="M5519 6578 c-5 -18 -6 -38 -1 -34 7 8 12 36 6 36 -2 0 -4 -1 -5 -2z"/>
<path d="M4476 6561 c-17 -6 -17 -8 -4 -14 10 -3 19 0 22 9 3 8 4 14 3 13 -1
0 -11 -4 -21 -8z"/>
<path d="M5694 6562 c4 -3 14 -7 22 -8 9 -1 13 0 10 4 -4 3 -14 7 -22 8 -9 1
-13 0 -10 -4z"/>
<path d="M4376 6541 c9 -9 34 -9 34 -1 0 5 -9 8 -20 7 -10 -1 -17 -3 -14 -6z"/>
<path d="M4357 6508 c19 -21 31 -25 14 -5 -6 8 -9 16 -6 19 3 2 -2 5 -10 5
-13 0 -13 -3 2 -19z"/>
<path d="M5546 6522 c-3 -5 1 -9 9 -9 8 0 15 4 15 9 0 4 -4 8 -9 8 -6 0 -12
-4 -15 -8z"/>
<path d="M5675 6519 c-3 -4 2 -6 10 -5 21 3 28 13 10 13 -9 0 -18 -4 -20 -8z"/>
<path d="M4110 6500 c0 -5 5 -10 11 -10 5 0 7 5 4 10 -3 6 -8 10 -11 10 -2 0
-4 -4 -4 -10z"/>
<path d="M4296 6502 c-3 -4 4 -9 15 -9 23 -2 25 3 4 10 -8 4 -16 3 -19 -1z"/>
<path d="M4436 6502 c-2 -4 -1 -14 4 -22 7 -11 9 -9 7 8 -1 24 -3 26 -11 14z"/>
<path d="M4210 6480 c0 -5 5 -10 11 -10 5 0 7 5 4 10 -3 6 -8 10 -11 10 -2 0
-4 -4 -4 -10z"/>
<path d="M4335 6471 c-3 -6 -15 -8 -27 -6 -11 3 -18 1 -14 -2 12 -13 35 -11
47 3 6 8 9 14 6 14 -3 0 -8 -4 -12 -9z"/>
<path d="M4375 6474 c2 -4 -5 -14 -17 -24 -17 -13 -18 -17 -5 -17 9 0 13 5 10
10 -4 6 0 8 9 4 16 -6 20 17 5 28 -4 3 -5 2 -2 -1z"/>
<path d="M4410 6470 c-9 -6 -10 -10 -3 -10 6 0 15 5 18 10 8 12 4 12 -15 0z"/>
<path d="M5590 6455 c5 -7 6 -16 2 -21 -4 -5 -3 -5 2 -1 15 12 15 34 0 34 -9
0 -11 -4 -4 -12z"/>
<path d="M5750 6461 c0 -6 4 -13 10 -16 6 -3 7 1 4 9 -7 18 -14 21 -14 7z"/>
<path d="M4120 6440 c-12 -7 -10 -9 7 -7 12 0 19 5 17 9 -6 10 -6 10 -24 -2z"/>
<path d="M4176 6438 c3 -4 11 -5 19 -1 21 7 19 12 -4 10 -11 0 -18 -5 -15 -9z"/>
<path d="M4279 6423 c0 -5 -2 -16 -4 -26 -2 -11 -1 -16 3 -13 8 8 14 46 7 46
-3 0 -5 -3 -6 -7z"/>
<path d="M4309 6403 c-13 -16 -12 -17 4 -4 9 7 17 15 17 17 0 8 -8 3 -21 -13z"/>
<path d="M4175 6400 c3 -5 8 -10 11 -10 2 0 4 5 4 10 0 6 -5 10 -11 10 -5 0
-7 -4 -4 -10z"/>
<path d="M4347 6399 c7 -9 10 -19 6 -23 -4 -4 1 -4 10 0 10 3 17 7 15 8 -2 1
-12 8 -23 16 -18 14 -19 13 -8 -1z"/>
<path d="M5550 6406 c0 -2 7 -7 16 -10 8 -3 12 -2 9 4 -6 10 -25 14 -25 6z"/>
<path d="M4233 6387 c0 -8 6 -14 14 -14 9 0 10 4 2 14 -6 7 -12 13 -14 13 -1
0 -2 -6 -2 -13z"/>
<path d="M4093 6371 c0 -11 5 -18 9 -15 4 3 5 11 1 19 -7 21 -12 19 -10 -4z"/>
<path d="M5553 6375 c0 -8 4 -12 9 -9 5 3 6 10 3 15 -9 13 -12 11 -12 -6z"/>
<path d="M5780 6380 c-9 -6 -10 -10 -3 -10 6 0 15 5 18 10 8 12 4 12 -15 0z"/>
<path d="M4307 6359 c7 -7 15 -10 18 -7 3 3 -2 9 -12 12 -14 6 -15 5 -6 -5z"/>
<path d="M5626 6362 c-2 -4 4 -8 14 -8 10 0 16 4 14 8 -3 4 -9 8 -14 8 -5 0
-11 -4 -14 -8z"/>
<path d="M4261 6353 c-1 -6 4 -15 10 -19 8 -4 7 -9 -2 -15 -10 -6 -7 -8 8 -6
15 1 19 5 13 13 -6 6 -6 15 -2 19 4 5 2 5 -5 2 -6 -4 -14 -1 -16 5 -4 9 -6 10
-6 1z"/>
<path d="M4348 6353 c6 -2 10 -9 7 -14 -4 -5 1 -6 10 -2 13 5 14 7 3 14 -7 5
-17 8 -23 8 -5 0 -4 -3 3 -6z"/>
<path d="M5580 6351 c0 -6 -9 -8 -20 -6 -11 2 -18 0 -15 -5 7 -12 38 -6 43 8
2 7 1 12 -2 12 -3 0 -6 -4 -6 -9z"/>
<path d="M5706 6338 c3 -5 10 -6 15 -3 13 9 11 12 -6 12 -8 0 -12 -4 -9 -9z"/>
<path d="M5599 6338 c-5 -18 -6 -38 -1 -34 7 8 12 36 6 36 -2 0 -4 -1 -5 -2z"/>
<path d="M4320 6315 c-9 -10 -9 -15 -1 -15 6 0 11 5 11 11 0 5 5 7 12 3 7 -4
8 -3 4 4 -9 15 -11 15 -26 -3z"/>
<path d="M5779 6328 c-5 -18 -6 -38 -1 -34 7 8 12 36 6 36 -2 0 -4 -1 -5 -2z"/>
<path d="M5719 6318 c-5 -18 -6 -38 -1 -34 7 8 12 36 6 36 -2 0 -4 -1 -5 -2z"/>
<path d="M5550 6290 c6 -11 13 -20 16 -20 2 0 0 9 -6 20 -6 11 -13 20 -16 20
-2 0 0 -9 6 -20z"/>
<path d="M5670 6306 c0 -2 7 -7 16 -10 8 -3 12 -2 9 4 -6 10 -25 14 -25 6z"/>
<path d="M5630 6296 c0 -2 8 -10 18 -17 15 -13 16 -12 3 4 -13 16 -21 21 -21
13z"/>
<path d="M5613 6258 c0 -13 1 -17 4 -10 3 6 10 9 16 5 7 -4 6 1 -2 10 -17 21
-17 21 -18 -5z"/>
<path d="M5802 6264 c10 -10 20 -16 22 -13 3 3 -5 11 -17 18 -21 13 -21 12 -5
-5z"/>
<path d="M4016 6258 c3 -5 10 -6 15 -3 13 9 11 12 -6 12 -8 0 -12 -4 -9 -9z"/>
<path d="M4110 6266 c0 -2 7 -7 16 -10 8 -3 12 -2 9 4 -6 10 -25 14 -25 6z"/>
<path d="M4179 6253 c-13 -16 -12 -17 4 -4 16 13 21 21 13 21 -2 0 -10 -8 -17
-17z"/>
<path d="M4275 6260 c-3 -5 -1 -10 4 -10 6 0 11 5 11 10 0 6 -2 10 -4 10 -3 0
-8 -4 -11 -10z"/>
<path d="M5535 6260 c-3 -5 -1 -10 4 -10 6 0 11 5 11 10 0 6 -2 10 -4 10 -3 0
-8 -4 -11 -10z"/>
<path d="M3833 6245 c0 -8 4 -12 9 -9 5 3 6 10 3 15 -9 13 -12 11 -12 -6z"/>
<path d="M4056 6242 c-3 -4 4 -9 15 -9 23 -2 25 3 4 10 -8 4 -16 3 -19 -1z"/>
<path d="M4228 6228 c2 -10 6 -18 7 -18 1 0 5 8 7 18 3 11 0 19 -7 19 -7 0
-10 -8 -7 -19z"/>
<path d="M5640 6235 c-7 -8 -9 -15 -5 -15 4 0 1 -8 -6 -17 -13 -16 -12 -17 4
-4 9 8 15 16 12 19 -3 3 0 11 6 19 6 7 9 13 6 13 -2 0 -10 -7 -17 -15z"/>
<path d="M4282 6220 c-18 -29 -15 -38 4 -12 9 13 14 25 12 27 -2 2 -9 -5 -16
-15z"/>
<path d="M5573 6233 c-15 -6 -17 -29 -4 -38 5 -3 13 0 17 6 4 8 3 9 -4 5 -16
-9 -15 7 0 22 13 13 11 14 -9 5z"/>
<path d="M4176 6213 c-6 -14 -5 -15 5 -6 7 7 10 15 7 18 -3 3 -9 -2 -12 -12z"/>
<path d="M3995 6199 c-3 -4 2 -6 10 -5 21 3 28 13 10 13 -9 0 -18 -4 -20 -8z"/>
<path d="M4290 6189 c-7 -11 -10 -23 -7 -25 2 -2 9 7 15 21 14 30 7 33 -8 4z"/>
<path d="M4195 6190 c-4 -6 -10 -8 -14 -6 -4 3 -8 -1 -8 -9 0 -13 4 -12 19 2
18 16 22 23 14 23 -3 0 -8 -5 -11 -10z"/>
<path d="M5641 6180 c-13 -11 -18 -20 -13 -20 6 0 14 5 17 10 4 6 10 8 14 6 4
-3 8 1 8 9 0 8 -1 15 -1 15 -1 -1 -12 -10 -25 -20z"/>
<path d="M4095 6179 c-3 -4 2 -6 10 -5 21 3 28 13 10 13 -9 0 -18 -4 -20 -8z"/>
<path d="M4245 6179 c-4 -6 -5 -12 -2 -15 2 -3 7 2 10 11 7 17 1 20 -8 4z"/>
<path d="M5588 6163 c7 -3 16 -2 19 1 4 3 -2 6 -13 5 -11 0 -14 -3 -6 -6z"/>
<path d="M5770 6159 c0 -5 5 -7 10 -4 6 3 10 8 10 11 0 2 -4 4 -10 4 -5 0 -10
-5 -10 -11z"/>
<path d="M5816 6158 c3 -5 10 -6 15 -3 13 9 11 12 -6 12 -8 0 -12 -4 -9 -9z"/>
<path d="M4135 6150 c-4 -6 -12 -7 -18 -4 -7 4 -8 3 -4 -1 13 -15 34 -14 34 1
0 17 -4 18 -12 4z"/>
<path d="M5659 6158 c-5 -18 -6 -38 -1 -34 7 8 12 36 6 36 -2 0 -4 -1 -5 -2z"/>
<path d="M5560 6140 c-9 -6 -10 -10 -3 -10 6 0 15 5 18 10 8 12 4 12 -15 0z"/>
<path d="M4230 6129 c0 -5 -5 -7 -12 -3 -7 4 -8 3 -4 -4 4 -6 13 -9 21 -6 8 4
12 10 9 15 -7 12 -14 11 -14 -2z"/>
<path d="M5715 6121 c-3 -5 -2 -12 3 -15 5 -3 9 1 9 9 0 17 -3 19 -12 6z"/>
<path d="M5794 6122 c4 -3 14 -7 22 -8 9 -1 13 0 10 4 -4 3 -14 7 -22 8 -9 1
-13 0 -10 -4z"/>
<path d="M3989 6103 c-13 -16 -12 -17 4 -4 9 7 17 15 17 17 0 8 -8 3 -21 -13z"/>
<path d="M4129 6103 c-8 -9 -9 -14 -2 -10 6 4 13 1 16 -5 3 -7 4 -3 4 10 -1
26 -1 26 -18 5z"/>
<path d="M4174 6101 c0 -12 5 -17 15 -13 9 3 12 1 7 -6 -5 -8 -1 -10 10 -5 11
4 13 8 6 11 -7 2 -9 9 -5 15 3 7 3 9 -2 5 -4 -4 -13 -4 -19 2 -8 6 -12 3 -12
-9z"/>
<path d="M5600 6090 c6 -11 13 -20 16 -20 2 0 0 9 -6 20 -6 11 -13 20 -16 20
-2 0 0 -9 6 -20z"/>
<path d="M5650 6101 c0 -6 4 -13 10 -16 6 -3 7 1 4 9 -7 18 -14 21 -14 7z"/>
<path d="M4109 6077 c6 -8 7 -18 3 -22 -4 -5 -1 -5 6 -1 10 6 10 11 1 22 -6 8
-14 14 -16 14 -3 0 0 -6 6 -13z"/>
<path d="M4235 6080 c3 -5 8 -10 11 -10 2 0 4 5 4 10 0 6 -5 10 -11 10 -5 0
-7 -4 -4 -10z"/>
<path d="M5753 6065 c0 -8 4 -12 9 -9 5 3 6 10 3 15 -9 13 -12 11 -12 -6z"/>
<path d="M4016 6062 c-3 -5 1 -9 9 -9 8 0 12 4 9 9 -3 4 -7 8 -9 8 -2 0 -6 -4
-9 -8z"/>
<path d="M4136 6054 c-4 -11 -1 -12 13 -5 10 6 20 9 22 8 2 -1 3 0 1 2 -7 11
-31 8 -36 -5z"/>
<path d="M4214 6055 c1 -8 6 -18 11 -22 4 -4 5 -2 1 5 -4 6 -2 12 4 12 6 0 8
5 5 10 -9 15 -24 12 -21 -5z"/>
<path d="M5580 6060 c-9 -6 -10 -10 -3 -10 6 0 15 5 18 10 8 12 4 12 -15 0z"/>
<path d="M5630 6061 c0 -6 4 -12 8 -15 5 -3 9 1 9 9 0 8 -4 15 -9 15 -4 0 -8
-4 -8 -9z"/>
<path d="M3933 6045 c0 -8 4 -12 9 -9 5 3 6 10 3 15 -9 13 -12 11 -12 -6z"/>
<path d="M4065 6040 c-3 -6 1 -7 9 -4 18 7 21 14 7 14 -6 0 -13 -4 -16 -10z"/>
<path d="M4193 6025 c0 -14 3 -25 8 -25 4 0 6 10 4 21 -6 32 -12 34 -12 4z"/>
<path d="M5666 6036 c5 -12 4 -17 -3 -13 -5 3 -10 -1 -10 -9 0 -13 2 -13 16 0
12 13 13 18 2 28 -10 11 -11 9 -5 -6z"/>
<path d="M4089 6023 c-13 -16 -12 -17 4 -4 9 7 17 15 17 17 0 8 -8 3 -21 -13z"/>
<path d="M5590 6030 c0 -5 5 -10 10 -10 6 0 10 5 10 10 0 6 -4 10 -10 10 -5 0
-10 -4 -10 -10z"/>
<path d="M4165 6019 c-4 -6 -5 -12 -2 -15 2 -3 7 2 10 11 7 17 1 20 -8 4z"/>
<path d="M4107 6006 c-4 -10 -1 -13 8 -9 8 3 12 9 9 14 -7 12 -11 11 -17 -5z"/>
<path d="M3934 5996 c1 -8 5 -18 8 -22 4 -3 5 1 4 10 -1 8 -5 18 -8 22 -4 3
-5 -1 -4 -10z"/>
<path d="M5575 6000 c3 -5 8 -10 11 -10 2 0 4 5 4 10 0 6 -5 10 -11 10 -5 0
-7 -4 -4 -10z"/>
<path d="M5633 5985 c0 -14 3 -28 8 -31 5 -3 6 3 2 13 -6 16 -5 17 13 3 18
-14 18 -14 -1 10 -11 14 -20 26 -21 28 -1 2 -1 -9 -1 -23z"/>
<path d="M5680 6000 c-9 -6 -10 -10 -3 -10 6 0 15 5 18 10 8 12 4 12 -15 0z"/>
<path d="M5810 5999 c0 -5 5 -7 10 -4 6 3 10 8 10 11 0 2 -4 4 -10 4 -5 0 -10
-5 -10 -11z"/>
<path d="M4059 5998 c-5 -18 -6 -38 -1 -34 7 8 12 36 6 36 -2 0 -4 -1 -5 -2z"/>
<path d="M5733 5985 c0 -8 4 -15 9 -15 4 0 8 4 8 9 0 6 -4 12 -8 15 -5 3 -9
-1 -9 -9z"/>
<path d="M4170 5980 c0 -5 5 -10 10 -10 6 0 10 5 10 10 0 6 -4 10 -10 10 -5 0
-10 -4 -10 -10z"/>
<path d="M5597 5983 c-10 -10 -8 -23 4 -23 5 0 8 4 5 9 -4 5 0 12 6 14 7 3 8
6 2 6 -6 1 -14 -2 -17 -6z"/>
<path d="M5855 5969 c-4 -6 -5 -12 -2 -15 2 -3 7 2 10 11 7 17 1 20 -8 4z"/>
<path d="M4152 5956 c7 -8 15 -12 17 -11 5 6 -10 25 -20 25 -5 0 -4 -6 3 -14z"/>
<path d="M5673 5952 c-8 -14 -8 -19 1 -19 7 0 13 9 13 19 1 10 1 18 0 18 -1 0
-7 -8 -14 -18z"/>
<path d="M4077 5953 c-12 -11 -8 -20 11 -25 11 -3 19 0 19 7 0 8 -7 11 -15 7
-10 -3 -13 -1 -8 6 8 13 3 16 -7 5z"/>
<path d="M3860 5946 c0 -2 8 -10 18 -17 15 -13 16 -12 3 4 -13 16 -21 21 -21
13z"/>
<path d="M4130 5939 c0 -5 5 -7 10 -4 6 3 10 8 10 11 0 2 -4 4 -10 4 -5 0 -10
-5 -10 -11z"/>
<path d="M5611 5947 c2 -1 13 -9 24 -17 19 -14 19 -14 6 3 -7 9 -18 17 -24 17
-6 0 -8 -1 -6 -3z"/>
<path d="M5595 5921 c-4 -7 0 -8 11 -4 11 4 15 3 10 -5 -3 -6 -2 -13 3 -16 5
-4 8 2 7 11 -3 20 -21 28 -31 14z"/>
<path d="M4035 5910 c-4 -6 -10 -8 -14 -6 -4 3 -8 -1 -8 -9 0 -13 4 -12 19 2
18 16 22 23 14 23 -3 0 -8 -5 -11 -10z"/>
<path d="M4130 5909 c0 -5 -4 -8 -9 -4 -5 3 -13 0 -17 -6 -4 -7 -3 -9 4 -5 5
3 13 0 15 -6 4 -10 6 -10 6 0 1 7 5 10 11 7 6 -3 7 1 4 9 -7 18 -14 21 -14 5z"/>
<path d="M3755 5900 c3 -5 8 -10 11 -10 2 0 4 5 4 10 0 6 -5 10 -11 10 -5 0
-7 -4 -4 -10z"/>
<path d="M3857 5895 c-4 -8 -3 -16 1 -19 4 -3 9 4 9 15 2 23 -3 25 -10 4z"/>
<path d="M3970 5896 c7 -7 13 -7 20 0 6 6 3 10 -10 10 -13 0 -16 -4 -10 -10z"/>
<path d="M4067 5899 c7 -9 10 -19 6 -22 -3 -4 -1 -7 5 -7 17 0 15 16 -5 31
-16 12 -17 12 -6 -2z"/>
<path d="M5641 5894 c0 -11 3 -14 6 -6 3 7 2 16 -1 19 -3 4 -6 -2 -5 -13z"/>
<path d="M5686 5871 c-19 -7 -19 -8 0 -13 13 -3 21 0 21 8 0 8 -1 14 -1 13 -1
0 -10 -4 -20 -8z"/>
<path d="M4033 5854 c0 -7 6 -10 14 -7 7 3 13 8 13 12 0 4 -6 8 -13 8 -8 0
-14 -6 -14 -13z"/>
<path d="M3850 5840 c0 -5 5 -10 11 -10 5 0 7 5 4 10 -3 6 -8 10 -11 10 -2 0
-4 -4 -4 -10z"/>
<path d="M3950 5838 c0 -4 4 -8 9 -8 6 0 12 4 15 8 3 5 -1 9 -9 9 -8 0 -15 -4
-15 -9z"/>
<path d="M3995 5842 c3 -3 -3 -15 -12 -26 -10 -12 -11 -16 -4 -9 9 8 20 9 31
3 12 -6 17 -5 17 5 0 8 -7 11 -16 7 -13 -5 -14 -3 -4 9 10 13 10 16 -2 16 -8
0 -13 -3 -10 -5z"/>
<path d="M4073 5835 c0 -8 4 -12 9 -9 4 3 8 9 8 15 0 5 -4 9 -8 9 -5 0 -9 -7
-9 -15z"/>
<path d="M5613 5837 c-3 -5 -2 -11 1 -14 3 -4 6 -1 6 6 0 7 4 10 8 7 4 -2 14
-1 22 4 11 7 9 9 -8 7 -13 -1 -26 -5 -29 -10z"/>
<path d="M5787 5839 c7 -7 15 -10 18 -7 3 3 -2 9 -12 12 -14 6 -15 5 -6 -5z"/>
<path d="M5755 5831 c-3 -5 -2 -12 3 -15 5 -3 9 1 9 9 0 17 -3 19 -12 6z"/>
<path d="M4100 5815 c0 -8 2 -15 4 -15 2 0 6 7 10 15 3 8 1 15 -4 15 -6 0 -10
-7 -10 -15z"/>
<path d="M5650 5820 c0 -5 5 -10 10 -10 6 0 10 5 10 10 0 6 -4 10 -10 10 -5 0
-10 -4 -10 -10z"/>
<path d="M5690 5818 c0 -4 4 -8 9 -8 6 0 12 4 15 8 3 5 -1 9 -9 9 -8 0 -15 -4
-15 -9z"/>
<path d="M5630 5800 c0 -6 7 -10 15 -10 8 0 15 2 15 4 0 2 -7 6 -15 10 -8 3
-15 1 -15 -4z"/>
<path d="M3780 5780 c8 -5 20 -10 25 -10 6 0 3 5 -5 10 -8 5 -19 10 -25 10 -5
0 -3 -5 5 -10z"/>
<path d="M3895 5780 c-3 -5 -1 -10 4 -10 6 0 11 5 11 10 0 6 -2 10 -4 10 -3 0
-8 -4 -11 -10z"/>
<path d="M3939 5773 c-13 -16 -12 -17 4 -4 9 7 17 15 17 17 0 8 -8 3 -21 -13z"/>
<path d="M4054 5774 c1 -9 11 -21 22 -26 18 -9 18 -8 2 5 -10 8 -15 16 -12 19
3 4 1 9 -4 12 -6 3 -9 -1 -8 -10z"/>
<path d="M5674 5775 c1 -8 6 -18 11 -22 4 -5 5 -2 0 6 -6 11 -4 13 8 8 23 -9
21 0 -2 13 -15 7 -19 7 -17 -5z"/>
<path d="M5899 5788 c-5 -18 -6 -38 -1 -34 7 8 12 36 6 36 -2 0 -4 -1 -5 -2z"/>
<path d="M5630 5760 c0 -5 7 -7 15 -4 8 4 15 8 15 10 0 2 -7 4 -15 4 -8 0 -15
-4 -15 -10z"/>
<path d="M4036 5745 c10 -8 23 -15 28 -15 6 0 1 7 -10 15 -10 8 -23 15 -28 15
-6 0 -1 -7 10 -15z"/>
<path d="M5733 5737 c0 -12 1 -16 4 -9 3 9 9 10 17 3 9 -8 13 -6 13 4 0 8 -3
13 -5 10 -3 -3 -10 -1 -16 5 -8 6 -12 2 -13 -13z"/>
<path d="M3953 5733 c0 -9 4 -10 12 -3 7 5 15 7 18 3 4 -3 7 -1 7 5 0 6 -8 10
-18 9 -10 0 -19 -7 -19 -14z"/>
<path d="M4007 5739 c7 -7 15 -10 18 -7 3 3 -2 9 -12 12 -14 6 -15 5 -6 -5z"/>
<path d="M5645 5739 c-11 -16 -1 -19 13 -3 7 8 8 14 3 14 -5 0 -13 -5 -16 -11z"/>
<path d="M5684 5734 c-18 -14 -18 -15 4 -4 12 6 22 13 22 15 0 8 -5 6 -26 -11z"/>
<path d="M5995 5741 c-3 -5 -2 -12 3 -15 5 -3 9 1 9 9 0 17 -3 19 -12 6z"/>
<path d="M3910 5716 c7 -7 13 -7 20 0 6 6 3 10 -10 10 -13 0 -16 -4 -10 -10z"/>
<path d="M3993 5713 c4 -3 -1 -11 -10 -18 -13 -9 -13 -14 -3 -20 9 -5 11 -4 6
3 -6 11 5 16 26 13 4 0 5 6 2 14 -4 8 -11 15 -17 15 -6 0 -7 -3 -4 -7z"/>
<path d="M4040 5711 c0 -6 4 -13 10 -16 6 -3 7 1 4 9 -7 18 -14 21 -14 7z"/>
<path d="M3941 5694 c0 -11 3 -14 6 -6 3 7 2 16 -1 19 -3 4 -6 -2 -5 -13z"/>
<path d="M5650 5700 c0 -5 5 -10 10 -10 6 0 10 5 10 10 0 6 -4 10 -10 10 -5 0
-10 -4 -10 -10z"/>
<path d="M5700 5700 c-9 -6 -10 -10 -3 -10 6 0 15 5 18 10 8 12 4 12 -15 0z"/>
<path d="M5751 5707 c2 -1 13 -9 24 -17 19 -14 19 -14 6 3 -7 9 -18 17 -24 17
-6 0 -8 -1 -6 -3z"/>
<path d="M5895 5680 c-2 -3 5 -7 16 -7 10 -1 19 2 19 6 0 9 -29 10 -35 1z"/>
<path d="M3833 5665 c0 -8 4 -12 9 -9 5 3 6 10 3 15 -9 13 -12 11 -12 -6z"/>
<path d="M3897 5659 c4 -13 8 -18 11 -10 2 7 -1 18 -6 23 -8 8 -9 4 -5 -13z"/>
<path d="M5670 5671 c0 -6 5 -13 12 -17 6 -4 8 -3 4 4 -3 5 0 13 6 15 8 3 6 6
-4 6 -10 1 -18 -3 -18 -8z"/>
<path d="M3928 5651 c4 -10 7 -11 10 -3 2 7 8 10 12 7 5 -3 11 -2 14 3 2 4 -6
8 -19 8 -16 0 -21 -4 -17 -15z"/>
<path d="M5714 5661 c4 -5 1 -12 -4 -14 -6 -3 -5 -4 2 -3 15 3 23 26 8 26 -6
0 -9 -4 -6 -9z"/>
<path d="M3869 5643 c-13 -16 -12 -17 4 -4 9 7 17 15 17 17 0 8 -8 3 -21 -13z"/>
<path d="M3735 5640 c-3 -5 -1 -10 4 -10 6 0 11 5 11 10 0 6 -2 10 -4 10 -3 0
-8 -4 -11 -10z"/>
<path d="M3773 5635 c0 -8 4 -12 9 -9 5 3 6 10 3 15 -9 13 -12 11 -12 -6z"/>
<path d="M3956 5627 c3 -10 9 -15 12 -12 3 3 0 11 -7 18 -10 9 -11 8 -5 -6z"/>
<path d="M3875 5619 c-3 -4 2 -6 10 -5 21 3 28 13 10 13 -9 0 -18 -4 -20 -8z"/>
<path d="M3919 5613 c-13 -16 -12 -17 4 -4 9 7 17 15 17 17 0 8 -8 3 -21 -13z"/>
<path d="M5697 5613 c3 -7 6 -13 8 -13 2 0 5 6 8 13 3 8 -1 14 -8 14 -7 0 -11
-6 -8 -14z"/>
<path d="M3939 5605 c-6 -29 -1 -50 14 -53 9 -2 17 1 17 7 0 6 -8 7 -17 4 -16
-6 -16 -5 -4 10 9 12 10 17 2 17 -7 0 -9 5 -6 10 3 6 4 10 1 10 -3 0 -6 -2 -7
-5z"/>
<path d="M5660 5606 c0 -2 7 -6 15 -10 8 -3 15 -1 15 4 0 6 -7 10 -15 10 -8 0
-15 -2 -15 -4z"/>
<path d="M5890 5600 c0 -5 5 -10 11 -10 5 0 7 5 4 10 -3 6 -8 10 -11 10 -2 0
-4 -4 -4 -10z"/>
<path d="M3856 5587 c3 -10 9 -15 12 -12 3 3 0 11 -7 18 -10 9 -11 8 -5 -6z"/>
<path d="M5700 5580 c0 -5 5 -10 11 -10 5 0 7 5 4 10 -3 6 -8 10 -11 10 -2 0
-4 -4 -4 -10z"/>
<path d="M5795 5560 c3 -13 0 -29 -5 -35 -7 -8 -5 -12 4 -12 14 0 17 50 4 63
-4 4 -5 -4 -3 -16z"/>
<path d="M3753 5555 c0 -8 4 -12 9 -9 5 3 6 10 3 15 -9 13 -12 11 -12 -6z"/>
<path d="M3790 5555 c5 -7 8 -14 5 -17 -3 -2 2 -5 10 -5 10 0 12 4 5 12 -5 7
-8 14 -5 17 3 2 -2 5 -10 5 -10 0 -12 -4 -5 -12z"/>
<path d="M5667 5556 c-4 -10 -1 -13 9 -9 15 6 19 23 5 23 -5 0 -11 -7 -14 -14z"/>
<path d="M5936 5558 c3 -5 10 -6 15 -3 13 9 11 12 -6 12 -8 0 -12 -4 -9 -9z"/>
<path d="M3850 5550 c-9 -6 -10 -10 -3 -10 6 0 15 5 18 10 8 12 4 12 -15 0z"/>
<path d="M3890 5540 c0 -5 5 -10 11 -10 5 0 7 5 4 10 -3 6 -8 10 -11 10 -2 0
-4 -4 -4 -10z"/>
<path d="M5730 5540 c0 -5 5 -10 10 -10 6 0 10 5 10 10 0 6 -4 10 -10 10 -5 0
-10 -4 -10 -10z"/>
<path d="M3756 5522 c-3 -5 1 -9 9 -9 8 0 12 4 9 9 -3 4 -7 8 -9 8 -2 0 -6 -4
-9 -8z"/>
<path d="M3830 5525 c0 -7 30 -13 34 -7 3 4 -4 9 -15 9 -10 1 -19 0 -19 -2z"/>
<path d="M3915 5521 c-3 -7 0 -8 10 -5 11 5 14 2 9 -10 -3 -9 -2 -16 4 -16 13
0 8 33 -5 37 -6 2 -14 -1 -18 -6z"/>
<path d="M3674 5509 c-3 -6 -2 -15 3 -20 5 -5 9 -1 9 11 0 23 -2 24 -12 9z"/>
<path d="M3813 5507 c0 -8 6 -14 14 -14 9 0 10 4 2 14 -6 7 -12 13 -14 13 -1
0 -2 -6 -2 -13z"/>
<path d="M3874 5508 c-4 -6 0 -16 8 -22 8 -6 15 -15 16 -21 1 -5 9 -11 19 -12
15 -2 15 -1 -2 6 -11 5 -15 10 -10 11 6 0 1 7 -10 16 -17 13 -18 16 -5 24 9 6
10 10 3 10 -6 0 -15 -5 -19 -12z"/>
<path d="M5710 5510 c-9 -6 -10 -10 -3 -10 6 0 15 5 18 10 8 12 4 12 -15 0z"/>
<path d="M3516 5498 c3 -5 10 -6 15 -3 13 9 11 12 -6 12 -8 0 -12 -4 -9 -9z"/>
<path d="M3626 5498 c3 -4 9 -8 15 -8 5 0 9 4 9 8 0 5 -7 9 -15 9 -8 0 -12 -4
-9 -9z"/>
<path d="M5755 5500 c-3 -5 -1 -10 4 -10 6 0 11 5 11 10 0 6 -2 10 -4 10 -3 0
-8 -4 -11 -10z"/>
<path d="M3787 5479 c7 -7 15 -10 18 -7 3 3 -2 9 -12 12 -14 6 -15 5 -6 -5z"/>
<path d="M3836 5481 c-18 -7 -18 -8 -3 -14 9 -3 17 -2 17 4 0 6 5 7 12 3 7 -4
8 -3 4 4 -4 7 -8 12 -9 11 -1 0 -11 -4 -21 -8z"/>
<path d="M5710 5481 c0 -10 29 -36 34 -30 1 2 -6 12 -16 22 -10 9 -18 13 -18
8z"/>
<path d="M5934 5482 c4 -3 14 -7 22 -8 9 -1 13 0 10 4 -4 3 -14 7 -22 8 -9 1
-13 0 -10 -4z"/>
<path d="M5809 5463 c-13 -16 -12 -17 4 -4 9 7 17 15 17 17 0 8 -8 3 -21 -13z"/>
<path d="M5993 5465 c0 -8 4 -12 9 -9 5 3 6 10 3 15 -9 13 -12 11 -12 -6z"/>
<path d="M5688 5462 c8 -5 13 -13 12 -18 0 -5 10 -10 22 -11 l23 -2 -23 7
c-13 4 -23 11 -22 17 1 5 -4 11 -12 13 -11 3 -11 2 0 -6z"/>
<path d="M3873 5445 c0 -8 4 -15 9 -15 4 0 8 4 8 9 0 6 -4 12 -8 15 -5 3 -9
-1 -9 -9z"/>
<path d="M3573 5443 c4 -3 1 -13 -6 -22 -11 -14 -10 -14 5 -2 16 12 16 31 1
31 -4 0 -3 -3 0 -7z"/>
<path d="M3711 5433 c7 -12 15 -20 18 -17 3 2 -3 12 -13 22 -17 16 -18 16 -5
-5z"/>
<path d="M5755 5441 c-9 -15 15 -25 28 -12 9 9 7 10 -7 5 -13 -5 -17 -4 -12 4
4 7 5 12 2 12 -3 0 -7 -4 -11 -9z"/>
<path d="M3746 5418 c3 -5 10 -6 15 -3 13 9 11 12 -6 12 -8 0 -12 -4 -9 -9z"/>
<path d="M3800 5415 c-7 -9 -11 -17 -9 -20 3 -2 10 5 17 15 14 24 10 26 -8 5z"/>
<path d="M3843 5424 c9 -3 15 -10 11 -15 -3 -5 2 -12 10 -15 9 -3 13 -11 9
-18 -4 -6 1 -5 10 3 20 15 13 33 -9 24 -9 -3 -14 0 -12 8 2 7 -6 14 -17 15
-15 2 -16 2 -2 -2z"/>
<path d="M3900 5419 c0 -5 5 -7 10 -4 6 3 10 8 10 11 0 2 -4 4 -10 4 -5 0 -10
-5 -10 -11z"/>
<path d="M5834 5395 c0 -13 3 -22 7 -19 8 4 6 30 -2 38 -3 3 -5 -5 -5 -19z"/>
<path d="M3526 5402 c-3 -5 1 -9 9 -9 8 0 12 4 9 9 -3 4 -7 8 -9 8 -2 0 -6 -4
-9 -8z"/>
<path d="M3817 5403 c-2 -5 -3 -15 -2 -23 0 -8 -6 -21 -15 -28 -13 -11 -11
-11 8 -2 12 6 20 15 17 20 -3 5 3 11 12 13 17 4 17 5 0 6 -10 0 -15 6 -12 11
3 6 4 10 1 10 -3 0 -7 -3 -9 -7z"/>
<path d="M5736 5401 c-4 -5 3 -7 14 -4 23 6 26 13 6 13 -8 0 -17 -4 -20 -9z"/>
<path d="M5930 5399 c0 -5 5 -7 10 -4 6 3 10 8 10 11 0 2 -4 4 -10 4 -5 0 -10
-5 -10 -11z"/>
<path d="M3693 5387 c0 -8 6 -14 14 -14 9 0 10 4 2 14 -6 7 -12 13 -14 13 -1
0 -2 -6 -2 -13z"/>
<path d="M5701 5373 c-10 -24 -9 -26 2 -11 8 10 17 15 21 11 4 -4 4 0 0 10 -8
22 -9 22 -23 -10z"/>
<path d="M3490 5380 c0 -5 5 -10 11 -10 5 0 7 5 4 10 -3 6 -8 10 -11 10 -2 0
-4 -4 -4 -10z"/>
<path d="M3755 5371 c-6 -11 13 -26 22 -17 4 3 1 6 -6 6 -7 0 -9 5 -6 10 3 6
4 10 1 10 -3 0 -7 -4 -11 -9z"/>
<path d="M3626 5358 c3 -4 9 -8 15 -8 5 0 9 4 9 8 0 5 -7 9 -15 9 -8 0 -12 -4
-9 -9z"/>
<path d="M3725 5355 c-3 -8 -7 -21 -9 -29 -5 -15 18 -16 31 -1 4 4 2 5 -6 0
-11 -6 -13 -2 -9 19 6 28 0 36 -7 11z"/>
<path d="M3845 5360 c3 -5 11 -10 16 -10 6 0 7 5 4 10 -3 6 -11 10 -16 10 -6
0 -7 -4 -4 -10z"/>
<path d="M5733 5354 c-3 -7 -1 -19 3 -25 5 -9 2 -10 -9 -6 -8 3 -18 0 -21 -8
-4 -11 0 -12 17 -6 15 6 21 15 19 31 -2 13 1 20 6 16 6 -4 13 -3 16 2 3 5 -2
9 -10 9 -9 0 -18 -6 -21 -13z"/>
<path d="M5780 5366 c0 -2 9 -6 20 -9 11 -3 18 -1 14 4 -5 9 -34 13 -34 5z"/>
<path d="M5935 5360 c3 -5 8 -10 11 -10 2 0 4 5 4 10 0 6 -5 10 -11 10 -5 0
-7 -4 -4 -10z"/>
<path d="M3694 5340 c0 -13 4 -16 10 -10 7 7 7 13 0 20 -6 6 -10 3 -10 -10z"/>
<path d="M3406 5342 c-3 -5 1 -9 9 -9 8 0 12 4 9 9 -3 4 -7 8 -9 8 -2 0 -6 -4
-9 -8z"/>
<path d="M3830 5340 c0 -6 7 -10 15 -10 8 0 15 2 15 4 0 2 -7 6 -15 10 -8 3
-15 1 -15 -4z"/>
<path d="M5790 5340 c0 -5 5 -10 11 -10 5 0 7 5 4 10 -3 6 -8 10 -11 10 -2 0
-4 -4 -4 -10z"/>
<path d="M3535 5320 c-3 -5 -1 -10 4 -10 6 0 11 5 11 10 0 6 -2 10 -4 10 -3 0
-8 -4 -11 -10z"/>
<path d="M3798 5323 c20 -4 21 -7 10 -21 -12 -15 -11 -16 4 -3 22 16 14 31
-15 30 -21 -2 -21 -2 1 -6z"/>
<path d="M3593 5307 c0 -7 11 -13 23 -13 20 0 25 11 6 11 -4 0 -12 3 -18 7 -6
4 -11 1 -11 -5z"/>
<path d="M5765 5310 c-16 -7 -17 -9 -3 -9 9 -1 20 4 23 9 7 11 7 11 -20 0z"/>
<path d="M5823 5304 c9 -11 15 -23 12 -26 -3 -2 2 -5 10 -5 10 0 12 4 5 12 -5
7 -6 16 -2 21 4 5 3 6 -2 2 -5 -4 -16 -2 -25 4 -12 10 -12 7 2 -8z"/>
<path d="M5896 5307 c3 -10 9 -15 12 -12 3 3 0 11 -7 18 -10 9 -11 8 -5 -6z"/>
<path d="M3673 5290 c-1 -11 2 -20 5 -20 4 0 8 9 9 20 1 11 -2 20 -5 20 -4 0
-8 -9 -9 -20z"/>
<path d="M3740 5300 c-9 -6 -10 -10 -3 -10 6 0 15 5 18 10 8 12 4 12 -15 0z"/>
<path d="M3776 5295 c4 -8 8 -15 10 -15 2 0 4 7 4 15 0 8 -4 15 -10 15 -5 0
-7 -7 -4 -15z"/>
<path d="M3820 5285 c-6 -8 -10 -19 -8 -26 2 -6 9 0 16 15 13 29 10 33 -8 11z"/>
<path d="M3434 5282 c4 -3 14 -7 22 -8 9 -1 13 0 10 4 -4 3 -14 7 -22 8 -9 1
-13 0 -10 -4z"/>
<path d="M3495 5280 c3 -5 8 -10 11 -10 2 0 4 5 4 10 0 6 -5 10 -11 10 -5 0
-7 -4 -4 -10z"/>
<path d="M3748 5265 c-6 -13 -15 -22 -21 -18 -6 3 -7 1 -3 -5 10 -17 14 -15
31 18 9 17 13 30 10 30 -3 0 -10 -11 -17 -25z"/>
<path d="M5739 5288 c-6 -23 -7 -48 -1 -52 4 -2 18 4 31 15 13 10 20 19 15 19
-4 0 -16 -8 -27 -17 -18 -17 -19 -17 -16 2 2 11 11 23 19 27 12 5 12 7 -2 7
-10 1 -18 0 -19 -1z"/>
<path d="M3613 5265 c0 -8 3 -13 5 -10 3 3 12 -1 21 -7 10 -8 9 -4 -3 10 -23
26 -23 26 -23 7z"/>
<path d="M3704 5265 c-10 -8 -15 -15 -10 -15 6 0 1 -7 -10 -15 -10 -8 -14 -15
-9 -15 6 0 3 -5 -5 -11 -10 -7 -11 -9 -2 -7 8 2 12 7 10 10 -2 4 6 14 17 22
11 9 16 16 11 16 -6 0 -1 7 10 15 10 8 16 15 13 15 -3 0 -14 -7 -25 -15z"/>
<path d="M3776 5258 c3 -4 9 -8 15 -8 5 0 9 4 9 8 0 5 -7 9 -15 9 -8 0 -12 -4
-9 -9z"/>
<path d="M5790 5250 c-9 -6 -10 -10 -3 -10 6 0 15 5 18 10 8 12 4 12 -15 0z"/>
<path d="M5875 5243 c3 -3 0 -11 -5 -18 -7 -8 -5 -12 4 -12 14 0 16 22 3 32
-4 3 -5 2 -2 -2z"/>
<path d="M5906 5238 c3 -5 10 -6 15 -3 13 9 11 12 -6 12 -8 0 -12 -4 -9 -9z"/>
<path d="M3617 5225 c3 -8 9 -12 14 -9 12 7 11 11 -5 17 -10 4 -13 1 -9 -8z"/>
<path d="M5717 5219 c4 -13 8 -18 11 -10 2 7 -1 18 -6 23 -8 8 -9 4 -5 -13z"/>
<path d="M3714 5221 c3 -5 -1 -12 -10 -15 -9 -4 -14 -9 -11 -13 4 -3 -1 -12
-11 -19 -16 -12 -16 -14 1 -31 9 -9 17 -12 17 -6 0 6 -6 14 -12 17 -9 3 -8 8
5 16 9 6 14 16 11 22 -5 8 -1 9 10 5 9 -4 15 -3 11 2 -3 5 0 11 7 13 7 3 5 7
-6 11 -9 4 -15 3 -12 -2z"/>
<path d="M5776 5215 c4 -8 8 -15 10 -15 2 0 4 7 4 15 0 8 -4 15 -10 15 -5 0
-7 -7 -4 -15z"/>
<path d="M5750 5211 c0 -5 5 -13 10 -16 6 -3 10 -2 10 4 0 5 -4 13 -10 16 -5
3 -10 2 -10 -4z"/>
<path d="M5914 5209 c-3 -6 -2 -15 3 -20 5 -5 9 -1 9 11 0 23 -2 24 -12 9z"/>
<path d="M3735 5181 c-3 -12 -11 -19 -16 -16 -5 4 -9 1 -9 -4 0 -6 4 -11 10
-11 11 0 34 39 27 47 -3 2 -8 -5 -12 -16z"/>
<path d="M5855 5189 c-4 -6 -5 -12 -2 -15 2 -3 7 2 10 11 7 17 1 20 -8 4z"/>
<path d="M3115 5180 c3 -5 8 -10 11 -10 2 0 4 5 4 10 0 6 -5 10 -11 10 -5 0
-7 -4 -4 -10z"/>
<path d="M3450 5181 c0 -6 4 -13 10 -16 6 -3 7 1 4 9 -7 18 -14 21 -14 7z"/>
<path d="M3579 5173 c-13 -15 -12 -15 7 -5 12 6 25 8 29 4 5 -4 5 -1 1 6 -10
16 -21 15 -37 -5z"/>
<path d="M3640 5175 c-19 -22 -8 -25 13 -3 9 10 13 18 8 18 -5 0 -14 -7 -21
-15z"/>
<path d="M5730 5180 c0 -5 5 -10 10 -10 6 0 10 5 10 10 0 6 -4 10 -10 10 -5 0
-10 -4 -10 -10z"/>
<path d="M5775 5180 c-3 -5 -1 -10 4 -10 6 0 11 5 11 10 0 6 -2 10 -4 10 -3 0
-8 -4 -11 -10z"/>
<path d="M6013 5165 c0 -8 4 -12 9 -9 5 3 6 10 3 15 -9 13 -12 11 -12 -6z"/>
<path d="M3370 5159 c0 -5 5 -7 10 -4 6 3 10 8 10 11 0 2 -4 4 -10 4 -5 0 -10
-5 -10 -11z"/>
<path d="M3510 5156 c7 -7 13 -7 20 0 6 6 3 10 -10 10 -13 0 -16 -4 -10 -10z"/>
<path d="M5796 5161 c-3 -5 0 -14 8 -20 10 -9 15 -8 19 3 4 11 1 13 -10 9 -11
-4 -14 -2 -9 5 4 7 5 12 2 12 -3 0 -7 -4 -10 -9z"/>
<path d="M5750 5151 c0 -6 5 -13 12 -17 6 -4 8 -3 4 4 -3 5 0 13 6 15 8 3 6 6
-4 6 -10 1 -18 -3 -18 -8z"/>
<path d="M5853 5143 c1 -21 2 -21 19 -6 21 19 24 31 4 14 -11 -9 -15 -9 -19 1
-3 7 -4 3 -4 -9z"/>
<path d="M3415 5140 c-2 -3 5 -6 15 -7 11 -1 22 2 24 5 3 4 -4 8 -15 8 -11 0
-22 -3 -24 -6z"/>
<path d="M3480 5146 c0 -2 8 -10 18 -17 15 -13 16 -12 3 4 -13 16 -21 21 -21
13z"/>
<path d="M3555 5131 c2 -18 21 -26 30 -12 4 7 -1 8 -12 4 -15 -6 -16 -4 -6 8
10 13 10 16 -1 16 -8 0 -13 -7 -11 -16z"/>
<path d="M3330 5119 c0 -5 5 -7 10 -4 6 3 10 8 10 11 0 2 -4 4 -10 4 -5 0 -10
-5 -10 -11z"/>
<path d="M5775 5120 c-3 -6 1 -7 9 -4 18 7 21 14 7 14 -6 0 -13 -4 -16 -10z"/>
<path d="M5879 5113 c-13 -16 -12 -17 4 -4 9 7 17 15 17 17 0 8 -8 3 -21 -13z"/>
<path d="M5975 5120 c3 -5 8 -10 11 -10 2 0 4 5 4 10 0 6 -5 10 -11 10 -5 0
-7 -4 -4 -10z"/>
<path d="M6015 5121 c-3 -5 -2 -12 3 -15 5 -3 9 1 9 9 0 17 -3 19 -12 6z"/>
<path d="M3455 5100 c-2 -3 5 -7 16 -7 10 -1 19 2 19 6 0 9 -29 10 -35 1z"/>
<path d="M3580 5100 c-9 -6 -10 -10 -3 -10 6 0 15 5 18 10 8 12 4 12 -15 0z"/>
<path d="M3612 5104 c3 -3 12 -6 20 -8 7 -1 18 -4 23 -7 24 -14 45 -18 45 -9
0 6 -8 10 -18 10 -10 0 -22 3 -26 7 -3 4 -16 8 -28 10 -12 2 -19 1 -16 -3z"/>
<path d="M5740 5100 c0 -5 5 -10 10 -10 6 0 10 5 10 10 0 6 -4 10 -10 10 -5 0
-10 -4 -10 -10z"/>
<path d="M5781 5096 c-9 -11 -6 -17 14 -30 14 -9 25 -12 25 -7 0 5 -9 13 -21
16 -16 5 -18 10 -8 21 6 8 9 14 6 14 -2 0 -10 -6 -16 -14z"/>
<path d="M5830 5098 c0 -4 4 -8 9 -8 6 0 12 4 15 8 3 5 -1 9 -9 9 -8 0 -15 -4
-15 -9z"/>
<path d="M3259 5088 c-5 -18 -6 -38 -1 -34 7 8 12 36 6 36 -2 0 -4 -1 -5 -2z"/>
<path d="M3595 5079 c-4 -6 -4 -13 -1 -16 3 -4 6 -1 6 5 0 7 5 12 10 12 7 0 7
-6 0 -20 -6 -11 -16 -19 -22 -17 -6 1 -12 -4 -13 -11 -2 -7 -1 -8 1 -3 3 6 11
8 18 5 13 -5 39 40 29 50 -9 9 -21 7 -28 -5z"/>
<path d="M6035 5081 c-3 -5 -2 -12 3 -15 5 -3 9 1 9 9 0 17 -3 19 -12 6z"/>
<path d="M3450 5076 c0 -2 8 -10 18 -17 15 -13 16 -12 3 4 -13 16 -21 21 -21
13z"/>
<path d="M3499 5078 c-8 -28 -5 -35 15 -30 18 5 18 7 3 10 -9 2 -15 8 -12 13
4 5 4 9 1 9 -3 0 -6 -1 -7 -2z"/>
<path d="M3556 5065 c4 -8 8 -15 10 -15 2 0 4 7 4 15 0 8 -4 15 -10 15 -5 0
-7 -7 -4 -15z"/>
<path d="M3641 5073 c-1 -17 16 -25 25 -12 4 7 3 9 -4 5 -5 -3 -13 0 -15 6 -4
9 -6 10 -6 1z"/>
<path d="M5853 5058 c0 -13 1 -17 4 -10 3 6 10 9 16 5 7 -4 6 1 -2 10 -17 21
-17 21 -18 -5z"/>
<path d="M3360 5065 c0 -2 6 -8 13 -14 10 -8 14 -7 14 2 0 8 -6 14 -14 14 -7
0 -13 -1 -13 -2z"/>
<path d="M3420 5056 c0 -2 7 -7 16 -10 8 -3 12 -2 9 4 -6 10 -25 14 -25 6z"/>
<path d="M3536 5043 c-6 -14 -5 -15 5 -6 7 7 10 15 7 18 -3 3 -9 -2 -12 -12z"/>
<path d="M3206 5038 c3 -5 10 -6 15 -3 13 9 11 12 -6 12 -8 0 -12 -4 -9 -9z"/>
<path d="M6013 5035 c0 -8 4 -12 9 -9 5 3 6 10 3 15 -9 13 -12 11 -12 -6z"/>
<path d="M3334 5020 c0 -13 4 -16 10 -10 7 7 7 13 0 20 -6 6 -10 3 -10 -10z"/>
<path d="M3412 5034 c4 -3 -2 -14 -14 -24 -17 -13 -18 -17 -5 -17 9 0 13 5 10
10 -4 6 1 8 11 4 9 -4 15 -3 11 2 -3 5 0 11 7 13 7 3 4 7 -7 12 -11 4 -16 4
-13 0z"/>
<path d="M3455 5029 c-4 -6 -5 -12 -2 -15 2 -3 7 2 10 11 7 17 1 20 -8 4z"/>
<path d="M5791 5030 c0 -8 4 -22 9 -30 12 -18 12 -2 0 25 -6 13 -9 15 -9 5z"/>
<path d="M3487 5019 c7 -7 15 -10 18 -7 3 3 -2 9 -12 12 -14 6 -15 5 -6 -5z"/>
<path d="M3551 5018 c-2 -24 13 -30 35 -12 18 14 18 15 -3 5 -18 -9 -22 -8
-26 7 -4 15 -5 15 -6 0z"/>
<path d="M5844 5019 c-4 -7 -3 -9 4 -5 5 3 13 0 15 -6 4 -9 6 -10 6 -1 1 17
-16 25 -25 12z"/>
<path d="M5899 5013 c-13 -16 -12 -17 4 -4 16 13 21 21 13 21 -2 0 -10 -8 -17
-17z"/>
<path d="M3512 5004 c-7 -8 -8 -14 -3 -14 10 0 25 19 20 25 -2 1 -10 -3 -17
-11z"/>
<path d="M3215 5000 c3 -5 8 -10 11 -10 2 0 4 5 4 10 0 6 -5 10 -11 10 -5 0
-7 -4 -4 -10z"/>
<path d="M3355 4990 c-4 -6 -10 -8 -14 -6 -4 3 -13 1 -20 -4 -9 -5 -3 -7 16
-7 17 1 30 7 30 14 0 16 -4 16 -12 3z"/>
<path d="M3450 4991 c0 -7 -4 -9 -10 -6 -5 3 -10 1 -10 -4 0 -6 4 -11 9 -11
13 0 25 20 17 27 -3 4 -6 1 -6 -6z"/>
<path d="M3475 4980 c3 -5 8 -10 11 -10 2 0 4 5 4 10 0 6 -5 10 -11 10 -5 0
-7 -4 -4 -10z"/>
<path d="M5828 4983 c7 -3 16 -2 19 1 4 3 -2 6 -13 5 -11 0 -14 -3 -6 -6z"/>
<path d="M5913 4983 c4 -3 1 -13 -6 -22 -11 -14 -10 -14 5 -2 16 12 16 31 1
31 -4 0 -3 -3 0 -7z"/>
<path d="M3390 4954 c8 -10 15 -20 16 -22 1 -2 4 1 7 5 3 5 -4 15 -16 23 -21
12 -21 12 -7 -6z"/>
<path d="M3455 4960 c-3 -5 -3 -10 2 -10 4 0 1 -5 -7 -10 -8 -5 -10 -10 -5
-10 6 0 17 5 25 10 11 7 11 10 2 10 -7 0 -10 5 -7 10 3 6 4 10 1 10 -3 0 -8
-4 -11 -10z"/>
<path d="M3334 4949 c-3 -6 -2 -15 3 -20 5 -5 9 -1 9 11 0 23 -2 24 -12 9z"/>
<path d="M3093 4931 c0 -11 5 -18 9 -15 4 3 5 11 1 19 -7 21 -12 19 -10 -4z"/>
<path d="M3190 4946 c0 -2 7 -7 16 -10 8 -3 12 -2 9 4 -6 10 -25 14 -25 6z"/>
<path d="M3246 4938 c4 -5 9 -7 12 -4 3 3 15 -2 26 -11 21 -18 21 -18 3 3 -16
20 -52 30 -41 12z"/>
<path d="M5805 4940 c-3 -6 1 -7 9 -4 18 7 21 14 7 14 -6 0 -13 -4 -16 -10z"/>
<path d="M5846 4938 c3 -4 9 -8 15 -8 5 0 9 4 9 8 0 5 -7 9 -15 9 -8 0 -12 -4
-9 -9z"/>
<path d="M3410 4920 c-9 -6 -10 -10 -3 -10 6 0 15 5 18 10 8 12 4 12 -15 0z"/>
<path d="M5815 4921 c-3 -5 0 -13 6 -17 7 -4 9 -3 5 4 -3 5 0 13 6 15 9 4 10
6 1 6 -6 1 -14 -3 -18 -8z"/>
<path d="M5906 4918 c3 -4 9 -8 15 -8 5 0 9 4 9 8 0 5 -7 9 -15 9 -8 0 -12 -4
-9 -9z"/>
<path d="M6034 4922 c4 -3 14 -7 22 -8 9 -1 13 0 10 4 -4 3 -14 7 -22 8 -9 1
-13 0 -10 -4z"/>
<path d="M3355 4910 c-3 -5 -2 -18 4 -27 7 -14 9 -12 8 10 -2 30 -3 31 -12 17z"/>
<path d="M5790 4905 c0 -8 4 -15 10 -15 5 0 7 7 4 15 -4 8 -8 15 -10 15 -2 0
-4 -7 -4 -15z"/>
<path d="M3380 4900 c0 -6 7 -10 15 -10 8 0 15 2 15 4 0 2 -7 6 -15 10 -8 3
-15 1 -15 -4z"/>
<path d="M5886 4897 c3 -10 9 -15 12 -12 3 3 0 11 -7 18 -10 9 -11 8 -5 -6z"/>
<path d="M5840 4896 c0 -2 7 -7 16 -10 8 -3 12 -2 9 4 -6 10 -25 14 -25 6z"/>
<path d="M3315 4880 c-3 -5 -4 -10 0 -10 3 0 1 -9 -5 -19 -7 -15 -7 -19 5 -17
8 1 18 6 22 11 4 4 2 5 -4 1 -19 -11 -16 5 5 20 16 13 16 14 -2 7 -13 -4 -17
-3 -12 5 4 7 5 12 2 12 -3 0 -8 -4 -11 -10z"/>
<path d="M5810 4870 c-7 -14 -7 -20 0 -20 5 0 10 7 10 15 0 9 6 12 15 9 8 -4
15 -4 15 -1 0 16 -31 13 -40 -3z"/>
<path d="M5835 4849 c-4 -6 -5 -12 -2 -15 2 -3 7 2 10 11 7 17 1 20 -8 4z"/>
<path d="M3190 4836 c7 -7 13 -7 20 0 6 6 3 10 -10 10 -13 0 -16 -4 -10 -10z"/>
<path d="M3235 4842 c3 -3 0 -10 -5 -17 -7 -8 -5 -12 5 -12 8 0 13 3 10 5 -3
3 0 10 5 17 7 8 5 12 -5 12 -8 0 -13 -3 -10 -5z"/>
<path d="M5842 4824 c-7 -8 -8 -14 -3 -14 10 0 25 19 20 25 -2 1 -10 -3 -17
-11z"/>
<path d="M3075 4820 c-3 -5 -1 -10 4 -10 6 0 11 5 11 10 0 6 -2 10 -4 10 -3 0
-8 -4 -11 -10z"/>
<path d="M3110 4822 c0 -5 7 -9 15 -9 8 0 12 4 9 9 -3 4 -9 8 -15 8 -5 0 -9
-4 -9 -8z"/>
<path d="M5790 4820 c0 -5 7 -7 15 -4 8 4 15 8 15 10 0 2 -7 4 -15 4 -8 0 -15
-4 -15 -10z"/>
<path d="M5872 4824 c3 -3 14 -7 23 -8 9 -1 21 -9 26 -17 5 -9 9 -10 9 -2 0 6
-6 15 -12 20 -16 9 -54 16 -46 7z"/>
<path d="M5959 4818 c-5 -18 -6 -38 -1 -34 7 8 12 36 6 36 -2 0 -4 -1 -5 -2z"/>
<path d="M5804 4799 c-4 -8 -3 -9 4 -5 8 5 11 0 9 -15 -1 -16 4 -22 23 -25 18
-3 21 -2 10 5 -8 5 -18 7 -23 4 -5 -3 -6 4 -3 15 8 23 -8 39 -20 21z"/>
<path d="M6010 4800 c0 -5 5 -10 11 -10 5 0 7 5 4 10 -3 6 -8 10 -11 10 -2 0
-4 -4 -4 -10z"/>
<path d="M6046 4798 c3 -5 10 -6 15 -3 13 9 11 12 -6 12 -8 0 -12 -4 -9 -9z"/>
<path d="M3135 4791 c-3 -5 -2 -12 3 -15 5 -3 9 1 9 9 0 17 -3 19 -12 6z"/>
<path d="M3170 4797 c0 -2 6 -10 14 -16 11 -9 16 -9 22 1 4 7 4 10 -1 6 -4 -4
-14 -3 -22 3 -7 6 -13 9 -13 6z"/>
<path d="M5864 4785 c-10 -8 -14 -15 -8 -15 6 0 17 7 24 15 16 19 9 19 -16 0z"/>
<path d="M3076 4782 c-3 -5 1 -9 9 -9 8 0 12 4 9 9 -3 4 -7 8 -9 8 -2 0 -6 -4
-9 -8z"/>
<path d="M5900 4786 c0 -2 8 -10 18 -17 15 -13 16 -12 3 4 -13 16 -21 21 -21
13z"/>
<path d="M3160 4771 c0 -6 4 -13 10 -16 6 -3 7 1 4 9 -7 18 -14 21 -14 7z"/>
<path d="M5955 4750 c10 -11 20 -20 23 -20 3 0 -3 9 -13 20 -10 11 -20 20 -23
20 -3 0 3 -9 13 -20z"/>
<path d="M6055 4760 c-3 -5 -1 -10 4 -10 6 0 11 5 11 10 0 6 -2 10 -4 10 -3 0
-8 -4 -11 -10z"/>
<path d="M3133 4747 c0 -8 6 -14 14 -14 9 0 10 4 2 14 -6 7 -12 13 -14 13 -1
0 -2 -6 -2 -13z"/>
<path d="M5888 4752 c-17 -7 -17 -8 0 -18 15 -10 18 -8 18 7 0 11 0 19 -1 18
0 0 -8 -4 -17 -7z"/>
<path d="M3035 4740 c3 -5 8 -10 11 -10 2 0 4 5 4 10 0 6 -5 10 -11 10 -5 0
-7 -4 -4 -10z"/>
<path d="M5830 4729 c0 -5 5 -7 10 -4 6 3 10 8 10 11 0 2 -4 4 -10 4 -5 0 -10
-5 -10 -11z"/>
<path d="M5860 4726 c0 -2 7 -7 16 -10 8 -3 12 -2 9 4 -6 10 -25 14 -25 6z"/>
<path d="M3044 4702 c23 -26 23 -26 23 -7 0 8 -3 13 -5 10 -3 -3 -12 1 -21 7
-10 8 -9 4 3 -10z"/>
<path d="M5853 4696 c3 -8 2 -17 -4 -20 -5 -2 -4 -3 2 -2 15 3 21 36 7 36 -6
0 -8 -6 -5 -14z"/>
<path d="M5905 4699 c-4 -6 -4 -13 -1 -16 3 -4 6 -1 6 6 0 8 6 11 16 7 8 -3
12 -2 9 4 -8 13 -22 13 -30 -1z"/>
<path d="M5993 4695 c0 -8 4 -12 9 -9 5 3 6 10 3 15 -9 13 -12 11 -12 -6z"/>
<path d="M5950 4696 c0 -2 8 -10 18 -17 15 -13 16 -12 3 4 -13 16 -21 21 -21
13z"/>
<path d="M2935 4680 c3 -5 8 -10 11 -10 2 0 4 5 4 10 0 6 -5 10 -11 10 -5 0
-7 -4 -4 -10z"/>
<path d="M2875 4671 c-3 -5 -2 -12 3 -15 5 -3 9 1 9 9 0 17 -3 19 -12 6z"/>
<path d="M5874 4669 c-3 -6 -2 -15 3 -20 5 -5 9 -1 9 11 0 23 -2 24 -12 9z"/>
<path d="M5933 4663 c1 -17 4 -19 14 -11 15 12 18 22 4 14 -5 -4 -11 0 -14 6
-3 7 -4 3 -4 -9z"/>
<path d="M2987 4659 c7 -7 15 -10 18 -7 3 3 -2 9 -12 12 -14 6 -15 5 -6 -5z"/>
<path d="M3041 4656 c-9 -11 -9 -16 1 -22 7 -4 10 -4 6 1 -4 4 -3 14 3 22 6 7
9 13 6 13 -2 0 -10 -6 -16 -14z"/>
<path d="M6010 4661 c0 -6 4 -13 10 -16 6 -3 7 1 4 9 -7 18 -14 21 -14 7z"/>
<path d="M2836 4647 c3 -10 9 -15 12 -12 3 3 0 11 -7 18 -10 9 -11 8 -5 -6z"/>
<path d="M6079 4633 c-12 -16 -12 -17 2 -6 9 7 20 9 24 5 5 -4 5 -1 1 6 -9 16
-11 15 -27 -5z"/>
<path d="M5893 4633 c-17 -6 -17 -20 0 -20 8 0 14 6 14 14 0 7 -1 13 -1 12 -1
0 -7 -3 -13 -6z"/>
<path d="M5976 4627 c3 -10 9 -15 12 -12 3 3 0 11 -7 18 -10 9 -11 8 -5 -6z"/>
<path d="M5949 4603 c-13 -16 -12 -17 4 -4 9 7 17 15 17 17 0 8 -8 3 -21 -13z"/>
<path d="M2835 4599 c-3 -4 2 -6 10 -5 21 3 28 13 10 13 -9 0 -18 -4 -20 -8z"/>
<path d="M5853 4594 c-7 -19 4 -47 16 -40 5 4 12 1 14 -4 3 -6 4 -5 3 2 -2 7
-9 12 -15 11 -6 -2 -11 6 -11 16 0 14 5 18 20 14 11 -3 20 -3 20 0 0 13 -42
14 -47 1z"/>
<path d="M2520 4580 c-9 -6 -10 -10 -3 -10 6 0 15 5 18 10 8 12 4 12 -15 0z"/>
<path d="M2915 4580 c-3 -5 -1 -10 4 -10 6 0 11 5 11 10 0 6 -2 10 -4 10 -3 0
-8 -4 -11 -10z"/>
<path d="M5900 4580 c-8 -5 -10 -10 -5 -10 6 0 17 5 25 10 8 5 11 10 5 10 -5
0 -17 -5 -25 -10z"/>
<path d="M6030 4560 c0 -5 5 -10 11 -10 5 0 7 5 4 10 -3 6 -8 10 -11 10 -2 0
-4 -4 -4 -10z"/>
<path d="M5910 4540 c-9 -6 -10 -10 -3 -10 6 0 15 5 18 10 8 12 4 12 -15 0z"/>
<path d="M6267 4539 c7 -7 15 -10 18 -7 3 3 -2 9 -12 12 -14 6 -15 5 -6 -5z"/>
<path d="M2815 4531 c-3 -5 -2 -12 3 -15 5 -3 9 1 9 9 0 17 -3 19 -12 6z"/>
<path d="M5950 4521 c0 -6 4 -12 8 -15 5 -3 9 1 9 9 0 8 -4 15 -9 15 -4 0 -8
-4 -8 -9z"/>
<path d="M6086 4518 c3 -5 10 -6 15 -3 13 9 11 12 -6 12 -8 0 -12 -4 -9 -9z"/>
<path d="M5870 4495 c0 -8 2 -15 4 -15 2 0 6 7 10 15 3 8 1 15 -4 15 -6 0 -10
-7 -10 -15z"/>
<path d="M5910 4489 c0 -5 -6 -7 -12 -3 -7 4 -10 3 -5 -1 4 -5 18 -10 30 -11
12 -2 16 0 9 2 -6 3 -10 10 -6 15 3 5 0 9 -5 9 -6 0 -11 -5 -11 -11z"/>
<path d="M6090 4479 c0 -5 5 -7 10 -4 6 3 10 8 10 11 0 2 -4 4 -10 4 -5 0 -10
-5 -10 -11z"/>
<path d="M5970 4458 c0 -6 3 -8 7 -5 3 4 13 1 22 -6 14 -11 14 -10 2 6 -15 20
-31 22 -31 5z"/>
<path d="M6056 4462 c-3 -5 1 -9 9 -9 8 0 12 4 9 9 -3 4 -7 8 -9 8 -2 0 -6 -4
-9 -8z"/>
<path d="M5868 4443 c6 -2 18 -2 25 0 6 3 1 5 -13 5 -14 0 -19 -2 -12 -5z"/>
<path d="M5890 4416 c0 -20 13 -27 30 -14 12 8 11 9 -4 4 -13 -5 -17 -2 -12 9
3 8 1 15 -4 15 -6 0 -10 -6 -10 -14z"/>
<path d="M5950 4420 c0 -5 5 -10 11 -10 5 0 7 5 4 10 -3 6 -8 10 -11 10 -2 0
-4 -4 -4 -10z"/>
<path d="M6000 4426 c0 -2 8 -10 18 -17 15 -13 16 -12 3 4 -13 16 -21 21 -21
13z"/>
<path d="M5945 4381 c6 -18 4 -22 -6 -16 -8 5 -10 4 -6 0 4 -5 14 -10 22 -11
12 -2 13 2 4 19 -17 32 -22 35 -14 8z"/>
<path d="M5876 4375 c4 -8 8 -15 10 -15 2 0 4 7 4 15 0 8 -4 15 -10 15 -5 0
-7 -7 -4 -15z"/>
<path d="M5915 4379 c-4 -6 -5 -12 -2 -15 2 -3 7 2 10 11 7 17 1 20 -8 4z"/>
<path d="M6006 4378 c3 -5 10 -6 15 -3 13 9 11 12 -6 12 -8 0 -12 -4 -9 -9z"/>
<path d="M6012 4340 c0 -14 2 -19 5 -12 2 6 2 18 0 25 -3 6 -5 1 -5 -13z"/>
<path d="M5894 4341 c4 -5 0 -12 -6 -14 -10 -4 -10 -6 -1 -6 7 -1 10 -8 6 -18
-3 -10 -3 -15 1 -12 12 11 17 59 6 59 -6 0 -9 -4 -6 -9z"/>
<path d="M5927 4339 c7 -7 15 -10 18 -7 3 3 -2 9 -12 12 -14 6 -15 5 -6 -5z"/>
<path d="M5957 4323 c-5 -9 10 -53 17 -53 3 0 2 7 -1 17 -4 10 -2 14 4 10 5
-3 10 0 10 7 0 8 -7 12 -15 8 -10 -3 -13 -1 -8 6 4 7 5 12 2 12 -3 0 -7 -3 -9
-7z"/>
<path d="M6066 4318 c3 -5 10 -6 15 -3 13 9 11 12 -6 12 -8 0 -12 -4 -9 -9z"/>
<path d="M6037 4313 c-10 -9 -9 -23 1 -23 5 0 9 7 9 15 0 17 -1 18 -10 8z"/>
<path d="M6074 4289 c-3 -6 -2 -15 3 -20 5 -5 9 -1 9 11 0 23 -2 24 -12 9z"/>
<path d="M5910 4280 c0 -5 5 -10 10 -10 6 0 10 5 10 10 0 6 -4 10 -10 10 -5 0
-10 -4 -10 -10z"/>
<path d="M6135 4280 c3 -5 8 -10 11 -10 2 0 4 5 4 10 0 6 -5 10 -11 10 -5 0
-7 -4 -4 -10z"/>
<path d="M2676 4258 c3 -5 10 -6 15 -3 13 9 11 12 -6 12 -8 0 -12 -4 -9 -9z"/>
<path d="M5940 4266 c0 -2 7 -7 16 -10 8 -3 12 -2 9 4 -6 10 -25 14 -25 6z"/>
<path d="M5916 4247 c3 -10 9 -15 12 -12 3 3 0 11 -7 18 -10 9 -11 8 -5 -6z"/>
<path d="M6031 4247 c-8 -10 -7 -14 2 -14 8 0 14 6 14 14 0 7 -1 13 -2 13 -2
0 -8 -6 -14 -13z"/>
<path d="M6130 4239 c0 -5 5 -7 10 -4 6 3 10 8 10 11 0 2 -4 4 -10 4 -5 0 -10
-5 -10 -11z"/>
<path d="M5990 4235 c5 -23 -1 -36 -12 -29 -7 5 -8 3 -3 -5 6 -10 11 -9 23 3
13 13 14 18 3 28 -7 7 -12 9 -11 3z"/>
<path d="M5934 4219 c-3 -6 -2 -15 4 -21 6 -6 12 -6 17 3 5 8 4 10 -3 5 -7 -4
-12 -3 -12 3 0 5 6 12 13 14 9 4 9 6 0 6 -6 1 -15 -4 -19 -10z"/>
<path d="M5910 4201 c0 -6 4 -13 10 -16 6 -3 7 1 4 9 -7 18 -14 21 -14 7z"/>
<path d="M6130 4200 c0 -5 5 -10 11 -10 5 0 7 5 4 10 -3 6 -8 10 -11 10 -2 0
-4 -4 -4 -10z"/>
<path d="M6195 4201 c-3 -5 -2 -12 3 -15 5 -3 9 1 9 9 0 17 -3 19 -12 6z"/>
<path d="M2756 4178 c3 -5 10 -6 15 -3 13 9 11 12 -6 12 -8 0 -12 -4 -9 -9z"/>
<path d="M5950 4180 c-13 -8 -12 -10 3 -10 9 0 17 5 17 10 0 12 -1 12 -20 0z"/>
<path d="M6069 4163 c-13 -16 -12 -17 4 -4 16 13 21 21 13 21 -2 0 -10 -8 -17
-17z"/>
<path d="M5915 4160 c3 -5 8 -10 11 -10 2 0 4 5 4 10 0 6 -5 10 -11 10 -5 0
-7 -4 -4 -10z"/>
<path d="M5996 4162 c-2 -4 -1 -14 3 -20 6 -10 11 -9 21 3 11 13 10 14 -5 9
-13 -5 -16 -4 -11 4 4 7 5 12 2 12 -3 0 -7 -4 -10 -8z"/>
<path d="M6173 4155 c0 -8 4 -12 9 -9 5 3 6 10 3 15 -9 13 -12 11 -12 -6z"/>
<path d="M2754 4140 c0 -13 4 -16 10 -10 7 7 7 13 0 20 -6 6 -10 3 -10 -10z"/>
<path d="M2795 4149 c-4 -6 -5 -12 -2 -15 2 -3 7 2 10 11 7 17 1 20 -8 4z"/>
<path d="M2715 4140 c3 -5 8 -10 11 -10 2 0 4 5 4 10 0 6 -5 10 -11 10 -5 0
-7 -4 -4 -10z"/>
<path d="M5945 4140 c3 -5 11 -10 16 -10 6 0 7 5 4 10 -3 6 -11 10 -16 10 -6
0 -7 -4 -4 -10z"/>
<path d="M6034 4138 c-4 -7 -4 -10 1 -6 4 4 15 2 24 -5 14 -11 14 -10 2 6 -16
20 -18 21 -27 5z"/>
<path d="M2794 4108 l-19 -23 23 19 c12 11 22 21 22 23 0 8 -8 2 -26 -19z"/>
<path d="M6130 4119 c0 -5 5 -7 10 -4 6 3 10 8 10 11 0 2 -4 4 -10 4 -5 0 -10
-5 -10 -11z"/>
<path d="M6170 4120 c0 -5 5 -10 11 -10 5 0 7 5 4 10 -3 6 -8 10 -11 10 -2 0
-4 -4 -4 -10z"/>
<path d="M6230 4121 c0 -6 4 -13 10 -16 6 -3 7 1 4 9 -7 18 -14 21 -14 7z"/>
<path d="M5990 4110 c-8 -5 -10 -10 -5 -10 6 0 17 5 25 10 8 5 11 10 5 10 -5
0 -17 -5 -25 -10z"/>
<path d="M6044 4102 c23 -26 23 -26 23 -7 0 8 -3 13 -5 10 -3 -3 -12 1 -21 7
-10 8 -9 4 3 -10z"/>
<path d="M2690 4099 c0 -5 5 -7 10 -4 6 3 10 8 10 11 0 2 -4 4 -10 4 -5 0 -10
-5 -10 -11z"/>
<path d="M2835 4100 c-3 -5 -1 -10 4 -10 6 0 11 5 11 10 0 6 -2 10 -4 10 -3 0
-8 -4 -11 -10z"/>
<path d="M6106 4102 c-3 -5 1 -9 9 -9 8 0 12 4 9 9 -3 4 -7 8 -9 8 -2 0 -6 -4
-9 -8z"/>
<path d="M6275 4061 c-3 -5 -2 -12 3 -15 5 -3 9 1 9 9 0 17 -3 19 -12 6z"/>
<path d="M5995 4051 c-6 -11 13 -26 22 -17 4 3 1 6 -6 6 -7 0 -9 5 -6 10 3 6
4 10 1 10 -3 0 -7 -4 -11 -9z"/>
<path d="M5948 4043 c6 -2 18 -2 25 0 6 3 1 5 -13 5 -14 0 -19 -2 -12 -5z"/>
<path d="M6040 4040 c-9 -6 -10 -10 -3 -10 6 0 15 5 18 10 8 12 4 12 -15 0z"/>
<path d="M2706 4018 c3 -4 9 -8 15 -8 5 0 9 4 9 8 0 5 -7 9 -15 9 -8 0 -12 -4
-9 -9z"/>
<path d="M5970 4016 c0 -20 12 -25 35 -15 18 8 18 9 -3 5 -17 -3 -22 -1 -18
10 3 8 1 14 -4 14 -6 0 -10 -6 -10 -14z"/>
<path d="M6114 4022 c4 -3 14 -7 22 -8 9 -1 13 0 10 4 -4 3 -14 7 -22 8 -9 1
-13 0 -10 -4z"/>
<path d="M5950 4005 c0 -5 9 -21 19 -34 14 -19 20 -21 26 -10 5 8 4 11 0 6 -5
-4 -17 5 -27 20 -10 16 -18 24 -18 18z"/>
<path d="M6030 4006 c0 -2 7 -7 16 -10 8 -3 12 -2 9 4 -6 10 -25 14 -25 6z"/>
<path d="M6216 3998 c3 -4 11 -5 19 -1 21 7 19 12 -4 10 -11 0 -18 -5 -15 -9z"/>
<path d="M6094 3980 c0 -13 4 -16 10 -10 7 7 7 13 0 20 -6 6 -10 3 -10 -10z"/>
<path d="M2746 3982 c-3 -5 1 -9 9 -9 8 0 12 4 9 9 -3 4 -7 8 -9 8 -2 0 -6 -4
-9 -8z"/>
<path d="M2800 3986 c0 -2 8 -10 18 -17 15 -13 16 -12 3 4 -13 16 -21 21 -21
13z"/>
<path d="M6010 3979 c0 -5 5 -7 12 -3 7 5 9 2 6 -8 -4 -8 0 -15 7 -15 10 0 11
5 4 19 -11 20 -29 24 -29 7z"/>
<path d="M6124 3982 c4 -3 14 -7 22 -8 9 -1 13 0 10 4 -4 3 -14 7 -22 8 -9 1
-13 0 -10 -4z"/>
<path d="M2865 3959 c-6 -8 -4 -10 5 -4 10 6 12 4 6 -11 -6 -15 -5 -17 5 -6 9
9 10 15 2 23 -8 8 -13 7 -18 -2z"/>
<path d="M6189 3943 c-13 -16 -12 -17 4 -4 16 13 21 21 13 21 -2 0 -10 -8 -17
-17z"/>
<path d="M5950 3939 c0 -5 5 -7 10 -4 6 3 10 8 10 11 0 2 -4 4 -10 4 -5 0 -10
-5 -10 -11z"/>
<path d="M5994 3935 c-4 -8 -11 -12 -17 -8 -6 3 -7 1 -3 -5 9 -15 33 -5 33 13
0 19 -6 19 -13 0z"/>
<path d="M6093 3933 c0 -10 4 -10 16 -1 9 7 18 13 20 15 2 1 -5 1 -16 0 -11 0
-20 -7 -20 -14z"/>
<path d="M2832 3927 c-8 -10 -6 -13 7 -13 11 0 17 6 14 13 -3 7 -6 13 -8 13
-1 0 -7 -6 -13 -13z"/>
<path d="M2670 3925 c0 -7 30 -13 34 -7 3 4 -4 9 -15 9 -10 1 -19 0 -19 -2z"/>
<path d="M2786 3918 c3 -5 10 -6 15 -3 13 9 11 12 -6 12 -8 0 -12 -4 -9 -9z"/>
<path d="M2880 3920 c-9 -6 -10 -10 -3 -10 6 0 15 5 18 10 8 12 4 12 -15 0z"/>
<path d="M6010 3898 c0 -4 4 -8 9 -8 6 0 12 4 15 8 3 5 -1 9 -9 9 -8 0 -15 -4
-15 -9z"/>
<path d="M5977 3883 c-8 -18 -1 -48 12 -45 10 2 12 -4 7 -23 -4 -14 -2 -25 2
-25 5 0 9 12 8 28 -1 15 -6 26 -13 25 -6 -2 -11 6 -10 17 1 13 6 19 15 15 7
-2 10 0 7 5 -7 12 -22 13 -28 3z"/>
<path d="M6093 3865 c0 -8 3 -13 5 -10 3 3 12 -1 21 -7 10 -8 9 -4 -3 10 -23
26 -23 26 -23 7z"/>
<path d="M6266 3862 c-3 -5 1 -9 9 -9 8 0 12 4 9 9 -3 4 -7 8 -9 8 -2 0 -6 -4
-9 -8z"/>
<path d="M2839 3855 c-1 -3 -2 -8 -3 -12 -1 -5 -5 -15 -10 -23 -5 -8 -6 -12
-1 -8 4 4 14 0 22 -10 13 -16 13 -15 5 3 -5 11 -8 28 -7 38 3 15 -3 26 -6 12z"/>
<path d="M2790 3836 c7 -7 13 -7 20 0 6 6 3 10 -10 10 -13 0 -16 -4 -10 -10z"/>
<path d="M2866 3841 c-4 -5 3 -7 14 -4 23 6 26 13 6 13 -8 0 -17 -4 -20 -9z"/>
<path d="M6215 3840 c3 -5 8 -10 11 -10 2 0 4 5 4 10 0 6 -5 10 -11 10 -5 0
-7 -4 -4 -10z"/>
<path d="M6050 3830 c-8 -5 -12 -12 -9 -15 4 -3 12 1 19 10 14 17 11 19 -10 5z"/>
<path d="M6094 3826 c1 -8 5 -18 8 -22 4 -3 5 1 4 10 -1 8 -5 18 -8 22 -4 3
-5 -1 -4 -10z"/>
<path d="M2909 3817 c6 -8 7 -18 3 -22 -4 -5 -1 -5 6 -1 10 6 10 11 1 22 -6 8
-14 14 -16 14 -3 0 0 -6 6 -13z"/>
<path d="M2813 3787 c0 -7 9 -14 20 -14 11 -1 18 -1 16 0 -2 2 -11 8 -20 15
-12 9 -16 9 -16 -1z"/>
<path d="M6030 3790 c-8 -5 -10 -10 -5 -10 6 0 17 5 25 10 8 5 11 10 5 10 -5
0 -17 -5 -25 -10z"/>
<path d="M2699 3788 c-5 -18 -6 -38 -1 -34 7 8 12 36 6 36 -2 0 -4 -1 -5 -2z"/>
<path d="M2884 3779 c-3 -6 -1 -16 5 -22 9 -9 10 -7 5 7 -6 15 -4 17 6 11 9
-5 11 -4 6 3 -9 15 -13 15 -22 1z"/>
<path d="M6096 3773 c-6 -14 -5 -15 5 -6 7 7 10 15 7 18 -3 3 -9 -2 -12 -12z"/>
<path d="M6275 3769 c-4 -6 -5 -12 -2 -15 2 -3 7 2 10 11 7 17 1 20 -8 4z"/>
<path d="M5996 3755 c-9 -26 -7 -32 5 -12 6 10 9 21 6 23 -2 3 -7 -2 -11 -11z"/>
<path d="M6210 3760 c0 -5 5 -10 11 -10 5 0 7 5 4 10 -3 6 -8 10 -11 10 -2 0
-4 -4 -4 -10z"/>
<path d="M2855 3749 c-4 -6 -5 -12 -2 -15 2 -3 7 2 10 11 7 17 1 20 -8 4z"/>
<path d="M2915 3750 c-8 -13 3 -30 18 -30 7 0 6 4 -3 10 -13 9 -13 11 0 20 9
6 10 10 3 10 -6 0 -15 -4 -18 -10z"/>
<path d="M2750 3741 c0 -6 4 -13 10 -16 6 -3 7 1 4 9 -7 18 -14 21 -14 7z"/>
<path d="M6025 3740 c3 -5 8 -10 11 -10 2 0 4 5 4 10 0 6 -5 10 -11 10 -5 0
-7 -4 -4 -10z"/>
<path d="M6015 3720 c6 -10 4 -12 -11 -6 -15 6 -17 5 -6 -5 9 -9 15 -10 23 -2
8 8 7 13 -2 18 -8 6 -10 4 -4 -5z"/>
<path d="M6256 3722 c-3 -4 4 -9 15 -9 23 -2 25 3 4 10 -8 4 -16 3 -19 -1z"/>
<path d="M2862 3704 c10 -10 20 -16 22 -13 3 3 -5 11 -17 18 -21 13 -21 12 -5
-5z"/>
<path d="M6090 3716 c0 -2 8 -10 18 -17 15 -13 16 -12 3 4 -13 16 -21 21 -21
13z"/>
<path d="M2834 3696 c1 -8 5 -18 8 -22 4 -3 5 1 4 10 -1 8 -5 18 -8 22 -4 3
-5 -1 -4 -10z"/>
<path d="M6145 3699 c-3 -4 2 -6 10 -5 21 3 28 13 10 13 -9 0 -18 -4 -20 -8z"/>
<path d="M2790 3696 c0 -2 8 -10 18 -17 15 -13 16 -12 3 4 -13 16 -21 21 -21
13z"/>
<path d="M2696 3682 c-3 -5 1 -9 9 -9 8 0 12 4 9 9 -3 4 -7 8 -9 8 -2 0 -6 -4
-9 -8z"/>
<path d="M6030 3671 c28 -23 40 -26 40 -11 0 6 -3 9 -7 8 -5 -1 -19 4 -33 11
l-25 12 25 -20z"/>
<path d="M2868 3673 c7 -3 16 -2 19 1 4 3 -2 6 -13 5 -11 0 -14 -3 -6 -6z"/>
<path d="M2923 3660 c-11 -16 -10 -18 2 -14 8 4 15 12 15 20 0 19 -3 18 -17
-6z"/>
<path d="M6136 3667 c3 -10 9 -15 12 -12 3 3 0 11 -7 18 -10 9 -11 8 -5 -6z"/>
<path d="M6007 3659 c7 -7 15 -10 18 -7 3 3 -2 9 -12 12 -14 6 -15 5 -6 -5z"/>
<path d="M6109 3643 c-13 -16 -12 -17 4 -4 16 13 21 21 13 21 -2 0 -10 -8 -17
-17z"/>
<path d="M2839 3633 c-13 -16 -12 -17 4 -4 9 7 17 15 17 17 0 8 -8 3 -21 -13z"/>
<path d="M2950 3640 c0 -5 5 -10 11 -10 5 0 7 5 4 10 -3 6 -8 10 -11 10 -2 0
-4 -4 -4 -10z"/>
<path d="M6210 3639 c0 -5 5 -7 10 -4 6 3 10 8 10 11 0 2 -4 4 -10 4 -5 0 -10
-5 -10 -11z"/>
<path d="M6030 3625 c0 -8 2 -15 4 -15 2 0 6 7 10 15 3 8 1 15 -4 15 -6 0 -10
-7 -10 -15z"/>
<path d="M2690 3620 c0 -5 5 -10 11 -10 5 0 7 5 4 10 -3 6 -8 10 -11 10 -2 0
-4 -4 -4 -10z"/>
<path d="M6180 3626 c0 -2 8 -10 18 -17 15 -13 16 -12 3 4 -13 16 -21 21 -21
13z"/>
<path d="M2910 3610 c-8 -5 -10 -10 -5 -10 6 0 17 5 25 10 8 5 11 10 5 10 -5
0 -17 -5 -25 -10z"/>
<path d="M6254 3596 c1 -8 5 -18 8 -22 4 -3 5 1 4 10 -1 8 -5 18 -8 22 -4 3
-5 -1 -4 -10z"/>
<path d="M2870 3586 c0 -2 7 -7 16 -10 8 -3 12 -2 9 4 -6 10 -25 14 -25 6z"/>
<path d="M6150 3586 c0 -2 7 -7 16 -10 8 -3 12 -2 9 4 -6 10 -25 14 -25 6z"/>
<path d="M2950 3562 c0 -4 10 -9 22 -9 18 -2 20 0 8 7 -18 12 -30 13 -30 2z"/>
<path d="M2930 3549 c0 -5 -4 -8 -8 -5 -5 3 -9 -1 -9 -9 0 -18 24 -28 33 -13
5 7 2 8 -6 3 -9 -5 -10 -2 -5 14 3 11 4 21 1 21 -3 0 -6 -5 -6 -11z"/>
<path d="M2716 3535 c-9 -26 -7 -32 5 -12 6 10 9 21 6 23 -2 3 -7 -2 -11 -11z"/>
<path d="M2786 3542 c-3 -5 1 -9 9 -9 8 0 12 4 9 9 -3 4 -7 8 -9 8 -2 0 -6 -4
-9 -8z"/>
<path d="M6255 3541 c-3 -5 -2 -12 3 -15 5 -3 9 1 9 9 0 17 -3 19 -12 6z"/>
<path d="M2973 3533 c4 -3 -1 -12 -11 -20 -15 -13 -15 -13 6 -3 19 9 23 30 5
30 -4 0 -3 -3 0 -7z"/>
<path d="M6111 3527 c-8 -10 -7 -14 2 -14 8 0 14 6 14 14 0 7 -1 13 -2 13 -2
0 -8 -6 -14 -13z"/>
<path d="M2834 3499 c0 -15 3 -26 8 -23 5 3 6 10 2 15 -3 5 -1 16 5 23 8 9 7
13 -2 13 -8 0 -13 -12 -13 -28z"/>
<path d="M2795 3500 c2 -27 10 -33 12 -10 1 11 -2 22 -6 24 -4 3 -7 -4 -6 -14z"/>
<path d="M6194 3506 c1 -8 5 -18 8 -22 4 -3 5 1 4 10 -1 8 -5 18 -8 22 -4 3
-5 -1 -4 -10z"/>
<path d="M2871 3505 c4 -3 19 -8 35 -11 16 -3 26 -2 23 1 -4 3 -19 8 -35 11
-16 3 -26 2 -23 -1z"/>
<path d="M2950 3483 c5 -2 8 -9 4 -14 -3 -5 0 -9 6 -9 15 0 7 23 -8 26 -7 1
-8 0 -2 -3z"/>
<path d="M6084 3479 c-3 -6 2 -18 12 -27 17 -16 17 -16 5 0 -7 9 -10 22 -6 28
3 5 4 10 1 10 -3 0 -8 -5 -12 -11z"/>
<path d="M6114 3474 c1 -8 4 -15 7 -16 2 -2 3 -1 2 1 -2 2 2 9 7 16 7 8 5 12
-4 12 -8 0 -13 -6 -12 -13z"/>
<path d="M6153 3467 c0 -8 6 -14 14 -14 9 0 10 4 2 14 -6 7 -12 13 -14 13 -1
0 -2 -6 -2 -13z"/>
<path d="M2913 3445 c0 -8 4 -15 9 -15 4 0 8 4 8 9 0 6 -4 12 -8 15 -5 3 -9
-1 -9 -9z"/>
<path d="M2736 3442 c-2 -4 -1 -14 4 -22 7 -11 9 -9 7 8 -1 24 -3 26 -11 14z"/>
<path d="M2974 3442 c4 -7 1 -12 -6 -12 -8 0 -5 -5 5 -11 14 -8 22 -8 30 1 9
8 7 9 -7 4 -13 -5 -17 -4 -12 4 3 6 1 14 -5 18 -8 4 -9 3 -5 -4z"/>
<path d="M6079 3428 c-7 -23 -4 -35 7 -35 9 0 11 4 4 12 -5 7 -7 15 -3 18 3 4
3 7 0 7 -4 0 -7 -1 -8 -2z"/>
<path d="M2911 3407 c-8 -10 -7 -14 2 -14 8 0 14 6 14 14 0 7 -1 13 -2 13 -2
0 -8 -6 -14 -13z"/>
<path d="M6129 3383 c-13 -16 -12 -17 4 -4 16 13 21 21 13 21 -2 0 -10 -8 -17
-17z"/>
<path d="M2946 3380 c6 -8 11 -27 10 -42 -1 -14 2 -24 6 -22 13 8 5 54 -12 67
-12 10 -13 10 -4 -3z"/>
<path d="M2990 3380 c-12 -7 -10 -9 7 -7 12 0 19 5 17 9 -6 10 -6 10 -24 -2z"/>
<path d="M6156 3382 c-3 -5 1 -9 9 -9 8 0 12 4 9 9 -3 4 -7 8 -9 8 -2 0 -6 -4
-9 -8z"/>
<path d="M3000 3345 c0 -8 4 -15 10 -15 5 0 7 7 4 15 -4 8 -8 15 -10 15 -2 0
-4 -7 -4 -15z"/>
<path d="M2815 3320 c-3 -5 -1 -10 4 -10 6 0 11 5 11 10 0 6 -2 10 -4 10 -3 0
-8 -4 -11 -10z"/>
<path d="M2870 3326 c0 -2 7 -7 16 -10 8 -3 12 -2 9 4 -6 10 -25 14 -25 6z"/>
<path d="M6067 3313 c3 -7 6 -13 8 -13 1 0 7 6 13 13 8 10 6 13 -7 13 -11 0
-17 -6 -14 -13z"/>
<path d="M6150 3319 c0 -5 5 -7 10 -4 6 3 10 8 10 11 0 2 -4 4 -10 4 -5 0 -10
-5 -10 -11z"/>
<path d="M2750 3301 c0 -6 4 -13 10 -16 6 -3 7 1 4 9 -7 18 -14 21 -14 7z"/>
<path d="M2970 3299 c0 -4 11 -6 25 -5 14 0 25 4 25 8 0 4 -11 7 -25 6 -14 -1
-25 -5 -25 -9z"/>
<path d="M6110 3301 c0 -6 4 -12 8 -15 5 -3 9 1 9 9 0 8 -4 15 -9 15 -4 0 -8
-4 -8 -9z"/>
<path d="M6149 3283 c-13 -16 -12 -17 4 -4 16 13 21 21 13 21 -2 0 -10 -8 -17
-17z"/>
<path d="M2810 3279 c0 -5 5 -7 10 -4 6 3 10 8 10 11 0 2 -4 4 -10 4 -5 0 -10
-5 -10 -11z"/>
<path d="M3030 3280 c0 -5 5 -10 10 -10 6 0 10 5 10 10 0 6 -4 10 -10 10 -5 0
-10 -4 -10 -10z"/>
<path d="M2955 3250 c-3 -5 -3 -10 1 -10 4 0 -1 -10 -12 -22 l-19 -22 27 20
c14 10 22 21 17 22 -5 2 -7 8 -3 13 3 5 3 9 0 9 -3 0 -8 -4 -11 -10z"/>
<path d="M2913 3227 c-1 -11 -1 -18 0 -16 2 2 8 11 15 20 9 12 9 16 -1 16 -7
0 -14 -9 -14 -20z"/>
<path d="M2995 3240 c-3 -5 -1 -10 4 -10 6 0 11 5 11 10 0 6 -2 10 -4 10 -3 0
-8 -4 -11 -10z"/>
<path d="M6100 3246 c0 -2 8 -10 18 -17 15 -13 16 -12 3 4 -13 16 -21 21 -21
13z"/>
<path d="M3023 3230 c2 -8 10 -15 17 -15 7 0 15 7 17 15 4 13 3 13 -6 0 -10
-13 -12 -13 -22 0 -9 13 -10 13 -6 0z"/>
<path d="M2996 3207 c3 -10 9 -15 12 -12 3 3 0 11 -7 18 -10 9 -11 8 -5 -6z"/>
<path d="M2816 3198 c3 -5 10 -6 15 -3 13 9 11 12 -6 12 -8 0 -12 -4 -9 -9z"/>
<path d="M2875 3200 c-3 -5 -1 -10 4 -10 6 0 11 5 11 10 0 6 -2 10 -4 10 -3 0
-8 -4 -11 -10z"/>
<path d="M6170 3200 c0 -5 5 -10 11 -10 5 0 7 5 4 10 -3 6 -8 10 -11 10 -2 0
-4 -4 -4 -10z"/>
<path d="M6206 3198 c3 -5 10 -6 15 -3 13 9 11 12 -6 12 -8 0 -12 -4 -9 -9z"/>
<path d="M3022 3180 c0 -14 2 -19 5 -12 2 6 2 18 0 25 -3 6 -5 1 -5 -13z"/>
<path d="M2914 3164 c0 -20 11 -25 11 -6 0 4 3 12 7 18 4 6 1 11 -5 11 -7 0
-13 -11 -13 -23z"/>
<path d="M2815 3160 c3 -5 8 -10 11 -10 2 0 4 5 4 10 0 6 -5 10 -11 10 -5 0
-7 -4 -4 -10z"/>
<path d="M2966 3142 c-3 -5 1 -9 9 -9 8 0 15 4 15 9 0 4 -4 8 -9 8 -6 0 -12
-4 -15 -8z"/>
<path d="M3025 3140 c-3 -6 1 -7 9 -4 18 7 21 14 7 14 -6 0 -13 -4 -16 -10z"/>
<path d="M3022 3100 c0 -14 2 -19 5 -12 2 6 2 18 0 25 -3 6 -5 1 -5 -13z"/>
<path d="M2925 3099 c-3 -4 2 -6 10 -5 21 3 28 13 10 13 -9 0 -18 -4 -20 -8z"/>
<path d="M3054 3089 c1 -7 13 -14 27 -16 18 -2 20 -1 9 6 -8 5 -17 8 -21 5 -4
-2 -10 1 -12 6 -3 6 -4 5 -3 -1z"/>
<path d="M6130 3079 c0 -5 5 -7 10 -4 6 3 10 8 10 11 0 2 -4 4 -10 4 -5 0 -10
-5 -10 -11z"/>
<path d="M3026 3058 c3 -5 8 -7 12 -4 3 3 11 -2 19 -12 13 -16 14 -16 5 2 -5
11 -17 21 -26 22 -9 1 -13 -2 -10 -8z"/>
<path d="M3077 3049 c7 -7 15 -10 18 -7 3 3 -2 9 -12 12 -14 6 -15 5 -6 -5z"/>
<path d="M2957 3032 c-15 -16 -15 -19 -2 -19 8 0 13 3 10 5 -3 3 0 11 6 19 17
20 5 16 -14 -5z"/>
<path d="M2716 3027 c3 -10 9 -15 12 -12 3 3 0 11 -7 18 -10 9 -11 8 -5 -6z"/>
<path d="M3034 3020 c0 -22 22 -34 32 -18 4 7 3 8 -4 4 -7 -4 -12 -1 -12 8 0
8 -4 17 -8 20 -4 2 -8 -4 -8 -14z"/>
<path d="M3085 3020 c-3 -5 -1 -10 4 -10 6 0 11 5 11 10 0 6 -2 10 -4 10 -3 0
-8 -4 -11 -10z"/>
<path d="M2816 2978 c3 -5 10 -6 15 -3 13 9 11 12 -6 12 -8 0 -12 -4 -9 -9z"/>
<path d="M2880 2980 c-9 -6 -10 -10 -3 -10 6 0 15 5 18 10 8 12 4 12 -15 0z"/>
<path d="M3006 2978 c3 -4 9 -8 15 -8 5 0 9 4 9 8 0 5 -7 9 -15 9 -8 0 -12 -4
-9 -9z"/>
<path d="M3070 2980 c0 -5 7 -7 15 -4 8 4 15 8 15 10 0 2 -7 4 -15 4 -8 0 -15
-4 -15 -10z"/>
<path d="M3115 2950 c5 -9 1 -10 -16 -6 -21 6 -22 6 -6 -5 13 -7 22 -8 29 -1
6 6 6 12 -3 17 -8 6 -10 4 -4 -5z"/>
<path d="M2856 2942 c-2 -4 -1 -14 4 -22 7 -11 9 -9 7 8 -1 24 -3 26 -11 14z"/>
<path d="M3035 2930 c-3 -6 1 -7 9 -4 18 7 21 14 7 14 -6 0 -13 -4 -16 -10z"/>
<path d="M3010 2916 c0 -2 8 -10 18 -17 15 -13 16 -12 3 4 -13 16 -21 21 -21
13z"/>
<path d="M2716 2902 c-3 -5 1 -9 9 -9 8 0 12 4 9 9 -3 4 -7 8 -9 8 -2 0 -6 -4
-9 -8z"/>
<path d="M2955 2890 c10 -11 20 -20 23 -20 3 0 -3 9 -13 20 -10 11 -20 20 -23
20 -3 0 3 -9 13 -20z"/>
<path d="M2993 2893 c0 -11 7 -20 14 -20 10 0 10 4 1 16 -7 9 -13 18 -15 20
-1 2 -1 -5 0 -16z"/>
<path d="M3067 2890 c-3 -11 -3 -20 -1 -20 2 0 8 9 14 20 6 11 7 20 2 20 -6 0
-12 -9 -15 -20z"/>
<path d="M2853 2875 c0 -8 4 -12 9 -9 5 3 6 10 3 15 -9 13 -12 11 -12 -6z"/>
<path d="M2913 2865 c0 -8 4 -15 9 -15 4 0 8 4 8 9 0 6 -4 12 -8 15 -5 3 -9
-1 -9 -9z"/>
<path d="M3090 2860 c0 -5 5 -10 10 -10 6 0 10 5 10 10 0 6 -4 10 -10 10 -5 0
-10 -4 -10 -10z"/>
<path d="M3127 2859 c7 -7 15 -10 18 -7 3 3 -2 9 -12 12 -14 6 -15 5 -6 -5z"/>
<path d="M2999 2833 c-13 -16 -12 -17 4 -4 16 13 21 21 13 21 -2 0 -10 -8 -17
-17z"/>
<path d="M3107 2827 c-3 -7 3 -13 13 -13 10 0 16 6 13 13 -3 7 -9 13 -13 13
-4 0 -10 -6 -13 -13z"/>
<path d="M2836 2822 c-3 -5 1 -9 9 -9 8 0 12 4 9 9 -3 4 -7 8 -9 8 -2 0 -6 -4
-9 -8z"/>
<path d="M2970 2821 c0 -6 4 -13 10 -16 6 -3 7 1 4 9 -7 18 -14 21 -14 7z"/>
<path d="M3019 2813 c-13 -16 -12 -17 3 -5 9 8 23 10 29 6 8 -4 9 -3 5 4 -10
17 -21 15 -37 -5z"/>
<path d="M3073 2795 c0 -8 4 -12 9 -9 4 3 8 9 8 15 0 5 -4 9 -8 9 -5 0 -9 -7
-9 -15z"/>
<path d="M3150 2800 c0 -5 5 -10 11 -10 5 0 7 5 4 10 -3 6 -8 10 -11 10 -2 0
-4 -4 -4 -10z"/>
<path d="M3120 2779 c0 -5 5 -7 10 -4 6 3 10 8 10 11 0 2 -4 4 -10 4 -5 0 -10
-5 -10 -11z"/>
<path d="M3107 2739 c7 -7 15 -10 18 -7 3 3 -2 9 -12 12 -14 6 -15 5 -6 -5z"/>
<path d="M3035 2722 c3 -3 -1 -12 -7 -21 -8 -10 -4 -9 10 3 26 23 26 23 7 23
-8 0 -13 -3 -10 -5z"/>
<path d="M3137 2723 c-3 -5 -1 -17 4 -28 4 -11 8 -14 8 -7 1 7 7 10 14 7 6 -4
4 0 -5 8 -10 8 -15 17 -11 20 3 4 4 7 0 7 -3 0 -8 -3 -10 -7z"/>
<path d="M5890 2719 c0 -5 5 -7 10 -4 6 3 10 8 10 11 0 2 -4 4 -10 4 -5 0 -10
-5 -10 -11z"/>
<path d="M5935 2720 c3 -5 8 -10 11 -10 2 0 4 5 4 10 0 6 -5 10 -11 10 -5 0
-7 -4 -4 -10z"/>
<path d="M5833 2695 c0 -8 4 -12 9 -9 5 3 6 10 3 15 -9 13 -12 11 -12 -6z"/>
<path d="M5933 2685 c0 -8 4 -12 9 -9 5 3 6 10 3 15 -9 13 -12 11 -12 -6z"/>
<path d="M3115 2670 c-4 -6 -10 -8 -14 -5 -5 2 -17 -5 -27 -18 -19 -22 -19
-22 2 -4 11 9 23 15 26 12 3 -3 11 1 18 10 7 8 10 15 7 15 -3 0 -9 -5 -12 -10z"/>
<path d="M5596 2665 c23 -17 34 -19 34 -4 0 5 -4 8 -9 4 -5 -3 -12 -1 -16 5
-3 5 -11 10 -18 10 -6 0 -2 -7 9 -15z"/>
<path d="M2956 2662 c-3 -5 1 -9 9 -9 8 0 12 4 9 9 -3 4 -7 8 -9 8 -2 0 -6 -4
-9 -8z"/>
<path d="M5450 2660 c0 -5 5 -10 11 -10 5 0 7 5 4 10 -3 6 -8 10 -11 10 -2 0
-4 -4 -4 -10z"/>
<path d="M5545 2657 c-14 -11 -15 -16 -5 -22 9 -6 11 -4 5 5 -5 9 -1 11 16 6
13 -3 18 -3 11 0 -6 3 -10 10 -6 15 7 13 1 11 -21 -4z"/>
<path d="M5826 2658 c3 -4 9 -8 15 -8 5 0 9 4 9 8 0 5 -7 9 -15 9 -8 0 -12 -4
-9 -9z"/>
<path d="M5870 2666 c0 -2 7 -7 16 -10 8 -3 12 -2 9 4 -6 10 -25 14 -25 6z"/>
<path d="M3039 2655 c-1 -3 -2 -8 -3 -12 -1 -5 -5 -15 -10 -23 -7 -12 -6 -13
4 -3 13 12 23 43 14 43 -2 0 -5 -2 -5 -5z"/>
<path d="M5432 2636 c7 -8 15 -12 17 -11 5 6 -10 25 -20 25 -5 0 -4 -6 3 -14z"/>
<path d="M5513 2638 c3 -9 1 -19 -6 -21 -7 -3 -2 -4 10 -4 18 1 20 4 10 17
-19 25 -20 26 -14 8z"/>
<path d="M5710 2636 c7 -7 13 -7 20 0 6 6 3 10 -10 10 -13 0 -16 -4 -10 -10z"/>
<path d="M3150 2633 c5 -2 8 -9 5 -13 -3 -5 -1 -11 4 -14 5 -4 8 2 7 11 -2 9
-8 18 -15 19 -6 1 -7 0 -1 -3z"/>
<path d="M5470 2626 c0 -8 4 -17 9 -20 5 -4 7 3 4 14 -6 23 -13 26 -13 6z"/>
<path d="M5671 2627 c2 -1 13 -9 24 -17 19 -14 19 -14 6 3 -7 9 -18 17 -24 17
-6 0 -8 -1 -6 -3z"/>
<path d="M3070 2616 c0 -2 8 -10 18 -17 15 -13 16 -12 3 4 -13 16 -21 21 -21
13z"/>
<path d="M3190 2610 c-13 -8 -12 -10 3 -10 9 0 17 5 17 10 0 12 -1 12 -20 0z"/>
<path d="M3125 2602 c-5 -4 -11 -12 -12 -19 -3 -13 22 -12 34 2 5 4 2 5 -6 0
-11 -6 -13 -4 -8 8 7 19 6 20 -8 9z"/>
<path d="M5316 2602 c-3 -5 1 -13 10 -16 8 -3 13 -10 9 -15 -3 -6 3 -14 12
-20 16 -9 16 -12 3 -21 -9 -6 -10 -10 -3 -10 22 0 26 23 7 37 -10 8 -17 15
-15 16 3 1 0 10 -6 21 -6 11 -13 14 -17 8z"/>
<path d="M5352 2598 c2 -6 10 -13 16 -14 7 -1 8 0 2 3 -5 2 -8 9 -4 14 3 5 0
9 -6 9 -7 0 -10 -5 -8 -12z"/>
<path d="M5456 2597 c3 -10 9 -15 12 -12 3 3 0 11 -7 18 -10 9 -11 8 -5 -6z"/>
<path d="M5584 2602 c4 -3 14 -7 22 -8 9 -1 13 0 10 4 -4 3 -14 7 -22 8 -9 1
-13 0 -10 -4z"/>
<path d="M2873 2585 c0 -8 4 -12 9 -9 5 3 6 10 3 15 -9 13 -12 11 -12 -6z"/>
<path d="M3170 2579 c0 -5 5 -7 10 -4 6 3 10 8 10 11 0 2 -4 4 -10 4 -5 0 -10
-5 -10 -11z"/>
<path d="M5390 2575 c0 -8 2 -15 4 -15 2 0 6 7 10 15 3 8 1 15 -4 15 -6 0 -10
-7 -10 -15z"/>
<path d="M5435 2579 c-4 -6 -5 -12 -2 -15 2 -3 7 2 10 11 7 17 1 20 -8 4z"/>
<path d="M5477 2576 c-3 -8 0 -17 7 -19 10 -4 12 1 9 14 -6 23 -9 24 -16 5z"/>
<path d="M5560 2580 c8 -5 20 -10 25 -10 6 0 3 5 -5 10 -8 5 -19 10 -25 10 -5
0 -3 -5 5 -10z"/>
<path d="M5855 2579 c-3 -4 2 -6 10 -5 21 3 28 13 10 13 -9 0 -18 -4 -20 -8z"/>
<path d="M6025 2580 c-3 -6 1 -7 9 -4 18 7 21 14 7 14 -6 0 -13 -4 -16 -10z"/>
<path d="M3094 2546 c1 -8 5 -18 8 -22 4 -3 5 1 4 10 -1 8 -5 18 -8 22 -4 3
-5 -1 -4 -10z"/>
<path d="M3170 2549 c0 -5 -4 -8 -9 -4 -5 3 -12 1 -15 -4 -4 -5 2 -8 11 -7 15
3 33 26 19 26 -3 0 -6 -5 -6 -11z"/>
<path d="M5314 2541 c3 -5 -1 -12 -10 -15 -8 -3 -12 -10 -9 -16 3 -5 2 -10 -4
-10 -5 0 -12 5 -14 10 -3 6 -4 5 -3 -2 3 -15 26 -18 25 -4 0 5 6 13 15 18 18
10 21 28 5 28 -5 0 -8 -4 -5 -9z"/>
<path d="M5406 2538 c3 -4 9 -8 15 -8 5 0 9 4 9 8 0 5 -7 9 -15 9 -8 0 -12 -4
-9 -9z"/>
<path d="M5590 2536 c7 -7 13 -7 20 0 6 6 3 10 -10 10 -13 0 -16 -4 -10 -10z"/>
<path d="M5630 2541 c0 -6 4 -13 10 -16 6 -3 7 1 4 9 -7 18 -14 21 -14 7z"/>
<path d="M5479 2528 c-4 -13 -4 -90 1 -93 3 -2 6 19 6 46 0 41 -2 59 -7 47z"/>
<path d="M5510 2515 c5 -7 6 -16 2 -21 -4 -5 -3 -5 2 -1 15 12 15 34 0 34 -9
0 -11 -4 -4 -12z"/>
<path d="M5739 2528 c-5 -18 -6 -38 -1 -34 7 8 12 36 6 36 -2 0 -4 -1 -5 -2z"/>
<path d="M3141 2504 c0 -11 3 -14 6 -6 3 7 2 16 -1 19 -3 4 -6 -2 -5 -13z"/>
<path d="M3066 2498 c3 -5 10 -6 15 -3 13 9 11 12 -6 12 -8 0 -12 -4 -9 -9z"/>
<path d="M3210 2500 c0 -5 5 -10 10 -10 6 0 10 5 10 10 0 6 -4 10 -10 10 -5 0
-10 -4 -10 -10z"/>
<path d="M5200 2500 c-13 -8 -13 -10 2 -10 9 0 20 5 23 10 8 13 -5 13 -25 0z"/>
<path d="M5320 2495 c-19 -22 -8 -25 13 -3 9 10 13 18 8 18 -5 0 -14 -7 -21
-15z"/>
<path d="M5575 2500 c3 -5 8 -10 11 -10 2 0 4 5 4 10 0 6 -5 10 -11 10 -5 0
-7 -4 -4 -10z"/>
<path d="M3080 2480 c-9 -6 -10 -10 -3 -10 6 0 15 5 18 10 8 12 4 12 -15 0z"/>
<path d="M3110 2486 c0 -2 7 -7 16 -10 8 -3 12 -2 9 4 -6 10 -25 14 -25 6z"/>
<path d="M3200 2470 c6 -11 13 -20 16 -20 2 0 0 9 -6 20 -6 11 -13 20 -16 20
-2 0 0 -9 6 -20z"/>
<path d="M5251 2472 c-7 -14 -6 -19 4 -19 7 0 11 7 7 15 -4 11 -1 13 8 7 9 -5
11 -4 6 3 -10 16 -14 15 -25 -6z"/>
<path d="M5337 2469 c7 -7 15 -10 18 -7 3 3 -2 9 -12 12 -14 6 -15 5 -6 -5z"/>
<path d="M5375 2469 c-4 -6 -5 -12 -2 -15 2 -3 7 2 10 11 7 17 1 20 -8 4z"/>
<path d="M5410 2476 c0 -2 8 -10 18 -17 15 -13 16 -12 3 4 -13 16 -21 21 -21
13z"/>
<path d="M5160 2460 c0 -5 5 -10 11 -10 5 0 7 5 4 10 -3 6 -8 10 -11 10 -2 0
-4 -4 -4 -10z"/>
<path d="M5196 2454 c-9 -24 -2 -26 12 -4 7 11 8 20 3 20 -5 0 -12 -7 -15 -16z"/>
<path d="M3070 2446 c0 -2 7 -7 16 -10 8 -3 12 -2 9 4 -6 10 -25 14 -25 6z"/>
<path d="M3159 2448 c-9 -31 -4 -80 9 -90 13 -11 14 -11 6 2 -12 20 -12 73 1
82 6 5 5 8 -2 8 -7 0 -13 -1 -14 -2z"/>
<path d="M3231 2445 c1 -19 18 -51 18 -35 0 8 -4 22 -9 30 -5 8 -9 11 -9 5z"/>
<path d="M5206 2429 c-9 -11 -11 -19 -6 -19 6 0 13 6 16 14 3 8 13 12 25 9 10
-3 19 -3 19 0 0 15 -40 12 -54 -4z"/>
<path d="M5390 2446 c0 -2 7 -7 16 -10 8 -3 12 -2 9 4 -6 10 -25 14 -25 6z"/>
<path d="M5535 2440 c3 -5 8 -10 11 -10 2 0 4 5 4 10 0 6 -5 10 -11 10 -5 0
-7 -4 -4 -10z"/>
<path d="M5570 2439 c0 -5 5 -7 10 -4 6 3 10 8 10 11 0 2 -4 4 -10 4 -5 0 -10
-5 -10 -11z"/>
<path d="M5710 2443 c0 -6 8 -17 18 -24 16 -13 16 -13 2 6 -8 11 -16 22 -17
24 -2 2 -3 0 -3 -6z"/>
<path d="M5275 2429 c-11 -16 -1 -19 13 -3 7 8 8 14 3 14 -5 0 -13 -5 -16 -11z"/>
<path d="M5370 2436 c0 -2 8 -10 18 -17 15 -13 16 -12 3 4 -13 16 -21 21 -21
13z"/>
<path d="M3030 2422 c0 -5 7 -9 15 -9 8 0 12 4 9 9 -3 4 -9 8 -15 8 -5 0 -9
-4 -9 -8z"/>
<path d="M3204 2419 c-3 -6 -2 -15 4 -21 6 -6 12 -6 17 3 6 8 4 10 -5 4 -10
-6 -12 -4 -7 8 7 19 2 23 -9 6z"/>
<path d="M5113 2412 c15 -10 24 -22 20 -27 -5 -4 -2 -5 6 0 11 6 9 12 -10 26
-13 10 -28 19 -34 19 -5 0 2 -8 18 -18z"/>
<path d="M5150 2420 c0 -5 7 -7 15 -4 8 4 15 8 15 10 0 2 -7 4 -15 4 -8 0 -15
-4 -15 -10z"/>
<path d="M5350 2420 c0 -5 5 -10 11 -10 5 0 7 5 4 10 -3 6 -8 10 -11 10 -2 0
-4 -4 -4 -10z"/>
<path d="M3115 2390 c10 -11 20 -20 23 -20 3 0 -3 9 -13 20 -10 11 -20 20 -23
20 -3 0 3 -9 13 -20z"/>
<path d="M5075 2401 c-4 -7 0 -8 10 -5 10 4 15 2 13 -6 -2 -7 4 -15 12 -17 12
-4 12 -3 2 5 -8 5 -13 13 -12 18 2 13 -17 17 -25 5z"/>
<path d="M5172 2405 c4 -4 0 -14 -10 -22 -9 -8 -12 -12 -5 -9 6 4 13 1 15 -6
3 -7 7 -2 10 10 4 12 1 25 -5 29 -7 3 -9 3 -5 -2z"/>
<path d="M5245 2399 c-4 -6 -5 -12 -2 -15 2 -3 7 2 10 11 7 17 1 20 -8 4z"/>
<path d="M5535 2400 c3 -5 8 -10 11 -10 2 0 4 5 4 10 0 6 -5 10 -11 10 -5 0
-7 -4 -4 -10z"/>
<path d="M3035 2391 c-3 -5 -2 -12 3 -15 5 -3 9 1 9 9 0 17 -3 19 -12 6z"/>
<path d="M3250 2380 c0 -5 5 -10 11 -10 5 0 7 5 4 10 -3 6 -8 10 -11 10 -2 0
-4 -4 -4 -10z"/>
<path d="M5045 2380 c-3 -5 -1 -10 4 -10 6 0 11 5 11 10 0 6 -2 10 -4 10 -3 0
-8 -4 -11 -10z"/>
<path d="M5216 2373 c-6 -14 -5 -15 5 -6 7 7 10 15 7 18 -3 3 -9 -2 -12 -12z"/>
<path d="M5267 2379 c7 -7 15 -10 18 -7 3 3 -2 9 -12 12 -14 6 -15 5 -6 -5z"/>
<path d="M5076 2367 c3 -10 9 -15 12 -12 3 3 0 11 -7 18 -10 9 -11 8 -5 -6z"/>
<path d="M3227 2350 c3 -11 9 -20 15 -20 5 0 4 9 -2 20 -6 11 -12 20 -14 20
-2 0 -2 -9 1 -20z"/>
<path d="M5134 2363 c4 -7 -2 -13 -16 -15 -22 -3 -22 -4 3 -9 27 -6 34 10 14
28 -4 4 -5 3 -1 -4z"/>
<path d="M5239 2353 c-13 -16 -12 -17 4 -4 9 7 17 15 17 17 0 8 -8 3 -21 -13z"/>
<path d="M5439 2353 c-12 -16 -12 -17 2 -6 9 7 20 9 24 5 5 -4 5 -1 1 6 -9 16
-11 15 -27 -5z"/>
<path d="M3133 2347 c0 -8 6 -14 14 -14 9 0 10 4 2 14 -6 7 -12 13 -14 13 -1
0 -2 -6 -2 -13z"/>
<path d="M5048 2353 c-10 -2 -18 -9 -18 -14 0 -6 8 -5 20 1 11 6 20 13 20 15
0 3 -1 4 -2 4 -2 -1 -11 -3 -20 -6z"/>
<path d="M5170 2341 c0 -6 4 -13 10 -16 6 -3 7 1 4 9 -7 18 -14 21 -14 7z"/>
<path d="M5390 2339 c0 -5 5 -7 10 -4 6 3 10 8 10 11 0 2 -4 4 -10 4 -5 0 -10
-5 -10 -11z"/>
<path d="M4995 2329 c-4 -6 -4 -13 -1 -16 3 -4 6 -1 6 6 0 7 5 9 12 5 7 -4 8
-3 4 4 -9 15 -13 15 -21 1z"/>
<path d="M5070 2331 c0 -7 -5 -9 -12 -5 -7 5 -8 3 -3 -5 5 -9 10 -10 18 -2 6
6 8 14 4 18 -4 3 -7 1 -7 -6z"/>
<path d="M3019 2328 c-5 -18 -6 -38 -1 -34 7 8 12 36 6 36 -2 0 -4 -1 -5 -2z"/>
<path d="M3257 2322 c-3 -4 3 -18 14 -31 10 -13 19 -19 19 -13 0 6 -7 17 -15
25 -8 8 -11 17 -8 21 4 3 4 6 0 6 -3 0 -8 -3 -10 -8z"/>
<path d="M5220 2326 c0 -2 8 -10 18 -17 15 -13 16 -12 3 4 -13 16 -21 21 -21
13z"/>
<path d="M3169 2304 c-11 -14 -24 -52 -14 -42 2 1 3 6 2 9 -1 4 7 16 17 28 11
12 17 21 14 21 -3 0 -12 -7 -19 -16z"/>
<path d="M3202 2297 c-20 -21 -20 -23 -3 -23 12 0 17 5 13 15 -3 8 -1 12 5 8
5 -3 10 0 10 8 0 19 0 19 -25 -8z"/>
<path d="M5010 2300 c0 -5 5 -10 10 -10 6 0 10 5 10 10 0 6 -4 10 -10 10 -5 0
-10 -4 -10 -10z"/>
<path d="M5075 2300 c-3 -5 -1 -10 4 -10 6 0 11 5 11 10 0 6 -2 10 -4 10 -3 0
-8 -4 -11 -10z"/>
<path d="M5125 2300 c-2 -3 7 -6 21 -6 13 0 24 3 24 7 0 9 -40 8 -45 -1z"/>
<path d="M3095 2280 c3 -5 8 -10 11 -10 2 0 4 5 4 10 0 6 -5 10 -11 10 -5 0
-7 -4 -4 -10z"/>
<path d="M3255 2280 c6 -9 4 -12 -7 -8 -8 4 -15 1 -15 -6 0 -17 25 -16 31 0 3
8 0 16 -6 20 -7 5 -8 2 -3 -6z"/>
<path d="M4950 2284 c0 -5 7 -18 15 -28 8 -11 15 -16 15 -10 0 5 -7 18 -15 28
-8 11 -15 16 -15 10z"/>
<path d="M4990 2280 c0 -5 5 -10 11 -10 5 0 7 5 4 10 -3 6 -8 10 -11 10 -2 0
-4 -4 -4 -10z"/>
<path d="M5415 2281 c-3 -5 -2 -12 3 -15 5 -3 9 1 9 9 0 17 -3 19 -12 6z"/>
<path d="M5028 2273 c7 -3 16 -2 19 1 4 3 -2 6 -13 5 -11 0 -14 -3 -6 -6z"/>
<path d="M2870 2259 c0 -5 5 -7 10 -4 6 3 10 8 10 11 0 2 -4 4 -10 4 -5 0 -10
-5 -10 -11z"/>
<path d="M3010 2260 c0 -5 5 -10 11 -10 5 0 7 5 4 10 -3 6 -8 10 -11 10 -2 0
-4 -4 -4 -10z"/>
<path d="M3054 2256 c1 -8 5 -18 8 -22 4 -3 5 1 4 10 -1 8 -5 18 -8 22 -4 3
-5 -1 -4 -10z"/>
<path d="M5310 2266 c0 -2 7 -7 16 -10 8 -3 12 -2 9 4 -6 10 -25 14 -25 6z"/>
<path d="M3279 2258 c-5 -18 -6 -38 -1 -34 7 8 12 36 6 36 -2 0 -4 -1 -5 -2z"/>
<path d="M4884 2245 c-19 -15 -19 -15 1 -8 18 6 18 5 6 -10 -9 -11 -10 -17 -2
-17 6 0 11 3 12 8 0 4 2 15 4 25 4 21 4 21 -21 2z"/>
<path d="M4995 2249 c-4 -6 -5 -12 -2 -15 2 -3 7 2 10 11 7 17 1 20 -8 4z"/>
<path d="M5040 2256 c0 -2 7 -7 16 -10 8 -3 12 -2 9 4 -6 10 -25 14 -25 6z"/>
<path d="M3201 2236 c-9 -11 -9 -16 1 -22 7 -4 10 -4 6 1 -4 4 -3 14 3 22 6 7
9 13 6 13 -2 0 -10 -6 -16 -14z"/>
<path d="M4842 2220 c-6 -11 -12 -22 -12 -24 0 -7 29 0 37 9 4 4 2 5 -6 0 -10
-6 -12 -2 -6 14 8 26 3 27 -13 1z"/>
<path d="M5034 2226 c1 -8 5 -18 8 -22 4 -3 5 1 4 10 -1 8 -5 18 -8 22 -4 3
-5 -1 -4 -10z"/>
<path d="M5090 2237 c0 -2 6 -10 14 -16 11 -9 16 -9 22 1 4 7 4 10 -1 6 -4 -4
-14 -3 -22 3 -7 6 -13 9 -13 6z"/>
<path d="M4926 2215 c4 -8 8 -15 10 -15 2 0 4 7 4 15 0 8 -4 15 -10 15 -5 0
-7 -7 -4 -15z"/>
<path d="M5007 2199 c7 -7 15 -10 18 -7 3 3 -2 9 -12 12 -14 6 -15 5 -6 -5z"/>
<path d="M3209 2184 c-11 -14 -24 -52 -14 -42 2 1 3 6 2 9 -1 4 7 16 17 28 11
12 17 21 14 21 -3 0 -12 -7 -19 -16z"/>
<path d="M3258 2187 c8 -9 11 -22 7 -29 -4 -7 -1 -6 7 3 7 9 20 14 28 11 8 -3
12 -2 8 2 -3 4 -12 8 -20 10 -7 1 -20 6 -28 11 -13 8 -13 6 -2 -8z"/>
<path d="M4870 2180 c0 -5 5 -10 11 -10 5 0 7 5 4 10 -3 6 -8 10 -11 10 -2 0
-4 -4 -4 -10z"/>
<path d="M4970 2182 c0 -4 10 -9 22 -9 18 -2 20 0 8 7 -18 12 -30 13 -30 2z"/>
<path d="M5086 2182 c-3 -5 1 -9 9 -9 8 0 12 4 9 9 -3 4 -7 8 -9 8 -2 0 -6 -4
-9 -8z"/>
<path d="M4780 2172 c0 -7 -6 -11 -12 -9 -7 1 -13 -4 -13 -12 0 -8 6 -15 13
-17 7 -1 8 0 2 3 -5 2 -10 9 -10 14 0 6 4 8 9 4 11 -6 26 13 17 22 -3 4 -6 1
-6 -5z"/>
<path d="M3030 2165 c0 -7 30 -13 34 -7 3 4 -4 9 -15 9 -10 1 -19 0 -19 -2z"/>
<path d="M5170 2159 c0 -5 5 -7 10 -4 6 3 10 8 10 11 0 2 -4 4 -10 4 -5 0 -10
-5 -10 -11z"/>
<path d="M3216 2142 c-3 -5 1 -9 9 -9 8 0 12 4 9 9 -3 4 -7 8 -9 8 -2 0 -6 -4
-9 -8z"/>
<path d="M4840 2136 c0 -8 4 -17 9 -20 5 -4 7 3 4 14 -6 23 -13 26 -13 6z"/>
<path d="M4930 2139 c0 -5 4 -8 9 -4 6 3 14 -3 20 -12 6 -10 11 -13 11 -7 0
12 -20 34 -32 34 -4 0 -8 -5 -8 -11z"/>
<path d="M5086 2138 c3 -5 10 -6 15 -3 13 9 11 12 -6 12 -8 0 -12 -4 -9 -9z"/>
<path d="M3279 2138 c-5 -18 -6 -38 -1 -34 7 8 12 36 6 36 -2 0 -4 -1 -5 -2z"/>
<path d="M4999 2138 c-5 -18 -6 -38 -1 -34 7 8 12 36 6 36 -2 0 -4 -1 -5 -2z"/>
<path d="M3239 2113 c-13 -16 -12 -17 4 -4 16 13 21 21 13 21 -2 0 -10 -8 -17
-17z"/>
<path d="M4790 2120 c0 -5 5 -10 10 -10 6 0 10 5 10 10 0 6 -4 10 -10 10 -5 0
-10 -4 -10 -10z"/>
<path d="M4880 2120 c-9 -6 -10 -10 -3 -10 6 0 15 5 18 10 8 12 4 12 -15 0z"/>
<path d="M5120 2120 c-12 -7 -10 -9 7 -7 12 0 19 5 17 9 -6 10 -6 10 -24 -2z"/>
<path d="M4934 2100 c0 -13 4 -16 10 -10 7 7 7 13 0 20 -6 6 -10 3 -10 -10z"/>
<path d="M4755 2101 c3 -5 0 -11 -7 -13 -7 -3 -5 -7 6 -11 9 -4 15 -3 11 2 -3
5 0 11 7 13 7 3 5 7 -6 11 -9 4 -15 3 -11 -2z"/>
<path d="M3136 2078 c3 -5 10 -6 15 -3 13 9 11 12 -6 12 -8 0 -12 -4 -9 -9z"/>
<path d="M3279 2073 c-13 -16 -12 -17 4 -4 16 13 21 21 13 21 -2 0 -10 -8 -17
-17z"/>
<path d="M4693 2073 c-3 -7 -10 -10 -16 -6 -6 4 -7 1 -2 -7 6 -10 11 -10 20 3
7 9 14 14 17 11 4 -3 8 -1 12 4 3 5 -2 9 -10 9 -9 0 -18 -6 -21 -14z"/>
<path d="M5116 2067 c3 -10 9 -15 12 -12 3 3 0 11 -7 18 -10 9 -11 8 -5 -6z"/>
<path d="M4730 2062 c0 -5 7 -9 15 -9 8 0 12 4 9 9 -3 4 -9 8 -15 8 -5 0 -9
-4 -9 -8z"/>
<path d="M4794 2044 c0 -20 11 -25 11 -6 0 4 3 12 7 18 4 6 1 11 -5 11 -7 0
-13 -11 -13 -23z"/>
<path d="M4855 2060 c-3 -5 -1 -10 4 -10 6 0 11 5 11 10 0 6 -2 10 -4 10 -3 0
-8 -4 -11 -10z"/>
<path d="M4648 2053 c6 -2 9 -10 6 -15 -4 -7 -2 -8 5 -4 13 9 5 26 -12 25 -9
0 -8 -2 1 -6z"/>
<path d="M4699 2048 c-6 -22 -5 -39 3 -45 7 -4 8 -1 3 7 -6 9 -4 12 7 8 8 -4
15 -1 15 7 0 8 -7 11 -15 7 -10 -3 -13 -1 -8 6 4 7 5 12 2 12 -3 0 -6 -1 -7
-2z"/>
<path d="M4755 2040 c-16 -7 -17 -9 -3 -9 9 -1 20 4 23 9 7 11 7 11 -20 0z"/>
<path d="M3293 2026 c0 -14 50 -17 63 -4 4 4 -4 5 -16 3 -13 -3 -29 0 -35 5
-8 7 -12 5 -12 -4z"/>
<path d="M4630 2031 c0 -6 4 -13 10 -16 6 -3 7 1 4 9 -7 18 -14 21 -14 7z"/>
<path d="M3135 2020 c-3 -5 -1 -10 4 -10 6 0 11 5 11 10 0 6 -2 10 -4 10 -3 0
-8 -4 -11 -10z"/>
<path d="M4600 2015 c-7 -9 -11 -17 -9 -20 3 -2 10 5 17 15 14 24 10 26 -8 5z"/>
<path d="M4615 1999 c-4 -6 -5 -12 -2 -15 2 -3 7 2 10 11 7 17 1 20 -8 4z"/>
<path d="M4635 1990 c-3 -6 1 -7 9 -4 18 7 21 14 7 14 -6 0 -13 -4 -16 -10z"/>
<path d="M4673 1985 c0 -8 4 -15 9 -15 4 0 8 4 8 9 0 6 -4 12 -8 15 -5 3 -9
-1 -9 -9z"/>
<path d="M3220 1986 c0 -2 8 -10 18 -17 15 -13 16 -12 3 4 -13 16 -21 21 -21
13z"/>
<path d="M4570 1970 c6 -11 12 -20 14 -20 2 0 2 9 -1 20 -3 11 -9 20 -15 20
-5 0 -4 -9 2 -20z"/>
<path d="M4975 1980 c-3 -5 -1 -10 4 -10 6 0 11 5 11 10 0 6 -2 10 -4 10 -3 0
-8 -4 -11 -10z"/>
<path d="M5065 1980 c-3 -6 1 -7 9 -4 18 7 21 14 7 14 -6 0 -13 -4 -16 -10z"/>
<path d="M4536 1963 c-6 -14 -5 -15 5 -6 7 7 10 15 7 18 -3 3 -9 -2 -12 -12z"/>
<path d="M3342 1944 c10 -10 20 -16 22 -13 3 3 -5 11 -17 18 -21 13 -21 12 -5
-5z"/>
<path d="M4689 1943 c-13 -16 -12 -17 4 -4 9 7 17 15 17 17 0 8 -8 3 -21 -13z"/>
<path d="M4475 1941 c-6 -11 13 -26 22 -17 4 3 1 6 -6 6 -7 0 -9 5 -6 10 3 6
4 10 1 10 -3 0 -7 -4 -11 -9z"/>
<path d="M4545 1939 c-4 -6 -4 -13 -1 -16 3 -4 6 -1 6 6 0 8 6 11 16 7 8 -3
12 -2 9 4 -8 13 -22 13 -30 -1z"/>
<path d="M4611 1947 c2 -1 15 -11 29 -22 l25 -20 -19 23 c-11 12 -24 22 -29
22 -6 0 -8 -1 -6 -3z"/>
<path d="M4753 1933 c0 -9 4 -10 14 -2 7 6 13 12 13 14 0 1 -6 2 -13 2 -8 0
-14 -6 -14 -14z"/>
<path d="M4795 1940 c-3 -5 -1 -10 4 -10 6 0 11 5 11 10 0 6 -2 10 -4 10 -3 0
-8 -4 -11 -10z"/>
<path d="M3176 1922 c-3 -5 1 -9 9 -9 8 0 12 4 9 9 -3 4 -7 8 -9 8 -2 0 -6 -4
-9 -8z"/>
<path d="M4593 1913 c0 -9 4 -10 14 -2 7 6 13 12 13 14 0 1 -6 2 -13 2 -8 0
-14 -6 -14 -14z"/>
<path d="M4570 1906 c0 -8 4 -17 9 -20 5 -4 7 3 4 14 -6 23 -13 26 -13 6z"/>
<path d="M3240 1900 c-9 -6 -10 -10 -3 -10 6 0 15 5 18 10 8 12 4 12 -15 0z"/>
<path d="M3294 1898 c-4 -7 -4 -10 1 -6 4 4 15 2 24 -5 14 -11 14 -10 2 6 -16
20 -18 21 -27 5z"/>
<path d="M4480 1900 c-8 -5 -10 -10 -5 -10 6 0 17 5 25 10 8 5 11 10 5 10 -5
0 -17 -5 -25 -10z"/>
<path d="M4535 1899 c-6 -8 -4 -10 5 -4 10 6 12 4 6 -11 -6 -15 -5 -17 5 -6 9
9 10 15 2 23 -8 8 -13 7 -18 -2z"/>
<path d="M4614 1898 c-4 -7 -3 -10 1 -5 5 4 18 -1 29 -10 21 -18 21 -18 2 5
-22 26 -23 26 -32 10z"/>
<path d="M4790 1906 c0 -2 7 -7 16 -10 8 -3 12 -2 9 4 -6 10 -25 14 -25 6z"/>
<path d="M4430 1880 c-11 -7 -11 -10 -2 -10 7 0 10 -5 6 -11 -4 -8 0 -8 15 0
25 14 28 23 4 14 -11 -4 -14 -3 -9 5 9 14 6 15 -14 2z"/>
<path d="M4770 1879 c0 -5 5 -7 10 -4 6 3 10 8 10 11 0 2 -4 4 -10 4 -5 0 -10
-5 -10 -11z"/>
<path d="M4875 1871 c-3 -5 -2 -12 3 -15 5 -3 9 1 9 9 0 17 -3 19 -12 6z"/>
<path d="M3296 1858 c3 -5 10 -6 15 -3 13 9 11 12 -6 12 -8 0 -12 -4 -9 -9z"/>
<path d="M3370 1861 c0 -6 4 -13 10 -16 6 -3 7 1 4 9 -7 18 -14 21 -14 7z"/>
<path d="M4495 1859 c-4 -6 -4 -13 -1 -16 3 -4 6 -1 6 6 0 7 5 9 12 5 7 -4 8
-3 4 4 -9 15 -13 15 -21 1z"/>
<path d="M4589 1843 c-13 -16 -12 -17 4 -4 16 13 21 21 13 21 -2 0 -10 -8 -17
-17z"/>
<path d="M4350 1840 c-9 -6 -10 -10 -3 -10 6 0 15 5 18 10 8 12 4 12 -15 0z"/>
<path d="M4519 1833 c-13 -16 -12 -17 4 -4 9 7 17 15 17 17 0 8 -8 3 -21 -13z"/>
<path d="M4735 1840 c3 -5 8 -10 11 -10 2 0 4 5 4 10 0 6 -5 10 -11 10 -5 0
-7 -4 -4 -10z"/>
<path d="M3360 1820 c-9 -6 -10 -10 -3 -10 6 0 15 5 18 10 8 12 4 12 -15 0z"/>
<path d="M4359 1813 c-12 -16 -12 -17 2 -6 9 7 19 10 22 6 4 -3 7 -1 7 5 0 17
-16 15 -31 -5z"/>
<path d="M4416 1813 c-6 -14 -5 -15 5 -6 7 7 10 15 7 18 -3 3 -9 -2 -12 -12z"/>
<path d="M4474 1804 c0 -20 11 -25 11 -6 0 4 3 12 7 18 4 6 1 11 -5 11 -7 0
-13 -11 -13 -23z"/>
<path d="M4596 1813 c-6 -14 -5 -15 5 -6 7 7 10 15 7 18 -3 3 -9 -2 -12 -12z"/>
<path d="M3234 1802 c4 -3 14 -7 22 -8 9 -1 13 0 10 4 -4 3 -14 7 -22 8 -9 1
-13 0 -10 -4z"/>
<path d="M4439 1793 c-13 -16 -12 -17 4 -4 9 7 17 15 17 17 0 8 -8 3 -21 -13z"/>
<path d="M4650 1799 c0 -5 5 -7 10 -4 6 3 10 8 10 11 0 2 -4 4 -10 4 -5 0 -10
-5 -10 -11z"/>
<path d="M4694 1798 c-4 -7 -4 -10 1 -6 4 4 15 2 24 -5 14 -11 14 -10 2 6 -16
20 -18 21 -27 5z"/>
<path d="M3196 1782 c-3 -5 1 -9 9 -9 8 0 12 4 9 9 -3 4 -7 8 -9 8 -2 0 -6 -4
-9 -8z"/>
<path d="M3275 1781 c-3 -5 -2 -12 3 -15 5 -3 9 1 9 9 0 17 -3 19 -12 6z"/>
<path d="M4296 1781 c-4 -5 3 -7 14 -4 23 6 26 13 6 13 -8 0 -17 -4 -20 -9z"/>
<path d="M4655 1771 c-3 -5 -2 -12 3 -15 5 -3 9 1 9 9 0 17 -3 19 -12 6z"/>
<path d="M3330 1760 c0 -5 5 -10 11 -10 5 0 7 5 4 10 -3 6 -8 10 -11 10 -2 0
-4 -4 -4 -10z"/>
<path d="M4316 1758 c3 -5 10 -6 15 -3 13 9 11 12 -6 12 -8 0 -12 -4 -9 -9z"/>
<path d="M4420 1766 c0 -2 8 -10 18 -17 15 -13 16 -12 3 4 -13 16 -21 21 -21
13z"/>
<path d="M4373 1746 c0 -15 22 -15 34 0 4 5 4 6 -1 2 -5 -4 -14 -3 -21 2 -8 7
-12 5 -12 -4z"/>
<path d="M4270 1740 c0 -5 5 -10 10 -10 6 0 10 5 10 10 0 6 -4 10 -10 10 -5 0
-10 -4 -10 -10z"/>
<path d="M3314 1722 c4 -3 14 -7 22 -8 9 -1 13 0 10 4 -4 3 -14 7 -22 8 -9 1
-13 0 -10 -4z"/>
<path d="M4190 1711 c0 -6 4 -12 8 -15 5 -3 9 1 9 9 0 8 -4 15 -9 15 -4 0 -8
-4 -8 -9z"/>
<path d="M4286 1705 c-11 -8 -15 -15 -9 -15 6 0 16 7 23 15 16 19 11 19 -14 0z"/>
<path d="M4376 1707 c3 -10 9 -15 12 -12 3 3 0 11 -7 18 -10 9 -11 8 -5 -6z"/>
<path d="M4516 1707 c3 -10 9 -15 12 -12 3 3 0 11 -7 18 -10 9 -11 8 -5 -6z"/>
<path d="M3374 1682 c4 -3 14 -7 22 -8 9 -1 13 0 10 4 -4 3 -14 7 -22 8 -9 1
-13 0 -10 -4z"/>
<path d="M4224 1682 c4 -3 14 -7 22 -8 9 -1 13 0 10 4 -4 3 -14 7 -22 8 -9 1
-13 0 -10 -4z"/>
<path d="M3350 1661 c0 -6 4 -13 10 -16 6 -3 7 1 4 9 -7 18 -14 21 -14 7z"/>
<path d="M4115 1660 c-3 -5 -1 -10 4 -10 6 0 11 5 11 10 0 6 -2 10 -4 10 -3 0
-8 -4 -11 -10z"/>
<path d="M4150 1642 c0 -5 7 -9 15 -9 8 0 12 4 9 9 -3 4 -9 8 -15 8 -5 0 -9
-4 -9 -8z"/>
<path d="M4270 1646 c0 -2 7 -7 16 -10 8 -3 12 -2 9 4 -6 10 -25 14 -25 6z"/>
<path d="M4370 1640 c0 -5 5 -10 11 -10 5 0 7 5 4 10 -3 6 -8 10 -11 10 -2 0
-4 -4 -4 -10z"/>
<path d="M4113 1625 c0 -8 4 -12 9 -9 5 3 6 10 3 15 -9 13 -12 11 -12 -6z"/>
<path d="M4230 1636 c0 -2 8 -10 18 -17 15 -13 16 -12 3 4 -13 16 -21 21 -21
13z"/>
<path d="M4430 1621 c0 -6 4 -13 10 -16 6 -3 7 1 4 9 -7 18 -14 21 -14 7z"/>
<path d="M4375 1599 c-3 -4 2 -6 10 -5 21 3 28 13 10 13 -9 0 -18 -4 -20 -8z"/>
<path d="M4034 1586 c1 -8 5 -18 8 -22 4 -3 5 1 4 10 -1 8 -5 18 -8 22 -4 3
-5 -1 -4 -10z"/>
<path d="M3410 1586 c0 -2 7 -7 16 -10 8 -3 12 -2 9 4 -6 10 -25 14 -25 6z"/>
<path d="M4293 1565 c0 -8 4 -12 9 -9 5 3 6 10 3 15 -9 13 -12 11 -12 -6z"/>
<path d="M4016 1538 c3 -5 10 -6 15 -3 13 9 11 12 -6 12 -8 0 -12 -4 -9 -9z"/>
<path d="M4055 1520 c3 -5 8 -10 11 -10 2 0 4 5 4 10 0 6 -5 10 -11 10 -5 0
-7 -4 -4 -10z"/>
<path d="M4090 1519 c0 -5 5 -7 10 -4 6 3 10 8 10 11 0 2 -4 4 -10 4 -5 0 -10
-5 -10 -11z"/>
<path d="M3850 1440 c0 -5 5 -10 11 -10 5 0 7 5 4 10 -3 6 -8 10 -11 10 -2 0
-4 -4 -4 -10z"/>
<path d="M4150 1340 c0 -5 5 -10 11 -10 5 0 7 5 4 10 -3 6 -8 10 -11 10 -2 0
-4 -4 -4 -10z"/>
<path d="M4110 1300 c0 -5 5 -10 11 -10 5 0 7 5 4 10 -3 6 -8 10 -11 10 -2 0
-4 -4 -4 -10z"/>
</g>
</svg>
