<svg xmlns="http://www.w3.org/2000/svg" xmlns:xlink="http://www.w3.org/1999/xlink" width="292.702" height="63.139" viewBox="0 0 292.702 63.139"><defs><linearGradient id="a" x1="-0.311" y1="0.685" x2="1.382" y2="0.397" gradientUnits="objectBoundingBox"><stop offset="0"/><stop offset="0.055" stop-color="#290007"/><stop offset="0.147" stop-color="#690012"/><stop offset="0.236" stop-color="#9f001b"/><stop offset="0.318" stop-color="#c80022"/><stop offset="0.392" stop-color="#e60027"/><stop offset="0.455" stop-color="#f9002a"/><stop offset="0.5" stop-color="#ff002b"/><stop offset="1" stop-color="#f7931e"/></linearGradient><radialGradient id="b" cx="0.583" cy="0.028" r="1.58" gradientTransform="translate(0.004 0.027) scale(0.994 0.626)" xlink:href="#a"/><radialGradient id="c" cx="0.189" cy="0.964" r="0.87" gradientTransform="translate(-0.355 -0.042) scale(2.883 1.042)" gradientUnits="objectBoundingBox"><stop offset="0"/><stop offset="0.5" stop-color="#ff002b"/><stop offset="1" stop-color="#f7931e"/></radialGradient><radialGradient id="d" cx="1.403" cy="0.525" r="1.178" gradientTransform="translate(-2.817 -0.023) scale(3.009 1.042)" xlink:href="#a"/><radialGradient id="e" cx="0.601" cy="0.854" r="1.008" gradientTransform="translate(-1.4 -0.037) scale(3.328 1.042)" gradientUnits="objectBoundingBox"><stop offset="0" stop-color="#f7931e"/><stop offset="1" stop-color="#ff002b"/></radialGradient><radialGradient id="f" cx="0.368" cy="0.398" r="0.782" gradientTransform="translate(-0.694 -0.019) scale(2.883 1.042)" xlink:href="#e"/><radialGradient id="g" cx="1.166" cy="-0.015" r="0.805" gradientTransform="translate(-3.413 -0.001) scale(3.927 1.042)" xlink:href="#e"/><radialGradient id="h" cx="0.392" cy="0.555" r="1.921" gradientTransform="translate(0.084 -0.025) scale(0.785 1.042)" xlink:href="#e"/></defs><g transform="translate(-225.9 -516)"><g transform="translate(273.1 539.572)"><g transform="translate(2.47 0.053)"><path d="M360.183,560.9h-37.41a1.654,1.654,0,0,0-1.368.737l-1.1,1.579v.105c0,.053.053.053.105.053h37.41a1.654,1.654,0,0,0,1.368-.737l1.1-1.578v-.053A.113.113,0,0,0,360.183,560.9Z" transform="translate(-320.3 -560.9)" fill="#999"/></g><g transform="translate(200.937)"><path d="M732.542,570.008h4.893a4.535,4.535,0,0,0,3.946-2.315,4.371,4.371,0,0,0,.631-2.315,4.581,4.581,0,0,0-4.578-4.578H699.973a1.654,1.654,0,0,0-1.368.737l-1.1,1.578v.105c0,.053.053.053.105.053h39.83a2.156,2.156,0,0,1,2.157,2.157,2.169,2.169,0,0,1-2.21,2.1H700.026a1.745,1.745,0,0,0-1.368.684l-1.1,1.578v.105c0,.053.053.053.105.053H728.28l9.681,6.735h4a.184.184,0,0,0,.105-.053c0-.053,0-.105-.053-.105Z" transform="translate(-697.5 -560.8)" fill="#999"/></g><g transform="translate(49.719 0.053)"><path d="M452.4,560.9h-3.63L431.3,575.106,413.836,560.9h-3.63a.113.113,0,0,0-.105.105v15.68a.113.113,0,0,0,.105.105h2.262a.113.113,0,0,0,.105-.105V563l16.942,13.733h3.63L450.035,563v13.68a.113.113,0,0,0,.105.105H452.4a.113.113,0,0,0,.105-.105v-15.68A.113.113,0,0,0,452.4,560.9Z" transform="translate(-410.1 -560.9)" fill="#999"/></g><g transform="translate(99.441 0.053)"><path d="M549.166,565.478a4.581,4.581,0,0,0-4.578-4.578H507.126a1.745,1.745,0,0,0-1.368.684l-1.1,1.578v.105c0,.053.053.053.105.053h39.83a2.157,2.157,0,0,1,0,4.314H504.705a.113.113,0,0,0-.105.105v8.945h0a.113.113,0,0,0,.105.105h39.883a4.58,4.58,0,0,0,3.1-7.945A4.838,4.838,0,0,0,549.166,565.478Zm-2.473,6.735a2.167,2.167,0,0,1-2.157,2.157H507.02v-4.315h37.515A2.134,2.134,0,0,1,546.693,572.212Z" transform="translate(-504.6 -560.9)" fill="#999"/></g><g transform="translate(0 6.682)"><path d="M356.959,581.024a1.8,1.8,0,0,0-1.368-.737H321.338l-3-4.315h28.833a1.654,1.654,0,0,0,1.368-.737l1.1-1.578v-.105c0-.053-.053-.053-.105-.053H317.287a1.627,1.627,0,0,0-1.473.894,1.5,1.5,0,0,0,.105,1.684l4.051,5.84a1.8,1.8,0,0,0,1.368.737h36.515c.053,0,.053,0,.105-.053V582.5Z" transform="translate(-315.606 -573.5)" fill="#999"/></g><g transform="translate(153.688 0.053)"><path d="M647.583,560.9h-37.41a1.654,1.654,0,0,0-1.368.737l-1.1,1.579v.105c0,.053.053.053.105.053h37.41a1.654,1.654,0,0,0,1.368-.737l1.1-1.578v-.053A.113.113,0,0,0,647.583,560.9Z" transform="translate(-607.7 -560.9)" fill="#999"/></g><g transform="translate(151.218 6.682)"><path d="M644.306,581.024a1.8,1.8,0,0,0-1.368-.737H608.685l-3-4.315h28.886a1.654,1.654,0,0,0,1.368-.737l1.1-1.578v-.105c0-.053-.053-.053-.105-.053H604.687a1.627,1.627,0,0,0-1.473.894,1.5,1.5,0,0,0,.105,1.684l4.051,5.84a1.8,1.8,0,0,0,1.368.737h36.516c.053,0,.053,0,.105-.053V582.5Z" transform="translate(-603.006 -573.5)" fill="#999"/></g></g><g transform="translate(225.9 516)"><path d="M259.681,516,249,554.988l19.363,9Z" transform="translate(-236.846 -516)" fill="url(#a)"/><path d="M244.546,590.1,239.6,614.251l17.1-13.417,7.208-1.736Z" transform="translate(-232.392 -551.112)" fill="url(#b)"/><path d="M246.441,554.988,243.6,542.571,257.122,516Z" transform="translate(-234.287 -516)" fill="url(#c)"/><path d="M238.054,578.917,235.213,566.5l-9.313,6.261,7.208,30.307Z" transform="translate(-225.9 -539.929)" fill="url(#d)"/><path d="M264.135,516l8.682,47.986L258.4,557.3l9.892.789Z" transform="translate(-241.3 -516)" fill="url(#e)"/><path d="M246.441,554.988,243.6,542.571,257.122,516l-11.681,26.571Z" transform="translate(-234.287 -516)" fill="url(#f)"/><path d="M235.213,566.5l-1.842,4.63L229,574.919l4.1,28.15L225.9,572.761Z" transform="translate(-225.9 -539.929)" fill="url(#g)"/><path d="M256.279,611.1l-13.891,8.155-.947-4.051-1.842,9Z" transform="translate(-232.392 -561.062)" fill="url(#h)"/></g></g></svg>