<svg xmlns="http://www.w3.org/2000/svg" xmlns:xlink="http://www.w3.org/1999/xlink" width="596.724" height="894.464" viewBox="0 0 596.724 894.464"><defs><filter id="a" x="0" y="0" width="596.724" height="894.464" filterUnits="userSpaceOnUse"><feOffset dy="3" input="SourceAlpha"/><feGaussianBlur stdDeviation="49.5" result="b"/><feFlood flood-color="#fb4a25"/><feComposite operator="in" in2="b"/><feComposite in="SourceGraphic"/></filter><linearGradient id="c" x1="-0.309" y1="0.685" x2="1.38" y2="0.397" gradientUnits="objectBoundingBox"><stop offset="0"/><stop offset="0.055" stop-color="#290007"/><stop offset="0.147" stop-color="#690012"/><stop offset="0.236" stop-color="#9f001b"/><stop offset="0.318" stop-color="#c80022"/><stop offset="0.392" stop-color="#e60027"/><stop offset="0.455" stop-color="#f9002a"/><stop offset="0.5" stop-color="#ff002b"/><stop offset="1" stop-color="#f7931e"/></linearGradient><radialGradient id="d" cx="0.582" cy="0.027" r="1.583" gradientTransform="translate(0.005 0.01) scale(0.992 0.626)" xlink:href="#c"/><radialGradient id="e" cx="0.189" cy="0.963" r="0.87" gradientTransform="translate(-0.356 -0.041) scale(2.882 1.042)" gradientUnits="objectBoundingBox"><stop offset="0"/><stop offset="0.5" stop-color="#ff002b"/><stop offset="1" stop-color="#f7931e"/></radialGradient><radialGradient id="f" cx="1.406" cy="0.526" r="1.179" gradientTransform="translate(-2.829 -0.022) scale(3.012 1.042)" xlink:href="#c"/><radialGradient id="g" cx="0.6" cy="0.854" r="1.008" gradientTransform="translate(-1.396 -0.036) scale(3.329 1.042)" gradientUnits="objectBoundingBox"><stop offset="0" stop-color="#f7931e"/><stop offset="1" stop-color="#ff002b"/></radialGradient><radialGradient id="h" cx="0.369" cy="0.398" r="0.782" gradientTransform="translate(-0.695 -0.018) scale(2.882 1.042)" xlink:href="#g"/><radialGradient id="i" cx="1.167" cy="-0.015" r="0.806" gradientTransform="translate(-3.413 0) scale(3.924 1.042)" xlink:href="#g"/><radialGradient id="j" cx="0.391" cy="0.555" r="1.928" gradientTransform="translate(0.084 -0.021) scale(0.784 1.042)" xlink:href="#g"/></defs><g transform="translate(-703.261 -186.368)"><g transform="matrix(1, 0, 0, 1, 703.26, 186.37)" filter="url(#a)"><path d="M1063.726,320.7,939.741,570.1l-92.547,59.433,68.558,288.639L1074.39,787.45l72.529-16.467Z" transform="translate(-698.69 -175.2)" fill="#ff002b"/></g><g transform="translate(833 286)"><g transform="translate(0)"><path d="M588.632,322,474.7,736.888l206.585,95.56Z" transform="translate(-345.568 -322)" fill="url(#c)"/><path d="M487.376,635.9,435.3,892.446,617.169,749.7l76.792-18.24Z" transform="translate(-358.244 -221.012)" fill="url(#d)"/><path d="M482,736.888,452,604.452,595.935,322Z" transform="translate(-352.871 -322)" fill="url(#e)"/><path d="M506.132,668.136l-30-132.436L377,602.579l77.056,322.1Z" transform="translate(-377 -253.248)" fill="url(#f)"/><path d="M575.667,322,668.32,832.449,515,761.472,619.813,769.8Z" transform="translate(-332.602 -322)" fill="url(#g)"/><path d="M482,736.888,452,604.452,595.935,322,471.561,604.452Z" transform="translate(-352.871 -322)" fill="url(#h)"/><path d="M476.129,535.7,456.7,585.265l-46.525,40.313,43.881,299.105L377,602.579Z" transform="translate(-377 -253.248)" fill="url(#i)"/><path d="M612.411,724.9l-147.5,86.573-10.177-43.22L435.3,863.813Z" transform="translate(-358.244 -192.379)" fill="url(#j)"/></g></g></g></svg>