<svg height="174.77" viewBox="0 0 183.32 174.77" width="183.32" xmlns="http://www.w3.org/2000/svg" xmlns:xlink="http://www.w3.org/1999/xlink"><linearGradient id="a" gradientUnits="objectBoundingBox" x1=".939" x2="-.455" y1=".5" y2=".5"><stop offset="0" stop-color="#f7931e"/><stop offset="1" stop-color="#ff002b"/></linearGradient><g transform="translate(-1135.66 -220.79)"><path d="m1262.99 385.56v5.55a4.456 4.456 0 0 1 -4.46 4.45h-118.41a4.456 4.456 0 0 1 -4.46-4.45v-155.87a4.456 4.456 0 0 1 4.46-4.45h5.54v150.32a4.456 4.456 0 0 0 4.46 4.45z" fill="#ff002b"/><path d="m1262.99 235.24v150.32h-112.87a4.456 4.456 0 0 1 -4.46-4.45v-150.32h112.87a4.456 4.456 0 0 1 4.46 4.45z" fill="#a30312"/><g fill="#ff002b"><path d="m1272.99 225.24v94.35a32.2 32.2 0 0 0 -10 7.22v-91.57a4.456 4.456 0 0 0 -4.46-4.45h-112.87v-5.55a4.456 4.456 0 0 1 4.46-4.45h118.41a4.456 4.456 0 0 1 4.46 4.45z"/><path d="m1272.99 378.42v2.69a4.456 4.456 0 0 1 -4.46 4.45h-5.54v-14.36a32.2 32.2 0 0 0 10 7.22z"/><path d="m1165.662 258.21h87.327v7.744h-87.327z"/><path d="m1165.662 275.632h87.327v7.744h-87.327z"/><path d="m1165.662 293.054h87.327v7.744h-87.327z"/><path d="m1165.662 310.476h87.327v7.744h-87.327z"/><path d="m1165.662 327.898h56.885v7.744h-56.885z"/></g><path d="m1272.99 319.59v58.83a32.2 32.2 0 0 1 -10-7.22v-44.39a32.2 32.2 0 0 1 10-7.22z" fill="#a30312"/><path d="m1254.18 349.01a32.25 32.25 0 0 1 8.81-22.2v44.39a32.225 32.225 0 0 1 -8.81-22.19z" fill="#ff002b"/><path d="m1318.98 349.01a32.414 32.414 0 0 1 -45.99 29.41v-58.83a32.414 32.414 0 0 1 45.99 29.42z" fill="url(#a)"/><path d="m1293.279 346.332h-4.279v-6.96h1.53l1.35 1.36v2.47h5.52v-4.15l-4.45-4.45h-3.95v-4.52h-4.69v4.52h-4.36l-4.44 4.45v7.61l4.44 4.44h4.36v7.53h-2.01l-1.36-1.36v-2.42h-5.51v4.11l4.44 4.44h4.44v4.53h4.69v-4.532h4.2l4.53-4.52v-8.11zm-8.97 0h-1.93l-1.36-1.36v-4.24l1.36-1.36h1.93zm7.9 10.9-1.4 1.4h-1.809v-7.532h1.85l1.36 1.36z" fill="#a30312"/></g></svg>