<svg xmlns="http://www.w3.org/2000/svg" xmlns:xlink="http://www.w3.org/1999/xlink" width="183.32" height="174.77" viewBox="0 0 183.32 174.77"><defs><linearGradient id="a" x1="0.939" y1="0.5" x2="-0.455" y2="0.5" gradientUnits="objectBoundingBox"><stop offset="0" stop-color="#f7931e"/><stop offset="1" stop-color="#ff002b"/></linearGradient></defs><g transform="translate(-1135.66 -220.79)"><path d="M1262.99,385.56v5.55a4.456,4.456,0,0,1-4.46,4.45H1140.12a4.456,4.456,0,0,1-4.46-4.45V235.24a4.456,4.456,0,0,1,4.46-4.45h5.54V381.11a4.456,4.456,0,0,0,4.46,4.45Z" fill="#ff002b"/><path d="M1262.99,235.24V385.56H1150.12a4.456,4.456,0,0,1-4.46-4.45V230.79h112.87A4.456,4.456,0,0,1,1262.99,235.24Z" fill="#a30312"/><path d="M1272.99,225.24v94.35a32.2,32.2,0,0,0-10,7.22V235.24a4.456,4.456,0,0,0-4.46-4.45H1145.66v-5.55a4.456,4.456,0,0,1,4.46-4.45h118.41A4.456,4.456,0,0,1,1272.99,225.24Z" fill="#ff002b"/><path d="M1272.99,378.42v2.69a4.456,4.456,0,0,1-4.46,4.45h-5.54V371.2A32.2,32.2,0,0,0,1272.99,378.42Z" fill="#ff002b"/><rect width="87.327" height="7.744" transform="translate(1165.662 258.21)" fill="#ff002b"/><rect width="87.327" height="7.744" transform="translate(1165.662 275.632)" fill="#ff002b"/><rect width="87.327" height="7.744" transform="translate(1165.662 293.054)" fill="#ff002b"/><rect width="87.327" height="7.744" transform="translate(1165.662 310.476)" fill="#ff002b"/><rect width="56.885" height="7.744" transform="translate(1165.662 327.898)" fill="#ff002b"/><path d="M1272.99,319.59v58.83a32.2,32.2,0,0,1-10-7.22V326.81A32.2,32.2,0,0,1,1272.99,319.59Z" fill="#a30312"/><path d="M1254.18,349.01a32.25,32.25,0,0,1,8.81-22.2V371.2A32.225,32.225,0,0,1,1254.18,349.01Z" fill="#ff002b"/><path d="M1318.98,349.01a32.414,32.414,0,0,1-45.99,29.41V319.59a32.414,32.414,0,0,1,45.99,29.42Z" fill="url(#a)"/><path d="M1293.279,346.332H1289v-6.96h1.53l1.35,1.36v2.47h5.52v-4.15l-4.45-4.45H1289v-4.52h-4.69v4.52h-4.36l-4.44,4.45v7.61l4.44,4.44h4.36v7.53h-2.01l-1.36-1.36v-2.42h-5.51v4.11l4.44,4.44h4.44v4.53H1289V363.4h4.2l4.53-4.52v-8.11Zm-8.97,0h-1.93l-1.36-1.36v-4.24l1.36-1.36h1.93Zm7.9,10.9-1.4,1.4H1289V351.1h1.85l1.36,1.36Z" fill="#a30312"/></g></svg>