<svg height="200.198" viewBox="0 0 196.763 200.198" width="196.763" xmlns="http://www.w3.org/2000/svg" xmlns:xlink="http://www.w3.org/1999/xlink"><linearGradient id="a" gradientUnits="objectBoundingBox" x1="1.795" x2="-.555" y1="-1.259" y2="1.854"><stop offset="0" stop-color="#f7931e"/><stop offset="1" stop-color="#ff002b"/></linearGradient><linearGradient id="b" x1="1.047" x2="-1.836" xlink:href="#a" y1="-.047" y2="2.836"/><linearGradient id="c" x1=".068" x2="-4.289" xlink:href="#a" y1=".932" y2="5.289"/><linearGradient id="d" x1="2.078" x2="-2.279" xlink:href="#a" y1="-1.078" y2="3.279"/><linearGradient id="e" x1=".13" x2="-4.227" xlink:href="#a" y1=".87" y2="5.227"/><linearGradient id="f" x1="1.24" x2="-1.04" xlink:href="#a" y1="-.254" y2="2.164"/><linearGradient id="g" x1="1.071" x2="-1.516" xlink:href="#a" y1="-.071" y2="2.516"/><linearGradient id="h" x1="2.098" x2="-.785" xlink:href="#a" y1="-.751" y2="1.543"/><linearGradient id="i" x1=".343" x2="-2.591" xlink:href="#a" y1=".657" y2="3.59"/><g transform="translate(-430.352 -195.361)"><path d="m481.96 267.229c-12.46-.93-23.91 2.23-32.27 9.84-6.67-8.12-8.23-18.17-3.67-24.21a12.191 12.191 0 0 1 1.06-1.22c6.37-6.37 18.84-4.23 27.84 4.77a29.9 29.9 0 0 1 7.04 10.82z" fill="url(#a)"/><path d="m516.89 250a9.456 9.456 0 0 1 -.97.83c-5.22 3.95-14.27 2.07-20.92-4.59s-8.54-15.7-4.6-20.93a12.546 12.546 0 0 1 .84-.96c5.01-5.01 14.81-3.33 21.89 3.76s8.77 16.879 3.76 21.89z" fill="url(#b)"/><path d="m533.463 214.244a6.231 6.231 0 0 1 -.642.549c-3.455 2.614-9.443 1.37-13.844-3.037s-5.651-10.389-3.044-13.85c.172-.218.358-.43.556-.635 3.315-3.316 9.8-2.2 14.485 2.488s5.804 11.17 2.489 14.485z" fill="url(#c)"/><path d="m462.3 226.634a6.119 6.119 0 0 1 -.641.549c-3.455 2.614-9.443 1.37-13.844-3.037s-5.651-10.389-3.044-13.85a8.226 8.226 0 0 1 .556-.635c3.315-3.316 9.8-2.2 14.485 2.488s5.8 11.17 2.488 14.485z" fill="url(#d)"/><path d="m625.206 308.568a6.249 6.249 0 0 1 -.641.549c-3.455 2.614-9.443 1.37-13.844-3.037s-5.651-10.39-3.044-13.85a8.06 8.06 0 0 1 .556-.636c3.315-3.315 9.8-2.2 14.485 2.488s5.804 11.17 2.488 14.486z" fill="url(#e)"/><path d="m541.17 298.909a10.183 10.183 0 0 1 -1.22 1.06 1.519 1.519 0 0 1 -.16.11 98.342 98.342 0 0 0 -6.63-7.33 93.324 93.324 0 0 0 -28.05-19.48 12.871 12.871 0 0 1 2.39-5.75 12.284 12.284 0 0 1 1.07-1.22c6.37-6.37 18.83-4.23 27.83 4.77s11.15 21.47 4.77 27.84z" fill="url(#f)"/><path d="m589.87 328.609a10.321 10.321 0 0 1 -1.07.93c-5.82 4.4-15.91 2.3-23.32-5.11s-9.51-17.49-5.11-23.32a10.331 10.331 0 0 1 .93-1.07c5.58-5.58 16.5-3.71 24.39 4.18s9.76 18.81 4.18 24.39z" fill="url(#g)"/><path d="m577.51 379.879a11.259 11.259 0 0 1 -1.22 1.07c-6.62 5-18.08 2.63-26.53-5.77 6.92-8.23 9.79-19.2 8.93-31.11a28.688 28.688 0 0 1 14.05 7.98c9.01 9 11.14 21.46 4.77 27.83z" fill="url(#h)"/><path d="m543.84 348.5c-5.02 6.64-2.62 18.15 5.84 26.61a.5.5 0 0 0 .08.07c-.66.78-1.35 1.53-2.08 2.26a36.724 36.724 0 0 1 -3.72 3.24c-20.21 15.27-55.22 7.97-80.96-17.77s-33.03-60.74-17.77-80.96a36.721 36.721 0 0 1 3.24-3.72c.4-.4.81-.79 1.22-1.16a30.324 30.324 0 0 0 2.17 2.4c8.46 8.47 19.97 10.86 26.61 5.84a11.163 11.163 0 0 0 1.22-1.06c4.04-4.04 4.66-10.52 2.27-17.02a70.2 70.2 0 0 1 23.15 6.04c-1.06 6.45 1.88 14.52 8.23 20.87 8.39 8.39 19.79 10.81 26.45 5.94 11.38 13.89 17.87 29.62 18.9 43.99-5.36-1.16-10.43-.16-13.79 3.2a12.285 12.285 0 0 0 -1.06 1.23z" fill="#ff002b"/><g fill="#a30312"><path d="m543.961 380.676a36.422 36.422 0 0 0 3.719-3.239l-6.965 6.965c-19.374 19.375-57.282 12.877-84.683-14.523s-33.9-65.309-14.524-84.684l6.965-6.965a36.535 36.535 0 0 0 -3.238 3.72c-15.267 20.216-7.969 55.232 17.762 80.964s60.755 33.036 80.964 17.762z"/><path d="m479.69 284.249a11.163 11.163 0 0 1 -1.22 1.06c-6.64 5.02-18.15 2.63-26.61-5.84a30.324 30.324 0 0 1 -2.17-2.4c8.36-7.61 19.81-10.77 32.27-9.84 2.39 6.5 1.77 12.98-2.27 17.02z"/><path d="m539.79 300.079c-6.66 4.87-18.06 2.45-26.45-5.94-6.35-6.35-9.29-14.42-8.23-20.87a93.324 93.324 0 0 1 28.05 19.48 98.342 98.342 0 0 1 6.63 7.33z"/><path d="m549.76 375.179a.5.5 0 0 1 -.08-.07c-8.46-8.46-10.86-19.97-5.84-26.61a12.285 12.285 0 0 1 1.06-1.23c3.36-3.36 8.43-4.36 13.79-3.2.86 11.91-2.01 22.88-8.93 31.11z"/></g><path d="m586.99 276.059a9.147 9.147 0 0 1 -.94.83c-5.14 3.88-14.03 2.02-20.57-4.52s-8.39-15.43-4.51-20.56a8.12 8.12 0 0 1 .82-.94c4.92-4.93 14.55-3.28 21.51 3.68s8.61 16.59 3.69 21.51z" fill="url(#i)"/></g></svg>