<svg xmlns="http://www.w3.org/2000/svg" xmlns:xlink="http://www.w3.org/1999/xlink" width="1182.45" height="836.052" viewBox="0 0 1182.45 836.052"><defs><filter id="a" x="0" y="0" width="567.421" height="836.052" filterUnits="userSpaceOnUse"><feOffset dy="3" input="SourceAlpha"/><feGaussianBlur stdDeviation="49.5" result="b"/><feFlood flood-color="#fb4a25"/><feComposite operator="in" in2="b"/><feComposite in="SourceGraphic"/></filter><linearGradient id="c" x1="-0.309" y1="0.685" x2="1.38" y2="0.397" gradientUnits="objectBoundingBox"><stop offset="0"/><stop offset="0.055" stop-color="#290007"/><stop offset="0.147" stop-color="#690012"/><stop offset="0.236" stop-color="#9f001b"/><stop offset="0.318" stop-color="#c80022"/><stop offset="0.392" stop-color="#e60027"/><stop offset="0.455" stop-color="#f9002a"/><stop offset="0.5" stop-color="#ff002b"/><stop offset="1" stop-color="#f7931e"/></linearGradient><radialGradient id="d" cx="0.582" cy="0.027" r="1.583" gradientTransform="translate(0.005 0.01) scale(0.992 0.626)" xlink:href="#c"/><radialGradient id="e" cx="0.189" cy="0.963" r="0.87" gradientTransform="translate(-0.356 -0.041) scale(2.882 1.042)" gradientUnits="objectBoundingBox"><stop offset="0"/><stop offset="0.5" stop-color="#ff002b"/><stop offset="1" stop-color="#f7931e"/></radialGradient><radialGradient id="f" cx="1.406" cy="0.526" r="1.179" gradientTransform="translate(-2.829 -0.022) scale(3.012 1.042)" xlink:href="#c"/><radialGradient id="g" cx="0.6" cy="0.854" r="1.008" gradientTransform="translate(-1.396 -0.036) scale(3.329 1.042)" gradientUnits="objectBoundingBox"><stop offset="0" stop-color="#f7931e"/><stop offset="1" stop-color="#ff002b"/></radialGradient><radialGradient id="h" cx="0.369" cy="0.398" r="0.782" gradientTransform="translate(-0.695 -0.018) scale(2.882 1.042)" xlink:href="#g"/><radialGradient id="i" cx="1.167" cy="-0.015" r="0.806" gradientTransform="translate(-3.413 0) scale(3.924 1.042)" xlink:href="#g"/><radialGradient id="j" cx="0.391" cy="0.555" r="1.928" gradientTransform="translate(0.084 -0.021) scale(0.784 1.042)" xlink:href="#g"/></defs><g transform="translate(-303.427 -3353.884)"><g transform="translate(-398 3172)"><g transform="matrix(1, 0, 0, 1, 701.43, 181.88)" filter="url(#a)"><path d="M1042.556,320.7,930.693,545.713l-83.5,53.623,61.855,260.42,143.128-117.937,65.438-14.857Z" transform="translate(-698.69 -175.2)" fill="#ff002b"/></g><g transform="translate(833 286)"><g transform="translate(0)"><path d="M577.494,322,474.7,696.326l186.388,86.218Z" transform="translate(-358.193 -322)" fill="url(#c)"/><path d="M482.285,635.9,435.3,867.365l164.088-128.79,69.285-16.457Z" transform="translate(-365.777 -261.574)" fill="url(#d)"/><path d="M479.07,696.326,452,576.838,581.863,322Z" transform="translate(-362.562 -322)" fill="url(#e)"/><path d="M493.507,655.189,466.438,535.7,377,596.041l69.523,290.613Z" transform="translate(-377 -280.862)" fill="url(#f)"/><path d="M569.736,322,653.33,782.544,515,718.507l94.565,7.513Z" transform="translate(-350.435 -322)" fill="url(#g)"/><path d="M479.07,696.326,452,576.838,581.863,322,469.649,576.838Z" transform="translate(-362.562 -322)" fill="url(#h)"/><path d="M466.438,535.7l-17.53,44.719L406.932,616.79l39.591,269.863L377,596.041Z" transform="translate(-377 -280.862)" fill="url(#i)"/><path d="M595.1,724.9,462.012,803.009l-9.182-38.995L435.3,850.232Z" transform="translate(-365.777 -244.441)" fill="url(#j)"/></g></g></g><g transform="translate(66.877 316.752)"><g transform="translate(1850.704 4286.919) rotate(180)"><path d="M716.758,1084.417H956.372l151.232-62.061" fill="none" stroke="#999" stroke-linecap="round" stroke-linejoin="round" stroke-width="2"/><rect width="9.195" height="9.195" transform="translate(708.256 1084.417) rotate(-45)" fill="#999" stroke="#999" stroke-linecap="round" stroke-linejoin="round" stroke-width="2"/></g><g transform="translate(1850.704 4373.233) rotate(180)"><path d="M697.568,1084.4l258.8.019,151.232-62.061" fill="none" stroke="#999" stroke-linecap="round" stroke-linejoin="round" stroke-width="2"/><rect width="9.195" height="9.195" transform="translate(691.256 1084.417) rotate(-45)" fill="#999" stroke="#999" stroke-linecap="round" stroke-linejoin="round" stroke-width="2"/></g><g transform="translate(1850.704 4459.548) rotate(180)"><path d="M746.375,1084.479l210-.061,151.232-62.061" fill="none" stroke="#999" stroke-linecap="round" stroke-linejoin="round" stroke-width="2"/><rect width="9.195" height="9.195" transform="translate(740.256 1084.417) rotate(-45)" fill="#999" stroke="#999" stroke-linecap="round" stroke-linejoin="round" stroke-width="2"/></g><g transform="translate(1850.704 4545.863) rotate(180)"><path d="M758.4,1084.417H956.372l151.232-62.061" fill="none" stroke="#999" stroke-linecap="round" stroke-linejoin="round" stroke-width="2"/><rect width="9.195" height="9.195" transform="translate(752.256 1084.417) rotate(-45)" fill="#999" stroke="#999" stroke-linecap="round" stroke-linejoin="round" stroke-width="2"/></g><g transform="translate(1850.704 4632.178) rotate(180)"><path d="M807.67,1084.417h148.7l151.232-62.061" fill="none" stroke="#999" stroke-linecap="round" stroke-linejoin="round" stroke-width="2"/><rect width="9.195" height="9.195" transform="translate(801.256 1084.417) rotate(-45)" fill="#999" stroke="#999" stroke-linecap="round" stroke-linejoin="round" stroke-width="2"/></g><g transform="translate(1850.704 4723.492) rotate(180)"><path d="M838.41,1084.417H956.372l151.232-62.061" fill="none" stroke="#999" stroke-linecap="round" stroke-linejoin="round" stroke-width="2"/><rect width="9.195" height="9.195" transform="translate(832.203 1084.417) rotate(-45)" fill="#999" stroke="#999" stroke-linecap="round" stroke-linejoin="round" stroke-width="2"/></g><text transform="translate(1419 3211.248)" fill="#ff002b" font-size="24" font-family="AvenirNext-DemiBold, Avenir Next" font-weight="300"><tspan x="-256.416" y="0">90% Transferred (EMB)</tspan></text><text transform="translate(1419 3297.562)" fill="#fff" font-size="24" font-family="AvenirNext-DemiBold, Avenir Next" font-weight="300"><tspan x="-239.208" y="0">4% Reflections (EMB)</tspan></text><text transform="translate(1419 3383.877)" fill="#0089ff" font-size="24" font-family="AvenirNext-DemiBold, Avenir Next" font-weight="300"><tspan x="-290.352" y="0">1% Future Liquidity (EMB)</tspan></text><text transform="translate(1419 3470.192)" fill="#a30312" font-size="24" font-family="AvenirNext-DemiBold, Avenir Next" font-weight="300"><tspan x="-302.256" y="0">1% Advisory + Legal (EMB)</tspan></text><text transform="translate(1419 3556.506)" fill="#f7931e" font-size="24" font-family="AvenirNext-DemiBold, Avenir Next" font-weight="300"><tspan x="-350.28" y="0">2% Token Recovery Fund (BNB)</tspan></text><text transform="translate(1419 3647.821)" fill="#feee00" font-size="24" font-family="AvenirNext-DemiBold, Avenir Next" font-weight="300"><tspan x="-381.264" y="0">2% Marketing + Operations (BNB)</tspan></text></g></g></svg>