<svg height="252.927" viewBox="0 0 283.853 252.927" width="283.853" xmlns="http://www.w3.org/2000/svg" xmlns:xlink="http://www.w3.org/1999/xlink"><radialGradient id="a" cx=".5" cy=".5" gradientTransform="matrix(.883 0 0 1 .058 0)" gradientUnits="objectBoundingBox" r=".534"><stop offset="0" stop-color="#ea7864"/><stop offset="1" stop-color="#f04d5a"/></radialGradient><linearGradient id="b" gradientUnits="objectBoundingBox" x1=".658" x2="-.43" y1=".542" y2=".256"><stop offset="0" stop-color="#171247"/><stop offset=".507" stop-color="#5e3487"/><stop offset="1" stop-color="#f04d5a"/></linearGradient><linearGradient id="c" x1="1.218" x2="2.318" xlink:href="#b" y1=".223" y2="-.235"/><linearGradient id="d" x1=".329" x2="1.374" xlink:href="#b" y1=".604" y2=".418"/><linearGradient id="e" x1=".588" x2=".424" xlink:href="#b" y1=".184" y2="1.044"/><linearGradient id="f" x1="1.031" x2=".302" xlink:href="#b" y1=".149" y2=".631"/><radialGradient id="g" cx=".5" cy=".5" gradientTransform="matrix(1.609 0 0 1 -.304 0)" gradientUnits="objectBoundingBox" r=".416"><stop offset="0" stop-color="#5e3487"/><stop offset="1" stop-color="#171247"/></radialGradient><linearGradient id="h" x1=".728" x2="-.156" xlink:href="#b" y1=".616" y2="-.188"/><linearGradient id="i" x1=".373" x2="1.122" xlink:href="#b" y1=".361" y2=".681"/><linearGradient id="j" x1=".065" x2="1.048" xlink:href="#b" y1=".527" y2=".344"/><radialGradient id="k" cx=".5" cy=".5" gradientTransform="translate(-.001)" r=".5" xlink:href="#g"/><linearGradient id="l" x1="-.351" x2="1.682" xlink:href="#b" y1=".142" y2="1.576"/><linearGradient id="m" x1=".896" x2="-.661" xlink:href="#b" y1=".512" y2=".431"/><linearGradient id="n" x1=".575" x2=".426" xlink:href="#b" y1=".066" y2="1.518"/><linearGradient id="o" x1=".152" x2="2.502" xlink:href="#b" y1=".561" y2="-.147"/><linearGradient id="p" x1=".529" x2=".323" xlink:href="#b" y1=".474" y2="1.427"/><linearGradient id="q" x1="5.343" x2="-.904" xlink:href="#b" y1="1.595" y2=".108"/><linearGradient id="r" x1=".485" x2=".424" xlink:href="#b" y1=".899" y2="1.54"/><linearGradient id="s" x1=".79" x2=".381" xlink:href="#b" y1="-.154" y2=".645"/><linearGradient id="t" x1=".36" x2=".616" xlink:href="#b" y1="-1.708" y2="1.751"/><linearGradient id="u" x1=".503" x2=".54" xlink:href="#b" y1=".42" y2="2.112"/><linearGradient id="v" x1=".499" x2=".6" xlink:href="#b" y1=".427" y2="2.206"/><linearGradient id="w" x1=".514" x2=".428" xlink:href="#b" y1=".605" y2="2.223"/><linearGradient id="x" x1=".906" x2="1.321" xlink:href="#b" y1=".667" y2=".862"/><linearGradient id="y" x1=".768" x2=".382" xlink:href="#b" y1=".789" y2=".373"/><radialGradient id="z" cy=".5" gradientTransform="matrix(.536 0 0 1 .232 0)" r=".748" xlink:href="#a"/><linearGradient id="A" x1="1.303" x2=".208" xlink:href="#b" y1=".006" y2=".68"/><linearGradient id="B" x1=".623" x2="-1.345" xlink:href="#b" y1=".501" y2="1.211"/><g fill="#fff"><path d="m377.445 908.885a3.684 3.684 0 0 0 -3.684 3.684v15.215.027 2.209a13.712 13.712 0 0 1 -27.423-.055v-17.4a3.684 3.684 0 1 0 -7.368 0v17.4a21.064 21.064 0 0 0 34.768 16.012 13.71 13.71 0 0 1 -13.688 12.944h-22.9a12.379 12.379 0 0 0 -12.389 12.379v.02a.789.789 0 0 0 1.419.453 13.7 13.7 0 0 1 10.965-5.486h22.9a21.079 21.079 0 0 0 21.079-21.079v-15.188c0-.018 0-.036 0-.055v-17.4a3.684 3.684 0 0 0 -3.679-3.68z" transform="translate(-241.721 -719.163)"/><path d="m235.077 908.884a21.08 21.08 0 1 0 21.08 21.08 21.1 21.1 0 0 0 -21.08-21.08zm0 34.792a13.712 13.712 0 1 1 13.712-13.712 13.728 13.728 0 0 1 -13.712 13.712z" transform="translate(-167.346 -719.162)"/><path d="m109.981 935.522a3.684 3.684 0 0 0 -5.038 1.33 13.712 13.712 0 1 1 0-13.769 3.684 3.684 0 1 0 6.367-3.708 21.08 21.08 0 1 0 0 21.185 3.685 3.685 0 0 0 -1.329-5.038z" transform="translate(-72 -719.164)"/><path d="m543.08 908.884a21.08 21.08 0 1 0 21.08 21.08 21.1 21.1 0 0 0 -21.08-21.08zm0 34.792a13.712 13.712 0 1 1 13.712-13.712 13.727 13.727 0 0 1 -13.712 13.712z" transform="translate(-374.16 -719.162)"/><path d="m703.307 908.884h-34.793a3.684 3.684 0 0 0 0 7.368h13.712v31.108a3.684 3.684 0 1 0 7.368 0v-31.108h13.712a3.684 3.684 0 0 0 0-7.368z" transform="translate(-470.066 -719.162)"/><path d="m829.827 932.573h16.32a3.684 3.684 0 1 0 0-7.368h-16.32a22.064 22.064 0 0 0 -14.788 5.675v-.915a13.728 13.728 0 0 1 13.712-13.712h17.4a3.684 3.684 0 1 0 0-7.368h-17.4a21.1 21.1 0 0 0 -21.08 21.08v17.4a3.684 3.684 0 0 0 3.684 3.684h34.792a3.684 3.684 0 1 0 0-7.368h-30.647a14.815 14.815 0 0 1 14.327-11.108z" transform="translate(-565.978 -719.163)"/></g><path d="m415.983 415.723a84.067 84.067 0 0 1 -19.424 53.837l-21.775-13.36-39.542-24.26 9.845-11.594 31.529 1.852 8.849-8.019 1.951-1.769v-5.063l-6.643-3.853-24.75-14.373-7.592-16.876 4.051-31.9-15.358 11.817-8.27 10.8 1.18-26.5-38.477 31.389v32.069l-12.827 22.955 3.769 13.486-11.699 17.229 6.685 26.745a84.321 84.321 0 1 1 138.5-64.612z" fill="url(#a)" transform="translate(-189.736 -331.402)"/><path d="m420.405 346.815-15.693 24.469-2.4 16.1-13.3 11.07-7.087 11.812v-32.066z" fill="url(#b)" transform="translate(-280.107 -341.751)"/><path d="m462.065 346.815-1.179 26.5-16.914 14.076 2.4-16.1z" fill="url(#c)" transform="translate(-321.767 -341.751)"/><path d="m519.083 358.626-4.052 31.9-19.577-9.282 8.27-10.8z" fill="url(#d)" transform="translate(-356.336 -349.682)"/><path d="m490.322 478.682-8.849 8.019-56.539-15.019-21.434-19.07 13.3-11.07 16.914-14.076 21.608 22.928.5.529 5.063 2.7 24.747 14.377 1.073 6.893z" fill="url(#e)" transform="translate(-294.593 -395.906)"/><path d="m522.624 453.624-5.063-2.7-22.107-23.457 19.577 9.282z" fill="url(#f)" transform="translate(-356.336 -395.906)"/><path d="m660.133 554.687v5.063l-1.952 1.769-3.618-3.793-1.073-6.893z" fill="url(#g)" transform="translate(-462.452 -478.743)"/><path d="m393.028 601.091-9.845 11.594h-.005v.009l-17.323 20.4-30.081 35.423a84.313 84.313 0 0 1 -10.348-7.432l-3.7-14.8-2.987-11.946 11.7-17.229 2.644 9.464 51.3-25.99z" fill="url(#h)" transform="translate(-237.677 -512.147)"/><path d="m417.987 637.438-8.007 33.592-8.012 33.6a83.8 83.8 0 0 1 -16.154-4.063q-2.752-.994-5.413-2.171a83.706 83.706 0 0 1 -9.817-5.132l30.081-35.422 3.076-3.624z" fill="url(#i)" transform="translate(-272.489 -536.895)"/><path d="m559.832 675.043a85.071 85.071 0 0 1 -7.444 7.879 84.159 84.159 0 0 1 -35.432 19.7q-2.681.723-5.434 1.275l-21.022-32.878 8.007-33.59.007-.007z" fill="url(#j)" transform="translate(-353.009 -536.884)"/><path d="m514.881 637.417h-.008v-.008z" fill="url(#k)" transform="translate(-369.375 -536.878)"/><path d="m495.146 772.559a85.171 85.171 0 0 1 -29.034.719l8.012-33.6z" fill="url(#l)" transform="translate(-336.633 -605.549)"/><path d="m161.225 55.017-.498-.529" fill="none"/><path d="m362.8 504.006-13.5 57.718-2.644-9.465-3.77-13.486 12.828-22.955z" fill="url(#m)" transform="translate(-253.889 -447.3)"/><path d="m453.879 538.1-31.53-1.853-8.639-.51-51.3 25.991 13.5-57.718 21.433 19.071z" fill="url(#n)" transform="translate(-266.999 -447.3)"/><path d="m660.133 554.687v5.063l-1.952 1.769-3.618-3.793-1.073-6.893z" fill="url(#o)" transform="translate(-462.452 -478.743)"/><path d="m414.76 475.473-5.009 8.05 16.093 17.007 55.629 18.407-56.539-15.019-21.434-19.071z" fill="url(#p)" transform="translate(-294.593 -428.141)"/><path d="m543.314 364.707 3.718-1.12.135 26.936 4.052-31.9z" fill="url(#q)" transform="translate(-388.472 -349.682)"/><path d="m498.919 467.2-5.973 5.826 4.209 4.9 12.727.347 5.321 1.015z" fill="url(#r)" transform="translate(-354.652 -422.585)"/><path d="m576.214 675.043a84.636 84.636 0 0 1 -7.444 7.879l-53.873-45.5z" fill="url(#s)" transform="translate(-369.392 -536.884)"/><path d="m371.956 699.529-30.081 35.423a84.313 84.313 0 0 1 -10.348-7.432l-3.7-14.8 7.791 14.8z" fill="url(#t)" transform="translate(-243.781 -578.587)"/><path d="m416.946 601.091-3.032 3.572-6.813 8.022-12.544 14.766 6.687-14.769-46.106 20.279-.78-15.855 2.642 9.465 51.3-25.989z" fill="url(#u)" transform="translate(-261.594 -512.147)"/><path d="m400.664 699.534-20.264 40.553a83.688 83.688 0 0 1 -9.817-5.132z" fill="url(#v)" transform="translate(-272.489 -578.59)"/><path d="m469.669 538.1-40.169-2.366-23.4-4.626-13.988-8.488-6.194 6.077 5.776-24.692 21.433 19.071z" fill="url(#w)" transform="translate(-282.788 -447.3)"/><path d="m423.8 688.5-17.923 46.35q-2.752-.995-5.413-2.171l20.264-40.553z" fill="url(#x)" transform="translate(-292.553 -571.183)"/><path d="m420.4 346.815-15.693 24.469-22.784 6.92z" fill="url(#y)" transform="translate(-280.107 -341.751)"/><path d="m516.76 482.381-11.688-.874-1.905-3.332 2.54-3.083z" fill="url(#z)" transform="translate(-361.515 -427.885)"/><path d="m625.181 534.394 1.073 6.893 3.618 3.793-3.075-1.905-1.971-1.221-1.564-6.619-11.932-8.984z" fill="url(#A)" transform="translate(-434.142 -462.304)"/><path d="m516.956 702.619q-2.681.723-5.434 1.275l-21.022-32.875 8.014-33.6z" fill="url(#B)" transform="translate(-353.009 -536.884)"/></svg>