<?xml version="1.0" encoding="utf-8"?>
<!-- Generator: Adobe Illustrator 27.0.0, SVG Export Plug-In . SVG Version: 6.00 Build 0)  -->
<svg version="1.1" id="Layer_1" xmlns="http://www.w3.org/2000/svg" xmlns:xlink="http://www.w3.org/1999/xlink" x="0px" y="0px"
	 viewBox="0 0 382 731.5" style="enable-background:new 0 0 382 731.5;" xml:space="preserve">
<style type="text/css">
	.st0{fill:rgba(255, 255, 255, 0.4);}
</style>
<g>
	<g>
		<g>
			<g>
				<path class="st0" d="M381,556.9c-0.1,0-0.3,0-0.4-0.1l-234-103.9c-0.5-0.2-0.7-0.7-0.6-1.2l129.1-451c0.1-0.4,0.5-0.8,1-0.7
					c0.5,0,0.9,0.4,0.9,0.8L382,555.7c0.1,0.4-0.1,0.7-0.4,1C381.5,556.8,381.3,556.9,381,556.9z M148.2,451.5l231.5,102.7
					L275.9,5.3L148.2,451.5z"/>
			</g>
			<g>
				<path class="st0" d="M87.9,731.9c-0.2,0-0.4-0.1-0.5-0.2c-0.4-0.2-0.5-0.6-0.4-1.1L146,451.8c0.1-0.3,0.3-0.5,0.5-0.7
					c0.3-0.1,0.6-0.1,0.9,0l234,103.9c0.4,0.2,0.6,0.6,0.6,1c0,0.4-0.4,0.8-0.8,0.9l-86.8,19.9l-206,155
					C88.3,731.9,88.1,731.9,87.9,731.9z M147.7,453.4L89.4,728.5l204-153.5c0.1-0.1,0.2-0.1,0.4-0.2l84-19.3L147.7,453.4z"/>
			</g>
			<g>
				<path class="st0" d="M147,453C147,453,147,453,147,453c-0.5,0-0.9-0.3-1-0.8l-34.1-143.9c-0.1-0.2,0-0.5,0.1-0.7L275.2,0.5
					c0.2-0.5,0.8-0.6,1.3-0.5c0.5,0.2,0.7,0.7,0.6,1.2L148,452.3C147.9,452.7,147.5,453,147,453z M114,308.2l33.2,139.8L272.5,9.9
					L114,308.2z"/>
			</g>
			<g>
				<path class="st0" d="M87.9,731.9c-0.5,0-0.9-0.3-1-0.8L-0.3,381c-0.1-0.4,0.1-0.8,0.4-1.1l112.3-72.7c0.3-0.2,0.6-0.2,0.9-0.1
					c0.3,0.1,0.5,0.4,0.6,0.7L148,451.8c0,0.1,0,0.3,0,0.4L88.9,731.1C88.8,731.6,88.4,731.9,87.9,731.9
					C87.9,731.9,87.9,731.9,87.9,731.9z M1.8,381.3l86.1,345.2L146,452l-33.7-142.3L1.8,381.3z"/>
			</g>
			<g>
				<path class="st0" d="M381,556.9c-0.1,0-0.3,0-0.4-0.1l-173.8-77.1c-0.4-0.2-0.7-0.7-0.6-1.2c0.1-0.5,0.6-0.8,1-0.8l117.6,9
					L275.1,1.1c-0.1-0.5,0.3-1,0.9-1.1c0.5-0.1,1,0.3,1.1,0.8L382,555.7c0.1,0.4-0.1,0.7-0.4,1C381.5,556.8,381.3,556.9,381,556.9z
					 M213,480.2l166.7,74L279.5,24.4L327,487.8c0,0.3-0.1,0.6-0.3,0.8c-0.2,0.2-0.5,0.3-0.8,0.3L213,480.2z"/>
			</g>
			<g>
				<path class="st0" d="M147,453c-0.5,0-0.9-0.3-1-0.8l-34.1-143.9c-0.1-0.2,0-0.5,0.1-0.7L275.2,0.5c0.3-0.5,0.8-0.7,1.3-0.4
					c0.5,0.2,0.7,0.8,0.5,1.3L136.2,308.3L148,451.9c0,0.5-0.3,1-0.8,1.1C147.1,453,147.1,453,147,453z M114,308.2l31,130.6
					l-10.8-130.7c0-0.2,0-0.3,0.1-0.5L260.8,31.8L114,308.2z"/>
			</g>
		</g>
		<g>
			<path class="st0" d="M87.9,731.9c-0.4,0-0.9-0.3-1-0.8L-0.3,381c-0.1-0.4,0.1-0.8,0.4-1.1l112.3-72.7c0.4-0.2,0.8-0.2,1.2,0.1
				c0.3,0.3,0.5,0.7,0.3,1.1l-22,53.9c-0.1,0.2-0.2,0.3-0.3,0.4l-52.2,43.4l49.6,324.6c0.1,0.5-0.3,1-0.8,1.1
				C88,731.9,88,731.9,87.9,731.9z M1.8,381.3l81.9,328.5L37.3,405.9c-0.1-0.3,0.1-0.7,0.3-0.9l52.5-43.6l20.7-50.7L1.8,381.3z"/>
		</g>
	</g>
	<g>
		<path class="st0" d="M87.9,731.9c-0.2,0-0.4-0.1-0.5-0.2c-0.4-0.2-0.5-0.6-0.4-1.1l22-103.9c0.1-0.5,0.5-0.8,1-0.8
			c0.5,0,0.9,0.3,1,0.8l11.2,45.8l166-93.5c0.5-0.3,1-0.1,1.3,0.3c0.3,0.4,0.2,1-0.2,1.3l-200.7,151
			C88.3,731.9,88.1,731.9,87.9,731.9z M110,631.5l-20.6,97l186.5-140.3l-154,86.8c-0.3,0.2-0.6,0.2-0.9,0c-0.3-0.1-0.5-0.4-0.6-0.7
			L110,631.5z"/>
	</g>
</g>
</svg>
