<svg enable-background="new 0 0 400 344.9" viewBox="0 0 400 344.9" xmlns="http://www.w3.org/2000/svg"><path d="m399.5 194.1c0-.8-.2-1.4-.5-1.4-.2 0-.4.3-.5.8-.1 0-.2 0-.3.1 0-.1 0-.1 0-.2.1 0 .2-.2.3-.5s0-.6-.1-.7c-.1 0-.3.2-.4.5v.2h-.1c-.1 0-.2.2-.2.4-.1 0-.3.1-.3.3-.1-.1-.2-.2-.3-.2 0 0 0 0-.1 0 0 0 0 0-.1 0s-.3.2-.3.4c0 .1 0 .2.1.3h-.1s0-.1-.1-.1c0-.3-.2-.6-.3-.6s-.2.3-.1.7c.1.1.1.2.2.3 0 .1-.1.2-.1.3h-.1c0-.1-.1-.3-.1-.4.1-.4 0-.7-.1-.8s-.3.3-.4.8c0 0-.1-.1-.1-.1-.1-.1-.3.2-.3.5v.1c0-.1 0-.2-.1-.2 0-.1-.1-.3-.2-.4s-.3.2-.2.6c0 .1.1.1.2.2-.1 0-.2 0-.2.1v-.1c0-.1-.1-.3-.3-.3-.1-.1-.3.2-.2.5-.2.1-.3.1-.5.1 0-.2-.2-.3-.3-.3s-.1 0-.1.1c0-.1-.1-.1-.1-.1-.1 0-.2.2-.3.5-.1 0-.1 0-.2-.1 0 0-.1-.1-.1-.1-.1-.1-.2-.2-.5-.3-.4-.1-.2 0-.3-.4-.3-.1-.5-.2-.6-.1 0-.3-.4-.6-.6-.5s0 0-.1.1c-.1.1-.3.4.1.4v.1c-.2 0-.3-.1-.5-.1 0 0 .1 0 .1-.3s0-.6-.2-.6c-.1 0-.2.1-.3.4-.1 0-.1 0-.2.1 0-.4-.1-.7-.2-.7s-.3.4-.3.9v.2h-.1c0-.1 0-.3 0-.4-.1-.5-.2-.8-.4-.8-.1 0-.2.4-.1.9 0 .1 0 .2.1.3-.2 0-.4.1-.6.1-.1 0-.2-.1-.4 0-.1 0-.1 0-.2 0 0 0 0 .1-.1.1 0-.1 0-.2-.1-.2-.1-.1-.4.3-.4.7v.1-.1c-.1-.4-.2-.7-.4-.7-.1 0-.2.4-.1.9-.1 0-.2 0-.4-.1 0-.1 0-.2 0-.2 0-.1-.1-.2-.3-.2.1-.4 0-.6 0-.6-.1 0-.3.4-.5.9 0-.4-.1-.8-.2-.8-.1.1-.4.4-.2.7-.1 0-.2 0-.4 0 0-.3-.1-.6-.2-.6s-.2.2-.3.6c-.2 0-.3 0-.5 0-.1-.1-.1-.2-.2-.2s-.2.1-.2.2c-.1 0-.1 0-.2 0-.1-.3-.2-.5-.3-.5s-.2.2-.2.5h-.1s0 0-.1 0c-.1-.1-.2-.1-.3-.1v.1c-.2 0-.5 0-.7.1-.1-.1-.1-.1-.2-.1s-.1.1-.1.2h-.1c0-.1.1-.2.1-.3 0-.3-.1-.5-.2-.5s-.3.2-.3.5v.4c-.4.1-.8.1-1.2.2-.1-.2-.2-.4-.2-.4-.1 0-.1.2-.2.5 0 0 0 0-.1 0 0-.1-.1-.2-.1-.2h-.1c0-.1-.1-.1-.1-.2-.1 0-.3.2-.3.5 0-.3-.1-.5-.2-.5s-.2.1-.2.3c0-.1-.1-.1-.1-.1s-.1 0-.1.1c0-.1 0-.2-.1-.2-.1-.1-.3.3-.5.7v.2s0 0-.1 0c0-.1 0-.1 0-.2 0-.4-.2-.8-.3-.8s-.2.4-.2.9v.3s-.1 0-.1.1c0-.1 0-.2 0-.3.1-.4 0-.8-.1-.8s-.3.2-.4.6c-.1 0-.2.2-.2.4 0 .1 0 .2.1.3h-.1s0 0 0-.1c0-.3-.1-.6-.2-.6 0-.1-.1-.1-.1-.1-.1 0-.2.2-.2.4h-.1c0-.1-.1-.1-.1-.1-.1 0-.3.2-.3.5 0-.1-.1-.2-.1-.3-.1 0-.1 0-.2.1 0-.2-.1-.3-.1-.4-.1 0-.2.1-.3.2-.1 0-.3.2-.3.6v.1c-.1-.2-.3-.4-.4-.3 0 0-.1.1-.1.2 0-.2-.1-.4-.2-.5-.1 0-.2.1-.2.3 0-.1-.1-.1-.1-.1-.1 0-.1 0-.2.2 0-.1-.1-.2-.2-.2s-.2.1-.2.2c0-.1-.1-.2-.2-.2s-.2.2-.3.5c-.1 0-.1 0-.2 0 0 0 .1-.1.1-.1 0-.1-.1-.2-.2-.2s-.1 0-.2 0c0-.2-.1-.3-.2-.3s-.2.1-.2.3c0-.3-.1-.5-.2-.5s-.2.3-.2.7c0 0-.1-.1-.1-.1-.1 0-.1.1-.2.1 0-.3-.1-.6-.2-.6 0 0-.1 0-.1.1 0-.1-.1-.1-.1-.1-.1 0-.2.2-.2.4-.1-.2-.1-.3-.2-.3s-.2.2-.2.5c0 0 0 .1-.1.1-.2 0-.5 0-.7.1 0-.4 0-.8-.1-.8s-.3.3-.4.9 0 0-.1 0c0-.3-.1-.6-.2-.6s-.3.3-.3.7c-.1 0-.2 0-.2 0 0-.4-.1-.6-.2-.6s-.2.2-.2.5c0-.1-.1-.1-.1-.1s0 0-.1 0c0-.2-.1-.3-.2-.3s-.2.2-.3.4c0-.2-.1-.4-.2-.4s-.1.1-.2.2c0 0-.1-.1-.1-.1-.1 0-.1.1-.2.3-.1 0-.2.1-.2.4-.1 0-.1 0-.2 0-.1-.2-.2-.3-.3-.3s-.1.1-.1.2c-.1-.1-.2-.2-.3-.2s-.1.1-.1.1c0-.2-.1-.4-.3-.4-.1 0-.3.2-.3.4 0 .1 0 .2.1.3-.1 0-.2 0-.3 0 0-.4 0-.7-.1-.7 0 0-.1 0-.1.1-.1-.2-.1-.3-.1-.2.1-.1-.2.4-.2.9-.2 0-.3 0-.5 0 0-.1-.1-.1-.1-.2 0-.3-.1-.5-.2-.5s-.2.2-.3.6c-.1-.1-.2-.2-.2-.2-.1 0-.1.2-.1.4-.1 0-.1 0-.2 0 0-.1-.1-.1-.1-.1-.1 0-.1 0-.2.1-.1-.4-.3-.7-.4-.7s-.2.3-.1.7c-.2 0-.3 0-.5 0 0-.4-.1-.7-.2-.7s-.1.1-.1.2c-.1-.2-.1-.3-.2-.3s-.2.4-.2.8c0 0 0 0-.1 0-.1-.6-.2-1.1-.3-1-.1 0-.2.4-.2 1-.1-.4-.2-.7-.3-.7s-.2.3-.2.7c-.1-.5-.2-.8-.3-.8 0-.6-.1-1-.2-1s-.3.6-.3 1.4c0 .1 0 .2.1.3 0 0 0 0-.1 0 0-.2-.1-.4-.2-.4 0 0-.1.1-.2.3-.1-.3-.2-.5-.3-.4 0 0-.1 0-.1.1 0-.2-.1-.3-.2-.3s-.2.4-.3.9c-.1-.6-.2-1.1-.4-1.1-.1 0-.2.4-.1 1v.6c-.1 0-.2.1-.2.1-.1-.4-.2-.7-.3-.7s-.2.4-.1 1c0 0 0 0-.1 0-.1-.6-.2-1.1-.3-1.1s-.1.1-.1.4c0-.1-.1-.1-.1-.1-.1 0-.3.6-.3 1.4v.1s-.1.1-.1.1c0-.2 0-.4-.1-.6 0-.4-.1-.7-.1-.8-.1-.2-.1-.3-.2-.3s-.2.4-.2 1c0 .2 0 .4-.1.5 0 .2 0 .4.1.6-.1.1-.2.2-.3.3 0 0 0 0 0-.1s0-.2 0-.3 0-.2 0-.3c.1-.5.1-.9 0-1-.1 0-.3.2-.4.5 0-.1-.1-.1-.1-.2-.1 0-.2.1-.2.4-.1 0-.2.1-.3.4 0-.2-.1-.4-.1-.4-.1 0-.2.1-.3.4-.1 0-.5.4-.6 1v.1c0-.2-.1-.4-.2-.4s-.1.1-.2.4c0 .1-.1.1-.1.2 0-.1 0-.2-.1-.2s-.3.3-.4.7c0-.2-.1-.4-.2-.5-.1 0-.3.4-.3.9 0 .1 0 .2.1.3-.1.1-.2.2-.2.3 0-.1 0-.3 0-.5 0-.5 0-1-.1-1.1-.1 0-.2.1-.2.4-.1 0-.3.3-.4.8 0-.2 0-.3-.1-.3s-.2.2-.4.6h-.1c.1-.4.1-.7 0-.8 0 0-.1 0-.1.1 0-.1-.1-.1-.1-.1-.1 0-.1.1-.2.4 0-.2-.1-.4-.2-.4s-.2.2-.3.6c0-.1-.1-.2-.1-.2-.1 0-.2.2-.3.5 0 0 0 0-.1 0s-.3.3-.3.8v.1s-.1.1-.1.1 0 0-.1 0c.1-.5.1-1 0-1s-.4.4-.5 1v.4-.1c0-.4-.1-.8-.3-.8 0 0-.1 0-.1.1 0-.1-.1-.1-.1-.1-.1 0-.3.4-.3.9v.2s-.1 0-.2 0c0-.5 0-.9-.1-.9-.1-.1-.3.4-.4 1.1h-.1c0-.2 0-.3-.1-.3-.1-.1-.3.2-.4.6 0-.2-.1-.3-.2-.4 0 0-.1 0-.1.1 0-.1-.1-.2-.1-.2-.1 0-.2.1-.3.4 0-.1 0-.1-.1-.1-.1-.1-.3.1-.4.5 0-.1 0-.1-.1-.1-.1-.1-.3.2-.5.6 0-.1-.1-.1-.1-.1-.1 0-.2.1-.3.4 0 0 0 0 0-.1.2-.6.2-1.1.1-1.2s-.3.3-.5.8c-.1 0-.4.2-.5.7 0 0 0 .1-.1.1 0-.2-.1-.4-.2-.5-.1 0-.3.2-.3.5v.4c-.1 0-.1 0-.2 0s-.1 0-.2 0c0-.1 0-.2 0-.4.3-.5.4-1.1.3-1.2s-.4.3-.7.9c-.1 0-.3.2-.3.6-.1 0-.2 0-.3 0 0-.1.1-.2.1-.3 0-.3-.1-.5-.2-.5s-.3.2-.3.5v.2c-.1 0-.2 0-.2 0 .1-.4.1-.8-.1-.9-.1 0-.3.3-.4.7v-.1c0-.4-.2-.7-.3-.7s-.2.3-.2.8v.1c0-.2-.1-.4-.2-.4 0 0 0 0-.1 0-.1-.4-.3-.7-.4-.6s-.2.4 0 .8v.1c-.2 0-.4 0-.7-.1 0-.5 0-1-.2-1-.1 0-.2.3-.3.8 0-.1-.1-.1-.2-.1h-.1c0-.1 0-.1 0-.2-.1-.3-.2-.6-.4-.6-.1 0-.2.3-.1.6 0 .1 0 .2.1.3-.2 0-.3 0-.5 0-.1-.4-.3-.7-.4-.6 0-.2-.1-.3-.1-.4-.1-.1-.3.3-.4.8 0-.1-.1-.2-.2-.2s-.3.1-.3.2c-.1 0-.2 0-.3 0 .1-.7.1-1.3-.1-1.3-.1 0-.3.5-.5 1.3-.1 0-.1 0-.2 0v-.1c0-.5 0-1-.2-1 0-.1-.1-.2-.1-.3-.1 0-.3.5-.3 1.1 0 .1 0 .2.1.3-.1 0-.1 0-.2 0 0-.4 0-.7-.2-.7 0-.1 0-.1-.1-.1-.1-.1-.3.3-.4.8-.1 0-.2 0-.2 0 0-.4 0-.7-.2-.8h-.1c0-.2-.1-.3-.2-.3 0 0-.1.1-.1.1 0-.1-.1-.2-.1-.3-.1 0-.1.1-.2.3 0-.2 0-.3-.1-.3 0 0-.1 0-.2.1 0 0-.1-.1-.1-.1-.1 0-.1.2-.2.4-.1.1-.1.3-.2.5v.1s0 0-.1 0c0-.4-.1-.7-.2-.7s-.1.1-.2.2c-.1-.2-.2-.4-.3-.3-.1 0-.1.3-.1.7 0 0 0 0-.1-.1-.1 0-.1 0-.2.1.1-.5 0-.8-.1-.8s-.2.1-.2.3c0-.2 0-.4-.1-.4s-.2.1-.2.3c0-.2-.1-.4-.1-.4-.1 0-.3.5-.4 1.1 0-.6-.2-1-.3-1s-.2.4-.2 1h-.1c.1-.5.2-.9 0-1-.1-.1-.3.3-.5.9 0 0 0 0-.1 0s-.1.1-.1.1c-.1 0-.2 0-.3 0 0-.1-.1-.2-.1-.2-.1 0-.1.1-.2.2-.1 0-.1 0-.2 0 .1-.5 0-.9-.1-1-.1 0-.3.4-.4 1h-.1c0-.2 0-.4-.1-.5-.1 0-.2.2-.4.5 0-.4 0-.7-.1-.7 0 0-.1 0-.2.2 0 0 0 0-.1 0s-.3.1-.3.3c0 .1 0 .2.1.2-.1 0-.2 0-.4 0 .2-.6.3-1.3.2-1.3s-.3.2-.4.6c-.1 0-.1.1-.2.3 0-.2 0-.4-.1-.4s-.2.1-.3.4c-.1 0-.2.1-.3.4 0-.3-.1-.5-.2-.5s-.1.1-.2.3c0-.4-.1-.7-.2-.7s-.3.4-.3 1v.1h-.1c0-.2 0-.4-.1-.6.1-.4 0-.7-.1-.8-.1 0-.3.2-.3.6 0-.2-.1-.3-.1-.3-.1 0-.3.3-.4.7 0-.4 0-.7-.1-.7s-.2.1-.2.4c0-.4 0-.7-.1-.7s-.1.1-.2.3 0 0-.1 0c0-.1 0-.1-.1-.2-.1 0-.3.2-.5.7 0-.3-.1-.4-.1-.4-.1 0-.1.1-.2.2 0 0 0-.1-.1-.1s-.1.1-.2.2c0-.3-.1-.6-.2-.6 0 0-.1 0-.1.1.1-.5.1-.9 0-.9s-.3.4-.5 1.1c0 0-.1 0-.1.1 0-.4 0-.8-.1-.8 0 0-.1 0-.1.1 0-.1 0-.2-.1-.2 0-.1-.1-.2-.1-.2-.1 0-.2.2-.3.5-.1.1-.2.3-.2.7 0 0 0 0-.1 0 0-.6 0-1-.1-1s-.2.3-.3.9v.1c-.1 0-.1 0-.2 0 0-.3-.1-.5-.1-.5-.1 0-.2.2-.2.4-.1 0-.2 0-.2 0 .1-.6 0-1-.1-1s-.2.1-.2.4c0-.4 0-.6-.1-.6s-.2.4-.4 1c0 0-.1.1-.1.2 0-.3-.1-.5-.1-.5-.1 0-.1.1-.2.3 0 0 0-.1-.1-.1s-.3.5-.4 1.3c0 0 0-.1-.1-.1s-.2.2-.2.4c0-.1-.1-.2-.1-.2-.1 0-.2.3-.2.7-.2.2-.3.3-.5.5.1-.7 0-1.3-.1-1.3s-.3.5-.4 1.2v.6s-.1.1-.1.1v-.1c.1-.9 0-1.7-.1-1.7s-.2.3-.3.8c0-.1-.1-.2-.1-.2-.1 0-.2.3-.3.9 0-.6-.1-1.1-.2-1.1s-.2.4-.3.9c0-.1 0-.1-.1-.1s-.3.7-.4 1.7c0-.4 0-.7-.1-.7s-.2.3-.3.8c-.1.1-.2.2-.2.4 0 0 0-.1-.1-.1 0 0-.1 0-.1.1 0-.3 0-.5-.1-.5s-.3.5-.4 1.3v.6c-.1.1-.2.1-.3.2 0-.3.1-.6.1-.9.1-.9.3-1.6.2-1.7s-.6.6-.7 1.6v.3c0-.2-.1-.3-.1-.3-.1-.1-.3.3-.4.8 0 0-.1-.1-.1-.1s-.1.1-.1.2c0-.1-.1-.1-.1-.2-.1 0-.2.4-.3.9 0-.2-.1-.3-.2-.3s-.2.4-.3.9c0-.4-.1-.7-.2-.7s-.1.1-.2.3c-.1 0-.2.3-.3.7 0 0-.1-.1-.1-.1-.1 0-.1 0-.2.1 0 0 0-.1-.1-.1s-.2.2-.3.6c0 0-.1.1-.1.1 0-.6-.1-1-.2-1s-.3.6-.3 1.3c0 0-.1 0-.1.1 0-.5-.1-.9-.2-.9s-.2.3-.2.7c0-.1-.1-.2-.1-.2-.1 0-.3.3-.3.8v.1c0-.1-.1-.1-.2-.1s-.3.1-.3.2v.2c-.2.1-.3.2-.5.3v-.1h.1c.1 0 .3-.3.3-.6s-.1-.6-.2-.6-.3.2-.3.6v.2c-.1 0-.2.2-.3.5 0 0-.1 0-.1.1.1-.4 0-.7-.1-.8-.1 0-.1.1-.2.2v-.1s-.1 0-.1.1c0-.3-.1-.5-.2-.6-.1 0-.2.3-.3.7 0-.3-.1-.6-.2-.6s-.3.5-.3 1.3c0 .4 0 .7.1 1-.1.1-.2.1-.3.2-.1-1 0-1.8-.1-1.8 0 0-.1 0-.1.1 0-.1-.1-.2-.1-.2-.1 0-.2.7-.2 1.6v.6c0-.2 0-.4 0-.6.1-.8-.1-1.6-.2-1.5 0 0-.1.1-.1.2-.1.1-.2.4-.2.8 0-.2-.1-.3-.2-.3 0 0-.1.1-.1.2 0-.1-.1-.1-.1-.1-.1 0-.2.2-.3.6 0-.2-.1-.4-.2-.4s-.2.2-.2.5c0-.4-.1-.7-.2-.7s-.2.3-.2.7c0 0 0-.1-.1-.1s-.3.4-.4.9c0 0-.1.1-.1.2 0-.1 0-.2-.1-.2s-.2.2-.4.6c-.1.1-.2.4-.2.6-.1 0-.1.1-.2.3 0-.3-.1-.5-.2-.5s-.2.3-.3.8c0-.2-.1-.3-.2-.4-.1 0-.1.1-.2.3 0-.2 0-.3-.1-.5 0-.5 0-.9-.1-.9s-.1.2-.2.4c-.1 0-.1.2-.2.4 0-.3 0-.4-.1-.5-.1 0-.4.6-.5 1.4s-.1.1-.1.2c0-.1-.1-.1-.1-.1-.1 0-.2.2-.2.4 0 0 0-.1-.1-.1s-.1.1-.2.2c-.1 0-.1.1-.2.2 0-.3-.1-.5-.2-.5s-.3.5-.3 1c-.1.1-.1.2-.1.4 0-.3-.1-.5-.2-.6-.1 0-.2.1-.2.4 0 0-.1-.1-.1-.1-.1 0-.2.3-.3.7 0 0 0 0-.1 0s-.2.1-.2.4c0-.1-.1-.2-.1-.2-.1 0-.1.1-.2.2-.1 0-.2.1-.2.3 0-.1-.1-.2-.1-.2s-.1 0-.1.1c0-.1-.1-.2-.1-.2-.1 0-.2.2-.3.4 0-.1-.1-.1-.1-.1-.1 0-.3.5-.4 1v.7s-.1 0-.1.1c0-.1 0-.1 0-.2 0-.5 0-.9-.2-1-.1 0-.2.3-.3.7 0 0 0 0-.1 0h-.1c-.1-.3-.1-.4-.2-.4s-.2.4-.2.9v.7c-.1 0-.1.1-.2.1 0-.5 0-.8-.2-.9-.1 0-.2.1-.2.3 0-.2-.1-.3-.2-.3s-.3.3-.3.7h-.1c-.1 0-.2.3-.2.6 0 .1 0 .2.1.3-.1 0-.1.1-.2.1 0-.2 0-.4 0-.6.1-.8.1-1.5 0-1.5s-.1.1-.2.3c0-.3 0-.4-.1-.4s-.4.8-.6 1.9v.3s0 0-.1 0c0-.5 0-.9-.1-.9s-.1.1-.2.4c0-.1-.1-.2-.1-.2-.1 0-.3.5-.4 1.2v.2c0-.1 0-.2-.1-.2 0-.2 0-.4-.1-.4 0-.1 0-.1-.1-.1s-.3.4-.5 1c0-.2-.1-.3-.1-.3-.1 0-.1.1-.2.2 0-.1 0-.1-.1-.1s-.1.1-.2.2c0-.1 0-.2-.1-.2s-.3.4-.4 1c-.1 0-.3.4-.4.9 0-.5-.1-.9-.2-.9s-.3.5-.3 1.1v.1c0-.2 0-.3-.1-.4-.1 0-.2.1-.3.3 0-.1 0-.2-.1-.2s-.3.4-.4.9c0-.3 0-.6-.1-.6s-.3.3-.5.9c0 0-.1.1-.1.2 0-.2 0-.3-.1-.3s-.4.6-.5 1.5v.2s-.1.1-.1.1v-.1c0-.5 0-.9-.1-1 0 0 0 0-.1 0 0-.2 0-.3-.1-.3s-.3.3-.4.7c-.1 0-.2.2-.3.4-.1 0-.2.2-.3.4 0-.3 0-.6-.1-.6s-.3.3-.4.9c-.1 0-.3.3-.3.6 0 0 0 0-.1-.1-.1 0-.3.3-.3.7 0-.1-.1-.2-.1-.2-.1 0-.2.2-.3.5 0 0 0-.1-.1-.1s-.2.1-.3.3c0 0 0-.1-.1-.1 0 0 0 0-.1 0 0-.2 0-.4-.1-.4s-.3.4-.4.9c0-.1-.1-.2-.1-.2-.1 0-.3.3-.3.8v.2s0 0-.1 0-.1.1-.2.2c0-.1-.1-.1-.1-.1-.1 0-.1.1-.2.2 0 0 0-.1-.1-.1s-.3.5-.4 1.2v.1c-.1 0-.3.4-.3.9v.3c0-.1-.1-.1-.1-.1-.1 0-.2.3-.3.7 0-.5 0-.9-.1-.9s-.2.3-.3.7v-.1c-.1 0-.3.3-.4.7 0-.2-.1-.4-.2-.4s-.1.1-.2.2c-.1-.3-.2-.6-.3-.6s-.1.2-.2.5c0-.3-.1-.6-.2-.6s-.2.2-.2.4c0-.2-.1-.4-.2-.4 0-.1-.1-.2-.1-.2-.1 0-.1.2-.2.4 0-.3-.1-.5-.2-.5 0 0-.1 0-.1.1 0-.2-.1-.4-.2-.4s-.2.3-.3.6c0-.1-.1-.2-.1-.2s-.1 0-.1.1v-.1c.1-.4.1-.8 0-.8-.1-.1-.4.4-.6 1.1 0-.1 0-.1 0-.2 0-.6 0-1.2-.2-1.2-.1 0-.2.2-.3.5 0-.5-.1-.9-.2-.9s-.2.3-.2.8c0-.1-.1-.2-.1-.2-.1 0-.2.2-.3.6 0-.6-.1-1-.2-1s-.1.2-.2.4c0 0-.1-.1-.1-.1s0 0-.1 0c0 0 0-.1-.1-.1 0 0 0 0-.1 0 0-.2-.1-.3-.1-.3-.1 0-.1.1-.2.3 0-.1-.1-.1-.1-.1-.1 0-.1.1-.2.3 0-.1 0-.1-.1-.1 0-.5-.1-.9-.2-.9s-.2.3-.3.8c-.1.1-.1.3-.2.5-.1-.2-.2-.3-.3-.3s-.1.1-.1.1c0-.1-.1-.2-.1-.2 0-.3-.1-.6-.2-.6s-.2.2-.3.5c0 0-.1-.1-.1-.1-.1 0-.1.1-.2.2 0 0-.1-.1-.1-.1-.1 0-.1.1-.2.2 0-.2-.1-.4-.2-.4s-.1.1-.2.3c0-.1-.1-.1-.1-.1s0 0-.1 0c0-.3-.1-.6-.1-.6-.1 0-.3.5-.4 1.1 0-.6 0-1.2-.2-1.2-.1 0-.2.3-.3.8 0-.1-.1-.1-.1-.1-.1 0-.2.2-.3.6 0-.3-.1-.5-.2-.5s-.2.2-.2.5c0 0-.1-.1-.1-.1-.1 0-.1.1-.2.3 0 0-.1-.1-.1-.1-.1 0-.1.1-.2.2 0-.3 0-.5-.1-.5s-.2.2-.3.5c0-.1-.1-.2-.1-.2-.1 0-.1.1-.2.2 0-.1-.1-.2-.1-.2-.1 0-.3.4-.4 1v.2c-.1 0-.1 0-.2.1.1-.5 0-.9-.1-.9s-.3.5-.5 1.1v-.1c0-.6.1-1.1 0-1.1s-.3.3-.4.7v.1c0-.1-.1-.2-.1-.2 0-.2 0-.4-.1-.4s-.2.2-.3.6c0-.1 0-.2-.1-.2s-.2.2-.3.4c0-.2 0-.3-.1-.3s-.1.1-.2.3c0-.1 0-.1-.1-.1s-.3.4-.4 1.1c-.1 0-.2.1-.2.3 0-.1-.1-.2-.1-.2-.1 0-.2.4-.2 1 0-.5 0-.9-.2-.9 0 0-.1.2-.2.4 0-.2-.1-.4-.1-.4-.1 0-.3.4-.3 1.1-.1.1-.1.2-.1.4 0-.3-.1-.6-.2-.6s-.3.4-.3.9v.3s0 0-.1.1c0 0 0 0-.1-.1-.1 0-.2.1-.3.3 0-.1-.1-.1-.1-.1-.1 0-.1.1-.2.2 0-.5 0-.9-.2-.9-.1 0-.3.6-.4 1.4-.1 0-.3.4-.4.9v.2s-.1-.1-.1-.1c-.1 0-.2.2-.3.5 0-.3 0-.6-.1-.6s-.3.3-.3.6c0-.1-.1-.2-.1-.3-.1 0-.1.1-.2.2 0-.3-.1-.6-.1-.6-.1 0-.2.2-.3.6-.1.1-.1.2-.2.3-.1 0-.2.1-.2.2 0-.1-.1-.1-.1-.1-.1 0-.2.2-.3.4 0-.2-.1-.3-.2-.3 0 0 0 0-.1 0 0 0 0-.1-.1-.1s-.3.3-.4.8c0 .2-.1.4 0 .6 0 0 0 0-.1 0 0-.4-.1-.8-.2-.8s-.3.3-.3.8v.2s0 0-.1 0c0 0 0 0 0-.1 0-.4-.1-.7-.2-.7 0 0-.1 0-.1.1-.1 0-.2.2-.2.4 0-.2-.1-.3-.2-.3 0-.3-.1-.6-.2-.6s-.2.3-.3.7c0 0 0 0-.1-.1-.1 0-.2.1-.2.2 0-.2-.1-.4-.2-.4 0 0-.1 0-.1.1-.1.1-.2.3-.3.7-.1-.1-.1-.2-.2-.2h-.1c0-.2-.1-.3-.2-.3s-.2.2-.3.5c0-.1-.1-.2-.2-.2 0-.5-.1-.9-.2-.9s-.2.3-.3.8 0 0-.1 0c.1-.7.1-1.2 0-1.3 0 0-.1 0-.1.1 0-.1 0-.1-.1-.1s-.3.6-.4 1.4v.4c0-.1-.1-.1-.1-.1-.1 0-.2.1-.2.3 0-.1 0-.1 0-.1 0-.7 0-1.3-.2-1.3-.1 0-.2.3-.3.7-.1.1-.1.4-.2.6 0-.2-.1-.4-.2-.4 0 0-.1 0-.1.1-.1 0-.3.2-.3.4 0 0-.1-.1-.1-.1-.1 0-.2.1-.3.3 0-.2-.1-.3-.2-.3 0 0-.1 0-.1.1 0-.2-.1-.4-.2-.4s-.3.5-.3 1.1c0-.1 0-.1 0-.2 0-.8 0-1.5-.2-1.5-.1 0-.3.7-.3 1.5v.1c-.1 0-.1 0-.2.1 0-.1-.1-.1-.1-.1h-.1c-.1 0-.2.1-.3.4 0 0 0 0-.1 0s-.2.1-.2.3c0-.2-.1-.3-.2-.3 0 0-.1 0-.1.1 0-.2-.1-.3-.2-.3s-.1.1-.2.2c0-.4 0-.7-.1-.7s-.4.4-.4 1.1c0-.1 0-.1-.1-.2 0-.2-.1-.3-.1-.3-.1 0-.2.1-.2.2h-.1c-.1.2-.2.5-.4.7 0-.1 0-.3-.1-.4 0 0 0-.1.1-.1-.1 0-.1 0-.2 0s-.1 0-.2-.1v.1h-.1c-.1 0-.2-.1-.3-.1v.1c-.1 0-.1 0-.2 0v.1c0-.1 0-.2 0-.2v-.2-.1c-.2 0 .5-.1-.5 0v.1.4.1c-.1 0-.1-.1-.3-.1v.2.3.4c0-.2 0-.4-.1-.4s-.1 0-.1.1c0-.3-.1-.5-.2-.5 0 0-.1.1-.2.2 0-.1-.1-.2-.1-.2-.1 0-.2.3-.3.7 0-.1-.1-.2-.1-.2-.1 0-.1 0-.2.1 0-.3-.1-.5-.2-.5s-.2.2-.3.5-.1 0-.1.1c0-.4 0-.6-.1-.6s-.3.5-.4 1.2v-.1c0-.6-.1-1-.2-1 0 0 0 0-.1 0 0-.1-.1-.1-.1-.1s-.1 0-.1.1c0-.3-.1-.5-.2-.5s-.2.4-.3 1c0 0 0 0-.1 0 0-.2-.1-.3-.1-.3-.1 0-.3.4-.3.9 0 0-.1.1-.1.1-.1 0-.2.1-.3.2 0-.3-.1-.5-.2-.5s-.1.1-.2.2c0-.1-.1-.1-.1-.1s-.1 0-.1.1c0-.5 0-1-.1-1s-.2.1-.2.3c0-.1-.1-.1-.1-.1-.1 0-.1.1-.2.2-.1 0-.3.3-.3.7 0-.3-.1-.6-.2-.6 0 0-.1 0-.1.1-.1 0-.1 0-.1.1 0-.3-.1-.6-.2-.6s-.2.3-.3.7 0 0 0-.1c.1-.8.1-1.4 0-1.5-.1 0-.3.4-.4 1 0-.1-.1-.1-.2-.1.1-.2 0-.4-.1-.4s-.3.1-.4.3c0-.3-.1-.5-.3-.5-.1 0-.2.3-.2.7v.2h-.1c0-.1 0-.1 0-.2 0-.3 0-.5-.2-.5-.1 0-.2.1-.3.3 0-.1-.1-.2-.2-.2s-.2.1-.3.3c0 0-.1-.1-.1-.1-.1 0-.2.1-.2.1s0 0 0-.1c0-.5-.1-.9-.2-.9s-.2.2-.3.5c0 .1-.1.1-.1.2 0-.2-.1-.3-.2-.3s-.2.2-.3.4c0-.1-.1-.1-.1-.1-.1 0-.1 0-.2.2 0-.1-.1-.1-.1-.2-.1 0-.1.1-.2.1 0-.3-.1-.5-.2-.5s-.3.4-.4.9v.1c-.1 0-.1 0-.2.1 0-.1-.1-.1-.1-.1-.1 0-.1.1-.2.2 0-.1-.1-.2-.1-.2s0 0-.1 0c0-.1-.1-.1-.1-.1s0 0-.1 0c0-.1-.1-.1-.1-.1-.1 0-.3.4-.3.9 0-.3-.2-.5-.2-.5-.1.1-.2.3-.3.8 0-.2-.1-.3-.2-.3 0-.3-.1-.6-.1-.6s-.1.1-.1.2c0-.3-.1-.4-.1-.4-.1 0-.1.1-.2.3 0-.3-.1-.4-.1-.4-.1 0-.3.6-.4 1.4 0 0-.1-.1-.1-.1-.1 0-.2.1-.2.3 0-.4 0-.7-.1-.7 0 0-.1 0-.1.1 0-.2-.1-.3-.1-.3-.1 0-.3.6-.4 1.4 0-.1 0-.1 0-.2.1-.9.1-1.7-.1-1.7-.1 0-.2.2-.3.6 0-.1-.1-.2-.1-.2-.1 0-.2.2-.3.6-.1 0-.1.1-.2.3 0 0-.1.1-.1.2 0 0 0 0-.1 0 0-.2-.1-.3-.2-.3s-.2.2-.2.4c-.1 0-.2.2-.2.4h-.1s0 0-.1 0c0-.1-.1-.1-.1-.1-.1 0-.2.1-.2.4 0-.4-.1-.7-.2-.7s-.2.2-.2.5c0-.3-.1-.5-.2-.5s-.2.2-.3.6c0-.1-.1-.2-.2-.2 0 0-.1 0-.1.1 0 0 0-.1-.1-.1s-.2.1-.3.4c-.1 0-.1.2-.2.4 0 0 0 0-.1 0s-.1 0-.2.2c0 0-.1.1-.1.2h-.1c0-.2-.1-.4-.2-.4s-.1 0-.2.1c0-.1-.1-.1-.1-.1h-.1c0-.1-.1-.3-.2-.3h-.1s0-.1-.1-.1c0-.5-.1-.9-.2-.9s-.1.1-.2.2c0-.1-.1-.1-.1-.1 0-.5-.1-.8-.2-.8s-.2.4-.3 1c-.1 0-.1.1-.2.3 0-.2-.1-.3-.1-.3-.1 0-.2.2-.3.4 0-.4-.1-.7-.2-.7s-.2.2-.3.5c0-.2-.1-.4-.2-.4s-.2.3-.3.8 0 0-.1 0c0-.2-.1-.3-.1-.3 0-.1-.1-.1-.1-.1-.1 0-.2.3-.3.6 0-.1-.1-.1-.1-.1s-.1 0-.1.1c0-.5 0-.9-.1-.9s-.2.2-.3.5c0 0 0-.1-.1-.1 0 0 0 0-.1 0 0-.3 0-.6-.1-.6s-.2.2-.3.4c0 0-.1-.1-.1-.1 0-.3-.1-.5-.2-.6-.1 0-.2.2-.3.6s0 0-.1 0c0-.2-.1-.3-.1-.4 0-.6 0-1.1-.2-1.1-.1 0-.2.3-.3.8-.1-.3-.2-.5-.3-.5s-.2.4-.1.9c0 0-.1-.1-.1-.1-.1 0-.1.1-.2.2 0-.1-.1-.2-.1-.2h-.1c0-.1-.1-.2-.2-.2 0-.2-.1-.3-.2-.3s-.1 0-.2.1v-.1c0-.4 0-.7-.2-.7-.1 0-.3.2-.3.6h-.1s0 0-.1 0c0-.3-.1-.5-.2-.5s-.2.2-.3.4 0 0-.1 0c0-.2-.1-.3-.2-.4-.1 0-.2.1-.3.3-.1 0-.1.1-.1.1s0 0-.1 0c0 0-.1-.1-.2-.1 0 0 0 0-.1 0 0-.1-.1-.2-.2-.2s-.1 0-.2.1h-.1c0-.2-.1-.3-.2-.3 0-.1-.1-.1-.2-.1 0 0 0 0-.1 0 0-.1-.1-.2-.2-.3 0-.1-.1-.3-.2-.3 0 0-.1 0-.1.1 0 0-.1-.1-.1-.1-.1 0-.1.1-.2.2 0-.1-.1-.1-.1-.1-.1 0-.2.1-.2.3 0-.1 0-.3 0-.5-.1 0-.2 0-.2 0v-.1h-.1c-.1-.1-.2-.1-.4-.1 0 0 0 .1-.1.1-.2-.1-.2 0-.2 0 0-.1-.1-.1-.1-.1-.1 0-.3.2-.4.5v.3h-.1c0-.2-.1-.3-.2-.3s-.1 0-.2.1c0-.2-.1-.5-.2-.5s-.2.1-.3.3c0 0-.1-.1-.1-.1-.1 0-.1 0-.1.1s0 0-.1 0c0-.3-.1-.4-.2-.4 0 0 0 0-.1 0 0-.1-.1-.2-.2-.3-.1 0-.2.2-.3.5 0-.1-.1-.1-.1-.1 0-.1-.1-.2-.2-.2 0 0-.1 0-.1.1-.1 0-.1.1-.2.2 0-.1 0-.1 0-.2 0-.7 0-1.3-.2-1.3-.1 0-.3.6-.3 1.3 0 .1 0 .1-.1.2h-.1-.1s0 0-.1 0c0-.1-.1-.3-.2-.3h-.1c0-.1-.1-.2-.2-.2s-.3.2-.3.5v.1c0-.1-.1-.2-.1-.2 0-.6-.1-1-.2-1s-.3.5-.3 1.2v.1s0 0-.1 0c0 0 0 0-.1 0 0-.1-.1-.1-.2-.1 0 0-.1 0-.1.1 0 0-.1-.1-.2-.1s-.1 0-.1 0c0-.1-.1-.3-.3-.3 0-.3-.1-.5-.2-.5s-.1 0-.2.1c0 0-.1 0-.1.1 0-.7-.1-1.3-.3-1.3-.1 0-.3.6-.3 1.3v.4-.1c0-.5-.2-.8-.3-.8s-.1.1-.2.4c0 0 0-.1-.1-.1s-.1.1-.2.2c0-.1-.1-.1-.2-.1s-.3.2-.3.4v.1h-.1c0-.2-.1-.4-.2-.5 0-.1-.1-.2-.2-.3 0-.2-.1-.4-.2-.4s-.2 0-.2.2c0-.1-.1-.2-.1-.2-.1 0-.2.1-.3.3 0-.1-.1-.2-.2-.2s-.2.2-.2.4c0 0-.1-.1-.1-.1 0-.3-.1-.6-.2-.6 0-.6 0-.9-.1-1-.1 0-.3.5-.4 1.3 0-.1-.1-.2-.2-.2 0-.1-.1-.1-.2-.2-.1 0-.1 0-.1.1 0-.3-.1-.5-.1-.5-.1 0-.2.1-.3.3 0-.1-.1-.1-.1-.1-.1 0-.3.2-.3.6v.1c0-.3 0-.6-.1-.6s-.1 0-.2.1h-.1c-.1 0-.3.1-.3.3v.2c-.1 0-.1 0-.2.1 0-.1 0-.1 0-.2.1-.5 0-.9-.2-1-.1 0-.2.2-.3.6-.1 0-.2.2-.3.4-.1 0-.2.1-.2.2 0-.1-.1-.1-.1-.1s0 0-.1 0c0-.3-.1-.5-.2-.5s-.3.3-.3.7c0 0 0 0-.1 0 0-.1-.1-.2-.1-.2-.1 0-.2.2-.3.4-.1.1-.2.3-.2.6 0 0 0 0-.1.1-.1 0-.3.2-.4.5h-.1c0-.2-.1-.3-.2-.3 0-.1 0-.1 0-.2.1-.6.1-1.2-.1-1.2 0 0-.1.1-.1.1 0-.1 0-.1-.1-.1s-.3.5-.4 1.1c0-.1-.1-.1-.1-.1-.1 0-.3.1-.3.4 0 .2 0 .3.2.4-.1-.1-.2-.1-.3-.2 0-.1 0-.2 0-.3 0-.4-.1-.7-.3-.7-.1 0-.1.1-.2.2 0-.1-.1-.1-.1-.1v-.1c.1-.6 0-1.2-.1-1.2s-.3.5-.4 1.2v.4c-.1 0-.1-.1-.2-.1 0-.1 0-.2 0-.3.1-.5 0-1-.2-1 0 0-.1 0-.1.1 0-.3-.1-.5-.2-.5s-.3.4-.3.9v.3h-.1c0-.1 0-.2 0-.2.1-.5.1-1-.1-1 0 0-.1 0-.1.1 0-.1-.1-.2-.2-.2s-.2.1-.2.4c0 0 0 0-.1 0s-.1 0-.2.1c.1-.4 0-.8-.1-.8s-.2.1-.3.4c-.1.1-.2.2-.2.5 0-.1 0-.3 0-.4.1-.6 0-1.1-.1-1.1s-.2.2-.3.6c.1-.6 0-1.2-.1-1.2s-.3.4-.4.9c0-.1 0-.2 0-.2 0-.6-.1-1.2-.2-1.2s-.1.1-.2.2c0 0 0-.1-.1-.1s-.2.1-.3.4c0 0 0 0-.1 0s-.2.1-.3.3c0-.2-.1-.3-.2-.3s-.2.1-.2.4c0 0-.1-.1-.1-.1h-.1c0-.1-.1-.2-.2-.2s-.2.1-.3.3c-.2-.1-.3-.2-.5-.3 0-.3-.1-.5-.2-.5s-.2.1-.2.3c-.1 0-.1-.1-.2-.1.1-.6.1-1.1-.1-1.1-.1 0-.1.1-.2.2 0-.1-.1-.1-.1-.2-.1 0-.3.2-.3.6 0-.1-.1-.2-.2-.2 0 0 0 0 0-.1 0-.2-.1-.4-.2-.5h-.1c0-.2-.1-.3-.2-.3h-.1c0-.3 0-.6-.1-.6s-.2.2-.3.4c0 0-.1 0-.1.1 0-.2-.1-.4-.2-.4 0-.2-.1-.3-.2-.3s-.3.3-.3.8c0-.2 0-.4 0-.6.1-.6 0-1.1-.1-1.1s-.2.1-.2.4c0-.2-.1-.3-.2-.3s-.2.2-.2.5c0-.4-.1-.7-.2-.6 0 0-.1.1-.1.2 0-.2-.1-.3-.1-.3s-.1 0-.1.1c0-.3-.1-.5-.1-.6 0-.2 0-.4-.1-.4s-.1.1-.2.3c0-.2-.1-.4-.1-.4-.1 0-.2.2-.3.4.1-.4 0-.8-.1-.8s-.3.3-.4.8c0-.2-.1-.3-.1-.3-.1 0-.2.2-.3.5 0-.1-.1-.1-.1-.1 0-.1-.1-.2-.2-.2.1-.5.1-.9-.1-.9-.1 0-.3.4-.4.9v.1.1c0-.1 0-.3 0-.5.1-.6 0-1.1-.1-1.1s-.3.4-.4 1.1v.2c-.1 0-.1-.1-.2-.1 0-.1.1-.2.1-.4.1-.3 0-.7-.1-.7s-.2.1-.2.2c.1-.5 0-.9-.1-.9s-.1.1-.2.2c0-.6-.2-1.1-.3-1.1s-.2.5-.2 1.2c0 .4.1.7.2.9 0 0-.1 0-.1-.1-.1 0-.1-.1-.2-.1.1-.2.1-.5 0-.8.1-.5 0-.9-.1-1-.1 0-.3.3-.4.8v-.1c.1-.5 0-1-.1-1.1-.1 0-.2.2-.3.5 0-.4 0-.6-.1-.7-.1 0-.2.2-.3.5 0-.2-.1-.4-.2-.4s-.2.2-.3.4c0-.2-.1-.3-.1-.3h-.1c0-.3 0-.5-.1-.5s-.2.1-.3.4c0-.2-.1-.4-.2-.4 0-.5 0-.8-.1-.8 0 0-.1 0-.1.1 0-.3 0-.6-.1-.6s-.4.6-.5 1.4c0 0-.1 0-.1-.1.1-.9.1-1.6 0-1.6s-.2.3-.3.8c0-.2-.1-.4-.2-.4s-.1.1-.2.1c0-.3-.1-.6-.2-.6s-.2.1-.2.3c0 0 0 0-.1 0 0-.1-.1-.2-.1-.2h-.1c0-.1-.1-.2-.2-.2 0 0-.1 0-.1.1 0-.3 0-.5-.1-.5 0-.2-.1-.3-.2-.4 0 0-.1 0-.1.1 0 0-.1-.1-.1-.1-.1 0-.2.1-.3.2 0-.6 0-1-.2-1-.1 0-.2.3-.3.6v-.1c0-.2-.1-.5-.2-.5s-.1 0-.2.1c0 0 0-.1-.1-.1h-.1s0 0-.1 0v-.1c0-.2-.1-.3-.3-.4 0-.2-.1-.3-.2-.4-.1 0-.1 0-.2.1 0-.4 0-.7-.1-.7h-.1c-.1-.2-.1-.4-.2-.4s-.2.2-.2.5c0 0-.1-.1-.1-.1-.1 0-.2.1-.3.3 0-.7-.1-1.2-.2-1.2s-.1.1-.2.3c0-.2-.1-.3-.2-.3s-.3.4-.3.8v.2s-.1.1-.1.1.1-.1.1-.1c0-.1-.1-.2-.2-.2s-.1 0-.2 0c0-.1-.1-.2-.2-.2 0-.1-.1-.2-.2-.3 0-.2-.1-.4-.2-.4h-.1c0-.5 0-1-.1-1s-.2.2-.3.6c0-.3-.1-.5-.1-.5-.1 0-.1.1-.2.3 0-.1-.1-.2-.1-.2-.1 0-.3.5-.3 1.2v.2s0 0-.1 0c0-.4-.1-.7-.2-.7s-.1 0-.2.1c0 0-.1 0-.1.1 0-.2 0-.4-.1-.4s-.2.2-.3.4c0-.1-.1-.1-.1-.2-.1 0-.1 0-.2.1 0-.2 0-.4-.1-.4s-.1 0-.2.1c0-.1-.1-.1-.1-.1h-.1c-.1 0-.2.1-.3.3 0 0 0 0 0-.1.1-.4 0-.7-.1-.7s-.1 0-.2.1c-.1 0-.1 0-.2.1 0 0-.1-.1-.1-.1 0-.3-.1-.5-.2-.5s-.1.1-.2.2c0 0-.1 0-.1.1 0-.1-.1-.1-.1-.1h-.1c0-.1-.1-.2-.1-.2s0 0-.1 0c0-.1-.1-.2-.2-.3h-.1s0 0-.1 0c0-.1-.1-.2-.2-.2 0-.3-.1-.4-.2-.4s-.3.3-.3.7c-.1 0-.1 0-.2 0 .1-.4 0-.7-.1-.7h-.1s-.1-.1-.1-.1c-.1 0-.2.1-.2.2 0-.3-.1-.5-.2-.5 0 0-.1 0-.1.1 0 0 0-.1-.1-.1s-.3.3-.3.7v.2c0-.1 0-.2 0-.3 0-.4 0-.8-.2-.8 0-.1-.1-.2-.1-.2-.1 0-.1 0-.2.2 0-.3 0-.5-.1-.6 0 0-.1 0-.1.1 0-.1-.1-.1-.1-.1s-.1 0-.1.1c0 0-.1.1-.1.1 0-.2-.1-.3-.1-.3-.1 0-.2.2-.3.6 0 0 0-.1-.1-.1h-.1c.1-.7 0-1.2-.1-1.3-.1 0-.2.2-.3.6 0-.4 0-.6-.1-.6 0 0 0 0 0-.1.1-.6.2-1 .1-1.1 0 0-.1 0-.2.1 0-.1-.1-.1-.1-.1 0-.2-.1-.3-.1-.3s-.1 0-.1.1c-.1 0-.2 0-.2.1 0 0-.1-.1-.1-.1h-.1c0-.1.1-.2.1-.3 0-.3-.1-.5-.2-.5 0 0-.1 0-.1.1 0-.1-.1-.1-.2-.1s-.1 0-.2.1c0 0 0 0 0-.1.1-.3 0-.6-.2-.6 0-.2-.1-.4-.2-.4s-.3.2-.3.5.1.5.2.6c-.1-.1-.2-.2-.3-.2 0-.1.1-.2.1-.3 0-.4 0-.7-.2-.7 0 0-.1 0-.1.1-.1 0-.2 0-.2.1 0 0 0 0-.1 0h-.1c0-.1-.1-.1-.1-.1 0-.1-.1-.2-.2-.2s-.1 0-.2.1c0-.2-.1-.3-.2-.3s-.3.2-.3.5v.1h-.1v-.1c.1-.3 0-.6-.1-.7-.1 0-.2 0-.2.2-.1 0-.2.1-.3.3-.1-.1-.1-.1-.2-.1 0-.2 0-.3-.1-.4-.1 0-.1 0-.2.1-.1-.3-.2-.5-.3-.5s-.1.1-.2.2-.1 0-.1.1c0 0-.1-.1-.1-.1-.1 0-.1 0-.2.1 0 0 0 0 0-.1s0-.1 0-.2c0-.3-.1-.5-.2-.5s-.3.2-.3.5v.2c0 .1-.1.2-.1.3v.1s0 0-.1 0c0-.1-.1-.1-.2-.2-.1 0-.2 0-.2.1-.1 0-.1.1-.2.2-.1 0-.1-.1-.1-.2 0-.2-.1-.3-.2-.3s-.2.1-.2.3h-.1c0-.1-.1-.2-.1-.2h-.1c0-.2-.1-.3-.2-.3s-.2.1-.2.3c0 0-.1-.1-.1-.1-.1-.1-.2 0-.3.2-.1-.1-.1-.2-.2-.2s-.2.1-.2.3c0 0-.1-.1-.1-.1h-.1c-.1-.2-.2-.4-.3-.4s-.2.1-.2.3c-.1-.1-.1-.1-.2-.2-.1 0-.1 0-.1 0-.1 0-.1 0-.2.1 0 0-.1 0-.2 0h-.1s-.1-.1-.1-.1c-.1 0-.1 0-.2.1 0-.1-.1-.1-.1-.2h-.1c0-.1-.1-.1-.1-.1-.1 0-.2.1-.3.3 0-.3-.1-.6-.2-.7-.1-.2-.5-.5-.7.2-.1.1-.1.2-.1.3-.1-.1-.1-.1-.2-.1 0-.2-.1-.3-.2-.3h-.1s-.1 0-.1-.1h-.1s-.1-.1-.1-.1c-.1 0-.2 0-.2.2 0-.1 0-.2 0-.2.1-.1 0-.1-.1-.1 0 0 0 0-.1 0-.1-.1-.4 0-.4.2 0 0-.1-.1-.1-.1-.1 0-.1 0-.2.1 0-.1-.1-.2-.2-.3s-.2 0-.3.1c0-.1 0-.2.1-.3v-.3s0 0 0-.1c-.1 0-.2-.1-.4-.1v.1.1s0 0-.1.1c.1-.4 0-.7-.1-.7s-.2.1-.3.2c0 0 0 0-.1 0s-.2.2-.3.5c0-.1-.1-.2-.2-.2s-.2.1-.2.2c.1-.3 0-.6-.1-.6 0-.1-.1-.1-.1-.1-.1 0-.2.1-.2.2 0 0 0 0 0-.1 0 0 0 0 0-.1s-.1-.2-.2-.3-.1-.1-.2-.1-.1 0-.1.1c0-.2-.1-.3-.2-.3s-.2.1-.2.2c0-.1-.1-.2-.1-.2h-.1c0-.4-.1-.6-.2-.6s-.2.2-.3.6c0-.2-.1-.4-.3-.4 0-.1 0-.1 0-.2.2-.3 0-.5-.1-.6.2-.2-.6-.1-.4.6v.1h-.1c-.1 0-.2-.1-.3-.1 0-.1 0-.1-.1-.1h-.1c0-.1-.1-.2-.2-.2 0 0 0 0-.1 0-.1-.2-.1-.3-.2-.3s-.1.1-.1.2c0-.3-.1-.4-.2-.4 0 0-.1.1-.1.2-.1-.3-.2-.5-.2-.4 0 0-.1.2-.2.4-.4.1-.4.3-.4.5h-.1v-.1s-.1.1-.1.1-.1 0-.1-.1v.1c-.1 0-.2-.1-.5-.1-.1-.1-.1-.2-.3-.1 0-.2-.1-.3-.2-.3s-.3.3-.3.7v.1c-.1 0-.1 0-.2 0v-.1c0-.2-.1-.4-.2-.5-.1 0-.3.1-.3.4v.2c-.1 0-.1 0-.2 0 0-.1 0-.2-.1-.3.1-.1 0-.1 0 0-.1-.1-.1-.1 0 0-.1 0-.2.1-.3.1s-.1 0-.2-.1c0-.2-.1-.3-.2-.4-.1 0-.2.1-.3.2 0-.1-.1-.2-.1-.4s-.3.1-.4.5v.1h-.1v-.1c0-.3-.1-.5-.2-.5s-.1 0-.2.1c0-.1 0-.2-.1-.2 0-.1 0-.1-.1-.1 0-.2-.1-.4-.2-.4s-.2.3-.2.6c0-.1-.1-.2-.2-.3 0 0 0 0-.1 0 0-.1-.1-.2-.1-.2-.1 0-.1 0-.2.1.1-.8 0-1.4-.1-1.4 0 0-.1.1-.2.2 0-.1-.1-.2-.1-.2-.1 0-.3.6-.2 1.3v.2c0-.2-.1-.3-.2-.3s-.3.2-.3.4c0-.3-.1-.6-.2-.6h-.1c0-.2-.1-.4-.2-.4s-.2.2-.3.5c0-.1-.1-.1-.1-.1-.1 0-.2.2-.2.3-.1.1-.2.3-.3.5v.1c0-.1 0-.2 0-.2.1-.2.1-.3 0-.4 0-.3-.1-.5-.2-.5s-.1.1-.2.3c0-.1-.1-.1-.1-.1s-.1.1-.1.1c0-.3 0-.5-.1-.5s-.1 0-.2.2c-.1 0-.2.1-.2.3h-.1c-.1 0-.1.1-.2.2-.1-.3-.1-.5-.2-.5-.1-.1-.1-.2-.2-.2s-.2.3-.2.7c0-.1-.1-.2-.2-.2 0 0-.1 0-.1.1-.1-.3-.2-.6-.3-.6s-.1.2-.1.4c-.1-.1-.1-.2-.2-.2s-.1.1-.1.2c-.1-.4-.2-.7-.3-.6-.1 0-.1.1-.1.2-.1-.1-.3-.1-.4 0h-.1c0-.1 0-.2-.1-.2 0-.1 0-.1 0-.2-.1 0-.1 0-.1.1 0-.5-.1-.8-.2-.8s-.2.2-.2.6c.1-.3-.2-.1-.3.2v.1c0-.1-.1-.1-.1-.1 0-.2 0-.4 0-.6 0-.7-.1-1.3-.2-1.3s-.1.1-.1.2c-.1-.1-.4.7-.3 1.7 0 .3.1.6.1.8 0-.2-.1-.5-.2-.8-.4-.1-.5-.1-.6.1 0 0-.1.1-.1.1s-.1-.1-.2-.1v.3c0 .1-.1.1-.1.2h-.1s-.1 0-.1-.1c0-.3-.1-.4-.1-.4-.1 0-.2.1-.2.4h-.1c-.1-.2-.1-.4-.2-.4s-.1.2-.1.5c-.1-.1-.1-.1-.2-.1 0 0-.1.1-.1.1s0 0 0-.1c-.1-.3-.2-.5-.3-.5s-.1.2-.2.5c0-.1 0-.1-.1-.1.1-.8-.1-1.3-.2-1.3s-.2.7-.3 1.5c-.1 0-.1.1 0 .2s0 0-.1 0c-.1-.3-.2-.4-.3-.4 0 0-.1 0-.1.1 0 0 0-.1-.1-.1s-.1.1-.2.2c0 0-.1-.1-.1-.1-.3-.3-.4-.1-.3.3 0 0 0 0-.1 0v.2c0-.1-.1-.3-.4-.3-.1 0-.1 0-.2 0s-.1 0-.2 0c0 0 0 0-.1.1s0-.1-.1-.1c.1-.7-.1-.6-.2-.4 0 0 0 0 0-.1 0-.3-.1-.4-.1-.4 0 .1-.1.2-.1.3-.1-.1-.1-.2-.2-.3 0 0-.1 0-.1.1 0-.1-.1-.2-.1-.2.1-.6 0-1.1-.1-1.1s-.3.5-.4 1.1v.4s-.1.1-.1.1c-.1-.3-.2-.5-.3-.5s-.1.1-.1.2c-.1-.1-.2-.2-.2-.2s-.1.1-.1.2c0 0 0 0-.1 0 0 0 0 0-.1 0 0-.1-.1-.2-.2-.2s-.1.1-.2.2c0-.1-.1-.2-.2-.2s-.1.1-.2.2c-.1-.2-.2-.3-.2-.3 0-.5-.1-.9-.2-1-.1 0-.2.4-.3.9v.1s0 0-.1-.1c0 0-.1-.1-.1-.1-.1-.1-.1-.3-.2-.3s-.1 0-.1.1c-.1-.3-.2-.5-.3-.5 0 0-.1 0-.1.1-.1 0-.2.1-.2.3-.1 0-.2 0-.3.1 0 0 0 0-.1 0 0-.3-.1-.4-.2-.5 0 0 0 0-.1-.1s-.2.1-.3.3c-.1-.1-.2-.1-.1-.2 0-.1 0-.1-.1 0 0-.1-.1-.1-.1-.1s0 0-.1 0c0-.1-.1-.1-.1-.1-.1 0-.1.1-.1.1 0-.4-.1-.6-.3-.6-.1 0-.1.1-.2.3-.1 0-.3.4-.3.9 0-.2-.1-.4-.2-.4s-.3.3-.3.6c-.1 0-.1 0-.2 0v-.1c0-.5-.1-1-.2-1 0 0-.1 0-.1.1 0-.1-.1-.1-.1-.1-.1 0-.3.4-.3.9v.3c-.1 0-.2 0-.3 0 0-.1 0-.2 0-.2.1-.5.1-.9 0-.9 0 0-.1 0-.1.1 0-.1-.1-.1-.1-.1-.1 0-.2.2-.2.4 0-.1-.1-.1-.1-.1 0-.4-.1-.6-.2-.6s-.1.1-.2.3-.2.4-.2.8c0 0 0 .1-.1.1 0 0 0 0-.1 0 0-.1 0-.1 0-.2.1-.5 0-.8-.1-.9-.1 0-.1.1-.2.2 0-.2-.1-.4-.2-.4s-.2.1-.2.3c-.1 0-.1.1-.1.1 0-.2-.1-.3-.1-.3-.1 0-.1.1-.2.2 0 0 0-.1-.1-.1s-.2.3-.3.7c0-.6-.1-1-.2-1s-.2.4-.3 1c0-.4-.1-.7-.2-.7 0 0-.1.1-.1.2 0-.2-.1-.3-.1-.3-.1 0-.2.2-.3.6 0 0 0 0-.1-.1h-.1s-.1 0-.1.1c0-.2 0-.3-.1-.3s-.1 0-.2.1c0-.2-.1-.3-.2-.3s-.2.2-.3.5c0 0-.1.1-.1.1 0-.5-.1-.8-.2-.8 0 0 0 0-.1 0 0-.1-.1-.2-.1-.2-.1 0-.1.1-.2.2 0-.3-.1-.4-.2-.5-.1 0-.2.2-.3.4 0 0 0 0-.1 0 0-.1-.1-.2-.1-.2-.1 0-.2.1-.3.3 0-.2-.1-.3-.2-.3s-.3.2-.3.5c0 0-.1.1-.1.1 0-.1 0-.1-.1-.1 0 0 0 0-.1 0 0 0-.1-.1-.2-.1s-.1 0-.2.1c0 0-.1-.1-.2-.1 0 0-.1 0-.1.1h-.1s-.1-.1-.1-.1c-.1 0-.1 0-.2.1 0-.1-.1-.1-.2-.2-.1 0-.2.1-.2.2 0 0 0 0-.1 0h-.1c0-.2-.1-.3-.3-.3-.1 0-.1 0-.2.1 0 0-.1-.1-.2-.1s-.1 0-.2.1c-.3-.1-.7-.2-1-.3-.9-.2-1.8-.2-2.5-.1 0 0-.1-.1-.2-.1s-.2.1-.2.1h-.1c-.1 0-.3-.1-.4-.1 0-.2-.1-.4-.2-.4s-.2.1-.3.3c-.1 0-.1 0-.2 0 0-.1-.1-.1-.1-.2-.1 0-.1 0-.2 0 0 0 0-.1-.1-.1 0-.2-.1-.4-.2-.5-.1 0-.2.1-.3.4 0 0 0 0-.1 0 0-.2 0-.4-.2-.5-.1 0-.2.1-.3.3h-.1c-.1 0-.1 0-.2 0 0-.1-.1-.2-.2-.2s-.1.1-.2.1c0 0 0 0-.1 0 0-.2-.1-.4-.2-.4s-.2.1-.2.2c-.1-.1-.1-.1-.2-.1h-.1c0-.1-.1-.2-.2-.2s-.2.2-.2.4c-.1 0-.1.1-.2.2-.4-.3-1.2-.4-1.7 0 0 0 0 0-.1 0 0 0-.1 0-.1.1-.2.1-.3.3-.4.4 0 0-.1-.1-.1-.1-.1 0-.1 0-.1.1 0-.2-.1-.4-.2-.4-.1-.1-.2.2-.3.6 0-.1-.1-.2-.2-.2 0-.2-.1-.3-.2-.3s-.2.2-.3.5c0 0-.1-.1-.1-.1s0 0-.1 0-.1 0-.1.1c0-.2-.1-.3-.2-.3s-.1 0-.2.1c-.1 0-.1.1-.2.2-.1-.1-.1-.2-.2-.2s-.2.3-.2.6c0-.1 0-.1-.1-.1h-.1c0-.1-.1-.3-.1-.3-.1 0-.1.1-.2.2-.1-.2-.1-.3-.2-.2-.1 0-.2.3-.2.6 0-.2 0-.3-.1-.3s-.2 0-.3.1c0-.3-.1-.5-.2-.5s-.1.1-.2.2c-.1 0-.2.3-.3.6 0 0-.1-.1-.1-.1.1-.4.1-.8 0-.9-.1 0-.2.1-.2.2 0-.1-.1-.1-.1-.1-.1 0-.2.1-.2.3-.2-.4-.4-.7-.5-.6 0 0-.1.1-.1.2 0-.1-.1-.3-.1-.3-.1-.1-.2.1-.3.5 0-.1 0-.2 0-.3 0-.2 0-.4-.2-.5-.1-.1-.1-.1-.2-.1-.1-.2-.2-.2-.3-.2s-.1.2-.1.3-.1 0-.1-.1 0-.2-.1-.2c0-.1 0-.1 0-.2 0-.4-.2-.7-.3-.7 0 0-.1.1-.1.1 0-.2-.1-.3-.2-.3s-.1 0-.1.1c-.1-.2-.2-.3-.2-.3-.1 0-.2.2-.2.4 0-.1 0-.2 0-.2 0-.5-.1-.8-.2-.9-.1 0-.2.3-.3.8 0-.2-.1-.3-.2-.3s-.3.5-.3 1.1v.1h-.1c-.3 0-.6.1-.9.1 0 0-.1-.1-.1-.1-.1 0-.1 0-.1.1 0 0 0-.1-.1-.1 0-.1-.1-.2-.2-.2s-.3.2-.3.5h-.1c0-.2-.1-.3-.2-.3s-.2.2-.2.4c0 0 0 0-.1 0h-.1c0-.3-.1-.5-.2-.5 0 0-.1 0-.1.1 0-.1 0-.2-.1-.2 0 0-.1 0-.2.1 0-.1-.1-.1-.1-.1-.1 0-.1.1-.2.1-.1-.2-.1-.3-.2-.3 0 0-.1.1-.1.1-.1-.1-.1-.2-.2-.1 0-.3 0-.5-.1-.5s-.1.1-.2.2c0-.2 0-.4 0-.4-.1 0-.3.3-.5.8h-.1c-.1 0-.1.1-.2.2 0-.1-.1-.2-.2-.2 0-.3-.2-.5-.3-.5-.1-.1-.2-.2-.1 0 0 .2 0 .2-.1.3 0-.1-.1-.1-.2-.2 0-.2 0-.3-.1-.4h-.1c0-.3-.1-.6-.2-.6s-.1.1-.2.1c0-.2-.1-.3-.2-.3s-.1.1-.2.1c0 0-.1-.1-.1-.1-.1 0-.1 0-.2.1 0-.1-.1-.2-.2-.2 0-.1-.1-.1-.1-.2 0-.2-.1-.3-.2-.3 0 0-.1 0-.1.1-.1-.1-.1-.1-.2-.2v-.1c0-.1 0-.1 0-.2 0 0 0 0 0-.1 0-.3-.2-.6-.3-.6s-.2.2-.2.4c0 0 0 0-.1 0 0-.3 0-.5-.1-.6 0 0-.1 0-.1.1 0-.5 0-.9-.2-.9-.1 0-.2.3-.3.8s0-.1-.1-.1c0-.1-.1-.2-.1-.2 0-.5 0-.8-.1-.9-.1 0-.3.5-.4 1.2-.1-.2-.1-.4-.2-.4s-.1.1-.2.2c0 0-.1-.1-.1-.1-.1 0-.1.1-.1.1s0 0 0-.1c0-.3 0-.5-.2-.6-.1 0-.1 0-.2.1-.1-.2-.2-.4-.3-.3s-.1.2-.2.3c0-.1-.1-.2-.2-.2 0-.2-.1-.3-.2-.3h-.1-.1c-.1 0-.1 0-.2.1 0-.2 0-.4-.1-.4s-.3.3-.4.6v.1c0-.3-.1-.4-.2-.4 0-.2-.1-.4-.2-.4s-.1 0-.2.1c-.1 0-.3.2-.3.5v.1c0-.2-.2-.4-.3-.4s-.1.1-.2.3c0-.2-.1-.3-.2-.3s-.3.1-.3.3v.1h-.1c-.1 0-.2 0-.2 0s.1-.1.1-.1c0-.1-.6-.1-1.2.2-.1 0-.2.1-.4.2 0-.2-.1-.4-.2-.4s-.2.2-.3.4c-.1 0-.3.2-.3.4s-.1 0-.1.1c.2-.4.3-.7.2-.8-.1 0-.2 0-.3.2 0 0 0-.1-.1-.1s-.2.2-.3.4v.1c-.1.1-.1.1-.2.2 0-.3 0-.5-.1-.5s-.2.1-.3.3c-.1 0-.2.2-.3.5 0-.2 0-.3-.1-.4 0 0 0 0-.1 0 0-.3 0-.5-.1-.5s-.3.4-.4 1.1c0-.3-.1-.5-.2-.5s-.3.5-.3 1.1c0-.2 0-.3-.1-.3s-.3.3-.5.8c-.1.1-.1.1-.2.2-.3.3-.4.6-.5 1-.1.1-.1.3-.2.5 0-.2-.1-.3-.1-.3-.1 0-.3.4-.4.9 0-.4 0-.6-.1-.7-.1 0-.2.2-.3.5 0 0 0 0-.1 0s-.1.1-.2.2-.1 0-.2.1c0-.1-.1-.1-.1-.1h-.1c0-.1-.1-.1-.1-.1-.1 0-.1.1-.2.1h-.1c0-.1 0-.2-.1-.2s-.2.1-.4.3c0-.2 0-.3-.1-.4-.1 0-.1.1-.2.2 0 0-.1-.1-.1-.1-.1 0-.3.4-.3.9 0-.1 0-.1 0-.2 0-.2-.1-.3-.1-.4 0-.3 0-.5 0-.5-.1-.1-.2.1-.4.4 0 0-.1-.1-.1-.1-.1 0-.2.2-.3.5 0-.1 0-.2-.1-.2 0 0-.1 0-.1.1 0 0-.1-.1-.1-.1 0-.3-.1-.5-.2-.5s-.3.3-.3.8v.1c0 .1-.1.2-.1.3 0-.1-.1-.1-.1-.1 0-.1-.1-.1-.2 0 0-.1-.1-.3-.1-.3-.1 0-.3.1-.3.3 0-.1-.1-.1-.1-.2h-.1c0-.2-.1-.4-.2-.4s-.2.1-.2.3c0-.1-.1-.3-.2-.3s-.1.1-.2.2c-.1-.1-.1-.1-.2-.1s-.1.1-.2.2c-.3-.2-.7-.4-1.2-.6 0 0 0-.1-.1 0-.1 0-.3-.1-.4-.1.1-.4-.1-.2-.1 0-.1 0-.2 0-.3-.1.1-.2-.1-.1-.2 0h-.1c-.2-.1.6-.1-.4-.3v.2c-.3 0-.7 0-1 .1-.3 0-.6 0-.9.1-.1 0-.1 0-.2 0 0-.1-.1-.1-.1 0 0 0 0 0-.1 0 0-.1 0-.2 0-.3 0 0 .1-.1.1-.3-.6-.1-.6.1-.5.2h-.1c0-.3 0-.5-.1-.5s-.2.1-.3.3c0-.2-.1-.3-.2-.3s-.2.1-.3.3c0 0-.1.1-.1.2-.1 0-.2-.1-.2-.1 0-.2 0-.3-.1-.3 0-.2-.1-.3-.1-.2-.1 0-.2.2-.2.4-.1 0-.3-.1-.4-.1 0-.3 0-.5-.1-.6-.1 0-.2.1-.2.2 0-.2-.1-.4-.1-.4-.1 0-.2.2-.3.6h-.1v-.1s-.1 0-.1.1c0 0 0 0-.1 0 0 0 0 0 0-.1.1-.4 0-.7-.2-.7-.1 0-.2.1-.3.3h-.1c-.1.1-.1.2-.2.4 0 0-.1-.1-.1-.1 0-.3 0-.5-.2-.5 0 0-.1 0-.1.1 0-.1-.1-.2-.1-.2-.1 0-.1.1-.1.1 0-.1-.1-.1-.1-.1-.1 0-.2.2-.2.3 0-.2-.1-.3-.2-.3 0 0-.1 0-.1.1 0-.1 0-.1-.1-.1s-.3.3-.4.7c0-.2 0-.3-.1-.3 0-.3 0-.6-.1-.6s-.1.1-.2.2c0-.3-.1-.5-.2-.5h-.1c0-.1-.1-.1-.1-.1-.1 0-.3.5-.3 1 0 .1-.1.2-.1.3 0-.1 0-.2-.1-.2s-.2.1-.2.3c0-.2-.1-.3-.1-.4-.1 0-.3.4-.4.9 0 0 0 .1-.1.2 0 0 0-.1-.1-.1s-.2.2-.3.4c.1-.7.1-1.3-.1-1.3-.1 0-.2.3-.3.7v-.1h-.1c0-.1-.1-.1-.1-.1-.1 0-.1.1-.2.2 0-.2 0-.3-.1-.4h-.1c0-.2 0-.4-.1-.4s-.2.2-.4.6c0-.1 0-.2-.1-.2s-.3.3-.4.9c-.1.1-.2.3-.2.5 0-.1-.1-.2-.1-.2-.1 0-.1.1-.2.2-.5 0-1 0-1.5-.1 0-.3-.1-.5-.2-.5s-.2.2-.3.5c-.2 0-.4 0-.5-.1 0-.4-.1-.7-.3-.7v-.1c.1-.2 0-.3-.1-.1h-.1c-.1 0-.1 0-.2 0-.2-.3-.2-.1-.2.2-.1-.1-.1-.1-.3 0-.2 0 .3-.2-.3-.2-.1 0-.1 0-.1 0-.1-.2.1-.5-.1-.7 0 0 0 0 0-.1-.1 0-.1 0-.1 0-.1 0-.1 0-.2 0v.1c-.1.1-.1.2-.1.2 0-.1-.1-.2-.2-.2s-.3.3-.3.8h-.1s0 0 0-.1c0-.1 0-.2 0-.2 0-.5 0-.8-.2-.8-.1 0-.2.2-.2.4s0 0 0 0c.1-.5 0-.9-.2-.9-.1 0-.3.4-.3.9 0-.1-.1-.2-.1-.2s-.1 0-.1.1c0 0 0 0-.1 0 0-.4-.1-.7-.2-.7s-.2.3-.3.7c0-.2-.1-.4-.2-.4 0 0-.1 0-.1.1 0-.3-.1-.5-.2-.5s-.2.2-.3.4c0-.2-.1-.4-.2-.4s-.1.1-.2.2c0-.4-.1-.6-.2-.6s-.1.1-.2.3c0 0-.1-.1-.1-.1-.1 0-.2.2-.2.4 0-.3-.1-.6-.1-.6 0-.3-.1-.6-.2-.6s-.1.1-.2.2c0-.1 0-.1-.1-.2h-.1c0-.4-.1-.7-.2-.7s-.3.5-.3 1.2v.1c-.1 0-.1 0-.2 0h-.1c0-.1 0-.1 0-.2.2-.1.1-.3 0-.4.1-.1.1-.2-.1-.2 0-.1-.1-.2-.1-.2 0-.2-.1-.3-.1-.4.1-.4.1-.7 0-.8-.1 0-.2.2-.3.5-.1 0-.2 0-.2 0 0-.4-.1-.8-.2-.8s-.2.2-.3.6c0-.2 0-.3-.1-.3s-.2.1-.3.4c0-.2-.1-.3-.1-.3s0 0-.1 0c0-.1-.1-.2-.1-.2-.1 0-.1.1-.2.1 0-.1-.1-.2-.1-.2-.1 0-.2.1-.3.3 0-.1-.1-.1-.1-.1-.1 0-.1.1-.1.1-.2 0-.3 0-.5.1-.1 0-.1 0-.2.1 0-.2-.1-.4-.2-.4 0 0-.1 0-.1.1 0 0-.1-.1-.1-.1-.1 0-.1.1-.2.2-.1-.2-.1-.3-.2-.3s-.1.1-.2.2h-.1v.1c-.1.1-.1.3-.1.5-.1 0-.1 0-.2 0 .1-.5.1-.9 0-1h-.1c0-.2 0-.3-.1-.3-.1-.1-.3.3-.5.9-.1 0-.1 0-.2-.1.1-.5.2-1-.2-.9-.1-.1-.2 0-.2.1 0 0 0 0-.1.1 0-.2 0-.3 0-.3s-.1-.1-.1-.1c0-.1-.1-.1-.2 0-.1-.1-.2-.1-.2 0 0 0-.1-.1-.1-.1-.1-.3-.2-.5-.3-.5 0 0-.1 0-.1.1 0-.3-.1-.6-.2-.6s-.1.1-.2.3-.1 0-.1.1c0-.3-.1-.5-.2-.5 0 0-.1 0-.1.1 0 0 0 0 0-.1s-.1-.2-.2-.2c0-.4-.2-.7-.3-.7s-.1.1-.2.3c-.1-.2-.1-.4-.2-.4s-.2.2-.2.4c0 0 0 .1-.1.1v140h400v-148.6c-.2 0-.4-.1-.6-.1-1.5-.3-1.5-.6-1.5-.9z" fill="#394f88"/></svg>