<svg enable-background="new 0 0 400 344.9" viewBox="0 0 400 344.9" xmlns="http://www.w3.org/2000/svg"><path d="m399.7 154.5c0-.1.1-.3.1-.5 0-.5-.1-.8-.3-.8-.1 0-.2.2-.3.5-.1 0-.1 0-.2 0v-.1c.1 0 .1-.1.2-.3 0-.2 0-.4-.1-.4s-.2.1-.2.3v.1s0 0-.1 0-.1.1-.1.2c-.1 0-.2.1-.2.2 0-.1-.1-.1-.2-.1-.1 0-.1.1-.1.2v.2s0 0-.1 0c0 0 0 0 0-.1 0-.2-.1-.3-.2-.3s-.1.2-.1.4c0 .1.1.1.1.1v.2s0 0-.1 0c0-.1 0-.2-.1-.2 0-.2 0-.4-.1-.5-.1 0-.2.2-.2.5 0 0 0 0-.1 0s-.2.1-.1.3v.1c0-.1 0-.1-.1-.1 0-.1-.1-.2-.1-.2-.1 0-.2.1-.1.3 0 0 .1.1.1.1h-.1c0-.1-.1-.2-.2-.2s-.2.1-.1.3c-.1 0-.2.1-.3.1 0-.1-.1-.2-.2-.2 0 0-.1 0-.1.1 0 0 0-.1-.1-.1s-.1.1-.2.3c0 0-.1 0-.1-.1 0 0 0 0-.1-.1 0 0-.1-.1-.3-.2-.2 0-.1 0-.2-.2-.2-.1-.3-.1-.3-.1 0-.2-.2-.4-.4-.3-.1.1-.2.2.1.2v.1c-.1 0-.2 0-.3-.1 0 0 .1 0 .1-.2s0-.4-.1-.4-.1.1-.2.2c0 0-.1 0-.1.1 0-.2-.1-.4-.1-.4-.1 0-.1.2-.1.5v.1c0-.1 0-.1 0-.2 0-.3-.1-.5-.2-.5s-.1.3-.1.5v.2c-.1 0-.3 0-.4.1 0 0-.1 0-.2 0h-.1v.1c0-.1 0-.1-.1-.1s-.2.1-.2.4 0 0 0-.1c0-.2-.1-.4-.2-.4s-.1.2-.1.5c-.1 0-.1 0-.2 0 0-.1 0-.1 0-.1 0-.1-.1-.1-.2-.1 0-.2 0-.4 0-.4-.1 0-.2.2-.3.5 0-.2-.1-.5-.1-.5s-.2.2-.1.4c-.1 0-.1 0-.2 0 0-.2-.1-.3-.1-.4-.1 0-.1.1-.2.3-.1 0-.2 0-.3 0 0-.1-.1-.1-.1-.1s-.1.1-.1.1h-.1c0-.2-.1-.3-.2-.3s-.1.1-.1.3h-.1c-.1 0-.1-.1-.2 0-.1 0-.3 0-.4 0 0 0-.1-.1-.1-.1s-.1 0-.1.1c0 0 0 0-.1 0 0 0 0-.1.1-.2 0-.2 0-.3-.1-.3s-.2.1-.2.3v.2c-.2 0-.5.1-.7.1 0-.1-.1-.2-.1-.2-.1 0-.1.1-.1.3 0-.1 0-.1-.1-.1 0 0 0 0-.1 0 0 0 0-.1-.1-.1s-.2.1-.2.3c0-.2 0-.3-.1-.3 0 0-.1 0-.1.2 0 0 0-.1-.1-.1 0 0-.1 0-.1.1 0-.1 0-.1-.1-.1s-.2.2-.3.4v.1-.1c0-.3-.1-.5-.2-.5s-.1.2-.1.5v.2s0 0-.1 0c0 0 0-.1 0-.2 0-.2 0-.5-.1-.5s-.2.1-.2.4c-.1 0-.1.1-.1.2v.2s0 0-.1 0c0-.2-.1-.3-.1-.3s0-.1-.1-.1c0 0-.1.1-.1.2s0 0-.1 0c0 0 0-.1-.1-.1s-.1.1-.2.3c0-.1 0-.1-.1-.2 0 0-.1 0-.1.1 0-.1 0-.2-.1-.2 0 0-.1 0-.2.1-.1 0-.2.1-.2.3-.1-.1-.2-.2-.2-.2v.1c0-.1 0-.3-.1-.3s-.1 0-.1.2c0 0 0-.1-.1-.1 0 0-.1 0-.1.1 0-.1-.1-.1-.1-.1-.1 0-.1.1-.1.1 0-.1-.1-.1-.1-.1-.1 0-.1.1-.2.3h-.1c0-.1 0-.1-.1-.1h-.1c0-.1-.1-.2-.1-.2-.1 0-.1.1-.1.2 0-.2-.1-.3-.1-.3-.1 0-.1.2-.1.4 0 0 0 0-.1 0 0 0-.1 0-.1.1 0-.2-.1-.4-.1-.4s-.1 0-.1.1c0 0 0-.1-.1-.1s-.1.1-.1.3c0-.1-.1-.2-.1-.2-.1 0-.1.1-.1.3v.1c-.1 0-.3 0-.4 0 0-.3 0-.5-.1-.5s-.2.2-.2.5c0-.2-.1-.4-.1-.4-.1 0-.1.2-.1.4h-.1c0-.2-.1-.4-.1-.4-.1 0-.1.1-.1.3 0 0-.1-.1-.1-.1 0-.1-.1-.2-.1-.2-.1 0-.1.1-.2.2 0-.1-.1-.2-.1-.2s-.1 0-.1.1-.1.1-.1.2c-.1 0-.1.1-.1.2h-.1c-.1-.1-.1-.2-.2-.2 0 0-.1.1-.1.1-.1-.1-.1-.1-.2-.1 0 0-.1 0-.1.1 0-.1-.1-.2-.1-.2-.1 0-.1.1-.1.2v.2c-.1 0-.1 0-.2 0 0-.2 0-.4-.1-.4 0 0 0 0-.1 0 0-.1-.1-.2-.1-.1 0-.1-.1.2-.1.5-.1 0-.2 0-.3 0 0 0 0-.1-.1-.1 0-.2-.1-.3-.1-.3-.1 0-.1.1-.1.3 0-.1-.1-.1-.1-.1s-.1.1-.1.2h-.1s0-.1-.1-.1c0 0-.1 0-.1.1-.1-.2-.2-.4-.2-.4-.1 0-.1.2-.1.4-.1 0-.2 0-.3 0 0-.2-.1-.4-.1-.4s-.1.1-.1.1c0-.1-.1-.2-.1-.2-.1 0-.1.2-.1.5 0-.4-.1-.6-.2-.6s-.1.3-.1.6c0-.2-.1-.4-.2-.4s-.1.2-.1.4c0-.3-.1-.5-.2-.5 0-.3 0-.6-.1-.6s-.2.3-.2.8v.2c0-.1 0-.2-.1-.2 0 0-.1.1-.1.2-.1-.2-.1-.3-.2-.3 0-.1-.1-.2-.1-.2-.1 0-.1.2-.1.5 0-.4-.1-.7-.2-.6-.1 0-.1.2-.1.6v.3s-.1 0-.1.1c-.1-.2-.1-.4-.2-.4s-.1.3-.1.6c0-.4-.1-.7-.2-.6 0 0-.1.1-.1.2 0 0 0-.1-.1-.1s-.1.4-.1.8 0 0-.1.1c0-.1 0-.2 0-.3 0-.2 0-.4-.1-.4 0-.1-.1-.2-.1-.2-.1 0-.1.2-.1.6v.3.4c-.1.1-.1.1-.2.2 0-.1 0-.1 0-.2 0 0 0-.1 0-.2 0-.3.1-.5 0-.6 0 0-.2.1-.2.3 0 0 0-.1-.1-.1 0 0-.1.1-.1.2s-.1.1-.2.2c0-.1 0-.2-.1-.2s-.1.1-.2.2c-.1 0-.3.2-.4.6 0-.1-.1-.2-.1-.2s-.1.1-.1.2v.1c0-.1 0-.1 0-.1-.1 0-.2.2-.2.4 0-.1-.1-.3-.1-.3-.1 0-.2.2-.2.5v.2c0 .1-.1.1-.1.2 0-.1 0-.2 0-.3 0-.3 0-.6-.1-.6 0 0-.1.1-.1.2-.1 0-.2.2-.2.5 0-.1 0-.2 0-.2-.1 0-.1.1-.2.4 0-.2 0-.4 0-.4s-.1 0-.1.1c0 0 0-.1-.1-.1 0 0-.1.1-.1.2 0-.1-.1-.2-.1-.2-.1 0-.1.1-.2.3 0-.1 0-.1-.1-.1s-.1.1-.2.3c-.1 0-.2.2-.2.4v.1.1c.1-.3.1-.6 0-.6s-.2.2-.3.6v.2s0 0 0-.1c0-.3-.1-.5-.1-.5s-.1 0-.1.1c0 0 0-.1-.1-.1s-.2.2-.2.5v.1h-.1c0-.3 0-.5-.1-.6-.1 0-.2.3-.2.7 0 0 0 0-.1 0 0-.1 0-.2-.1-.2s-.2.1-.2.3c0-.1-.1-.2-.1-.2s-.1 0-.1.1c0-.1 0-.1-.1-.1 0 0-.1.1-.2.2v-.1s-.2.1-.3.3v-.1c-.1 0-.2.1-.3.4 0 0 0-.1-.1-.1s-.1.1-.2.2c.1-.3.1-.6 0-.7-.1 0-.2.2-.3.5-.1 0-.2.1-.3.4v.1c0-.1 0-.2-.1-.3-.1 0-.2.1-.2.3v.2h-.1-.1c0-.1 0-.1 0-.2.2-.3.3-.6.2-.7 0-.1-.2.2-.4.5-.1 0-.1.1-.1.4-.1 0-.1 0-.2 0 0 0 0-.1 0-.2 0-.2 0-.3-.1-.3s-.2.1-.2.3v.1h-.1c0-.3 0-.5 0-.5-.1 0-.2.2-.2.4 0 0 0 0 0-.1 0-.2-.1-.4-.2-.4s-.1.2-.1.4v.1c0-.1 0-.2-.1-.2-.1-.2-.2-.4-.2-.4-.1 0-.1.3 0 .5v.1c-.1 0-.3 0-.4 0 0-.3 0-.6-.1-.6s-.1.2-.2.5c0 0-.1-.1-.1-.1s0 0-.1 0v-.1c0-.2-.1-.3-.2-.3s-.1.2-.1.4v.2c-.1 0-.2 0-.3 0-.1-.2-.2-.4-.2-.4 0-.1 0-.2-.1-.2s-.2.2-.2.5c0-.1-.1-.1-.1-.1-.1 0-.1.1-.1.1-.1 0-.1 0-.2 0 .1-.4 0-.8 0-.8-.1 0-.2.3-.3.8h-.1v-.1c0-.3 0-.6-.1-.6 0-.1 0-.1-.1-.1s-.2.3-.2.6v.2h-.1c0-.2 0-.4-.1-.4v-.1c-.1 0-.2.2-.3.5h-.1c0-.2 0-.4-.1-.4 0-.1-.1-.2-.1-.2s-.1 0-.1.1c0-.1 0-.1-.1-.2 0 0-.1.1-.1.2 0-.1 0-.2 0-.2h-.1s0 0-.1 0c0 0-.1.1-.1.2s-.1.2-.1.3v.1c0-.2-.1-.4-.1-.4s-.1.1-.1.1c-.1-.1-.1-.2-.2-.2s-.1.2 0 .4-.1 0-.1.1c0-.3 0-.5 0-.5s-.1.1-.1.2c0-.1 0-.2-.1-.2 0 0-.1.1-.1.2 0-.1 0-.2-.1-.2s-.2.3-.2.7c0-.3-.1-.6-.2-.6s-.1.3-.1.6h-.1c.1-.3.1-.5 0-.6-.1 0-.2.2-.3.5s-.1 0-.1.1c-.1 0-.1 0-.2 0 0-.1 0-.1-.1-.1 0 0-.1 0-.1.1h-.1c0-.3 0-.5 0-.6-.1 0-.2.2-.2.6 0 0 0 0-.1 0 0-.1 0-.3-.1-.3s-.1.1-.2.3c0-.2 0-.4-.1-.4 0 0-.1 0-.1.1-.1 0-.1.1-.1.2s0 .1.1.1h-.2c.1-.4.2-.8.1-.8s-.2.1-.3.4-.1.1-.1.2c0-.1 0-.2 0-.2s-.1.1-.2.2-.1.1-.2.2c0-.2-.1-.3-.1-.3s-.1.1-.1.2c0-.2 0-.4-.1-.4s-.2.3-.2.6 0 0-.1 0c0-.1 0-.3 0-.3 0-.2 0-.4-.1-.4s-.2.1-.2.3c0-.1 0-.2-.1-.2s-.2.2-.2.4c0-.2 0-.4-.1-.4 0 0-.1.1-.1.2 0-.2 0-.4-.1-.4 0 0-.1.1-.1.2 0-.1 0-.1 0-.1-.1 0-.2.1-.3.4 0-.1 0-.2-.1-.3 0 0-.1 0-.1.1v-.1s-.1 0-.1.1c0-.2 0-.3-.1-.3 0 0 0 0-.1 0 0-.3 0-.5 0-.5-.1 0-.2.3-.3.6 0 0 0 0-.1 0 0-.3 0-.5-.1-.5 0 0-.1 0-.1.1 0-.1 0-.1-.1-.1 0-.1 0-.1-.1-.1 0 0-.1.1-.2.3-.1 0-.1.2-.1.4 0-.3 0-.6-.1-.6s-.1.2-.2.5v.1h-.1c0-.2 0-.3-.1-.3 0 0-.1.1-.1.2h-.1c0-.3 0-.6-.1-.6 0 0-.1.1-.1.2 0-.2 0-.4-.1-.4s-.1.2-.2.6c0 0 0 .1-.1.1 0-.2 0-.3-.1-.3 0 0-.1.1-.1.2-.1 0-.2.3-.2.8s-.1.1-.1.2c0-.1 0-.1-.1-.1s-.1.2-.1.4c-.1.1-.2.2-.3.3 0-.4 0-.7-.1-.8-.1 0-.2.3-.2.7v.4s0 0 0-.1c0-.5 0-1-.1-1s-.1.2-.2.5c0-.1 0-.1-.1-.1s-.1.2-.2.5c0-.4 0-.6-.1-.6s-.1.2-.2.6v-.1c-.1 0-.2.4-.2 1 0-.2 0-.4-.1-.4s-.1.2-.2.4c0 0-.1.1-.1.2s0 0-.1.1c0-.2 0-.3-.1-.3s-.2.3-.3.8v.4c-.1 0-.1.1-.2.1 0-.2 0-.3.1-.5.1-.5.2-.9.1-1-.1 0-.3.4-.4 1v.2c0-.1 0-.2-.1-.2s-.2.2-.2.5-.1 0-.1.1c0-.1 0-.1-.1-.1s-.1.2-.2.5c0-.1-.1-.2-.1-.2-.1 0-.1.2-.2.5 0-.2 0-.4-.1-.4 0 0-.1.1-.1.2-.1 0-.1.2-.2.4 0 0 0 0-.1-.1h-.1c-.1 0-.1.1-.2.4 0 0 0 0-.1.1 0-.3-.1-.6-.1-.6-.1 0-.2.3-.2.8 0 0 0 0-.1 0 0-.3-.1-.5-.1-.5s-.1.2-.1.4c0-.1 0-.1-.1-.1s-.2.2-.2.5v.1s-.1-.1-.1-.1c-.1 0-.2.1-.2.1v.1c-.1.1-.2.1-.3.2v-.1c.1 0 .2-.2.2-.3 0-.2 0-.3-.1-.4-.1 0-.2.1-.2.3v.1c-.1 0-.1.1-.2.3 0 0 0 0-.1 0 0-.2 0-.4-.1-.5 0 0-.1 0-.1.1s0 0-.1 0c0-.2 0-.3-.1-.3s-.1.2-.2.4c0-.2-.1-.3-.1-.3-.1 0-.2.3-.2.7 0 .2 0 .4.1.6-.1 0-.1.1-.2.1-.1-.6 0-1-.1-1.1 0 0 0 0-.1.1 0-.1 0-.1-.1-.1s-.1.4-.1.9v.4c0-.1 0-.2 0-.4 0-.5 0-.9-.1-.9 0 0 0 .1-.1.1s-.1.2-.1.5c0-.1-.1-.2-.1-.2s-.1 0-.1.1c0-.1 0-.1-.1-.1s-.1.1-.2.3c0-.1-.1-.2-.1-.2-.1 0-.1.1-.1.3 0-.3-.1-.4-.1-.4s-.1.2-.1.4c-.1 0-.2.2-.2.5 0 0 0 .1-.1.1 0-.1 0-.1 0-.1-.1 0-.1.1-.2.3 0 .1-.1.2-.1.4 0 0-.1.1-.1.2 0-.2 0-.3-.1-.3s-.1.2-.2.5c0-.1 0-.2-.1-.2 0 0-.1.1-.1.2 0-.1 0-.2 0-.3 0-.3 0-.5-.1-.5 0 0-.1.1-.1.2s-.1.1-.1.2c0-.2 0-.3-.1-.3s-.2.3-.3.8 0 .1-.1.1c0 0 0 0-.1-.1-.1 0-.1.1-.1.2s-.1 0-.1.1-.1 0-.1.1c0-.2 0-.3-.1-.3s-.2.3-.2.6c0 0-.1.1-.1.2 0-.2 0-.3-.1-.3 0 0-.1.1-.1.2-.1 0-.1.2-.2.4-.1 0-.1.1-.1.2 0-.1-.1-.1-.1-.1s-.1 0-.1.1c0 0-.1.1-.1.2 0-.1 0-.1-.1-.1 0 0 0 0-.1 0 0-.1 0-.1-.1-.1 0 0-.1.1-.2.2 0 0 0-.1-.1-.1s-.2.3-.2.6v.4s0 0-.1 0v-.1c0-.3 0-.6-.1-.6s-.1.2-.2.4 0 0-.1 0c0-.1-.1-.2-.1-.2-.1 0-.1.3-.1.5v.4s-.1.1-.1.1c0-.3 0-.5-.1-.5 0 0-.1.1-.1.2 0-.1 0-.2-.1-.2s-.2.2-.2.4c-.1 0-.1.2-.1.4v.2s-.1.1-.1.1c0-.1 0-.2 0-.4.1-.5.1-.9 0-.9 0 0-.1 0-.1.2 0-.2 0-.2 0-.2-.1 0-.2.4-.3 1.1v.2c0-.3 0-.5-.1-.5 0 0-.1.1-.1.2 0-.1 0-.1-.1-.1s-.2.3-.2.7v.1s0-.1-.1-.1c0-.1 0-.2-.1-.3v-.1c-.1 0-.2.2-.3.6 0-.1 0-.2-.1-.2 0 0-.1.1-.1.1v-.1s-.1 0-.1.1c0-.1 0-.1-.1-.1s-.2.2-.3.6c-.1 0-.2.2-.2.5 0-.3-.1-.5-.1-.5-.1 0-.2.3-.2.7v.1c0-.1 0-.2-.1-.2 0 0-.1.1-.2.2 0-.1 0-.1-.1-.1s-.2.2-.2.5c0-.2 0-.3 0-.4-.1 0-.2.2-.3.5 0 0 0 .1-.1.1 0-.1 0-.2-.1-.2s-.2.4-.3.9v.1s0 0-.1.1c0 0 0 0 0-.1 0-.3 0-.6-.1-.6 0-.1 0-.2-.1-.2s-.2.2-.2.4-.1.1-.2.3c-.1 0-.1.1-.2.3 0-.2 0-.3 0-.4-.1 0-.2.2-.3.5-.1 0-.2.2-.2.4-.1 0-.1.2-.2.4 0-.1 0-.1-.1-.1s-.1.1-.2.3-.1.1-.2.2c0-.1 0-.2-.1-.2s-.2.2-.2.5c0-.1 0-.1-.1-.1s-.2.2-.2.5v.1s-.1 0-.1.1c0 0 0-.1-.1-.1 0 0-.1 0-.1.1-.1 0-.2.3-.3.7-.1 0-.2.2-.2.5v.2s0-.1-.1-.1-.1.2-.2.4c0-.3 0-.5-.1-.5s-.1.2-.2.4c-.1 0-.2.2-.2.4 0-.1 0-.2-.1-.2 0 0-.1 0-.1.1 0-.2-.1-.3-.2-.3 0 0-.1.1-.1.3 0-.2 0-.3-.1-.3 0 0-.1.1-.1.2 0-.1-.1-.2-.1-.2 0-.1-.1-.1-.1-.1s-.1.1-.1.3c0-.2 0-.3-.1-.3 0 0 0 0-.1 0 0-.1-.1-.2-.1-.2-.1 0-.1.2-.2.4 0-.1 0-.1-.1-.1 0 0 0 0-.1 0 0 0 0 0 0-.1 0-.2 0-.4 0-.5-.1 0-.2.3-.3.7v-.1c0-.4 0-.7-.1-.7 0 0-.1.1-.1.3 0-.3-.1-.5-.1-.5-.1 0-.1.2-.1.5 0-.1 0-.1-.1-.1s-.1.1-.2.4c0-.3-.1-.6-.1-.6s-.1.1-.1.2c0 0 0 0-.1 0 0-.1 0-.2-.1-.2 0 0-.1.1-.1.2 0 0 0-.1-.1-.1 0 0-.1.1-.1.2v-.1c0-.3 0-.5-.1-.5s-.1.2-.2.5c0 .1-.1.2-.1.3 0-.1-.1-.2-.2-.2 0 0-.1 0-.1.1 0-.1 0-.1-.1-.1 0-.2-.1-.3-.1-.3-.1 0-.1.1-.2.3 0 0 0 0-.1 0 0 0-.1 0-.1.1 0 0 0 0-.1 0 0 0-.1 0-.1.1 0-.1-.1-.2-.1-.2s-.1.1-.1.2c0 0 0-.1-.1-.1 0-.2 0-.3-.1-.3s-.2.3-.2.7c0-.4 0-.7-.1-.7s-.1.2-.2.4c0 0 0-.1-.1-.1s-.1.1-.2.3c0-.2-.1-.3-.1-.3-.1 0-.1.1-.1.3 0 0 0 0-.1 0 0 0-.1.1-.1.1s0 0-.1 0c0 0-.1 0-.1.1 0-.2 0-.3-.1-.3s-.1.1-.2.3c0-.1 0-.1-.1-.1 0 0-.1 0-.1.1 0-.1 0-.1-.1-.1s-.2.3-.2.6v.1h-.1c0-.3 0-.5 0-.5-.1 0-.2.3-.3.7s0 0 0-.1c0-.3.1-.6 0-.7-.1 0-.2.2-.2.4 0-.1 0-.1-.1-.1 0-.1 0-.2-.1-.2 0 0-.1.1-.2.4 0-.1 0-.1-.1-.1 0 0-.1.1-.2.3 0-.1 0-.2-.1-.2 0 0-.1.1-.1.2 0 0 0-.1-.1-.1s-.2.3-.2.6-.1.1-.1.2c0-.1-.1-.1-.1-.1-.1 0-.1.2-.1.6 0-.3 0-.5-.1-.5 0 0-.1.1-.1.3 0-.1 0-.2-.1-.2s-.1.3-.2.6c0 .1-.1.1-.1.2 0-.2 0-.3-.1-.4-.1 0-.2.2-.2.6v.2c-.1 0-.1.1-.2.2 0 0 0-.1-.1-.1 0 0-.1 0-.1.1 0-.3 0-.5-.1-.5s-.2.3-.2.8c-.1 0-.2.2-.2.5v.1s0 0-.1-.1c-.1 0-.1.1-.2.3 0-.2 0-.4-.1-.4s-.2.1-.2.4c0-.1 0-.1-.1-.1 0 0-.1.1-.1.1 0-.2 0-.3-.1-.3 0 0-.1.1-.2.3-.7.1-.7.6-.7 1.2-.6-1.2-1.8-.6-2.3-.6v.6c-.6-.6.6-1.2-.6-1.2v1.2c0-.6 0-.6-.6-.6.6 1.2-1.2 0-1.2 1.2 0-.6 0-.6 0-1.2.6.6-.6 1.2-.6 1.8 0-1.8-1.8 1.8-1.8-.6-.6 1.8-2.3.6-3.5 1.8 0-.6 0-.6 0-1.2-1.2 0-1.8.6-2.9 1.8-.6.6-1.2.6-1.8.6.6.6-.6 1.2.6 1.2-1.2-.6-1.8.6-2.9.6 0-.6.6-.6 1.2-.6l-.6-.6c-3.5 2.3-7.6 1.2-11.2 2.3 0-.6 0-.6 0-1.2-.6 1.2-2.3 0-2.9 1.2l-.6-.6h1.8c-1.2.6-2.3-.6-2.9.6 0-.6 0-.6 0-1.2-1.2 2.3-3.5 4.1-4.7 6.5-.6-.6-1.2-1.2-1.8-1.8.6 1.8-1.2-.6-1.2.6 0-.6 0-.6 0-1.2-1.8 0-4.1-1.8-5.9 0 0-.6 0-1.2-.6-1.8v1.2c0-.6 0-.6 0-1.2h2.3c-1.2 0 0 .6-.6 1.2-1.8-1.2-4.7 0-6.5-1.2h.6c-2.3-.6-4.7-.6-7 .6-1.2 0-2.9.6-4.1-.6h.6c-1.2-.6-2.3-.6-3.5-1.2-2.9 1.2-5.3.6-8.2.6-4.7-1.2-8.8-1.2-13.5-1.2v1.2c-1.2-1.8-4.1-1.2-5.9-2.3.6.6-1.2.6-.6 1.2-1.2-.6-2.3 1.2-4.1 0-4.1 1.8-10 1.8-14.7 0-1.8.6-4.1 1.2-5.9 1.5-2.1.4-4.1.8-5.9 2-3.5 0-7 1.2-10.6.6v1.2l-.6-.6c-.6 1.2-1.8.6-2.9.6 0 .6 0 1.2-.6 1.2-1.8-.6-2.9.6-4.1 1.2v-.6c-1.8 1.2-4.1 0-5.9 2.3-2.9 0-6.5 1.2-9.4-.6l-.6.6c0-.6-.6-.6-1.2-.6s-.6.6-.6 1.2c.6 0 .6 0 .6-.6-1.8 0-3.5 1.2-5.3.6v-.6c-.6.6.6 1.2-.6 1.2 0-.6 0-.6 0-1.2-1.2.6-2.9.6-3.8.7-1.3.1-2.6-.1-3.8-.7 0 .6-.6.6-1.2.6l.6.6c-6.5-1.2-12.9-4.7-19.4-1.8-1.8-1.8-4.7-4.1-2.9-7-.6-.6-1.2-1.8-2.3-1.8v1.2c-.6-.6-.6-.6-1.2-1.2 0 .6-.6.6-1.2.6 0-.6 0-.6 0-1.2-1.8.6-2.9-1.2-4.7-.6-.6-1.2-1.8-1.2-2.9-1.2v1.2c0-1.2-1.8-1.8-1.2-2.9l-.6.6c0-.6 0-.6 0-1.2-.6 0-1.2 0-1.8.6.6-1.2 0-2.3-1.2-2.9 0 0 0 .6.1.5.5-1.7-1.8-2.3-1.8-4.1v1.2c0-.6 0-1.2 0-1.2-1.8-1.8-2.9-3.5-5.3-4.7-.6 0-1.2 0-1.8 0-.6-.6-1.2-1.2-2.2-1.2 0-.2 0-.3-.1-.3 0 0 0 0-.1 0 0 0 0-.1-.1-.1 0 0 0 0-.1 0 0 0 0 0-.1.1 0-.1 0-.2-.1-.2s-.1.1-.2.3c0-.4 0-.7-.1-.7 0 0-.1.1-.2.4 0-.2 0-.4-.1-.4.1-.3.1-.6 0-.6 0 0-.1 0-.1.1 0 0 0-.1-.1-.1 0-.1 0-.2-.1-.2 0 0 0 0-.1.1-.1 0-.1 0-.1.1 0 0 0-.1-.1-.1h-.1s0-.1 0-.2c0-.2 0-.3-.1-.3 0 0 0 0-.1 0 0 0-.1-.1-.1-.1h-.1c0-.2 0-.3-.1-.3 0-.1-.1-.2-.1-.3-.1 0-.2.1-.2.3s0 .3.1.3c-.1 0-.1-.1-.2-.1 0-.1 0-.1 0-.2 0-.2 0-.4-.1-.4 0 0 0 0-.1 0s-.1 0-.1.1 0 0-.1 0c0 0 0-.1-.1-.1 0-.1-.1-.1-.1-.1s-.1 0-.1.1c0-.1 0-.2-.1-.2s-.2.1-.2.3v.1s0 0-.1 0v-.1c0-.2 0-.4-.1-.4 0 0-.1 0-.1.1-.1 0-.1.1-.2.2 0 0-.1-.1-.1-.1 0-.1 0-.2-.1-.2 0 0-.1 0-.1.1 0-.2-.1-.3-.2-.3 0 0-.1 0-.1.1s0 0-.1 0c0 0 0 0-.1 0 0 0-.1 0-.1.1v-.1c0-.2 0-.3-.1-.3s-.2.1-.2.3v.1s0 .1-.1.2-.1-.1-.1-.1c-.1 0-.1 0-.1 0s-.1 0-.1.1c0 0-.1 0 0-.1 0-.1-.1-.2-.1-.2-.1 0-.1.1-.1.2 0 0 0 0-.1 0 0-.1 0-.1-.1-.1 0 0 0 0-.1 0 0-.1-.1-.2-.1-.2-.1 0-.1.1-.1.2 0 0 0-.1-.1-.1s-.1 0-.2.1c0-.1-.1-.1-.1-.1-.1 0-.1.1-.1.2 0 0 0 0-.1-.1 0 0 0 0-.1 0 0-.1-.1-.2-.2-.2s-.1.1-.1.2c0 0-.1-.1-.1-.1h-.1-.1-.1s0 0-.1 0c0 0 0 0-.1 0h-.1s0-.1-.1-.1c0 0 0 0-.1 0 0 0 0-.1-.1-.1s-.1.1-.2.2c0-.2 0-.4-.1-.4-.1-.1-.3-.3-.4.1 0 .1-.1.1-.1.2 0 0-.1-.1-.1-.1 0-.1 0-.2-.1-.2h-.1s0 0-.1 0c0 0 0 0-.1 0s-.1 0-.1.1c0-.1 0-.1 0-.1s0 0-.1 0c-.1 0-.3 0-.2.1 0 0 0-.1-.1-.1h-.1c0-.1 0-.1-.1-.2 0-.1-.1 0-.2.1 0-.1 0-.1 0-.2v-.1s-.1 0-.3-.1v.1c.1-.2 0-.4-.1-.4 0 0-.1 0-.1.1-.1 0-.1.1-.2.3 0-.1-.1-.1-.1-.1s-.1 0-.1.1c0-.2 0-.4 0-.4s0-.1-.1-.1-.1 0-.1.1c0-.1 0-.1-.1-.2 0 0-.1-.1-.1-.1h-.1c0-.1-.1-.2-.1-.2s-.1 0-.1.1c0 0 0-.1-.1-.1 0 0 0 0-.1 0 0-.2 0-.4-.1-.4s-.1.1-.2.4c0-.1-.1-.2-.2-.2v-.1c.1-.2 0-.3-.1-.4.1-.1-.3 0-.2.3v.1s0 0-.1 0c-.1 0-.1 0-.2 0 0 0 0-.1-.1-.1 0-.1-.1-.1-.1-.1 0-.1-.1-.2-.1-.2s-.1 0-.1.1c0-.2-.1-.3-.1-.2 0 0-.1 0-.1.1 0-.2-.1-.3-.1-.3s-.1.1-.1.3c-.2.1-.2.2-.2.3 0 0 0 0-.1 0s0 0-.1.1c0 0 0 0-.1 0s-.1 0-.3 0c0-.1-.1-.1-.1-.1 0-.1-.1-.2-.1-.2-.1 0-.1.2-.2.4v.1h-.1s0 0 0-.1 0-.3-.1-.3-.2.1-.2.2v.1h-.1s0-.1 0-.2c0-.1-.1-.1 0 0-.1 0-.1.1-.2.1h-.1c0-.1 0-.2-.1-.2s-.1 0-.2.1c0-.1 0-.1-.1-.2 0-.1-.2 0-.2.3v.1c0-.2 0-.3-.1-.3 0 0-.1 0-.1.1 0 0 0-.1-.1-.1v-.1c0-.1-.1-.2-.1-.2-.1 0-.1.1-.1.3 0-.1-.1-.1-.1-.2 0-.1 0-.1-.1-.1 0 0-.1 0-.1.1 0-.5 0-.8-.1-.8 0 0-.1 0-.1.1 0-.1 0-.1-.1-.1s-.1.3-.1.8v.1c0-.1 0-.2-.1-.2s-.2.1-.2.2c0-.2 0-.3-.1-.3 0 0 0 0-.1 0 0-.1-.1-.2-.1-.2-.1 0-.1.1-.2.3 0 0 0-.1-.1-.1s-.1.1-.1.2c-.1 0-.1.1-.2.3v.1-.1c0-.1 0-.2 0-.2 0-.2-.1-.3-.1-.3s-.1.1-.1.2c0 0 0-.1-.1-.1 0 0-.1 0-.1.1 0-.2 0-.3-.1-.3 0 0-.1 0-.1.1-.1 0-.1.1-.1.2 0 0 0 0-.1 0 0 0-.1.1-.1.1 0-.2-.1-.3-.1-.3 0-.1-.1-.1-.1-.1-.1 0-.1.2-.1.4 0-.1-.1-.1-.1-.1s-.1 0-.1.1c-.1-.2-.1-.3-.2-.3 0 0-.1.1-.1.2 0-.1-.1-.1-.1-.1s-.1.1-.1.1c0-.2-.1-.4-.2-.4 0 0-.1.1-.1.1-.1 0-.2-.1-.2 0 0-.1 0-.1 0-.1v-.1h-.1c0-.3-.1-.5-.1-.5s-.1.1-.1.3c.1-.2-.1-.1-.2.1s0-.1-.1-.1c0-.1 0-.2 0-.3 0-.4-.1-.8-.1-.8s-.1 0-.1.1c-.1 0-.2.4-.2 1v.5c0-.1-.1-.3-.1-.5-.2-.1-.3 0-.3.1 0 0 0 0-.1.1 0 0-.1-.1-.1-.1v.2.1s0 0-.1 0c0-.1 0-.2-.1-.2 0 0-.1.1-.1.2s0 0-.1 0c0-.1-.1-.2-.1-.2s-.1.1-.1.3c0 0-.1-.1-.1-.1s0 0-.1.1c0-.2-.1-.3-.2-.3s-.1.1-.1.3v-.1c0-.5-.1-.8-.1-.8-.1 0-.1.4-.2.9-.1 0 0 0 0 .1-.1-.2-.1-.3-.2-.3 0 0 0 0-.1.1s-.1.1-.1.1 0 0-.1 0c-.2-.2-.2 0-.2.2v.1c0-.1-.1-.2-.2-.2h-.1-.1v-.1c.1-.4 0-.4-.1-.2 0-.2 0-.3-.1-.3 0 0 0 .1-.1.2 0-.1-.1-.1-.1-.1s0 0-.1.1c0-.1 0-.1-.1-.1 0-.4 0-.7-.1-.7s-.2.3-.2.6v.3s-.1 0-.1.1c0-.2-.1-.3-.2-.3 0 0-.1.1-.1.1 0-.1-.1-.1-.1-.1s0 0-.1.1c0-.1-.1-.1-.1-.1s-.1.1-.1.1c0-.1-.1-.1-.1-.1s-.1 0-.1.1c0-.1-.1-.2-.1-.2 0-.3 0-.5-.1-.6-.1 0-.1.2-.2.5v.1s-.1 0-.1-.1-.1-.1-.1-.1-.1 0-.1.1c0-.2-.1-.3-.2-.3-.1 0-.1.1-.1.2h-.1c0-.2-.1-.3-.1-.3-.1 0-.1 0-.2.2-.1 0-.1 0-.1-.1s0-.1-.1-.1-.1-.1-.1-.1-.1 0-.1.1c0-.2-.1-.4-.2-.4 0 0-.1.1-.1.2-.1 0-.2.2-.2.5 0-.1 0-.2-.1-.2s-.2.2-.2.4h-.1v-.1c0-.3 0-.6-.1-.6 0 0 0 0-.1 0 0 0 0-.1-.1-.1s-.2.2-.2.5v.1c-.1 0-.1 0-.2 0v-.1c.1-.3.1-.5 0-.5h-.1s0-.1-.1 0c-.1 0-.1.1-.1.3 0 0-.1-.1-.1-.1 0-.2-.1-.4-.1-.4s-.1.1-.1.2c-.1.1-.1.3-.1.5v.1-.1c0-.3 0-.5-.1-.5 0 0-.1 0-.1.1 0-.1 0-.2-.1-.3 0 0-.1.1-.1.2 0 0-.1 0-.1.1 0-.1 0-.2-.1-.2 0 0-.1 0-.1.1-.1 0-.1.2-.2.4 0-.3 0-.6-.1-.6s-.1.2-.2.6c0-.2-.1-.4-.1-.4s-.1 0-.1.1c0-.1 0-.2-.1-.2s-.1.1-.2.4h-.1s0 0-.1 0c0-.1 0-.2-.1-.2 0 0-.1 0-.1.1 0-.1 0-.2-.1-.1-.1 0-.1.1-.2.3 0 0 0 0-.1.1 0-.3 0-.5-.1-.5 0-.1 0-.1-.1-.1 0 0-.1 0-.1.1 0-.1-.1-.3-.1-.3-.1 0-.1.1-.2.3 0-.1 0-.1-.1-.1s-.1.1-.1.2c0-.1 0-.2-.1-.2s-.2.1-.2.3c0 0-.1 0-.1.1 0 0 0-.1-.1-.1h-.1s-.1 0-.1.1c0 0-.1-.1-.1-.1h-.1s0 0-.1 0c0 0 0-.1-.1-.1h-.1s-.1-.1-.1-.1-.1 0-.1.1 0 0-.1 0c0-.1-.1-.2-.1-.2s-.1 0-.1.1c0 0-.1 0-.1-.1 0 0-.1 0-.1.1-.2-.1-.4-.1-.6-.2-.5-.1-1-.1-1.5-.1 0 0-.1-.1-.1-.1s-.1 0-.1.1c0 0 0 0-.1 0s-.2-.1-.2-.1c0-.1 0-.2-.1-.2s-.1.1-.2.2h-.1s0-.1-.1-.1h-.1s0 0 0-.1 0-.3-.1-.3-.1.1-.2.2c0-.1 0-.3-.1-.3s-.1.1-.2.2 0 0-.1 0h-.1c0-.1-.1-.1-.1-.1s-.1 0-.1.1c0-.1-.1-.2-.1-.2s-.1.1-.1.1-.1-.1-.1-.1c0-.1-.1-.1-.1-.1-.1 0-.1.1-.1.2 0 0-.1.1-.1.1-.3-.2-.7-.2-1 0s-.1 0-.1.1c-.1.1-.2.2-.2.3h-.1s-.1 0-.1.1c0-.1 0-.2-.1-.2s-.1.1-.2.4c0-.1-.1-.1-.1-.1 0-.1-.1-.2-.1-.2-.1 0-.1.1-.2.3 0 0 0 0-.1 0s0 0-.1 0c0-.1 0-.2-.1-.2 0 0-.1 0-.1.1s-.1 0-.1.1c0-.1-.1-.1-.1-.1-.1 0-.1.2-.1.3v-.1s0 0-.1 0c0-.1 0-.1-.1-.2 0 0-.1 0-.1.1 0-.1-.1-.2-.1-.1-.1 0-.1.2-.1.3 0-.1 0-.2 0-.2s-.1 0-.2.1c0-.2-.1-.3-.1-.3s-.1 0-.1.1c-.1 0-.1.1-.2.4 0 0 0 0-.1 0 .1-.3.1-.5 0-.5 0 0-.1 0-.1.1 0 0 0-.1-.1-.1s-.1.1-.1.2c-.1-.2-.2-.4-.3-.3v.1c0-.1 0-.2-.1-.2 0 0-.1.1-.2.3s0-.1 0-.2 0-.3-.1-.3c0 0-.1-.1-.1-.1-.1-.1-.1-.1-.2-.1v.2c0-.1 0-.1-.1-.1v-.1c0-.2-.1-.4-.2-.4 0 0 0 0-.1.1 0-.1-.1-.2-.1-.2s-.1 0-.1.1c0-.1-.1-.2-.1-.2-.1 0-.1.1-.1.3 0-.1 0-.1 0-.1 0-.3 0-.5-.1-.5s-.1.2-.2.5c0-.1-.1-.2-.1-.2-.1 0-.1.3-.1.6s0 0-.1 0c-.2 0-.4 0-.5.1 0 0 0 0-.1 0 0 0-.1 0-.1.1 0-.1-.1-.1-.1-.1-.1 0-.1.1-.2.3 0-.1-.1-.2-.1-.2-.1 0-.1.1-.1.2 0-.2-.1-.3-.1-.3 0-.1 0-.1-.1-.1 0 0-.1 0-.1.1 0 0 0-.1-.1-.1 0 0-.1 0-.1.1 0-.1-.1-.2-.1-.2s0 0-.1.1c0-.1-.1-.1-.1-.1 0-.2 0-.3 0-.3s-.1 0-.1.1c0-.1 0-.2 0-.2-.1 0-.2.2-.3.5 0 0 0 0-.1 0 0 0-.1 0-.1.1 0-.1-.1-.1-.1-.1 0-.2-.1-.3-.2-.3-.1-.1-.1-.1-.1 0s0 .1-.1.2c0 0-.1-.1-.1-.1 0-.1 0-.2-.1-.2 0-.2 0-.3-.1-.3 0 0-.1 0-.1.1 0-.1-.1-.2-.1-.2s-.1 0-.1.1c0 0 0 0-.1 0 0 0-.1 0-.1.1 0-.1-.1-.1-.1-.1v-.1c0-.1-.1-.2-.1-.2s-.1 0-.1.1c0 0-.1-.1-.1-.1s0 0 0-.1v-.1c0-.2-.1-.3-.2-.3s-.1.1-.1.2c0-.2 0-.3-.1-.3 0 0 0 0-.1 0 0-.3 0-.5-.1-.5s-.1.2-.2.5c0-.1 0-.1-.1-.1 0-.3 0-.5-.1-.5s-.2.3-.2.7c0-.1-.1-.2-.1-.2s-.1 0-.1.1c0 0 0 0-.1 0 0 0-.1 0-.1.1 0-.2 0-.3-.1-.3 0 0-.1 0-.1.1 0-.1-.1-.2-.2-.2 0 0-.1.1-.1.2 0-.1-.1-.1-.1-.1 0-.1-.1-.2-.1-.2s0 0-.1 0c0 0 0 0-.1 0 0 0-.1 0-.1.1 0-.1 0-.2-.1-.2s-.2.2-.2.3c0-.1-.1-.3-.1-.3 0-.1-.1-.2-.1-.2s-.1 0-.1.1c-.1 0-.2.1-.2.3 0-.1-.1-.3-.2-.3 0 0-.1.1-.1.1 0-.1-.1-.2-.1-.1-.1 0-.2.1-.2.2s0 0-.1 0h-.1s0 0 0-.1-.3 0-.7.1c-.1 0-.1 0-.2.1 0-.1-.1-.2-.1-.2-.1 0-.1.1-.1.2-.1 0-.2.1-.2.2s0 0-.1 0c.1-.2.2-.4.1-.4 0 0-.1 0-.2.1-.1 0-.1.1-.2.2s-.1.1-.1.1c0-.2 0-.3-.1-.3 0 0-.1.1-.2.2-.1 0-.1.1-.2.3 0-.1 0-.2-.1-.2 0-.2 0-.3-.1-.3s-.2.3-.2.7c0-.2 0-.3-.1-.3s-.2.3-.2.6c0-.1 0-.2 0-.2-.1 0-.2.2-.3.4 0 0-.1.1-.1.1-.2.2-.3.4-.3.6 0 .1-.1.2-.1.3 0-.1 0-.2-.1-.2s-.2.2-.2.5c0-.2 0-.4-.1-.4s-.1.1-.2.3-.1.1-.1.1-.1 0-.1.1c0 0 0-.1-.1-.1s0-.1-.1-.1c0 0-.1 0-.1.1 0 0 0 0-.1 0 0-.1 0-.1 0-.1-.1 0-.1 0-.2.2 0-.1 0-.2-.1-.2 0 0-.1 0-.1.1 0 0 0 0-.1 0s-.2.2-.2.5v-.1c0-.1-.1-.2-.1-.2 0-.2 0-.3 0-.3s-.1.1-.2.3c0 0 0 0-.1 0s-.1.1-.2.3c0-.1 0-.1-.1-.1h-.1-.1c0-.2 0-.3-.1-.3s-.2.2-.2.4 0 .1-.1.2 0-.1-.1-.1c0-.1-.1-.1-.1 0 0-.1 0-.1-.1-.2-.1 0-.2.1-.2.2 0 0 0-.1-.1-.1 0 0 0 0-.1 0 0-.1-.1-.2-.1-.2s-.1.1-.1.2c0-.1-.1-.1-.1-.2 0 0-.1 0-.1.1 0 0-.1-.1-.1-.1s-.1.1-.1.1c-.2-.1-.4-.3-.7-.4 0 0 0 0-.1 0s-.2 0-.3-.1c0-.2 0-.1-.1 0-.1 0-.1 0-.2 0 0-.1 0-.1-.1 0 0 0 0 0-.1 0-.1-.1.3-.1-.3-.2v.1c-.2 0-.4 0-.6 0s-.4 0-.5.1h-.1c0-.1 0-.1-.1 0 0-.1 0-.1 0-.2 0 0 0-.1 0-.2-.4-.1-.3 0-.3.1h-.1c0-.1 0-.3 0-.3s-.1 0-.2.2c0-.1 0-.2-.1-.2s-.1.1-.1.2c0 0-.1 0-.1.1 0 0-.1 0-.1-.1s0-.1 0-.2 0-.1-.1-.1c0 0-.1.1-.1.2-.1 0-.2 0-.2-.1 0-.2 0-.3-.1-.3 0 0-.1 0-.1.1 0-.1 0-.2-.1-.2s-.1.1-.2.3c0 0 0 0-.1 0 0-.2 0-.4-.1-.4 0 0-.1 0-.2.2 0 .1-.1.1-.1.2 0 0 0 0-.1 0 0-.2 0-.3-.1-.3h-.1c0-.1-.1-.1-.1-.1s-.1 0-.1.1c0 0-.1-.1-.1-.1s-.1.1-.1.2c0-.1-.1-.2-.1-.2s0 0-.1 0c0 0 0-.1-.1-.1s-.2.2-.2.4c0-.1 0-.2 0-.2 0-.2 0-.4-.1-.4 0 0-.1.1-.1.1 0-.2 0-.3-.1-.3s0-.1-.1-.1-.2.3-.2.6v.2c0-.1 0-.1-.1-.1 0 0-.1 0-.1.2 0-.1 0-.2-.1-.2s-.2.2-.2.5v.1c-.1 0-.1.1-.2.3.1-.4 0-.8 0-.8-.1 0-.1.2-.2.4s0 0-.1 0c0 0 0-.1-.1-.1 0 0-.1 0-.1.1 0-.1 0-.2-.1-.2 0 0 0 0-.1 0 0-.1 0-.2-.1-.2s-.1.1-.2.4c0-.1 0-.1-.1-.1s-.2.2-.2.5c-.1 0-.1.2-.1.3 0-.1 0-.1-.1-.1 0 0-.1 0-.1.1-.3 0-.6 0-.9 0 0-.2-.1-.3-.1-.3-.1 0-.1.1-.2.3-.1 0-.2 0-.3 0 0-.2-.1-.4-.1-.4v-.1c0-.1 0-.2-.1-.1 0 0 0 0-.1 0h-.1c-.1-.2-.1-.1-.1.1s-.1 0-.2 0 .2-.1-.2-.1h-.1c-.1-.1.1-.3-.1-.4s0 0-.1 0h-.1v.1c-.1 0-.1.1 0 .1 0-.1-.1-.1-.1-.1-.1 0-.1.2-.1.5s0 0-.1 0v-.1c0-.3 0-.5-.1-.5s-.1.1-.1.2c0-.3 0-.5-.1-.6-.1 0-.2.2-.2.5 0-.1 0-.1-.1-.1 0 0 0 0-.1 0 0-.2-.1-.4-.1-.4-.1 0-.1.2-.2.4 0-.1-.1-.2-.1-.2s0 0-.1 0c0-.2 0-.3-.1-.3s-.1.1-.2.3c0-.1-.1-.2-.1-.3 0 0-.1 0-.1.1 0-.2-.1-.4-.1-.4s-.1.1-.1.2c-.1 0-.1.1-.1.2 0-.2 0-.3-.1-.3 0-.2-.1-.3-.1-.3s-.1.1-.1.1 0-.1-.1-.1c0 0 0 0-.1 0 0-.2-.1-.4-.1-.4-.1 0-.2.3-.2.7v.1h-.1s0 0-.1 0v-.1c.1-.1.1-.2 0-.2 0 0 .1-.1-.1-.1 0-.1 0-.1-.1-.1 0-.1 0-.2-.1-.2 0-.2 0-.4 0-.4-.1 0-.1.1-.2.3h-.1c0-.3 0-.5-.1-.5s-.1.1-.2.4c0-.1 0-.2-.1-.2s-.1.1-.2.2c0-.1 0-.2-.1-.2 0-.1 0-.1-.1-.1 0 0-.1 0-.1.1 0-.1 0-.1-.1-.1 0 0-.1.1-.2.2 0 0 0-.1-.1-.1 0 0-.1 0-.1.1-.1 0-.2 0-.3 0h-.1c0-.1-.1-.2-.1-.2s0 0-.1 0c0 0 0 0-.1 0 0 0-.1 0-.1.1 0-.1-.1-.2-.1-.2s-.1 0-.1.1 0 0-.1 0v.1c0 .1-.1.2-.1.3h-.1c.1-.3.1-.5 0-.6 0 0 0 0-.1 0 0-.1 0-.2 0-.2-.1 0-.2.2-.3.5h-.1c.1-.3.1-.6-.1-.5-.1 0-.1 0-.1.1 0-.1 0-.2 0-.2s0 0-.1 0h-.1c-.1-.1-.1-.1-.1 0 0 0 0 0 0-.1 0-.2-.1-.3-.2-.3 0 0 0 0-.1.1 0-.2-.1-.3-.1-.3s-.1.1-.1.2 0 0-.1.1c0-.2 0-.3-.1-.3 0 0-.1 0-.1.1 0-.1-.1-.1-.1-.1 0-.2-.1-.4-.2-.4 0 0-.1.1-.1.2 0-.1-.1-.2-.1-.2-.1 0-.1.1-.1.3v.1 184.3h400v-191.5c-.19999999999 0-.29999999999 0-.39999999999-.1z" fill="#5f6d93"/></svg>