<svg height="218.373" viewBox="0 0 191.414 218.373" width="191.414" xmlns="http://www.w3.org/2000/svg" xmlns:xlink="http://www.w3.org/1999/xlink"><linearGradient id="a" gradientUnits="objectBoundingBox" x1=".819" x2=".347" y1=".181" y2=".653"><stop offset="0" stop-color="#f7931e"/><stop offset="1" stop-color="#ff002b"/></linearGradient><g transform="translate(-855.118 -177.187)"><path d="m1000.408 248.966v106.566a13.062 13.062 0 0 1 -13.058 13.058h-119.163a13.071 13.071 0 0 1 -13.069-13.058v-119.163a13.08 13.08 0 0 1 13.069-13.069h106.566a36.624 36.624 0 0 0 25.655 25.666z" fill="#ff002b"/><path d="m1000.408 236.369v12.6a36.624 36.624 0 0 1 -25.655-25.669h12.6a13.071 13.071 0 0 1 13.055 13.069z" fill="#a30312"/><path d="m1017.548 210.7h-4.814v-7.828h1.721l1.518 1.529v2.778h6.209v-4.667l-5.005-5.005h-4.443v-5.084h-5.275v5.084h-4.9l-4.994 5.005v8.559l4.994 4.993h4.9v8.47h-2.26l-1.53-1.53v-2.722h-6.2v4.623l4.994 4.993h4.993v5.102h5.275v-5.1h4.724l5.095-5.083v-9.117zm-10.089 0h-2.17l-1.53-1.53v-4.77l1.53-1.529h2.17zm8.886 12.259-1.575 1.575h-2.036v-8.47h2.081l1.53 1.53z" fill="#a30312"/><path d="m934.455 369.894-32.718 25.666 3.7-18.231 1.462 6.208a1.683 1.683 0 0 0 .978 1.17 1.65 1.65 0 0 0 1.519-.1z" fill="#ff002b"/><path d="m944.06 208.78-3.993 14.52h-2.4z" fill="#ff002b"/><path d="m940.067 223.3-20.2 73.556-3.262 11.888-2.519-31.9 23.586-53.544z" fill="#a30312"/><path d="m926.247 240.854-18.316 35.924 4.238 18.63-1.48-18.718a1.693 1.693 0 0 1 .137-.813z" fill="#a30312"/><path d="m930.024 368.59-20.357 11.956-2.609-11.135.169-.821z" fill="#ff002b"/><g fill="#a30312"><path d="m975.956 348.21-19.569 4.679a1.745 1.745 0 0 0 -.653.315l-1.428 1.124-24.282 14.262h-22.8l7.727-38.027 1.957-9.661 33.628 15.555z"/><path d="m966.923 330.1a1.685 1.685 0 0 1 -1.338.5l-23.786-1.9 37.045 17.135-21.344-117.647 9.9 100.561a1.685 1.685 0 0 1 -.477 1.351z"/><path d="m892.025 362.585-8.4-57.349a1.687 1.687 0 0 1 .565-1.52l14.4-12.476 4.015-10.254-25.913 17.49z"/></g><path d="m953.62 223.3h-10.055l7.4-26.959z" fill="#ff002b"/><path d="m963.844 327.077-30.9-2.474-15.244-7.064 25.865-94.239h10.055z" fill="#a30312"/><path d="m903.773 368.59-.1.517-.99 4.859-3.239 15.948-3.127-21.324z" fill="#ff002b"/><path d="m913.963 318.495-10.19 50.1h-7.457l-9.222-62.928 14.025-12.146a1.773 1.773 0 0 0 .461-.653l4.139-10.583z" fill="#a30312"/><path d="m1005.289 202.876h2.171v7.824h-2.171l-1.53-1.53v-4.769z" fill="#ff002b"/><path d="m1014.815 216.068 1.53 1.53v5.365l-1.575 1.575h-2.036v-8.469z" fill="#ff002b"/><path d="m1010.013 177.187a36.557 36.557 0 0 0 -35.26 46.113h12.6a13.071 13.071 0 0 1 13.058 13.069v12.6a36.989 36.989 0 0 0 9.6 1.271 36.525 36.525 0 0 0 0-73.05zm12.54 47.632-5.095 5.083h-4.724v5.098h-5.275v-5.1h-4.993l-4.994-4.993v-4.623h6.2v2.722l1.53 1.53h2.26v-8.47h-4.9l-4.994-4.993v-8.559l4.994-5.005h4.9v-5.084h5.275v5.084h4.443l5.005 5.005v4.667h-6.209v-2.781l-1.518-1.529h-1.721v7.829h4.814l5.005 4.993z" fill="url(#a)"/></g></svg>