<svg xmlns="http://www.w3.org/2000/svg" xmlns:xlink="http://www.w3.org/1999/xlink" width="191.414" height="218.373" viewBox="0 0 191.414 218.373"><defs><linearGradient id="a" x1="0.819" y1="0.181" x2="0.347" y2="0.653" gradientUnits="objectBoundingBox"><stop offset="0" stop-color="#f7931e"/><stop offset="1" stop-color="#ff002b"/></linearGradient></defs><g transform="translate(-855.118 -177.187)"><path d="M1000.408,248.966V355.532A13.062,13.062,0,0,1,987.35,368.59H868.187a13.071,13.071,0,0,1-13.069-13.058V236.369A13.08,13.08,0,0,1,868.187,223.3H974.753A36.624,36.624,0,0,0,1000.408,248.966Z" fill="#ff002b"/><path d="M1000.408,236.369v12.6A36.624,36.624,0,0,1,974.753,223.3h12.6A13.071,13.071,0,0,1,1000.408,236.369Z" fill="#a30312"/><path d="M1017.548,210.7h-4.814v-7.828h1.721l1.518,1.529v2.778h6.209v-4.667l-5.005-5.005h-4.443v-5.084h-5.275v5.084h-4.9l-4.994,5.005v8.559l4.994,4.993h4.9v8.47h-2.26l-1.53-1.53v-2.722h-6.2v4.623l4.994,4.993h4.993V235h5.275v-5.1h4.724l5.095-5.083V215.7Zm-10.089,0h-2.17l-1.53-1.53V204.4l1.53-1.529h2.17Zm8.886,12.259-1.575,1.575h-2.036v-8.47h2.081l1.53,1.53Z" fill="#a30312"/><path d="M934.455,369.894,901.737,395.56l3.7-18.231,1.462,6.208a1.683,1.683,0,0,0,.978,1.17,1.65,1.65,0,0,0,1.519-.1Z" fill="#ff002b"/><path d="M944.06,208.78l-3.993,14.52h-2.4Z" fill="#ff002b"/><path d="M940.067,223.3l-20.2,73.556-3.262,11.888-2.519-31.9L937.672,223.3Z" fill="#a30312"/><path d="M926.247,240.854l-18.316,35.924,4.238,18.63-1.48-18.718a1.693,1.693,0,0,1,.137-.813Z" fill="#a30312"/><path d="M930.024,368.59l-20.357,11.956-2.609-11.135.169-.821Z" fill="#ff002b"/><path d="M975.956,348.21l-19.569,4.679a1.745,1.745,0,0,0-.653.315l-1.428,1.124L930.024,368.59h-22.8l7.727-38.027,1.957-9.661,33.628,15.555Z" fill="#a30312"/><path d="M966.923,330.1a1.685,1.685,0,0,1-1.338.5l-23.786-1.9,37.045,17.135L957.5,228.188l9.9,100.561A1.685,1.685,0,0,1,966.923,330.1Z" fill="#a30312"/><path d="M892.025,362.585l-8.4-57.349a1.687,1.687,0,0,1,.565-1.52l14.4-12.476,4.015-10.254-25.913,17.49Z" fill="#a30312"/><path d="M953.62,223.3H943.565l7.4-26.959Z" fill="#ff002b"/><path d="M963.844,327.077l-30.9-2.474L917.7,317.539,943.565,223.3H953.62Z" fill="#a30312"/><path d="M903.773,368.59l-.1.517-.99,4.859-3.239,15.948-3.127-21.324Z" fill="#ff002b"/><path d="M913.963,318.495l-10.19,50.1h-7.457l-9.222-62.928,14.025-12.146a1.773,1.773,0,0,0,.461-.653l4.139-10.583Z" fill="#a30312"/><path d="M1005.289,202.876h2.171V210.7h-2.171l-1.53-1.53v-4.769Z" fill="#ff002b"/><path d="M1014.815,216.068l1.53,1.53v5.365l-1.575,1.575h-2.036v-8.469Z" fill="#ff002b"/><path d="M1010.013,177.187a36.557,36.557,0,0,0-35.26,46.113h12.6a13.071,13.071,0,0,1,13.058,13.069v12.6a36.989,36.989,0,0,0,9.6,1.271,36.525,36.525,0,0,0,0-73.05Zm12.54,47.632-5.095,5.083h-4.724V235h-5.275v-5.1h-4.993l-4.994-4.993v-4.623h6.2v2.722l1.53,1.53h2.26v-8.47h-4.9l-4.994-4.993v-8.559l4.994-5.005h4.9v-5.084h5.275v5.084h4.443l5.005,5.005v4.667h-6.209V204.4l-1.518-1.529h-1.721V210.7h4.814l5.005,4.993Z" fill="url(#a)"/></g></svg>