<svg height="836.052" viewBox="0 0 1182.45 836.052" width="1182.45" xmlns="http://www.w3.org/2000/svg" xmlns:xlink="http://www.w3.org/1999/xlink"><filter id="a" filterUnits="userSpaceOnUse" height="836.052" width="567.421" x="0" y="0"><feOffset dy="3"/><feGaussianBlur result="b" stdDeviation="49.5"/><feFlood flood-color="#fb4a25"/><feComposite in2="b" operator="in"/><feComposite in="SourceGraphic"/></filter><linearGradient id="b" gradientUnits="objectBoundingBox" x1="-.309" x2="1.38" y1=".685" y2=".397"><stop offset="0"/><stop offset=".055" stop-color="#290007"/><stop offset=".147" stop-color="#690012"/><stop offset=".236" stop-color="#9f001b"/><stop offset=".318" stop-color="#c80022"/><stop offset=".392" stop-color="#e60027"/><stop offset=".455" stop-color="#f9002a"/><stop offset=".5" stop-color="#ff002b"/><stop offset="1" stop-color="#f7931e"/></linearGradient><radialGradient id="c" cx=".582" cy=".027" gradientTransform="matrix(.992 0 0 .626 .005 .01)" r="1.583" xlink:href="#b"/><radialGradient id="d" cx=".189" cy=".963" gradientTransform="matrix(2.882 0 0 1.042 -.356 -.041)" gradientUnits="objectBoundingBox" r=".87"><stop offset="0"/><stop offset=".5" stop-color="#ff002b"/><stop offset="1" stop-color="#f7931e"/></radialGradient><radialGradient id="e" cx="1.406" cy=".526" gradientTransform="matrix(3.012 0 0 1.042 -2.829 -.022)" r="1.179" xlink:href="#b"/><radialGradient id="f" cx=".6" cy=".854" gradientTransform="matrix(3.329 0 0 1.042 -1.396 -.036)" gradientUnits="objectBoundingBox" r="1.008"><stop offset="0" stop-color="#f7931e"/><stop offset="1" stop-color="#ff002b"/></radialGradient><radialGradient id="g" cx=".369" cy=".398" gradientTransform="matrix(2.882 0 0 1.042 -.695 -.018)" r=".782" xlink:href="#f"/><radialGradient id="h" cx="1.167" cy="-.015" gradientTransform="matrix(3.924 0 0 1.042 -3.413 0)" r=".806" xlink:href="#f"/><radialGradient id="i" cx=".391" cy=".555" gradientTransform="matrix(.784 0 0 1.042 .084 -.021)" r="1.928" xlink:href="#f"/><g filter="url(#a)" transform="translate(.003 -.004)"><path d="m1042.556 320.7-111.863 225.013-83.5 53.623 61.855 260.42 143.128-117.937 65.438-14.857z" fill="#ff002b" transform="translate(-698.69 -175.2)"/></g><path d="m577.494 322-102.794 374.326 186.388 86.218z" fill="url(#b)" transform="translate(-226.62 -217.884)"/><path d="m482.285 635.9-46.985 231.465 164.088-128.79 69.285-16.457z" fill="url(#c)" transform="translate(-234.204 -157.458)"/><path d="m479.07 696.326-27.07-119.488 129.863-254.838z" fill="url(#d)" transform="translate(-230.989 -217.884)"/><path d="m493.507 655.189-27.069-119.489-89.438 60.341 69.523 290.613z" fill="url(#e)" transform="translate(-245.427 -176.746)"/><path d="m569.736 322 83.594 460.544-138.33-64.037 94.565 7.513z" fill="url(#f)" transform="translate(-218.862 -217.884)"/><path d="m479.07 696.326-27.07-119.488 129.863-254.838-112.214 254.838z" fill="url(#g)" transform="translate(-230.989 -217.884)"/><path d="m466.438 535.7-17.53 44.719-41.976 36.371 39.591 269.863-69.523-290.612z" fill="url(#h)" transform="translate(-245.427 -176.746)"/><path d="m595.1 724.9-133.088 78.109-9.182-38.995-17.53 86.218z" fill="url(#i)" transform="translate(-234.204 -140.325)"/><g stroke="#999" stroke-linecap="round" stroke-linejoin="round" stroke-width="2"><g transform="matrix(-1 0 0 -1 1614.154 1249.787)"><path d="m716.758 1084.417h239.614l151.232-62.061" fill="none"/><path d="m0 0h9.195v9.195h-9.195z" fill="#999" transform="matrix(.70710678 -.70710678 .70710678 .70710678 708.256 1084.417)"/></g><g transform="matrix(-1 0 0 -1 1614.154 1336.101)"><path d="m697.568 1084.4 258.8.019 151.232-62.061" fill="none"/><path d="m0 0h9.195v9.195h-9.195z" fill="#999" transform="matrix(.70710678 -.70710678 .70710678 .70710678 691.256 1084.417)"/></g><g transform="matrix(-1 0 0 -1 1614.154 1422.416)"><path d="m746.375 1084.479 210-.061 151.232-62.061" fill="none"/><path d="m0 0h9.195v9.195h-9.195z" fill="#999" transform="matrix(.70710678 -.70710678 .70710678 .70710678 740.256 1084.417)"/></g><g transform="matrix(-1 0 0 -1 1614.154 1508.731)"><path d="m758.4 1084.417h197.972l151.232-62.061" fill="none"/><path d="m0 0h9.195v9.195h-9.195z" fill="#999" transform="matrix(.70710678 -.70710678 .70710678 .70710678 752.256 1084.417)"/></g><g transform="matrix(-1 0 0 -1 1614.154 1595.046)"><path d="m807.67 1084.417h148.7l151.232-62.061" fill="none"/><path d="m0 0h9.195v9.195h-9.195z" fill="#999" transform="matrix(.70710678 -.70710678 .70710678 .70710678 801.256 1084.417)"/></g><g transform="matrix(-1 0 0 -1 1614.154 1686.36)"><path d="m838.41 1084.417h117.962l151.232-62.061" fill="none"/><path d="m0 0h9.195v9.195h-9.195z" fill="#999" transform="matrix(.70710678 -.70710678 .70710678 .70710678 832.203 1084.417)"/></g></g><g font-family="AvenirNext-DemiBold, Avenir Next" font-size="24" font-weight="300"><text fill="#ff002b" transform="translate(1182.45 174.116)"><tspan x="-256.416" y="0">90% Transferred (EMB)</tspan></text><text fill="#fff" transform="translate(1182.45 260.43)"><tspan x="-239.208" y="0">4% Reflections (EMB)</tspan></text><text fill="#0089ff" transform="translate(1182.45 346.745)"><tspan x="-290.352" y="0">1% Future Liquidity (EMB)</tspan></text><text fill="#a30312" transform="translate(1182.45 433.06)"><tspan x="-302.256" y="0">1% Advisory + Legal (EMB)</tspan></text><text fill="#f7931e" transform="translate(1182.45 519.374)"><tspan x="-350.28" y="0">2% Token Recovery Fund (BNB)</tspan></text><text fill="#feee00" transform="translate(1182.45 610.689)"><tspan x="-381.264" y="0">2% Marketing + Operations (BNB)</tspan></text></g></svg>