<svg xmlns="http://www.w3.org/2000/svg" xmlns:xlink="http://www.w3.org/1999/xlink" width="283.853" height="252.927" viewBox="0 0 283.853 252.927"><defs><radialGradient id="a" cx="0.5" cy="0.5" r="0.534" gradientTransform="translate(0.058) scale(0.883 1)" gradientUnits="objectBoundingBox"><stop offset="0" stop-color="#ea7864"/><stop offset="1" stop-color="#f04d5a"/></radialGradient><linearGradient id="b" x1="0.658" y1="0.542" x2="-0.43" y2="0.256" gradientUnits="objectBoundingBox"><stop offset="0" stop-color="#171247"/><stop offset="0.507" stop-color="#5e3487"/><stop offset="1" stop-color="#f04d5a"/></linearGradient><linearGradient id="c" x1="1.218" y1="0.223" x2="2.318" y2="-0.235" xlink:href="#b"/><linearGradient id="d" x1="0.329" y1="0.604" x2="1.374" y2="0.418" xlink:href="#b"/><linearGradient id="e" x1="0.588" y1="0.184" x2="0.424" y2="1.044" xlink:href="#b"/><linearGradient id="f" x1="1.031" y1="0.149" x2="0.302" y2="0.631" xlink:href="#b"/><radialGradient id="g" cx="0.5" cy="0.5" r="0.416" gradientTransform="translate(-0.304) scale(1.609 1)" gradientUnits="objectBoundingBox"><stop offset="0" stop-color="#5e3487"/><stop offset="1" stop-color="#171247"/></radialGradient><linearGradient id="h" x1="0.728" y1="0.616" x2="-0.156" y2="-0.188" xlink:href="#b"/><linearGradient id="i" x1="0.373" y1="0.361" x2="1.122" y2="0.681" xlink:href="#b"/><linearGradient id="j" x1="0.065" y1="0.527" x2="1.048" y2="0.344" xlink:href="#b"/><radialGradient id="k" cx="0.5" cy="0.5" r="0.5" gradientTransform="translate(-0.001)" xlink:href="#g"/><linearGradient id="l" x1="-0.351" y1="0.142" x2="1.682" y2="1.576" xlink:href="#b"/><linearGradient id="m" x1="0.896" y1="0.512" x2="-0.661" y2="0.431" xlink:href="#b"/><linearGradient id="n" x1="0.575" y1="0.066" x2="0.426" y2="1.518" xlink:href="#b"/><linearGradient id="o" x1="0.152" y1="0.561" x2="2.502" y2="-0.147" xlink:href="#b"/><linearGradient id="p" x1="0.529" y1="0.474" x2="0.323" y2="1.427" xlink:href="#b"/><linearGradient id="q" x1="5.343" y1="1.595" x2="-0.904" y2="0.108" xlink:href="#b"/><linearGradient id="r" x1="0.485" y1="0.899" x2="0.424" y2="1.54" xlink:href="#b"/><linearGradient id="s" x1="0.79" y1="-0.154" x2="0.381" y2="0.645" xlink:href="#b"/><linearGradient id="t" x1="0.36" y1="-1.708" x2="0.616" y2="1.751" xlink:href="#b"/><linearGradient id="u" x1="0.503" y1="0.42" x2="0.54" y2="2.112" xlink:href="#b"/><linearGradient id="v" x1="0.499" y1="0.427" x2="0.6" y2="2.206" xlink:href="#b"/><linearGradient id="w" x1="0.514" y1="0.605" x2="0.428" y2="2.223" xlink:href="#b"/><linearGradient id="x" x1="0.906" y1="0.667" x2="1.321" y2="0.862" xlink:href="#b"/><linearGradient id="y" x1="0.768" y1="0.789" x2="0.382" y2="0.373" xlink:href="#b"/><radialGradient id="z" cy="0.5" r="0.748" gradientTransform="translate(0.232) scale(0.536 1)" xlink:href="#a"/><linearGradient id="aa" x1="1.303" y1="0.006" x2="0.208" y2="0.68" xlink:href="#b"/><linearGradient id="ab" x1="0.623" y1="0.501" x2="-1.345" y2="1.211" xlink:href="#b"/></defs><g transform="translate(-72 -331.402)"><g transform="translate(72 521.124)"><g transform="translate(0 0)"><path d="M377.445,908.885a3.684,3.684,0,0,0-3.684,3.684v15.215c0,.009,0,.017,0,.027v2.209a13.712,13.712,0,0,1-27.423-.055v-17.4a3.684,3.684,0,1,0-7.368,0v17.4a21.064,21.064,0,0,0,34.768,16.012,13.71,13.71,0,0,1-13.688,12.944h-22.9A12.379,12.379,0,0,0,324.761,971.3v.02a.789.789,0,0,0,1.419.453,13.7,13.7,0,0,1,10.965-5.486h22.9a21.079,21.079,0,0,0,21.079-21.079V930.02c0-.018,0-.036,0-.055v-17.4A3.684,3.684,0,0,0,377.445,908.885Z" transform="translate(-241.721 -908.885)" fill="#fff"/><path d="M235.077,908.884a21.08,21.08,0,1,0,21.08,21.08A21.1,21.1,0,0,0,235.077,908.884Zm0,34.792a13.712,13.712,0,1,1,13.712-13.712A13.728,13.728,0,0,1,235.077,943.676Z" transform="translate(-167.346 -908.884)" fill="#fff"/><path d="M109.981,935.522a3.684,3.684,0,0,0-5.038,1.33,13.712,13.712,0,1,1,0-13.769,3.684,3.684,0,1,0,6.367-3.708,21.08,21.08,0,1,0,0,21.185A3.685,3.685,0,0,0,109.981,935.522Z" transform="translate(-72 -908.886)" fill="#fff"/><path d="M543.08,908.884a21.08,21.08,0,1,0,21.08,21.08A21.1,21.1,0,0,0,543.08,908.884Zm0,34.792a13.712,13.712,0,1,1,13.712-13.712A13.727,13.727,0,0,1,543.08,943.676Z" transform="translate(-374.16 -908.884)" fill="#fff"/><path d="M703.307,908.884H668.514a3.684,3.684,0,0,0,0,7.368h13.712V947.36a3.684,3.684,0,1,0,7.368,0V916.252h13.712a3.684,3.684,0,0,0,0-7.368Z" transform="translate(-470.066 -908.884)" fill="#fff"/><path d="M829.827,932.573h16.32a3.684,3.684,0,1,0,0-7.368h-16.32a22.064,22.064,0,0,0-14.788,5.675v-.915a13.728,13.728,0,0,1,13.712-13.712h17.4a3.684,3.684,0,1,0,0-7.368h-17.4a21.1,21.1,0,0,0-21.08,21.08v17.4a3.684,3.684,0,0,0,3.684,3.684h34.792a3.684,3.684,0,1,0,0-7.368H815.5A14.815,14.815,0,0,1,829.827,932.573Z" transform="translate(-565.978 -908.885)" fill="#fff"/></g></g><g transform="translate(129.605 331.402)"><path d="M415.983,415.723a84.067,84.067,0,0,1-19.424,53.837L374.784,456.2,335.242,431.94l9.845-11.594,31.529,1.852,8.849-8.019,1.951-1.769v-5.063l-6.643-3.853-24.75-14.373-7.592-16.876,4.051-31.9-15.358,11.817-8.27,10.8,1.18-26.5-38.477,31.389V399.92L278.73,422.875l3.769,13.486L270.8,453.59l6.685,26.745a84.321,84.321,0,1,1,138.5-64.612Z" transform="translate(-247.341 -331.402)" fill="url(#a)"/><path d="M420.405,346.815l-15.693,24.469-2.4,16.1-13.3,11.07-7.087,11.812V378.2Z" transform="translate(-337.712 -341.751)" fill="url(#b)"/><path d="M462.065,346.815l-1.179,26.5-16.914,14.076,2.4-16.1Z" transform="translate(-379.372 -341.751)" fill="url(#c)"/><path d="M519.083,358.626l-4.052,31.9-19.577-9.282,8.27-10.8Z" transform="translate(-413.941 -349.682)" fill="url(#d)"/><path d="M490.322,478.682l-8.849,8.019-56.539-15.019L403.5,452.612l13.3-11.07,16.914-14.076,21.608,22.928.5.529,5.063,2.7L485.632,468l1.073,6.893Z" transform="translate(-352.198 -395.906)" fill="url(#e)"/><path d="M522.624,453.624l-5.063-2.7-22.107-23.457,19.577,9.282Z" transform="translate(-413.941 -395.906)" fill="url(#f)"/><path d="M660.133,554.687v5.063l-1.952,1.769-3.618-3.793-1.073-6.893Z" transform="translate(-520.057 -478.743)" fill="url(#g)"/><path d="M393.028,601.091l-9.845,11.594-.005,0,0,.009-17.323,20.4-30.081,35.423a84.313,84.313,0,0,1-10.348-7.432l-3.7-14.8-2.987-11.946,11.7-17.229,2.644,9.464,51.3-25.99Z" transform="translate(-295.282 -512.147)" fill="url(#h)"/><path d="M417.987,637.438,409.98,671.03l-8.012,33.6a83.8,83.8,0,0,1-16.154-4.063q-2.752-.994-5.413-2.171a83.706,83.706,0,0,1-9.817-5.132l30.081-35.422,3.076-3.624Z" transform="translate(-330.094 -536.895)" fill="url(#i)"/><path d="M559.832,675.043a85.071,85.071,0,0,1-7.444,7.879,84.159,84.159,0,0,1-35.432,19.7q-2.681.723-5.434,1.275h0L490.5,671.019l8.007-33.59.007-.007Z" transform="translate(-410.614 -536.884)" fill="url(#j)"/><path d="M514.881,637.417l-.008,0,0-.008Z" transform="translate(-426.98 -536.878)" fill="url(#k)"/><path d="M495.146,772.559a85.171,85.171,0,0,1-29.034.719l8.012-33.6Z" transform="translate(-394.238 -605.549)" fill="url(#l)"/><line x1="0.498" y1="0.529" transform="translate(103.122 54.488)" fill="none"/><path d="M578.159,507.086" transform="translate(-469.474 -449.368)" fill="#fff"/><path d="M362.8,504.006l-13.5,57.718-2.644-9.465-3.77-13.486,12.828-22.955Z" transform="translate(-311.494 -447.3)" fill="url(#m)"/><path d="M453.879,538.1l-31.53-1.853-8.639-.51-51.3,25.991,13.5-57.718,21.433,19.071Z" transform="translate(-324.604 -447.3)" fill="url(#n)"/><path d="M653.494,550.83" transform="translate(-520.059 -478.741)" fill="#fff"/><path d="M660.133,554.687v5.063l-1.952,1.769-3.618-3.793-1.073-6.893Z" transform="translate(-520.057 -478.743)" fill="url(#o)"/><path d="M414.76,475.473l-5.009,8.05,16.093,17.007,55.629,18.407-56.539-15.019L403.5,484.847Z" transform="translate(-352.198 -428.141)" fill="url(#p)"/><path d="M543.314,364.707l3.718-1.12.135,26.936,4.052-31.9Z" transform="translate(-446.077 -349.682)" fill="url(#q)"/><path d="M498.919,467.2l-5.973,5.826,4.209,4.9,12.727.347,5.321,1.015Z" transform="translate(-412.257 -422.585)" fill="url(#r)"/><path d="M576.214,675.043a84.636,84.636,0,0,1-7.444,7.879l-53.873-45.5Z" transform="translate(-426.997 -536.884)" fill="url(#s)"/><path d="M371.956,699.529l-30.081,35.423a84.313,84.313,0,0,1-10.348-7.432l-3.7-14.8,7.791,14.8Z" transform="translate(-301.386 -578.587)" fill="url(#t)"/><path d="M416.946,601.091l-3.032,3.572-6.813,8.022-12.544,14.766,6.687-14.769-46.106,20.279-.78-15.855L357,626.571l51.3-25.989Z" transform="translate(-319.199 -512.147)" fill="url(#u)"/><path d="M400.664,699.534,380.4,740.087a83.688,83.688,0,0,1-9.817-5.132Z" transform="translate(-330.094 -578.59)" fill="url(#v)"/><path d="M469.669,538.1,429.5,535.734l-23.4-4.626-13.988-8.488-6.194,6.077,5.776-24.692,21.433,19.071Z" transform="translate(-340.393 -447.3)" fill="url(#w)"/><path d="M423.8,688.5,405.877,734.85q-2.752-.995-5.413-2.171l20.264-40.553Z" transform="translate(-350.158 -571.183)" fill="url(#x)"/><path d="M420.4,346.815l-15.693,24.469-22.784,6.92Z" transform="translate(-337.712 -341.751)" fill="url(#y)"/><path d="M516.76,482.381l-11.688-.874-1.905-3.332,2.54-3.083Z" transform="translate(-419.12 -427.885)" fill="url(#z)"/><path d="M625.181,534.394l1.073,6.893,3.618,3.793-3.075-1.905-1.971-1.221-1.564-6.619-11.932-8.984Z" transform="translate(-491.747 -462.304)" fill="url(#aa)"/><path d="M516.956,702.619q-2.681.723-5.434,1.275L490.5,671.019l8.014-33.6Z" transform="translate(-410.614 -536.884)" fill="url(#ab)"/></g></g></svg>