<svg height="63.139" viewBox="0 0 292.702 63.139" width="292.702" xmlns="http://www.w3.org/2000/svg" xmlns:xlink="http://www.w3.org/1999/xlink"><linearGradient id="a" gradientUnits="objectBoundingBox" x1="-.311" x2="1.382" y1=".685" y2=".397"><stop offset="0"/><stop offset=".055" stop-color="#290007"/><stop offset=".147" stop-color="#690012"/><stop offset=".236" stop-color="#9f001b"/><stop offset=".318" stop-color="#c80022"/><stop offset=".392" stop-color="#e60027"/><stop offset=".455" stop-color="#f9002a"/><stop offset=".5" stop-color="#ff002b"/><stop offset="1" stop-color="#f7931e"/></linearGradient><radialGradient id="b" cx=".583" cy=".028" gradientTransform="matrix(.994 0 0 .626 .004 .027)" r="1.58" xlink:href="#a"/><radialGradient id="c" cx=".189" cy=".964" gradientTransform="matrix(2.883 0 0 1.042 -.355 -.042)" gradientUnits="objectBoundingBox" r=".87"><stop offset="0"/><stop offset=".5" stop-color="#ff002b"/><stop offset="1" stop-color="#f7931e"/></radialGradient><radialGradient id="d" cx="1.403" cy=".525" gradientTransform="matrix(3.009 0 0 1.042 -2.817 -.023)" r="1.178" xlink:href="#a"/><radialGradient id="e" cx=".601" cy=".854" gradientTransform="matrix(3.328 0 0 1.042 -1.4 -.037)" gradientUnits="objectBoundingBox" r="1.008"><stop offset="0" stop-color="#f7931e"/><stop offset="1" stop-color="#ff002b"/></radialGradient><radialGradient id="f" cx=".368" cy=".398" gradientTransform="matrix(2.883 0 0 1.042 -.694 -.019)" r=".782" xlink:href="#e"/><radialGradient id="g" cx="1.166" cy="-.015" gradientTransform="matrix(3.927 0 0 1.042 -3.413 -.001)" r=".805" xlink:href="#e"/><radialGradient id="h" cx=".392" cy=".555" gradientTransform="matrix(.785 0 0 1.042 .084 -.025)" r="1.921" xlink:href="#e"/><g fill="#999"><path d="m360.183 560.9h-37.41a1.654 1.654 0 0 0 -1.368.737l-1.1 1.579v.105c0 .053.053.053.105.053h37.41a1.654 1.654 0 0 0 1.368-.737l1.1-1.578v-.053a.113.113 0 0 0 -.105-.106z" transform="translate(-270.63 -537.275)"/><path d="m732.542 570.008h4.893a4.535 4.535 0 0 0 3.946-2.315 4.371 4.371 0 0 0 .631-2.315 4.581 4.581 0 0 0 -4.578-4.578h-37.461a1.654 1.654 0 0 0 -1.368.737l-1.1 1.578v.105c0 .053.053.053.105.053h39.83a2.156 2.156 0 0 1 2.157 2.157 2.169 2.169 0 0 1 -2.21 2.1h-37.361a1.745 1.745 0 0 0 -1.368.684l-1.1 1.578v.105c0 .053.053.053.105.053h30.617l9.681 6.735h4a.184.184 0 0 0 .105-.053c0-.053 0-.105-.053-.105z" transform="translate(-449.363 -537.228)"/><path d="m452.4 560.9h-3.63l-17.47 14.206-17.464-14.206h-3.63a.113.113 0 0 0 -.105.105v15.68a.113.113 0 0 0 .105.105h2.262a.113.113 0 0 0 .105-.105v-13.685l16.942 13.733h3.63l16.89-13.733v13.68a.113.113 0 0 0 .105.105h2.26a.113.113 0 0 0 .105-.105v-15.68a.113.113 0 0 0 -.105-.1z" transform="translate(-313.181 -537.275)"/><path d="m549.166 565.478a4.581 4.581 0 0 0 -4.578-4.578h-37.462a1.745 1.745 0 0 0 -1.368.684l-1.1 1.578v.105c0 .053.053.053.105.053h39.83a2.157 2.157 0 0 1 0 4.314h-39.888a.113.113 0 0 0 -.105.105v8.945a.113.113 0 0 0 .105.105h39.883a4.58 4.58 0 0 0 3.1-7.945 4.838 4.838 0 0 0 1.478-3.366zm-2.473 6.735a2.167 2.167 0 0 1 -2.157 2.157h-37.516v-4.315h37.515a2.134 2.134 0 0 1 2.158 2.157z" transform="translate(-357.959 -537.275)"/><path d="m356.959 581.024a1.8 1.8 0 0 0 -1.368-.737h-34.253l-3-4.315h28.833a1.654 1.654 0 0 0 1.368-.737l1.1-1.578v-.105c0-.053-.053-.053-.105-.053h-32.247a1.627 1.627 0 0 0 -1.473.894 1.5 1.5 0 0 0 .105 1.684l4.051 5.84a1.8 1.8 0 0 0 1.368.737h36.515c.053 0 .053 0 .105-.053v-.101z" transform="translate(-268.406 -543.246)"/><path d="m647.583 560.9h-37.41a1.654 1.654 0 0 0 -1.368.737l-1.1 1.579v.105c0 .053.053.053.105.053h37.41a1.654 1.654 0 0 0 1.368-.737l1.1-1.578v-.053a.113.113 0 0 0 -.105-.106z" transform="translate(-406.812 -537.275)"/><path d="m644.306 581.024a1.8 1.8 0 0 0 -1.368-.737h-34.253l-3-4.315h28.886a1.654 1.654 0 0 0 1.368-.737l1.1-1.578v-.105c0-.053-.053-.053-.105-.053h-32.247a1.627 1.627 0 0 0 -1.473.894 1.5 1.5 0 0 0 .105 1.684l4.051 5.84a1.8 1.8 0 0 0 1.368.737h36.516c.053 0 .053 0 .105-.053v-.101z" transform="translate(-404.588 -543.246)"/></g><path d="m259.681 516-10.681 38.988 19.363 9z" fill="url(#a)" transform="translate(-236.846 -516)"/><path d="m244.546 590.1-4.946 24.151 17.1-13.417 7.208-1.736z" fill="url(#b)" transform="translate(-232.392 -551.112)"/><path d="m246.441 554.988-2.841-12.417 13.522-26.571z" fill="url(#c)" transform="translate(-234.287 -516)"/><path d="m238.054 578.917-2.841-12.417-9.313 6.261 7.208 30.307z" fill="url(#d)" transform="translate(-225.9 -539.929)"/><path d="m264.135 516 8.682 47.986-14.417-6.686 9.892.789z" fill="url(#e)" transform="translate(-241.3 -516)"/><path d="m246.441 554.988-2.841-12.417 13.522-26.571-11.681 26.571z" fill="url(#f)" transform="translate(-234.287 -516)"/><path d="m235.213 566.5-1.842 4.63-4.371 3.789 4.1 28.15-7.2-30.308z" fill="url(#g)" transform="translate(-225.9 -539.929)"/><path d="m256.279 611.1-13.891 8.155-.947-4.051-1.842 9z" fill="url(#h)" transform="translate(-232.392 -561.062)"/></svg>