<svg enable-background="new 0 0 400 344.9" viewBox="0 0 400 344.9" xmlns="http://www.w3.org/2000/svg"><path d="m376 88.3c-1-.6-2.1-1.1-3-1.8-.8-.4 0-.7-2.1-1.2l-1.5.9c-2.1 1-4.6 0-6.6-1.6-2.1-1.5-4-3.6-6.7-5-1.3-.7-3.1-1.1-4.7-.5-.6.1-1 .5-1.5.8-.2-.4-.6-.8-.5-1-.6-1.4-1.4-2.7-2-4.1-.3-.7-.6-1.4-.8-2.1l-.3-1.1-.1-.3c-.6-.1 1.4.1-1.4-.2v.1l-.1.1-.3.5c-.7 1.3-1.8 2.5-2.6 4-.3.4-.4.8-.6 1.2l-.1-.1c-.9-1.4-1.8-2.8-2.8-4.2l-1.4-2-.2-.3-.1-.1c-2.8 0-.8.1-1.5.1l-.3.5c-.2.3-.4.6-.7.9-2.1 2.5-5.1 4.3-7.3 7.4-2.1 3.2-2.5 7-3.9 10.1-1.3 3.1-4.3 5.5-7 7.8-2.9 2.2-6.1 4.4-9.6 5.3-.8.2-1.7.3-2.3.1-3 .9-1.6 1.8-2.7 2.7-.9 1.8-1.6 3.7-2.3 5.5l-.9 2.7-.7-.4c-1.7-1-3.5-1.9-5.1-3-3.4-2.1-6.7-4.5-9.9-7.1-6.4-5.1-12.4-11.1-17.2-18.1l-.2-.3-.1-.1c1.3.2-1.8-.3-1.5-.2l-.2.1-.6.6-1.2 1.1-2.3 2.3c-1.5 1.5-3.1 3.1-4.7 4.5-3.2 2.9-6.7 5.2-11 6-2.1.5-4.4.9-6.6 1.7-1.1.3-2.2.9-3.2 1.4l-1.1.7c-.3-.5-.5-.9-.6-1.2.2 0 .1 0 0 0l-.1-.6c.4.1-3.5-1.1-1.9-.6l-.1.1-.1.2-.2.4c-.6 1-1.2 2-1.7 3-1 2.1-1.8 4.3-2.5 6.5l-.5 1.7-.1.3c-.9-.2-1.7-.4-2.5-.8-2-.8-3.8-1.9-5.4-3.4-5.4-.9-8.6-1.1-12.5-3.7-.9-.5-1.8-1.1-2.6-1.8-.4-.3-.7-.7-1.1-1-1.9-1.2-1.4-.4-2.2-.7-2-.1-3.8-1.2-5.6-2.3-.9-.6-1.7-1.3-2.6-1.9l-.2-.1c1.2-.1-1.7 0-1.4.1l-.1.1-.3.3-.6.6-1.2 1.1c-1.5 1.5-3.1 3-4.7 4.2-3.2 2.6-7.1 4.5-11 5.2-4 .6-8.3.1-12.6 1.5-1.1.2-2 1-3 1.5l-1.2 1.1c-1.4-1.5-3.2-2.6-5.1-3.3-4.1-1.4-8.2-1.3-12-1.8-7.5-.8-14.1-6.1-21.6-7.5-3.6-1.2-7.5-1.5-10.4-3.1-2.9-1.3-6.5-4.7-10.5-3-9.4 11.6-23.1 12.9-34.5 16.1-22.7 7.6-40.9 14-53.9 17.2-2.2.6-4.1 1.1-6 1.5v216.2h400v-248.5c-.3-.1-.6-.2-.9-.4-6-2.8-14.4-4-23-7.5z" fill="#fbbb92"/></svg>