<svg enable-background="new 0 0 400 344.9" viewBox="0 0 400 344.9" xmlns="http://www.w3.org/2000/svg"><path d="m333.7 150.7c-13.7 4.3-27.7 9.3-37.7 19.3-2.8.2-5.6.4-8.4.5-7.2 1.1-15.8-.3-23 2.3-2.4.9-4.7 2.2-6.7 4.2-15 2-31 0-46 2-1 3-1 6-3 8-15-12-33-19-50.8-24.5-2.1-.7-4.2-1.5-6.2-2.5-2-2-4-3.8-6.1-5.2-2.8-1.8-6.8-3.8-9.8-5.8-6-2.2-12.6-2.8-18.8-3.4-2.1-.2-4.2-.4-6.2-.6-5 0-10 2-15 1-13-2-25-7-38-8-18-2-35 3-51.8 1-2.5-.5-4.6-1.1-6.2-1.6v207.1h400v-237.4c-5.8 2.1-12.2 5.4-18.8 9.8-2.2 1.5-4.4 3.1-6.7 4.8-2.3 1.2-4.4 2.5-6.6 3.9-2.1 1.4-4.2 2.9-6.2 4.4-7.7 6-15.7 11-23.1 17.7-1.6 1-3.2 2-4.9 3z" fill="#f9917a"/></svg>