<svg enable-background="new 0 0 400 344.9" viewBox="0 0 400 344.9" xmlns="http://www.w3.org/2000/svg"><path d="m400 344.4v-87.8c-.1-.1-.2-.1-.3-.2.1-.4.2-.6.3-.8v-.1c0 .1 0 .1 0 0v-.4l-.1-.1c-.5-.3-1-.7-1.7-1-.4-.2-.9-.3-1.4-.3 0-.3.1-.7.1-1 0-1.7-.4-3.1-1-3.1-.3 0-.5.3-.7.9-.3-.9-.7-1.5-1.1-1.4-.5.1-.7 1.2-.6 2.6h-.1c-.1-1.5-.5-2.6-1-2.6-.6 0-1 1.4-1 3.1 0 .2 0 .3.1.4 0 .1 0 .2-.1.2s-.3-.1-.5-.2c.2.1.2 0 0 0-.1-.1-.3-.1-.4-.2 0-.1 0-.2 0-.3.3-1.3.3-2.7-.2-2.8-.4-.1-1.1.6-1.5 1.7-.1-1.4-.6-2.5-1.2-2.5-.4 0-.7.6-.8 1.6-.1-.8-.4-1.3-.7-1.3-.2 0-.4.2-.6.5-.4-.9-.8-1.6-1.2-1.5-.5 0-.7 1-.5 2.3-.2.1-.4.2-.5.5-.1 0-.1 0 0 0-.2-.1-.3-.1-.4-.1-.1-1.7.2-3-.3-3.2-.2-.1-.6.2-1 .9-.1 0-.1-.1-.2-.1-.4 0-.6.7-.8 1.7-.2 0-.3-.1-.2-.1l-.2.2v.1s-.1 0-.3 0c.2-.6.4-1.1.1-1.4-.1-.1-.5-.1-.8.1v-.1c-.2-.2-.9.1-1.4.8-.1-1.2-.5-2.1-1-2.1s-.9.9-1 2c-.1-.1-.1-.1-.2-.2s-.2-.1-.2-.1c.1-.6.2-1-.1-1.2-.3-.3-1.4.4-2 1.7-.4-.7-1-1-1.3-.9-.2.1-.3.3-.3.7-.2-.3-.4-.4-.6-.4-.1 0-.2.1-.4.2-.4-.7-1-1-1.3-1-.1-.3-.2-.4-.4-.5-.3-.1-.9.4-1.2 1.2-.1 0-.2.1-.3.1-.1-1.1 0-1.8-.2-2.1-.1-.1-.3-.1-.6.1-.2-1-.6-1.7-.9-1.7-.4 0-.7 1.3-.8 3-.6-.1-1.1-.1-.4 0v.1l-.1.2-.1.3s0 .1-.1.1c-.3-1.1-.7-1.8-1.2-1.8-.3 0-.5.3-.6.8-.1-1-.2-1.8-.6-1.9-.3-.1-.8.5-1.1 1.4-.1-.2-.3-.3-.4-.3-.3 0-.6.5-.8 1.2-.1-.2-.2-.3-.4-.4-.3-.1-.9.4-1.2 1.3.1-1.2.1-2.2-.3-2.3-.1-.2-.1-.4-.3-.5-.3-.3-1.6 1-1.5 2.9-.1 0-.2.1-.4.2 0-.1 0-.1 0-.2.1-.8.2-1.3-.1-1.6-.1-.1-.3-.1-.5 0-.1-.2-.3-.3-.4-.3-.3 0-.6.6-.8 1.5-.1.2-.2.4-.3.6h-.2l-.1-.3c.9-.1.2 0-.6 0 0-1 0-1.7-.4-1.9s-1.4.9-1.6 2.6h-.1-.3c-.1-.3 0-.3 0 0h-.2c.4-1.8.3-3.3-.3-3.5-.4-.1-1 .8-1.4 2.2-.1-.7-.3-1.1-.6-1.2-.4 0-.8.6-1.1 1.7 0 0-.1-.1-.1-.1-.1-.1-.4-.1-.8.2-.3-.6-.7-1-1-1s-.5.4-.6 1c-.3.2-.5.6-.8 1v-.1c-.2-1.5-.6-2.5-1-2.4-.3 0-.5.6-.7 1.5l-.5-1.3-.3-.8-.1-.4v-.1c.7 0 .4 0-.1 0-.1-.7-.3-1.1-.6-1.2s-.8.5-1 1.3c-.2 0-.3 0-.2 0v.1.2c-.4 0-.6 0 0 0l-.1 1.3s-.1-.1-.1-.1c-.1 0-.1 0-.2 0v-.1c.1-2.5.7-4.6.2-4.8-.3-.2-1.3.9-1.8 2.6-.3-.2-1.3.9-1.7 2.6-.3-.1-1 .8-1.4 2.2-.5.3-1.1 1.2-1.3 2.5v.5s-.1 0-.2 0v-.1c.2 0-.5 0-1.1-.1 0-1.2 0-2-.5-2.2-.4-.2-1.1.7-1.4 2-.1-.9-.5-1.5-1-1.5-.6 0-1 .9-1 2.1-.2-1-.6-1.7-1.1-1.6-.4.1-.7.7-.8 1.5-.7-.1-1.1-.1-1.2-.1 0 0 0 0-.1-.1-.1 0-.1 0-.2 0-.2-.3-.5-.5-.7-.5-.4.1-.7.8-.8 1.7-.8 0-1.5 0-.6 0v.1.5c0 .3-.1.6-.1.9h-.1c0-.1 0-.1 0-.2-.1-.3-.1-.5-.1-.8v-.4-.2-.1c.7 0 .4 0-.1 0 .1-1.6 0-2.9-.5-3-.3-.1-.8.7-1.2 1.8-.4-.1-1 .8-1.5 2.1v-.1-.7-.4-.1c.1 0 .2 0 0 0-.3 0-.5-.1-.7-.1-.1-.1-.2-.2-.3-.2s-.3 0-.4.1c-.9-.1.4 0-.2 0v.1.1c-.4.4-.7 1.2-.9 2.2v.5h-.1c0-1.3-.4-2.3-1-2.3-.4 0-.8.6-1 1.4-.1 0-.1 0-.2 0-.3-.5-.6-.8-1-.7-.1 0-.2.1-.3.2v-.1h-.1c-.2-.5-.5-.9-.8-.9-.4 0-.7.5-.9 1.3 0-.9-.3-1.5-.6-1.6-.4-.1-.9.6-1.2 1.5-.1-1.3-.2-2.2-.6-2.3-.2-.1-.6.4-.9 1.1-.1 0-.1 0-.2 0 .2-1.4.3-2.6-.1-2.7s-1.5 1.1-2 3.2c-.6-.1-1-.2-.3-.1v.1l-.1.2-.2.3c-.1.2-.2.4-.2.6v.2c-.1 0-.1 0-.2.1 0-1.1-.4-2-.9-2s-.9.7-1 1.6c-.1 0-.2 0-.2 0 .1-.6.1-1.3.2-2v-.2-.1c.8.1.3 0-.5-.1-.1-.5-.3-.9-.5-1-.3-.1-.7.3-1.1 1-.3 0-.4 0 0 0-.1.2-.2.5-.3.8-.2-.3-.4-.6-.7-.6s-.6.3-.8.7c-.2 0-.4 0-.6 0 .1-.7.1-1.5-.4-1.7-.3-.2-.9.1-1.3.8-.2-.7-.5-1.1-.8-1.1-.5 0-1 1.2-1 2.7-.1-.5-.2-.8-.5-.9-.2-.1-.5.1-.8.5-.2-.9-.6-1.5-1-1.5-.2 0-.3.1-.5.4-.2 0-.4 0-.5 0 .1-.9.1-1.5-.2-1.7-.1 0-.1 0-.2 0-.1-1.3-.4-2.1-.7-2.1-.4 0-.9 1.6-1.1 3.9-.7-.2-1.1-.3-.4-.1v.1l-.1.4c-.4 1-.5 2.1-.3 3.2 0 .3.2.6.2.9l.2.4v.1c-.2 0-.3 0-.5 0-.1-.5-.5-.9-1-.9-.3 0-.5.2-.7.4-.1 0-.2 0-.4 0 .2-1.2.4-2.3-.1-2.5-.3-.1-1 .3-1.5 1.2.2-1.2.1-2.1-.3-2.2s-.9.4-1.3 1.4c-.1-.5-.2-.8-.5-.8-.1 0-.2 0-.3.1-.1-1.1-.5-1.9-.9-1.9-.2 0-.5.3-.7.7-.2-.6-.5-1-.8-1-.2 0-.4.2-.5.6-.1-.3-.2-.5-.4-.6h-.1c-.1-.7-.2-1.2-.5-1.3-.3 0-.7.5-1 1.4-.1.3-.2.7-.3 1.1h-.2c0-.2-.1-.4-.1-.6-.5-2.5-.7-4.6-1.3-4.7-.5-.1-1.2 2.2-.6 5 0 .1.1.2.1.3-.1-.1-.2-.2-.4-.2-.4 0-.7.9-.7 2.1-.2-.5-.5-.8-.8-.8s-.5.2-.7.6c-.2-.2-.3-.3-.5-.3h-.1c-.3-2.4.1-4.4-.5-4.6-.2-.1-.7.4-1.1 1.4-.2-2.8-.8-5-1.3-5-.6 0-.9 2.5-.7 5.5v.4c-.5 0-.8.1-.1 0v.1c-.8-.1-1.6-.1-.7 0v.1.2.4c0 .5-.1 1-.1 1.5h-.1l-.1.2c-.1.2-.2.3-.2.5h-.1c0-.1-.1-.2-.1-.4v-.2s0 0-.1 0c0 0 .5 0-.2-.1-.1-.5-.4-1-.8-1.1-.2-.1-.5.1-.7.3-.1-.4-.2-.7-.5-.8-.4-.1-1 .5-1.4 1.5 0-.1 0-.2 0-.3 0-1.6-.4-3-1-3-.3 0-.6.5-.8 1.2-.2-.4-.4-.7-.7-.7-.2 0-.5.2-.6.6-.2-.2-.3-.4-.6-.4s-.5.2-.7.6c0 0 0 0-.1 0-.1-.1-.1-.2-.2-.2v-.1c.1 0 .3.1 0 0v-.1c-.1 0-.2 0-.3-.1s-.2-.1-.3-.1h-.1c0-1-.1-1.7-.5-1.8-.1 0-.1 0-.2 0-.1-.3-.2-.5-.4-.5-.4-.1-.8.8-1.1 2.1-.6-.1-1-.1-.9-.1l-.2.4v.1c-.1 0-.1 0-.2 0 .2-1.7.1-2.8-.3-2.9-.5-.2-1.6 1.9-1.9 4.5 0 .2 0 .3-.1.5-.4.1-.9.2-1.3.4-.8-.1-.8.2-.8.5-.3.2-.5.4-.8.6-.3.1-.5.2-.8.3l.1-.7v-.2c-.5-.2 1.2.2-1.2-.4l-.1.1c-.1 0-.1 0 0 0l-.2.3c-.2.3-.3.6-.5.9 0 0 0-.1-.1-.1v-.2-.1c-.6-.2 1.4.5-1.4-.5v.1l-.1.1c-.2-.1-.1 0 0 0l-.7 1.1c-.3-.4-.4-.5 0 0l-.1.2c-.2 0-.7-.1-1.7-.3-.3-.1-.1 0 0 0l-.1.1-.1.2-.2.4c-.7-.2-1.8-.5-1.6-.4v.1c-.4-.1-.6-.2 0 0l-.1.2-.3.5s0 .1-.1.1c-.3 0-.5 0-.7 0-.7 0-1.3 0-.5 0v.1l-.1.5c-.1.2-.2.5-.3.7-.3-.1-.6-.1-.8-.2 0-.8-.2-1.4-.7-1.5-.2 0-.4.1-.6.3-.3-.1-.8.2-1.2.7-.3-.5-.6-.8-.9-.7-.3 0-.5.3-.6.7 0-.4-.1-.7-.3-.7-.3-.1-.9.3-1.3 1.2 0-.1-.1-.1-.2-.1-.3-.1-1 .8-1.5 2.1-.2 0-.3 0-.6 0v.1c-.1 0-.2 0-.3 0-.1-1.8-.5-3.2-.9-3.2s-.8 1.2-1 2.9c-.3-.1-.4-.1 0 0v.5l-.2.7-.1.3c-1.2 0-1 0-.8 0v.1.1l-.1.5c0 .3 0 .5-.1.8-.1 0-.1 0-.2 0-.4 0-.8-.1-.6-.1v.1c-.4 0-.5 0 0 0-.2 0-.4.1-.6.1-.1 0-.2-.1-.3-.1-.1-.3-.3-.6-.5-.7.1-.1 0-.1-.6-.1-.1-.7-.3-1.1-.6-1.2-.5-.2-1.2 1.2-1.5 2.9v.1c-.4.1-.8.3-1.1.5 0-2-.1-3.7-.6-3.8s-1.3 1.6-1.4 3.7c0 .1-.1.2-.1.3-.2.1-.4.1-.6.2 0-.1 0-.2.1-.3l.1-.9v-.3c.5 0 .3 0 0 0v-.1c.1 0-.4-.1-.9-.1-.1-.8-.4-1.3-.7-1.3h-.1c-.1-.4-.3-.7-.5-.8-.5-.1-1.2 1-1.5 2.5-.1-.1-.2-.1-.3-.1s-.2 0-.2 0c-.1 0-.1 0-.2 0 0-.3.1-.6 0-1 .3-1.1 0-2.2-.5-2.3-.3-.1-.6.1-.8.6 0 0 0 0-.1 0-.3-.1-.9.7-1.4 2-.1-1.4-.2-2.3-.7-2.5-.3-.1-.6.3-.9 1-.1-3.3 0-5.8-.6-5.9-.4-.1-1.1 1.8-1.3 4.4-.1.2-.2.5-.3.9-.1.1-.2.2-.4.4-.6 0-.8.1-.1 0v.1c-.4.6-.8 1.5-1.1 2.6-.4.3-.7 1-.9 2-.1-1-.4-1.6-.8-1.6-.2 0-.4.3-.6.7-.1-.4-.3-.7-.6-.7-.1-.1-.2-.2-.3-.3-.5-.1-1.3 1.1-1.4 2.9 0 .1-.1.2-.1.2-.5-.1-1.1-.1-1.6-.2.2 0-.3 0-.8 0-.2 0-.5 0-.7 0l.1-.1c.1 0-.2 0-.7 0-.2-.4-.4-.7-.7-.7-.2 0-.5.2-.6.5-.1-.2-.3-.3-.4-.4-.1-.3-.2-.5-.4-.6s-.4 0-.6.1c-.2-1.1-.5-1.9-.9-1.9-.2 0-.5.3-.7.8-.2-.3-.4-.5-.5-.5-.3 0-.5.4-.7 1.1-.2-.1-.4-.1-.5-.1v-.1l.1-.6.1-.3v-.1c-.7 0 1.3 0-.9 0v-.3-.2-.1c.7.1.3.1-.3-.1.1-1.2 0-2-.3-2.1-.5-.1-1.5 1.9-2 4.4 0 .2-.1.5-.1.7-.1 0-.2 0-.3.1-.7 0 1.6 0-1.6 0v.1c-.5 0-1 .1-1.5.2-.1-.2-.1-.3-.1-.2h-.1-.1c-.2-.4-.2-.6 0 0h-.1-.1c-.1 0-.2.1-.3.1-2.3-.5-.5-.1-1.1-.2v.1l-.1.3c-.2 0-.4-.1-.6-.1.2-.1.6-.2-1.1-.2v.2c-.7 0-1.3-.1-2 0-.5 0-1 .1-1.4.1h-.1v-.1-.1c-.6-.1 1.2.2-.9-.2l-.1-.2v-.1c.2 0-.8 0-1.5-.1-.3-.6-.8-1-1.1-.9-.1 0-.3.2-.3.4-.1-.6-.3-1.1-.5-1.1-.3-.1-.7.5-1 1.4 0 0-.1 0-.2-.1-.1-.9-.5-1.5-.9-1.6s-.8.6-1 1.6c-.4-.1-.9-.1-1.1-.2-.1-.2-.3-.6-.7-.5-.1-.1-.3-.2-.5-.2-.4 0-.8.4-.9 1-.1 0-.2 0-.3 0-.3 0-.6 0-.9 0l-.1-.1v-.1c1.1-.2-.3 0-1.2.2l-.1-.7v-.2c1.2 0-.3 0-1.3 0l-.2-.5-.1-.1c.6-.1.4 0 0 0-.1-.6-.2-1-.6-1.1-.3-.1-.8.2-1.1.9-.2 0-.4 0-.6 0-1.2 0-1 0-.8 0v.1c-.1.4-.1.7-.2 1.1-.1 0-.2 0-.3 0-.3 0-.6 0-1 0-.3 0-.1 0 0 0v.1h-.1c.1 0-.1 0-.3.1-1-.1-2-.2-3-.3-.1-.1-.2-.1-.3-.2-.8 0-1.2.1-1.5.1-.2 0-.4 0-.6 0l-.1-.3v-.1c.7 0 .5 0 0 0 .2 0-.3 0-.9 0s-1.2 0-1.2 0c-.5 0-.7 0 0 0v.1.1c-.1-.1-.1-.1-.2-.2.2 0-.5.1-1.2.2-.2 0-.5 0-.7 0 0-.1 0-.2-.1-.3 0-.3-.2-.7-.4-.9 0 0 0 0 0-.1h-.1c-.2-.1-.4-.2-.6-.2s-.4.1-.5.2c0 0 0 0-.1 0-.2 0-.2.1-.1.2-.1.2-.2.5-.2.8-.2-.4-.4-.6-.7-.7v-.1c-.2 0-.4 0-.6 0-.1-.1-.1-.1-.2-.2-.1-.3-.3-.5-.6-.5-.3-.1-.7.4-.9 1.1-.3-.1-.5-.1-.7-.1.3-1.5.2-2.7-.3-2.8-.4-.1-.9.5-1.3 1.5 0-1.3-.1-2.2-.5-2.3s-1 .9-1.3 2.5c-.3 0-.6-.1-.8-.1.1-1.8 0-3.2-.5-3.4-.4-.1-.9.7-1.2 1.8-1.6-.2.2 0-.5 0v.1.1.4.3c-.1 0-.1 0-.2-.1v-.1c.1-1-.2-1.8-.7-1.8-.3-1.6-1.1-2.7-1.5-2.6-.6.2-.4 1.7-.4 3.6v.2c-.1 0-.1 0-.2 0 0-.1 0-.1 0-.2.1-1.3-.1-2.4-.7-2.5-.4-.1-.8.4-1 1.1-.3-.9-.7-1.4-1-1.4-.3.1-.6.5-.7 1.1-.2.1-.4.3-.5.6-.1-.1-.2-.1-.3-.1-.3 0-.6.3-.8.7-.2-.4-.5-.7-.7-.7-.3 0-.5.2-.7.6-.2-.2-.3-.3-.5-.3-.5 0-.9.6-1 1.4-.1 0-.1 0-.2 0 .1 0 0 0-.1 0-.4-.4-.8-.5-1.1-.4-.1.1-.2.2-.3.4-.3 0-.4 0-.5 0s-.1 0-.1 0c0-.7-.2-1.3-.6-1.4-.5-.2-1.1.7-1.4 1.9-.1 0-.4 0-.9 0-.7-.2-1.3-.3-1.9-.5-.2-.3-.3-.6-.4-.8-.1.1-.3.2-.4.2-.1-.1-.2-.1-.4-.2 0 .1 0 .3.1.4-.1 0-.1.1-.2.1s-.2 0-.3-.1c-.3-.4-.4-1-.3-1.6l.1-.6v-.1c.2 0 .4-.1-.7-.3.1-1-.1-1.8-.6-1.9-.1 0-.3 0-.4.1l-.1-.4v-.2c1.2.1-.7-.1-1.4-.1-.2-.1-.3-.2-.5-.3-.1-.3-.2-.7-.3-1v-.1c.6 0 .5 0 0 0v-.1c.2 0-.4 0-1 .1 0-1.4-.2-2.4-.6-2.5-.3-.1-.7.5-1 1.5v-.4-.3-.1c.2 0 .5 0-.9 0-.3 0-.5 0-.7 0-.1-.7-.3-1.1-.6-1.2-.4-.1-.9.8-1.1 2-.4 0-.5 0 0 0-.1.3-.1.7-.1 1v.4.2.4c-.6 0-1.1 0-1.4 0v-.1c.1 0 .2.1.2 0 .1-.1-.1-.4-.4-1v-.1c0-.1 0-.2.1-.2 0 0-.1 0-.1-.1s.1-.2.1-.3v-.3-.1c-.1 0-.2 0-.3.1v-.1c0-.1-.1-.2-.1-.3.2 0 .1 0 0 0v-.1c0-.1 0-.2 0-.2v-.4c-.1 0-.2 0-.3-.1s-.1-.1-.2-.2c-.1 0-.2 0-.2.1-.1-.9-.3-1.7-.5-2.3.1 0 .1 0 0-.1-.2-.7-.5-1.1-.7-1.1s-.4.5-.5 1.2c-.1-.3-.2-.4-.4-.5-.2 0-.4.2-.7.6-.3-.1-.5-.1-.7-.2 0-.5.1-.9.1-1.4l.1-1.2v-.1c-.3 0-.5-.1-.7-.1-.3-.1-.5-.1-.6-.1-.2 0-.2 0-.1 0-.4.1.1.6-.2.7l.1-1v-.7c.5.1.3 0 0 0v-.2c.1 0 0 0-.1 0-.1-1.4-.4-2.4-.8-2.4-.5 0-1 1.4-1.1 3.3-.2 0-.4 0-.6 0-.2-.7-.4-1.2-.6-1.1-.5 0-.9 1.3-1.1 3.2-.1 0-.2 0-.3-.1 0-.2 0-.5.1-.8l.4-1.6.1-.4.1-.2v-.1c1.1.2-.3-.1-1.2-.2l.1-.4c.6.1.5.1 0 0v-.1c.1 0-.1 0-.3-.1-.1-2-.4-3.6-.9-3.6s-.9 1.4-1 3.2v.9.1c-.6-.1-1.1-.3-.9-.2-.5-.1-.7-.2 0 0v.1l-.1.4c-.1.2-.2.4-.3.6-.1-.1-.2-.1-.3-.2.1-1 .2-1.8.2-2.5 0-.7-.1-1.1-.4-1.2-.2-.1-.6.3-1 .9-.1 0-.3 0-.4 0v-.1c-.1 0-.3-.1-.4-.1-.1-1-.3-1.6-.6-1.7-.1 0-.3.1-.5.4 0-1.7.1-3-.4-3.2-.3-.1-.8.5-1.2 1.4-.3-.6-.6-1-.9-.9h-.1c-.1-.4-.2-.7-.5-.8-.4-.1-.8.3-1.2 1.1 0-.2.1-.5.1-.8 0-1.7-.4-3.1-1-3.1-.1 0-.2.1-.3.2 0-1.1-.2-1.9-.6-2-.3 0-.5.3-.8.9 0-1-.1-1.6-.4-1.7-.5-.1-1.4 2-2 4.6v.2c0-.3 0-.5.1-.8.5-2.7.5-5-.1-5.1-.1 0-.2 0-.3.1.1-2.6-.2-4.5-.6-4.5-.6 0-1 3.2-1.7 7.1-.1.5-.2 1-.2 1.4-.1-.5-.2-.9-.4-1.1 0-.7-.1-1.2-.3-1.2-.5-.1-1.5 1.8-2.2 4.3-.1.2-.1.5-.2.7-.1-.4-.3-.6-.5-.6 0 0-.1 0-.2 0-.1-.9-.4-1.5-.7-1.6-.2 0-.3.1-.5.3 0-.6-.1-1-.4-1.1-.5-.1-1.4 1.5-1.9 3.7 0 0-.1-.1-.1-.1-.3-.1-.7.2-1 .8-.1 0-.3 0-.4-.1l-.1.2-.1.3c.1-1.7-.3-3.1-.8-3.1-.6 0-1.1 1.4-1.2 3.1v.1c-.4-.1-.7-.1-.9-.2 0-.1 0-.2 0-.3v-.1c1 .2.1 0-.8-.2-.1-.1-.2-.2-.4-.2-.1 0-.1 0-.2.1h-.1c0-.2 0-.3-.1-.5v-.1-.1c.8 0 .4 0-.2 0h-2.4c-.1-.1-.1-.1-.2-.2 0 0-.1-.1-.1-.1-.4-.2.2-.6-.5-.8 0-1 0-1.8-.4-1.9-.3-.1-.8.6-1.2 1.7-1.3-.6-.5.3-1 .2-.1.2-.3.4-.5.6 0-.2 0-.4.1-.4v-.4c-.5-.3 1.2.3-1.1-.7l-.2.2s0 0-.1.1v-.1-.5-.3-.1-.1c.6 0 .3 0-.1 0 .1-1.3.2-2.3-.2-2.5-.3-.2-1.2.9-1.6 2.5-.7-.3-1.7-.6-.8-.3v.1c0 .1-.1.1-.1.2-.2-.2-.5-.4-.7-.6 0-.3.1-.6.1-.9l.1-.7.1-.3v-.2c.2 0 .3 0 0 0v-.1c-.3 0-.5 0-.8 0-1.4-2.6-.4-.7-.8-1.3h-.1c-.1 0-.2.1-.4.1-.1-1.9-.3-3.1-.7-3.1s-.7 1.1-1 2.7c-.3-.1-.7-.2-1.2-.3-.3-.1-.2 0 0 0l-.2.6-.2 1c-.9 0-1.7.1-.7 0v.1l-.1.4-.1.8-.2.9c-3.9-.7-1.1-.2-2-.3v.1c-.1 0-.1 0-.2 0 .1 0 0 0-.2 0-.1-.2-.2-.3-.4-.3s-.4.1-.5.3c-.5 0-1 0-.8 0-.5 0-.7 0 0 0v.1.1.3c-.2 0-.4-.1-.6-.1-.2-.3-.4-.5-.7-.5-.2 0-.4.1-.5.3-.1 0-.1 0 0 0-.1.1-.2.3-.3.6 0 0 0 0-.1 0s-.4-.1-.7-.1h-.1c-.1 0-.2 0-.3 0-.2 0-.3 0-.4-.1-.5-.1-.9-.1-.2 0v.2l-.1.6v.2c-.1.2-.2.3-.3.5 0-.1 0-.1 0-.2.3-1.1 0-2.2-.5-2.4s-1.1.6-1.4 1.8c-.3.1-.5.1-.7.1h-.1-.1c-.2-.1-.6-.2-1.1-.3.1-1.4.3-2.4-.2-2.6-.4-.2-1.7 1.1-1.8 3.1 0-.3 0-.7 0-1.1-.4-.2-.6-.2-.7-.2-.1-.2-.3-.4-.5-.6 0-.3 0-.6 0-.9-.3 0-.5 0-.7 0v-.3-.2c-.7 0-1.1 0-1.3 0-.1 0-.3 0-.4 0v-.1c.2.4-.2-1.8-1.3-.8-.1 0-.2-.1-.3-.1.1-.7.2-1.4.2-2.2v-.6-.2c1 0 .1 0-.8 0-.2 0-.5 0-.7 0 0-.8.3-1.5.4-2.3v-.1-.1c-.7-.2 1.1.2-.6-.2.1-1.8-.5-3.1-.9-3-.5.2-.7 1.8-1.2 4.1-.2.9-.2 1.7-.1 2.4-.3 1.1-.9 1.8-1.5 2.4 0-.3 0-.2-.1 0-.1.1-.3.2-.4.3-2.2 0 1.1 0-.4 0l-.1.1-.1.1-.1.2c-.6 0-1.1.1-1 .1l.1.2.1.1c-.2.1-.3.1-.5.2-.3-.1-.7-.1-1.3-.3 0-.3 0-.6 0-.9s0-.5-.1-.7c.3 0 .2 0 0 0-.1-1.1-.5-1.9-1-1.9-.4 0-.7.7-.9 1.6-.1 0-.2 0-.1 0v.1c-.6-.7-.9-.5-1.1-.2-.2-.5-.4-1-.2-.4-.1 0-.2 0-.3.1 0-.1 0-.1 0-.1v-.1c.6-2-.1-3.8-.6-3.7-.4.1-.7.8-.9 1.8-.1 0-.1 0-.2 0h-.1c0-1.1.1-1.8 0-1.8s-.3.6-.5 1.7c-.5-1.1-1.3-1.7-1.6-1.5-.5.3-.2 1.3-.1 2.7-.3-.1-.6-.1-.8-.1.1-.3.1-.6.1-1 0-1.3-.4-2.3-1-2.3s-1 1-1 2.3c0 .6.1 1.1.2 1.5-.2-.1-.4-.1-.6-.2v-.5-.3-.1-.1c-.7-.1 1.2.1-.7-.1 0 0 0 0 0-.1l-.1-1.1v-.1-.1c-.9.4 1.1.7-1 .4v114.4z" fill="#32406d"/></svg>